<?xml version="1.0" encoding="utf-8"?>
<!-- Generator: Adobe Illustrator 23.0.3, SVG Export Plug-In . SVG Version: 6.00 Build 0)  -->
<svg version="1.1" id="Layer_1" xmlns="http://www.w3.org/2000/svg" xmlns:xlink="http://www.w3.org/1999/xlink" x="0px" y="0px"
	 viewBox="0 0 48 48" style="enable-background:new 0 0 48 48;" xml:space="preserve">
<title>spell check</title>
        <path
          fill="#666"
          d="M3.381 20l4.727-13.996h3.835l4.728 13.996h-3.619l-0.875-2.857h-4.398l-0.875 2.857zM11.408 14.605l-1.429-4.615-1.429 4.615zM30.221 15.714q0 1.043-0.395 1.833c-0.26 0.522-0.618 0.958-1.054 1.3l-0.008 0.006c-0.49 0.391-1.069 0.695-1.7 0.875l-0.035 0.008q-0.944 0.263-2.404 0.263h-5.599v-13.996h4.944q1.541 0 2.336 0.118c0.557 0.083 1.059 0.256 1.513 0.505l-0.023-0.012c0.477 0.247 0.861 0.616 1.118 1.067l0.007 0.013q0.371 0.677 0.371 1.562c0 0.016 0 0.036 0 0.055 0 0.656-0.191 1.268-0.521 1.782l0.008-0.013c-0.339 0.526-0.822 0.932-1.394 1.168l-0.020 0.007v0.075q1.297 0.272 2.078 1.114t0.778 2.267zM25.721 9.964c-0.004-0.255-0.068-0.493-0.178-0.704l0.004 0.009c-0.112-0.233-0.301-0.414-0.534-0.514l-0.007-0.003c-0.243-0.102-0.525-0.162-0.821-0.164h-0.001q-0.475-0.014-1.414-0.014h-0.244v2.958h0.442q0.902 0 1.264-0.019c0.276-0.018 0.531-0.089 0.762-0.203l-0.012 0.005q0.423-0.197 0.583-0.545c0.098-0.223 0.155-0.483 0.155-0.756 0-0.019-0-0.037-0.001-0.056l0 0.003zM26.604 15.652q0-0.649-0.263-1.015t-0.789-0.554q-0.319-0.125-0.879-0.136t-1.5-0.014h-0.651v3.506h0.188q1.375 0 1.899-0.019c0.391-0.018 0.757-0.11 1.090-0.261l-0.019 0.008c0.299-0.12 0.541-0.332 0.696-0.6l0.004-0.007c0.14-0.254 0.222-0.556 0.222-0.877 0-0.012-0-0.024-0-0.036l0 0.002zM39.229 20.277q-3.149 0-5-1.903t-1.854-5.357q0-3.328 1.856-5.306t5.005-1.979c0.023-0 0.050-0 0.077-0 0.503 0 0.998 0.034 1.483 0.1l-0.056-0.006c0.495 0.069 0.928 0.161 1.349 0.28l-0.071-0.017c0.42 0.127 0.767 0.259 1.102 0.409l-0.058-0.023q0.563 0.244 0.912 0.423v3.337h-0.357q-0.254-0.226-0.639-0.541c-0.256-0.209-0.542-0.412-0.84-0.596l-0.035-0.020c-0.308-0.191-0.663-0.364-1.036-0.5l-0.040-0.013c-0.361-0.134-0.779-0.211-1.214-0.211-0.004 0-0.009 0-0.013 0h0.001c-0.014-0-0.030-0-0.046-0-0.484 0-0.948 0.088-1.377 0.249l0.027-0.009q-0.634 0.239-1.208 0.832-0.526 0.536-0.86 1.447t-0.334 2.152q0 1.306 0.347 2.195t0.912 1.433c0.336 0.33 0.742 0.59 1.194 0.754l0.023 0.007c0.398 0.147 0.859 0.233 1.338 0.235h0.001c0.006 0 0.012 0 0.019 0 0.469 0 0.918-0.084 1.333-0.239l-0.026 0.009c0.407-0.144 0.757-0.317 1.084-0.525l-0.021 0.013c0.314-0.194 0.585-0.39 0.84-0.604l-0.011 0.009q0.357-0.301 0.621-0.536h0.319v3.29q-0.386 0.179-0.893 0.409c-0.283 0.133-0.629 0.266-0.985 0.375l-0.058 0.015c-0.324 0.105-0.738 0.209-1.161 0.289l-0.071 0.011q-0.574 0.106-1.579 0.106z"
        ></path>
        <path
          fill="#4575a6"
          d="M21.647 44l-12.418-12.418 4.174-4.174 8.244 8.244 18.575-18.575 4.174 4.174-22.749 22.749z"
        ></path>
</svg>
