<?xml version="1.0" encoding="utf-8"?>
<!-- Generator: Adobe Illustrator 23.0.3, SVG Export Plug-In . SVG Version: 6.00 Build 0)  -->
<svg version="1.1" id="Layer_1" xmlns="http://www.w3.org/2000/svg" xmlns:xlink="http://www.w3.org/1999/xlink" x="0px" y="0px"
	 viewBox="0 0 48 48" style="enable-background:new 0 0 48 48;" xml:space="preserve">
<title>scratchwork</title>
        <path d="M28.641 41.864c0 0.012 0 0.027 0 0.041 0 0.171-0.010 0.339-0.028 0.505l0.002-0.020c-0.014 0.132-0.042 0.252-0.083 0.366l0.003-0.011c-0.026 0.080-0.074 0.147-0.137 0.196l-0.001 0.001c-0.052 0.036-0.117 0.058-0.187 0.058-0.001 0-0.003 0-0.004-0h-7.902c-0.008 0-0.018 0-0.028 0-0.133 0-0.263-0.016-0.387-0.045l0.011 0.002c-0.111-0.026-0.205-0.084-0.276-0.164l-0-0.001c-0.078-0.099-0.132-0.219-0.153-0.351l-0.001-0.004c-0.031-0.164-0.048-0.353-0.048-0.546 0-0.021 0-0.042 0.001-0.063l-0 0.003c-0-0.013-0-0.029-0-0.044 0-0.196 0.012-0.389 0.034-0.579l-0.002 0.023c0.020-0.165 0.061-0.316 0.121-0.457l-0.004 0.011c0.064-0.146 0.137-0.272 0.222-0.388l-0.004 0.006c0.111-0.151 0.224-0.285 0.346-0.41l-0.001 0.001 2.379-2.549c0.402-0.412 0.778-0.853 1.123-1.32l0.024-0.034c0.238-0.322 0.464-0.687 0.659-1.070l0.021-0.045c0.137-0.267 0.252-0.577 0.329-0.901l0.006-0.028c0.055-0.242 0.088-0.52 0.090-0.805v-0.001c0-0.004 0-0.008 0-0.012 0-0.234-0.041-0.458-0.116-0.666l0.004 0.014c-0.075-0.212-0.188-0.394-0.33-0.548l0.001 0.001c-0.15-0.157-0.332-0.282-0.537-0.363l-0.010-0.004c-0.217-0.084-0.467-0.133-0.73-0.133-0.016 0-0.032 0-0.048 0.001l0.002-0c-0.019-0-0.041-0.001-0.064-0.001-0.373 0-0.733 0.058-1.071 0.165l0.025-0.007c-0.33 0.107-0.611 0.227-0.878 0.37l0.029-0.014q-0.366 0.197-0.611 0.361t-0.383 0.164c-0.002 0-0.003 0-0.005 0-0.062 0-0.118-0.024-0.16-0.063l0 0c-0.054-0.058-0.093-0.13-0.111-0.209l-0.001-0.003c-0.031-0.114-0.055-0.25-0.068-0.389l-0.001-0.009c-0.017-0.167-0.026-0.361-0.026-0.558 0-0.019 0-0.037 0-0.055v0.003q0-0.244 0.016-0.409c0.009-0.107 0.026-0.205 0.050-0.3l-0.003 0.013c0.020-0.081 0.049-0.151 0.087-0.216l-0.002 0.004c0.055-0.083 0.117-0.154 0.186-0.217l0.001-0.001c0.142-0.121 0.303-0.229 0.475-0.317l0.014-0.007c0.244-0.134 0.533-0.263 0.833-0.369l0.042-0.013c0.314-0.115 0.698-0.223 1.093-0.303l0.054-0.009c0.383-0.080 0.822-0.125 1.273-0.125 0.012 0 0.023 0 0.035 0h-0.002q1.073 0 1.875 0.271c0.516 0.167 0.96 0.424 1.337 0.757l-0.004-0.003c0.341 0.31 0.61 0.694 0.782 1.127l0.007 0.020c0.165 0.414 0.26 0.894 0.26 1.397 0 0.011-0 0.022-0 0.033v-0.002c0 0.005 0 0.012 0 0.018 0 0.459-0.046 0.908-0.132 1.342l0.007-0.043c-0.117 0.527-0.3 0.994-0.544 1.421l0.013-0.025c-0.355 0.629-0.731 1.171-1.151 1.675l0.014-0.018c-0.633 0.763-1.268 1.45-1.938 2.103l-0.006 0.006-1.604 1.646h5.416c0 0 0.001 0 0.002 0 0.073 0 0.141 0.023 0.196 0.063l-0.001-0.001c0.066 0.051 0.119 0.117 0.152 0.193l0.001 0.003c0.046 0.102 0.080 0.221 0.095 0.345l0.001 0.006c0.020 0.142 0.031 0.305 0.031 0.471 0 0.015-0 0.030-0 0.045v-0.002zM36 25h-24v2.037h24z"></path>
        <path
          fill="#008117"
          d="M32 23h-4v-2h2v-2h2zM26 21h-4v2h4zM20 21h-2v-2h-2v4h4zM18 11h-2v6h2zM18 7h2v-2h-4v4h2zM26 5h-4v2h4zM32 5h-4v2h2v2h2zM32 11h-2v6h2z"
        ></path>
</svg>
