<?xml version="1.0" encoding="utf-8"?>
<!-- Generator: Adobe Illustrator 23.0.3, SVG Export Plug-In . SVG Version: 6.00 Build 0)  -->
<svg version="1.1" id="Layer_1" xmlns="http://www.w3.org/2000/svg" xmlns:xlink="http://www.w3.org/1999/xlink" x="0px" y="0px"
	 viewBox="0 0 48 48" style="enable-background:new 0 0 48 48;" xml:space="preserve">
<title>scratchwork</title>
        <path
          fill="#900"
          d="M32.916 33.392l-0.098-0.021c-0.421-0.088-1.125-0.233-1.525-0.361 0.018-0.477 0.286-0.958 0.812-1.459 0.142-0.136 0.23-0.326 0.23-0.538 0-0.41-0.332-0.743-0.742-0.743-0.048 0-0.095 0.005-0.141 0.013l0.005-0.001c-0.173 0.032-0.4 0.076-0.661 0.128-0.563 0.111-1.701 0.336-2.598 0.469 0.506-0.456 1.176-0.938 1.695-1.313 1.209-0.868 1.937-1.392 1.991-2.090 0.002-0.022 0.003-0.048 0.003-0.075 0-0.203-0.064-0.392-0.172-0.547l0.002 0.003c-0.088-0.164-0.223-0.293-0.386-0.373l-0.005-0.002c-0.681-0.33-1.766 0.088-6.112 2.348-0.71 0.369-1.349 0.702-1.809 0.923-0.209 0.101-0.427 0.212-0.651 0.331v0c0.722-0.563 1.155-0.912 1.496-1.187 0.559-0.466 1.18-0.935 1.825-1.372l0.083-0.053c0.753-0.516 1.411-0.912 2.047-1.296 1.382-0.833 2.687-1.619 4.517-3.38 0.065-0.063 0.119-0.138 0.159-0.221l0.002-0.005c0.257-0.563-0.049-0.922-0.149-1.019-0.51-0.492-1.162-0.164-2.348 0.431-0.307 0.154-0.625 0.313-0.818 0.389-0.928 0.363-4.343 1.736-5.287 2.162-0.684 0.343-3.049 1.509-4.799 2.139-0.272 0.098-0.613 0.239-0.982 0.393 0.509-0.391 0.965-0.729 1.226-0.922 1.109-0.821 1.286-0.975 1.429-1.098 0.108-0.094 0.188-0.161 1.214-0.894 1.486-1.063 3.227-2.514 3.082-3.418-0.042-0.261-0.196-0.48-0.41-0.608l-0.004-0.002c-0.64-0.516-1.793 0.062-4.562 1.655-0.233 0.134-0.449 0.258-0.636 0.362-0.281 0.158-0.636 0.366-1.026 0.593-0.344 0.201-0.822 0.481-1.313 0.759 0.112-0.103 0.229-0.209 0.354-0.319 0.151-0.133 0.339-0.285 0.538-0.445 0.415-0.334 0.844-0.681 1.148-1.012 0.046-0.050 0.135-0.125 0.239-0.222 0.706-0.637 1.131-1.063 1.082-1.596-0.024-0.271-0.175-0.501-0.391-0.636l-0.004-0.002-0.010 0.016c-0.854-0.437-3.104 0.394-4.95 1.226-0.25 0.123-0.419 0.376-0.419 0.669 0 0.41 0.333 0.743 0.743 0.743 0.103 0 0.202-0.021 0.291-0.059l-0.005 0.002c0.531-0.239 1.224-0.5 1.879-0.722-0.172 0.146-0.359 0.298-0.535 0.437-0.216 0.174-0.422 0.341-0.588 0.487-2.395 2.116-2.38 2.777-2.375 3.059 0.003 0.253 0.108 0.481 0.277 0.645l0 0c0.577 0.615 1.465 0.195 4.789-1.75 0.382-0.223 0.728-0.426 1.004-0.581 0.188-0.107 0.41-0.233 0.647-0.369 0.158-0.090 0.355-0.204 0.574-0.329-0.098 0.074-0.192 0.143-0.278 0.205-1.086 0.773-1.171 0.847-1.326 0.981-0.109 0.096-0.276 0.239-1.339 1.026-1.293 0.958-3.099 2.329-3.851 3.167-0.071 0.079-0.126 0.174-0.158 0.279l-0.001 0.005c-0.029 0.084-0.046 0.18-0.046 0.28 0 0.257 0.11 0.488 0.286 0.649l0.001 0.001c0.552 0.496 1.355 0.219 3.695-0.766 0.467-0.197 0.909-0.382 1.219-0.495 1.826-0.658 4.259-1.856 4.933-2.195 0.483-0.218 1.736-0.732 2.912-1.208l-0.394 0.238c-0.654 0.394-1.331 0.802-2.125 1.343-1.082 0.746-1.408 1.012-2 1.493-0.335 0.273-0.759 0.617-1.469 1.169l-0.509 0.393c-1.688 1.296-2.725 2.094-2.49 3.012 0.043 0.276 0.21 0.507 0.441 0.636l0.004 0.002c0.625 0.351 1.449-0.071 3.247-1.063 0.518-0.285 1.054-0.58 1.512-0.801 0.47-0.226 1.125-0.563 1.85-0.944 0.619-0.321 1.453-0.755 2.267-1.159-1.037 0.779-1.946 1.596-2.148 2.504-0.011 0.049-0.018 0.105-0.018 0.162 0 0.246 0.119 0.463 0.303 0.598l0.002 0.001c0.4 0.291 1.039 0.313 3.675-0.177-0.109 0.292-0.173 0.629-0.173 0.98 0 0.212 0.023 0.419 0.067 0.618l-0.004-0.019c0.040 0.185 0.145 0.341 0.29 0.446l0.002 0.002c0.417 0.301 1.168 0.471 2.354 0.718l0.098 0.020c0.045 0.010 0.096 0.016 0.149 0.016 0.001 0 0.002 0 0.003 0h-0c0 0 0 0 0 0 0.41 0 0.743-0.333 0.743-0.743 0-0.358-0.253-0.657-0.59-0.727l-0.005-0.001z"
        ></path>
        <path d="M36 9h-2v-2c0-1.105-0.895-2-2-2s-2 0.895-2 2v0 2h-4v-2c0-1.105-0.895-2-2-2s-2 0.895-2 2v0 2h-4v-2c0-1.105-0.895-2-2-2s-2 0.895-2 2v0 2h-2c-2.76 0.003-4.997 2.24-5 5v24c0.003 2.76 2.24 4.997 5 5h24c2.76-0.003 4.997-2.24 5-5v-24c-0.003-2.76-2.24-4.997-5-5h-0zM37 38c0 0.552-0.448 1-1 1v0h-24c-0.552 0-1-0.448-1-1v0-24c0-0.552 0.448-1 1-1v0h2v1c0 1.105 0.895 2 2 2s2-0.895 2-2v0-1h4v1c0 1.105 0.895 2 2 2s2-0.895 2-2v0-1h4v1c0 1.105 0.895 2 2 2s2-0.895 2-2v0-1h2c0.552 0 1 0.448 1 1v0z"></path>
</svg>
