<?xml version="1.0" encoding="utf-8"?>
<svg version="1.1" id="Layer_1" xmlns="http://www.w3.org/2000/svg" xmlns:xlink="http://www.w3.org/1999/xlink" x="0px" y="0px" viewBox="0 0 768 768" style="enable-background:new 0 0 768 768;" xml:space="preserve">
<path fill="#3f3f3f" d="M279.6,368H64v112h32v-8c0-26.5,21.5-48,48-48h32v232h-48v32h176v-32h-48V424h32c26.5,0,48,21.5,48,48v8h32v-60.6 C334.1,411.4,303.3,393.5,279.6,368z"/>
<path fill="#1565C0" d="M560,80H416c-88,0-160,72-160,160l0,0c0,82.6,63.4,151.1,144,159.2V504c0,4.4,3.6,8,8,8c2.5,0,4.9-1.2,6.4-3.2 L496,400h64c88,0,160-72,160-160l0,0C720,152,648,80,560,80z M368,280c-22.1,0-40-17.9-40-40s17.9-40,40-40s40,17.9,40,40 S390.1,280,368,280z M488,280c-22.1,0-40-17.9-40-40s17.9-40,40-40s40,17.9,40,40S510.1,280,488,280z M608,280 c-22.1,0-40-17.9-40-40s17.9-40,40-40s40,17.9,40,40S630.1,280,608,280z"/>
</svg>
