<?xml version="1.0" encoding="utf-8"?>
<svg version="1.1" id="Layer_1" xmlns="http://www.w3.org/2000/svg" xmlns:xlink="http://www.w3.org/1999/xlink" x="0px" y="0px" viewBox="0 0 768 768" style="enable-background:new 0 0 768 768;" xml:space="preserve">
<path fill="#3f3f3f" d="M572.2,409.4c0.1,1.4-0.6,2.8-1.7,3.7c-1.6,1.1-3.4,1.8-5.3,2c-3.6,0.5-7.2,0.7-10.8,0.6c-3.7,0.1-7.4-0.1-11.1-0.6
	c-1.8-0.2-3.5-0.9-4.9-2c-1-1-1.5-2.3-1.4-3.7v-12.1c-6,6.5-13.3,11.8-21.3,15.6c-8.3,3.8-17.4,5.7-26.6,5.6c-7.5,0.1-15-1-22.2-3.1
	c-6.4-1.9-12.4-5.1-17.5-9.4c-5-4.2-8.9-9.4-11.5-15.4c-2.8-6.8-4.2-14.1-4.1-21.4c0-8.8,1.7-16.5,5.2-23
	c3.6-6.7,8.9-12.2,15.5-16.1c6.9-4.2,15.4-7.4,25.6-9.4c11.7-2.2,23.6-3.2,35.5-3.1h14.8v-9.2c0.1-4.2-0.4-8.4-1.4-12.5
	c-0.8-3.3-2.5-6.4-4.8-8.9c-2.4-2.5-5.5-4.3-8.8-5.3c-4.5-1.2-9.1-1.8-13.7-1.7c-6.5-0.1-12.9,0.7-19.1,2.4
	c-5.1,1.4-10,3.2-14.9,5.3c-4.3,1.9-7.9,3.7-10.8,5.2c-2.9,1.6-5.2,2.4-7,2.4c-1.2,0-2.4-0.4-3.3-1.2c-1.1-0.9-1.9-2.1-2.4-3.4
	c-0.7-1.7-1.2-3.6-1.4-5.4c-0.4-2.4-0.5-4.8-0.5-7.1c-0.1-2.8,0.2-5.6,0.9-8.3c0.6-2.1,1.7-4,3.2-5.5c1.6-1.6,4.4-3.5,8.3-5.4
	c4.5-2.2,9.2-4,13.9-5.5c5.7-1.8,11.5-3.2,17.4-4.2c6.4-1.1,12.9-1.6,19.5-1.6c11.9,0,22.1,1.2,30.5,3.5c8.4,2.3,15.4,5.9,20.8,10.7
	c5.6,5,9.7,11.4,11.9,18.6c2.5,7.6,3.7,16.6,3.7,27L572.2,409.4z M530.2,344.5h-16.3c-5.9-0.1-11.8,0.4-17.7,1.5
	c-4.2,0.8-8.3,2.3-11.9,4.6c-2.9,1.8-5.2,4.4-6.7,7.4c-1.5,3.1-2.2,6.5-2.1,9.9c0,6.3,2,11.3,6,15c4,3.7,9.6,5.5,16.7,5.4
	c5.8,0,11.6-1.5,16.6-4.6c5.8-3.7,10.9-8.2,15.4-13.4L530.2,344.5z M233.6,346c-4.2,0.8-8.3,2.3-11.9,4.6c-2.9,1.8-5.2,4.4-6.7,7.4
	c-1.5,3.1-2.2,6.5-2.1,9.9c0,6.3,2,11.3,6,15s9.6,5.5,16.7,5.4c5.8,0,11.6-1.5,16.6-4.6c5.8-3.7,10.9-8.2,15.4-13.4v-25.9h-16.3
	C245.3,344.4,239.4,344.9,233.6,346z M688,528V128H80v400h256v64h-80v48h256v-48h-80v-64H688z M309.5,409.4c0.1,1.4-0.6,2.8-1.7,3.7
	c-1.6,1.1-3.4,1.8-5.4,2c-3.6,0.5-7.2,0.7-10.8,0.6c-3.7,0.1-7.4-0.1-11.1-0.6c-1.8-0.2-3.5-0.9-4.9-2c-1-1-1.5-2.3-1.4-3.7v-12.1
	c-6,6.5-13.3,11.8-21.3,15.6c-8.3,3.8-17.4,5.7-26.6,5.6c-7.5,0.1-15-1-22.2-3.1c-6.4-1.9-12.4-5.1-17.5-9.4
	c-5-4.2-8.9-9.4-11.5-15.4c-2.8-6.8-4.2-14.1-4.1-21.4c0-8.8,1.7-16.5,5.2-23c3.6-6.7,8.9-12.2,15.5-16.1c6.9-4.2,15.4-7.4,25.6-9.4
	c11.7-2.2,23.6-3.2,35.5-3.1h14.8v-9.2c0.1-4.2-0.4-8.4-1.4-12.5c-0.8-3.3-2.5-6.4-4.8-8.9c-2.4-2.5-5.5-4.3-8.8-5.3
	c-4.5-1.2-9.1-1.8-13.7-1.7c-6.5-0.1-12.9,0.7-19.1,2.4c-5.1,1.4-10,3.2-14.9,5.3c-4.3,1.9-7.9,3.7-10.8,5.3s-5.2,2.4-7.1,2.4
	c-1.2,0-2.4-0.4-3.3-1.2c-1.1-0.9-1.9-2.1-2.4-3.4c-0.7-1.7-1.2-3.6-1.4-5.4c-0.4-2.4-0.5-4.8-0.5-7.1c-0.1-2.8,0.2-5.6,0.9-8.3
	c0.6-2.1,1.7-4,3.2-5.5c1.6-1.6,4.4-3.5,8.3-5.4c4.5-2.2,9.2-4,13.9-5.5c5.7-1.8,11.5-3.2,17.4-4.2c6.4-1.1,12.9-1.6,19.5-1.6
	c11.9,0,22.1,1.2,30.5,3.5c8.4,2.3,15.4,5.9,20.8,10.7c5.6,5,9.7,11.4,11.9,18.6c2.5,7.6,3.7,16.6,3.7,27L309.5,409.4z M384,480V176
	h256v304H384z"/>
</svg>
