<?xml version="1.0" encoding="utf-8"?>
<!-- Generator: Adobe Illustrator 23.0.3, SVG Export Plug-In . SVG Version: 6.00 Build 0)  -->
<svg version="1.1" id="Layer_1" xmlns="http://www.w3.org/2000/svg" xmlns:xlink="http://www.w3.org/1999/xlink" x="0px" y="0px"
	 viewBox="0 0 48 48" style="enable-background:new 0 0 48 48;" xml:space="preserve">
<title>copy</title>
        <path
          fill="#fff"
          d="M35.586 13h-6.586v-4.586l-5.414-5.414h-18.586v32h14v10h24v-24.586l-7.414-7.414z"
        ></path>
        <path
          fill="#666"
          d="M36 12h-6v-4l-6-6h-20v34h14v10h26v-26zM36 14.828l5.172 5.172h-5.172zM6 34v-30h17.172l4.828 4.828v3.172h-10v22zM42 44h-22v-30h14v8h8z"
        ></path>
        <path
          fill="#4575a6"
          d="M32 22h-9.688v-2h9.688zM40 24h-18v2h18zM40 28h-18v2h18zM40 32h-18v2h18zM40 36h-18v2h18z"
        ></path>
</svg>
