<?xml version="1.0" encoding="utf-8"?>
<!-- Generator: Adobe Illustrator 23.0.3, SVG Export Plug-In . SVG Version: 6.00 Build 0)  -->
<svg version="1.1" id="Layer_1" xmlns="http://www.w3.org/2000/svg" xmlns:xlink="http://www.w3.org/1999/xlink" x="0px" y="0px"
	 viewBox="0 0 48 48" style="enable-background:new 0 0 48 48;" xml:space="preserve">
<title>lang-esp</title>
<path fill="#3f3f3f" d="M7.097 42.239c0 0.008 0 0.018 0 0.027 0 0.117-0.006 0.232-0.018 0.345l0.001-0.014c-0.008 0.086-0.026 0.165-0.052 0.24l0.002-0.007c-0.017 0.051-0.045 0.095-0.083 0.129l-0 0c-0.029 0.025-0.067 0.040-0.109 0.041h-4.32c-0.004 0-0.009 0-0.013 0-0.138 0-0.264-0.055-0.356-0.144l0 0q-0.149-0.144-0.149-0.469v-8.331q0-0.325 0.149-0.469c0.092-0.089 0.217-0.144 0.356-0.144 0.005 0 0.009 0 0.014 0h4.294c0 0 0.001 0 0.002 0 0.040 0 0.076 0.014 0.105 0.037l-0-0c0.037 0.034 0.065 0.078 0.079 0.127l0.001 0.002c0.024 0.069 0.041 0.149 0.050 0.232l0 0.005c0.011 0.1 0.017 0.217 0.017 0.335 0 0.011-0 0.022-0 0.032v-0.002c0 0.007 0 0.016 0 0.025 0 0.115-0.006 0.228-0.018 0.34l0.001-0.014c-0.008 0.086-0.026 0.165-0.052 0.24l0.002-0.007c-0.017 0.051-0.044 0.094-0.080 0.129l-0 0c-0.028 0.025-0.065 0.041-0.105 0.041-0 0-0.001 0-0.001 0h-3.071v2.334h2.599c0.042 0 0.080 0.016 0.11 0.041l-0-0c0.037 0.033 0.066 0.075 0.082 0.123l0.001 0.002c0.024 0.067 0.042 0.144 0.050 0.225l0 0.004c0.011 0.106 0.017 0.228 0.017 0.352s-0.006 0.247-0.018 0.368l0.001-0.015c-0.008 0.083-0.026 0.159-0.052 0.232l0.002-0.007c-0.017 0.049-0.045 0.090-0.083 0.122l-0 0c-0.030 0.023-0.068 0.037-0.109 0.037-0 0-0 0-0 0v0h-2.599v2.696h3.097c0.042 0 0.080 0.016 0.11 0.041l-0-0c0.038 0.034 0.066 0.078 0.083 0.127l0.001 0.002c0.024 0.068 0.042 0.147 0.050 0.228l0 0.004c0.010 0.098 0.016 0.211 0.016 0.326 0 0.012-0 0.024-0 0.036v-0.002zM12.986 40.888c0 0.016 0.001 0.034 0.001 0.053 0 0.338-0.069 0.66-0.194 0.952l0.006-0.016c-0.125 0.285-0.307 0.525-0.532 0.714l-0.003 0.002c-0.23 0.19-0.503 0.338-0.801 0.428l-0.016 0.004c-0.306 0.091-0.658 0.144-1.021 0.144-0.225 0-0.445-0.020-0.659-0.059l0.022 0.003c-0.209-0.037-0.391-0.086-0.567-0.148l0.025 0.008c-0.155-0.053-0.287-0.112-0.413-0.181l0.014 0.007c-0.089-0.046-0.166-0.102-0.233-0.167l0 0c-0.056-0.067-0.096-0.15-0.113-0.24l-0.001-0.003c-0.026-0.129-0.041-0.276-0.041-0.428 0-0.022 0-0.045 0.001-0.067l-0 0.003q0-0.214 0.013-0.344c0.006-0.076 0.020-0.147 0.042-0.214l-0.002 0.007c0.011-0.042 0.034-0.077 0.066-0.103l0-0c0.026-0.016 0.059-0.026 0.093-0.026 0.002 0 0.005 0 0.007 0h-0c0.083 0.013 0.156 0.046 0.217 0.093l-0.001-0.001q0.143 0.092 0.356 0.203c0.137 0.072 0.301 0.142 0.47 0.2l0.025 0.007c0.183 0.061 0.393 0.096 0.612 0.096 0.010 0 0.021-0 0.031-0h-0.002c0.006 0 0.013 0 0.020 0 0.136 0 0.267-0.019 0.392-0.054l-0.010 0.002c0.117-0.033 0.218-0.084 0.308-0.149l-0.003 0.002c0.085-0.063 0.152-0.145 0.195-0.24l0.002-0.004c0.042-0.095 0.066-0.207 0.066-0.323 0-0.006-0-0.012-0-0.017v0.001c0-0.004 0-0.008 0-0.013 0-0.139-0.047-0.267-0.126-0.369l0.001 0.001c-0.090-0.112-0.198-0.204-0.32-0.274l-0.005-0.003c-0.127-0.075-0.278-0.149-0.435-0.213l-0.024-0.009q-0.256-0.103-0.525-0.229c-0.206-0.097-0.378-0.193-0.543-0.299l0.018 0.011c-0.176-0.113-0.327-0.245-0.456-0.396l-0.002-0.003c-0.136-0.161-0.247-0.35-0.322-0.556l-0.004-0.013c-0.080-0.223-0.125-0.481-0.125-0.75 0-0.017 0-0.034 0.001-0.050l-0 0.002c-0-0.007-0-0.016-0-0.025 0-0.304 0.061-0.593 0.172-0.857l-0.005 0.015c0.112-0.267 0.275-0.492 0.477-0.674l0.002-0.002c0.213-0.189 0.467-0.338 0.746-0.433l0.015-0.005c0.288-0.098 0.619-0.155 0.964-0.155 0.015 0 0.030 0 0.045 0l-0.002-0c0.002 0 0.004 0 0.007 0 0.189 0 0.374 0.016 0.555 0.047l-0.019-0.003c0.185 0.030 0.345 0.069 0.501 0.118l-0.026-0.007c0.139 0.042 0.258 0.091 0.371 0.149l-0.012-0.006c0.080 0.040 0.148 0.084 0.212 0.135l-0.002-0.002c0.037 0.030 0.067 0.067 0.089 0.109l0.001 0.002c0.018 0.039 0.032 0.083 0.040 0.13l0 0.003q0.013 0.077 0.023 0.192t0.010 0.284q0 0.199-0.010 0.325c-0.004 0.073-0.016 0.141-0.035 0.206l0.002-0.007c-0.009 0.041-0.032 0.075-0.062 0.1l-0 0c-0.025 0.016-0.056 0.026-0.089 0.026-0.001 0-0.003 0-0.004-0h0c-0.071-0.011-0.135-0.039-0.189-0.078l0.001 0.001c-0.086-0.053-0.189-0.108-0.296-0.158l-0.020-0.008c-0.119-0.057-0.264-0.113-0.413-0.16l-0.025-0.007c-0.161-0.049-0.347-0.078-0.539-0.078-0.010 0-0.020 0-0.030 0h0.002c-0.007-0-0.015-0-0.023-0-0.131 0-0.258 0.019-0.378 0.054l0.009-0.002c-0.105 0.031-0.197 0.082-0.273 0.148l0.001-0.001c-0.068 0.061-0.122 0.136-0.158 0.221l-0.002 0.004c-0.034 0.080-0.053 0.174-0.053 0.272 0 0.002 0 0.004 0 0.006v-0c-0 0.006-0 0.013-0 0.021 0 0.138 0.047 0.264 0.126 0.364l-0.001-0.001c0.092 0.11 0.203 0.201 0.327 0.27l0.006 0.003c0.13 0.075 0.285 0.15 0.445 0.213l0.024 0.008q0.262 0.104 0.532 0.225c0.21 0.096 0.384 0.191 0.551 0.296l-0.019-0.011c0.18 0.112 0.334 0.245 0.467 0.396l0.002 0.002c0.138 0.16 0.25 0.346 0.328 0.55l0.004 0.013c0.082 0.219 0.129 0.472 0.129 0.736 0 0.017-0 0.034-0.001 0.051l0-0.003zM20.486 39.359c0 0.017 0 0.036 0 0.056 0 0.542-0.063 1.069-0.183 1.574l0.009-0.046c-0.103 0.454-0.274 0.856-0.504 1.215l0.009-0.015c-0.396 0.621-1.080 1.027-1.86 1.027-0.021 0-0.042-0-0.064-0.001l0.003 0c-0.005 0-0.011 0-0.017 0-0.163 0-0.321-0.020-0.472-0.059l0.013 0.003c-0.159-0.042-0.298-0.1-0.427-0.174l0.008 0.004c-0.152-0.088-0.284-0.182-0.405-0.287l0.003 0.003c-0.148-0.128-0.282-0.258-0.409-0.395l-0.003-0.003v3.102c0 0.001 0 0.002 0 0.003 0 0.049-0.015 0.094-0.041 0.131l0.001-0.001c-0.035 0.045-0.081 0.080-0.134 0.099l-0.002 0.001c-0.074 0.029-0.161 0.051-0.251 0.062l-0.005 0c-0.122 0.014-0.263 0.022-0.406 0.022s-0.284-0.008-0.423-0.024l0.017 0.002c-0.095-0.011-0.181-0.033-0.263-0.065l0.007 0.002c-0.055-0.020-0.102-0.055-0.136-0.099l-0.001-0.001c-0.025-0.037-0.040-0.082-0.040-0.13 0-0.001 0-0.002 0-0.003v0-9.201c-0-0.004-0-0.008-0-0.012 0-0.097 0.062-0.179 0.148-0.209l0.002-0c0.064-0.027 0.138-0.046 0.216-0.055l0.004-0c0.093-0.012 0.201-0.018 0.311-0.018 0.011 0 0.022 0 0.034 0h-0.002c0.009-0 0.019-0 0.029-0 0.108 0 0.215 0.007 0.319 0.020l-0.013-0.001c0.081 0.009 0.155 0.029 0.225 0.058l-0.005-0.002c0.088 0.031 0.15 0.113 0.15 0.209 0 0.004-0 0.008-0 0.012l0-0.001v0.776c0.163-0.186 0.329-0.356 0.504-0.516l0.005-0.004c0.15-0.137 0.317-0.261 0.495-0.367l0.014-0.008c0.154-0.092 0.332-0.169 0.52-0.221l0.015-0.004c0.172-0.047 0.37-0.074 0.574-0.074 0.005 0 0.010 0 0.015 0h-0.001q0.651 0 1.11 0.284c0.312 0.196 0.565 0.459 0.744 0.769l0.006 0.011c0.192 0.332 0.339 0.718 0.418 1.128l0.004 0.024c0.084 0.41 0.133 0.881 0.133 1.364 0 0.013-0 0.026-0 0.039v-0.002zM18.745 39.493c0-0.005 0-0.010 0-0.016 0-0.28-0.020-0.555-0.060-0.823l0.004 0.031c-0.035-0.256-0.103-0.488-0.199-0.704l0.007 0.017c-0.083-0.193-0.205-0.354-0.357-0.482l-0.002-0.002c-0.143-0.113-0.326-0.181-0.525-0.181-0.010 0-0.021 0-0.031 0.001l0.001-0c-0.118 0-0.231 0.021-0.336 0.058l0.007-0.002c-0.127 0.046-0.237 0.107-0.335 0.183l0.003-0.002c-0.129 0.099-0.243 0.206-0.347 0.322l-0.002 0.003c-0.13 0.148-0.255 0.309-0.368 0.478l-0.010 0.017v2.171c0.198 0.289 0.419 0.539 0.667 0.761l0.004 0.004c0.175 0.161 0.407 0.262 0.663 0.269l0.001 0c0.006 0 0.013 0 0.020 0 0.203 0 0.39-0.071 0.537-0.189l-0.002 0.001c0.157-0.13 0.284-0.292 0.371-0.475l0.004-0.008c0.096-0.195 0.171-0.422 0.214-0.66l0.002-0.016c0.043-0.222 0.067-0.478 0.067-0.74 0-0.005 0-0.010-0-0.015v0.001zM27.146 42.771c0 0.003 0 0.007 0 0.011 0 0.060-0.026 0.114-0.066 0.152l-0 0c-0.058 0.045-0.129 0.075-0.207 0.085l-0.002 0c-0.11 0.017-0.237 0.026-0.366 0.026-0.020 0-0.039-0-0.059-0.001l0.003 0c-0.020 0.001-0.044 0.001-0.068 0.001-0.131 0-0.259-0.010-0.384-0.028l0.014 0.002c-0.074-0.009-0.14-0.040-0.193-0.085l0 0c-0.035-0.040-0.057-0.092-0.057-0.149 0-0.005 0-0.009 0-0.014l-0 0.001v-0.524c-0.229 0.277-0.506 0.504-0.82 0.672l-0.015 0.007c-0.294 0.154-0.642 0.244-1.012 0.244-0.010 0-0.020-0-0.030-0h0.002c-0.008 0-0.018 0-0.028 0-0.3 0-0.589-0.050-0.858-0.143l0.019 0.006c-0.267-0.091-0.496-0.229-0.689-0.407l0.001 0.001c-0.193-0.183-0.346-0.406-0.444-0.656l-0.004-0.012c-0.101-0.261-0.16-0.563-0.16-0.879 0-0.018 0-0.036 0.001-0.054l-0 0.003c-0-0.016-0.001-0.035-0.001-0.055 0-0.342 0.075-0.668 0.209-0.96l-0.006 0.014c0.14-0.288 0.346-0.525 0.599-0.698l0.006-0.004c0.286-0.19 0.621-0.333 0.982-0.407l0.018-0.003c0.393-0.085 0.844-0.134 1.307-0.134 0.029 0 0.058 0 0.087 0.001l-0.004-0h0.578v-0.399c0-0.010 0-0.022 0-0.034 0-0.18-0.021-0.356-0.060-0.524l0.003 0.016c-0.034-0.149-0.099-0.279-0.189-0.389l0.001 0.002c-0.090-0.105-0.207-0.184-0.34-0.227l-0.005-0.002c-0.147-0.047-0.317-0.074-0.493-0.074-0.015 0-0.029 0-0.044 0.001l0.002-0c-0.012-0-0.026-0-0.039-0-0.253 0-0.498 0.038-0.728 0.108l0.018-0.005c-0.228 0.070-0.421 0.148-0.605 0.239l0.024-0.011q-0.25 0.125-0.422 0.229c-0.077 0.055-0.171 0.092-0.273 0.103l-0.002 0c-0.050-0-0.096-0.020-0.129-0.052l0 0c-0.041-0.040-0.073-0.090-0.092-0.145l-0.001-0.003c-0.025-0.068-0.045-0.148-0.056-0.231l-0.001-0.005c-0.013-0.089-0.020-0.192-0.020-0.297 0-0.005 0-0.011 0-0.016v0.001c-0-0.012-0.001-0.026-0.001-0.040 0-0.114 0.012-0.225 0.036-0.332l-0.002 0.010c0.023-0.093 0.067-0.174 0.126-0.241l-0.001 0.001c0.093-0.094 0.2-0.173 0.319-0.233l0.007-0.003c0.153-0.085 0.333-0.166 0.52-0.232l0.025-0.008c0.189-0.069 0.417-0.132 0.652-0.177l0.029-0.005c0.226-0.045 0.486-0.070 0.752-0.070 0.003 0 0.007 0 0.010 0h-0.001c0.025-0.001 0.055-0.001 0.085-0.001 0.395 0 0.776 0.056 1.138 0.159l-0.029-0.007c0.317 0.092 0.591 0.253 0.813 0.466l-0.001-0.001c0.22 0.219 0.385 0.492 0.472 0.798l0.003 0.013c0.093 0.329 0.147 0.707 0.147 1.098 0 0.027-0 0.054-0.001 0.081l0-0.004zM25.5 39.95h-0.636c-0.016-0-0.034-0-0.052-0-0.226 0-0.447 0.024-0.66 0.070l0.020-0.004c-0.177 0.037-0.333 0.106-0.469 0.202l0.004-0.003c-0.113 0.082-0.203 0.19-0.26 0.316l-0.002 0.005c-0.053 0.122-0.083 0.263-0.083 0.412 0 0.007 0 0.014 0 0.020v-0.001q0 0.414 0.236 0.65t0.652 0.236c0.002 0 0.004 0 0.005 0 0.24 0 0.463-0.075 0.647-0.202l-0.004 0.002c0.231-0.166 0.429-0.359 0.596-0.576l0.005-0.007zM34.75 42.75c0 0.001 0 0.003 0 0.004 0 0.047-0.015 0.090-0.041 0.126l0-0.001c-0.034 0.042-0.079 0.074-0.131 0.092l-0.002 0.001c-0.075 0.027-0.162 0.047-0.252 0.055l-0.004 0c-0.11 0.012-0.238 0.018-0.367 0.018-0.012 0-0.025-0-0.037-0h0.002c-0.011 0-0.025 0-0.038 0-0.131 0-0.26-0.007-0.387-0.020l0.016 0.001c-0.094-0.008-0.181-0.028-0.263-0.058l0.007 0.002c-0.054-0.018-0.099-0.050-0.133-0.092l-0-0.001c-0.025-0.035-0.040-0.078-0.040-0.125 0-0.002 0-0.003 0-0.004v0-3.76c0.001-0.026 0.001-0.057 0.001-0.088 0-0.235-0.023-0.465-0.067-0.688l0.004 0.022c-0.039-0.177-0.102-0.334-0.186-0.476l0.004 0.007c-0.076-0.127-0.181-0.229-0.305-0.301l-0.004-0.002c-0.122-0.067-0.267-0.107-0.422-0.107-0.007 0-0.014 0-0.021 0h0.001q-0.319 0-0.645 0.259c-0.258 0.219-0.482 0.466-0.67 0.74l-0.008 0.013v4.38c0 0.001 0 0.003 0 0.004 0 0.047-0.015 0.090-0.041 0.126l0-0.001c-0.035 0.042-0.081 0.075-0.134 0.092l-0.002 0.001c-0.075 0.027-0.161 0.047-0.251 0.055l-0.004 0c-0.122 0.012-0.263 0.019-0.406 0.019s-0.284-0.007-0.424-0.020l0.018 0.001c-0.094-0.009-0.181-0.029-0.263-0.058l0.008 0.002c-0.055-0.018-0.101-0.050-0.136-0.092l-0-0.001c-0.025-0.035-0.040-0.078-0.040-0.125 0-0.002 0-0.003 0-0.004v0-6.589c-0-0.004-0-0.008-0-0.012 0-0.098 0.064-0.18 0.152-0.208l0.002-0c0.065-0.026 0.14-0.046 0.218-0.055l0.004-0c0.093-0.012 0.201-0.018 0.311-0.018 0.011 0 0.022 0 0.034 0h-0.002c0.010-0 0.022-0 0.033-0 0.112 0 0.223 0.007 0.332 0.020l-0.013-0.001c0.080 0.008 0.153 0.028 0.221 0.057l-0.005-0.002c0.045 0.020 0.083 0.052 0.109 0.092l0.001 0.001c0.021 0.036 0.033 0.079 0.033 0.124 0 0.002 0 0.003-0 0.005v-0 0.761q0.492-0.591 1-0.886c0.303-0.185 0.67-0.294 1.062-0.296h0q0.605 0 1.020 0.221c0.272 0.146 0.496 0.349 0.663 0.594l0.004 0.006c0.169 0.255 0.297 0.553 0.366 0.873l0.003 0.017c0.074 0.346 0.117 0.744 0.117 1.152 0 0.026-0 0.052-0.001 0.079l0-0.004zM34.291 33.134q0 0.894-0.383 1.37t-1.063 0.476c-0.007 0-0.016 0-0.024 0-0.155 0-0.304-0.022-0.446-0.062l0.011 0.003c-0.137-0.040-0.256-0.093-0.366-0.159l0.007 0.004c-0.11-0.066-0.204-0.133-0.293-0.206l0.004 0.003q-0.129-0.107-0.25-0.199c-0.069-0.054-0.146-0.105-0.227-0.15l-0.009-0.005c-0.071-0.039-0.156-0.063-0.247-0.063-0.001 0-0.002 0-0.004 0h0c-0.007-0.001-0.015-0.001-0.024-0.001-0.125 0-0.233 0.070-0.288 0.173l-0.001 0.002c-0.059 0.121-0.094 0.264-0.094 0.414 0 0.014 0 0.028 0.001 0.042l-0-0.002c0 0.003 0 0.006 0 0.010 0 0.035-0.009 0.069-0.024 0.098l0.001-0.001c-0.019 0.029-0.046 0.051-0.079 0.062l-0.001 0c-0.047 0.017-0.102 0.027-0.158 0.029l-0.001 0q-0.103 0.008-0.263 0.008c-0.005 0-0.012 0-0.018 0-0.077 0-0.152-0.004-0.227-0.012l0.009 0.001c-0.057-0.004-0.109-0.020-0.155-0.045l0.002 0.001c-0.037-0.021-0.066-0.053-0.083-0.091l-0.001-0.001c-0.017-0.042-0.027-0.090-0.027-0.141 0-0.005 0-0.010 0-0.014v0.001q0-0.857 0.375-1.348t1.063-0.491c0.013-0 0.028-0.001 0.043-0.001 0.217 0 0.423 0.048 0.608 0.134l-0.009-0.004c0.177 0.087 0.33 0.183 0.471 0.293l-0.006-0.004q0.203 0.159 0.375 0.288c0.098 0.079 0.222 0.127 0.358 0.129h0.001c0.004 0 0.010 0 0.015 0 0.122 0 0.229-0.063 0.29-0.158l0.001-0.001q0.106-0.159 0.106-0.469c-0.001-0.005-0.001-0.011-0.001-0.017 0-0.067 0.041-0.125 0.1-0.149l0.001-0q0.1-0.041 0.406-0.041t0.409 0.056q0.111 0.054 0.111 0.239zM42.656 39.389c0 0.018 0 0.039 0 0.060 0 0.525-0.073 1.033-0.209 1.515l0.009-0.039c-0.128 0.459-0.336 0.859-0.61 1.203l0.005-0.007c-0.27 0.332-0.61 0.595-1 0.769l-0.017 0.007q-0.612 0.273-1.429 0.273-0.791 0-1.375-0.244c-0.387-0.16-0.712-0.402-0.965-0.705l-0.003-0.004c-0.26-0.321-0.458-0.705-0.567-1.124l-0.005-0.021c-0.119-0.443-0.188-0.951-0.188-1.475 0-0.026 0-0.053 0.001-0.079l-0 0.004c-0-0.018-0-0.038-0-0.059 0-0.527 0.074-1.037 0.212-1.52l-0.010 0.039c0.129-0.459 0.338-0.859 0.613-1.203l-0.005 0.007c0.269-0.329 0.608-0.59 0.994-0.764l0.017-0.007q0.608-0.273 1.426-0.273 0.797 0 1.382 0.24c0.388 0.157 0.713 0.399 0.966 0.703l0.003 0.004c0.258 0.322 0.454 0.705 0.563 1.124l0.005 0.021c0.119 0.443 0.187 0.951 0.187 1.475 0 0.029-0 0.057-0.001 0.085l0-0.004zM40.937 39.463c0-0.006 0-0.014 0-0.021 0-0.31-0.026-0.615-0.077-0.911l0.005 0.032c-0.042-0.267-0.125-0.506-0.242-0.725l0.006 0.012c-0.106-0.196-0.256-0.355-0.437-0.469l-0.005-0.003c-0.185-0.107-0.408-0.171-0.646-0.171-0.017 0-0.034 0-0.051 0.001l0.002-0c-0.009-0-0.020-0-0.031-0-0.227 0-0.44 0.056-0.628 0.155l0.007-0.004c-0.191 0.107-0.346 0.257-0.456 0.438l-0.003 0.005c-0.122 0.202-0.215 0.437-0.267 0.687l-0.003 0.015c-0.057 0.265-0.090 0.57-0.090 0.883 0 0.018 0 0.036 0 0.054l-0-0.003c-0 0.010-0 0.023-0 0.035 0 0.305 0.027 0.603 0.078 0.893l-0.005-0.031c0.044 0.267 0.127 0.506 0.242 0.725l-0.006-0.013c0.104 0.196 0.254 0.355 0.437 0.466l0.005 0.003c0.188 0.108 0.414 0.172 0.654 0.172 0.013 0 0.026-0 0.039-0.001l-0.002 0c0.009 0 0.019 0 0.030 0 0.23 0 0.446-0.057 0.636-0.158l-0.007 0.004c0.19-0.105 0.345-0.254 0.456-0.432l0.003-0.005c0.122-0.201 0.214-0.435 0.263-0.685l0.002-0.014c0.056-0.268 0.088-0.577 0.088-0.893 0-0.015-0-0.030-0-0.045v0.002zM45.926 42.75c0 0.001 0 0.003 0 0.004 0 0.047-0.015 0.090-0.041 0.126l0-0.001c-0.035 0.042-0.081 0.075-0.134 0.092l-0.002 0.001c-0.075 0.027-0.161 0.047-0.251 0.055l-0.004 0c-0.122 0.012-0.263 0.019-0.406 0.019s-0.284-0.007-0.424-0.020l0.018 0.001c-0.094-0.009-0.181-0.029-0.263-0.058l0.008 0.002c-0.055-0.018-0.101-0.050-0.136-0.092l-0-0.001c-0.025-0.035-0.040-0.078-0.040-0.125 0-0.002 0-0.003 0-0.004v0-9.712c0-0.001 0-0.002 0-0.003 0-0.049 0.015-0.094 0.041-0.131l-0.001 0.001c0.035-0.045 0.081-0.079 0.134-0.099l0.002-0.001c0.074-0.029 0.161-0.051 0.251-0.062l0.005-0c0.122-0.014 0.263-0.022 0.406-0.022s0.284 0.008 0.423 0.024l-0.017-0.002c0.095 0.011 0.181 0.033 0.263 0.065l-0.007-0.002c0.055 0.020 0.102 0.055 0.136 0.099l0.001 0.001c0.025 0.037 0.040 0.082 0.040 0.131 0 0.001 0 0.002 0 0.003v-0z"></path>
<path fill="#8b13b2" d="M43 3h-18c-1.655 0.005-2.995 1.345-3 3v18c0.005 1.655 1.345 2.995 3 3h18c1.655-0.005 2.995-1.345 3-3v-18c-0.005-1.655-1.345-2.995-3-3h-0zM29.365 6.402q0.875-0.926 2.494-0.926 0.888 0 1.504 0.244c0.421 0.164 0.78 0.347 1.119 0.559l-0.028-0.016q0.475 0.299 0.881 0.542c0.239 0.151 0.53 0.242 0.841 0.244h0.001q0.467 0 0.717-0.299t0.25-0.884c-0-0.005-0-0.010-0-0.016 0-0.143 0.099-0.264 0.232-0.296l0.002-0q0.234-0.076 0.951-0.076 0.701 0 0.959 0.104t0.257 0.452q0 1.684-0.896 2.581t-2.486 0.898c-0.018 0-0.040 0-0.061 0-0.359 0-0.709-0.041-1.046-0.118l0.031 0.006c-0.321-0.075-0.601-0.175-0.866-0.303l0.025 0.011c-0.266-0.127-0.489-0.254-0.702-0.396l0.021 0.013q-0.304-0.202-0.584-0.375c-0.155-0.099-0.337-0.197-0.526-0.282l-0.027-0.011c-0.169-0.075-0.367-0.118-0.575-0.118-0.003 0-0.007 0-0.010 0h0.001q-0.514 0-0.733 0.327t-0.216 0.857c0 0.005 0 0.011 0 0.017 0 0.069-0.020 0.133-0.056 0.187l0.001-0.001c-0.047 0.057-0.112 0.099-0.185 0.118l-0.002 0.001c-0.111 0.032-0.24 0.052-0.373 0.056l-0.002 0q-0.242 0.014-0.616 0.014-0.328 0-0.553-0.021c-0.131-0.008-0.253-0.038-0.366-0.086l0.007 0.003c-0.083-0.037-0.15-0.097-0.194-0.172l-0.001-0.002c-0.040-0.078-0.063-0.169-0.063-0.267 0-0.009 0-0.018 0.001-0.027l-0 0.001q0.002-1.616 0.874-2.542zM40.615 24.152c0 0.001 0 0.002 0 0.004 0 0.093-0.036 0.177-0.094 0.24l0-0c-0.085 0.082-0.19 0.142-0.308 0.173l-0.005 0.001c-0.175 0.052-0.38 0.089-0.591 0.104l-0.009 0.001q-0.382 0.034-0.943 0.035-0.577 0-0.959-0.035c-0.22-0.015-0.425-0.052-0.621-0.11l0.021 0.005c-0.122-0.032-0.228-0.092-0.313-0.174l0 0c-0.058-0.063-0.094-0.147-0.094-0.24 0-0.001 0-0.003 0-0.004v0-7.083q0-0.904-0.148-1.419c-0.094-0.338-0.241-0.632-0.434-0.891l0.005 0.007c-0.189-0.245-0.433-0.439-0.713-0.566l-0.012-0.005c-0.29-0.128-0.628-0.202-0.983-0.202-0.019 0-0.037 0-0.056 0.001l0.003-0q-0.75 0-1.512 0.487t-1.59 1.419v8.25c0 0.001 0 0.002 0 0.004 0 0.093-0.036 0.177-0.094 0.24l0-0c-0.087 0.082-0.194 0.143-0.315 0.173l-0.005 0.001c-0.175 0.051-0.379 0.088-0.59 0.104l-0.010 0.001q-0.375 0.034-0.951 0.035t-0.951-0.035c-0.221-0.016-0.425-0.054-0.622-0.11l0.022 0.005c-0.125-0.031-0.233-0.091-0.32-0.174l0 0c-0.058-0.063-0.094-0.147-0.094-0.24 0-0.001 0-0.003 0-0.004v0-12.411c-0-0.002-0-0.005-0-0.008 0-0.089 0.029-0.171 0.079-0.237l-0.001 0.001c0.073-0.082 0.168-0.143 0.277-0.173l0.004-0.001c0.152-0.050 0.329-0.087 0.512-0.104l0.010-0.001c0.22-0.022 0.476-0.035 0.735-0.035 0.024 0 0.047 0 0.071 0l-0.004-0c0.021-0 0.046-0 0.071-0 0.266 0 0.529 0.013 0.788 0.038l-0.033-0.003c0.186 0.015 0.358 0.052 0.521 0.109l-0.015-0.004c0.103 0.035 0.19 0.095 0.256 0.173l0.001 0.001c0.049 0.065 0.078 0.147 0.078 0.237 0 0.003-0 0.005-0 0.008v-0 1.433q1.153-1.113 2.346-1.67c0.727-0.351 1.581-0.557 2.483-0.557 0.001 0 0.003 0 0.004 0h-0q1.418 0 2.392 0.418t1.579 1.138c0.391 0.469 0.69 1.031 0.858 1.646l0.007 0.031q0.265 0.96 0.265 2.312z"></path>
<path fill="#3f3f3f" d="M19.414 13.586l-6-6c-0.362-0.362-0.862-0.586-1.414-0.586-1.105 0-2 0.896-2 2 0 0.552 0.224 1.052 0.586 1.414l2.586 2.586h-11.171v4h11.171l-2.586 2.586c-0.362 0.362-0.586 0.862-0.586 1.414 0 1.105 0.896 2 2 2 0.552 0 1.052-0.224 1.414-0.586l6-6c0.362-0.362 0.586-0.862 0.586-1.414s-0.224-1.052-0.586-1.414v0z"></path>
</svg>
