<?xml version="1.0" encoding="utf-8"?>
<!-- Generator: Adobe Illustrator 23.0.3, SVG Export Plug-In . SVG Version: 6.00 Build 0)  -->
<svg version="1.1" id="Layer_1" xmlns="http://www.w3.org/2000/svg" xmlns:xlink="http://www.w3.org/1999/xlink" x="0px" y="0px"
	 viewBox="0 0 48 48" style="enable-background:new 0 0 48 48;" xml:space="preserve">
<title>select all</title>
        <path fill="#fff" d="M8 6h32v32h-32v-32z"></path>
        <path
          fill="#666"
          d="M42 20h-2v-6h2zM42 24h-2v6h2zM8 6h4v-2h-6v6h2zM42 4h-6v2h4v4h2zM12 38h-4v-4h-2v6h6zM8 14h-2v6h2zM8 24h-2v6h2zM20 38h-4v2h4zM32 4h-6v2h6zM22 4h-6v2h6zM42 38h-8l3 8-4 2-3-9-6 5v-24z"
        ></path>
</svg>
