<?xml version="1.0" encoding="utf-8"?>
<!-- Generator: Adobe Illustrator 23.0.3, SVG Export Plug-In . SVG Version: 6.00 Build 0)  -->
<svg version="1.1" id="Layer_1" xmlns="http://www.w3.org/2000/svg" xmlns:xlink="http://www.w3.org/1999/xlink" x="0px" y="0px"
	 viewBox="0 0 48 48" style="enable-background:new 0 0 48 48;" xml:space="preserve">
<title>cut</title>
        <path
          fill="#666"
          d="M38.75 2.563c-0.485-0.352-1.093-0.563-1.75-0.563-1 0-1.886 0.49-2.431 1.242l-0.006 0.009-10.562 14.671-10.562-14.671c-0.551-0.761-1.437-1.251-2.438-1.251-1.657 0-3.001 1.343-3.001 3.001 0 0.657 0.211 1.265 0.569 1.759l-0.006-0.009 11.741 16.306-3.741 5.194c-0.352 0.485-0.563 1.093-0.563 1.75 0 1.657 1.343 3.001 3.001 3.001 1 0 1.886-0.489 2.432-1.242l0.006-0.009 2.563-3.563 2.563 3.563c0.551 0.761 1.437 1.251 2.438 1.251 1.657 0 3.001-1.343 3.001-3.001 0-0.657-0.211-1.265-0.569-1.759l0.006 0.009-3.738-5.191 11.738-16.309c0.352-0.485 0.563-1.093 0.563-1.75 0-1-0.49-1.886-1.242-2.431l-0.009-0.006z"
        ></path>
        <path
          fill="#4575a6"
          d="M14 33c2.209 0 4 1.791 4 4s-1.791 4-4 4c-2.209 0-4-1.791-4-4v0c0.002-2.208 1.792-3.997 4-4h0zM14 28c-4.971 0-9 4.029-9 9s4.029 9 9 9c4.971 0 9-4.029 9-9v0c0-4.971-4.029-9-9-9v0zM34 33c2.209 0 4 1.791 4 4s-1.791 4-4 4c-2.209 0-4-1.791-4-4v0c0.002-2.208 1.792-3.997 4-4h0zM34 28c-4.971 0-9 4.029-9 9s4.029 9 9 9c4.971 0 9-4.029 9-9v0c0-4.971-4.029-9-9-9v0z"
        ></path>
</svg>
