<?xml version="1.0" encoding="utf-8"?>
<!-- Generator: Adobe Illustrator 23.0.3, SVG Export Plug-In . SVG Version: 6.00 Build 0)  -->
<svg version="1.1" id="Layer_1" xmlns="http://www.w3.org/2000/svg" xmlns:xlink="http://www.w3.org/1999/xlink" x="0px" y="0px"
	 viewBox="0 0 48 48" style="enable-background:new 0 0 48 48;" xml:space="preserve">
<title>lang-eng</title>
<path fill="#3f3f3f" d="M7.097 42.239c0 0.008 0 0.018 0 0.027 0 0.117-0.006 0.232-0.018 0.345l0.001-0.014c-0.008 0.086-0.026 0.165-0.052 0.24l0.002-0.007c-0.017 0.051-0.045 0.095-0.083 0.129l-0 0c-0.029 0.025-0.067 0.040-0.109 0.041h-4.32c-0.004 0-0.009 0-0.013 0-0.138 0-0.264-0.055-0.356-0.144l0 0q-0.149-0.144-0.149-0.469v-8.331q0-0.325 0.149-0.469c0.092-0.089 0.217-0.144 0.356-0.144 0.005 0 0.009 0 0.014 0h4.294c0 0 0.001 0 0.002 0 0.040 0 0.076 0.014 0.105 0.037l-0-0c0.037 0.034 0.065 0.078 0.079 0.127l0.001 0.002c0.024 0.069 0.041 0.149 0.050 0.232l0 0.005c0.011 0.1 0.017 0.217 0.017 0.335 0 0.011-0 0.022-0 0.032v-0.002c0 0.007 0 0.016 0 0.025 0 0.115-0.006 0.228-0.018 0.34l0.001-0.014c-0.008 0.086-0.026 0.165-0.052 0.24l0.002-0.007c-0.017 0.051-0.044 0.094-0.080 0.129l-0 0c-0.028 0.025-0.065 0.041-0.105 0.041-0 0-0.001 0-0.001 0h-3.071v2.334h2.599c0.042 0 0.080 0.016 0.11 0.041l-0-0c0.037 0.033 0.066 0.075 0.082 0.123l0.001 0.002c0.024 0.067 0.042 0.144 0.050 0.225l0 0.004c0.011 0.106 0.017 0.228 0.017 0.352s-0.006 0.247-0.018 0.368l0.001-0.015c-0.008 0.083-0.026 0.159-0.052 0.232l0.002-0.007c-0.017 0.049-0.045 0.090-0.083 0.122l-0 0c-0.030 0.023-0.068 0.037-0.109 0.037-0 0-0 0-0 0v0h-2.599v2.696h3.097c0.042 0 0.080 0.016 0.11 0.041l-0-0c0.038 0.034 0.066 0.078 0.083 0.127l0.001 0.002c0.024 0.068 0.042 0.147 0.050 0.228l0 0.004c0.010 0.098 0.016 0.211 0.016 0.326 0 0.012-0 0.024-0 0.036v-0.002zM15.183 42.75c0 0.001 0 0.003 0 0.004 0 0.047-0.015 0.090-0.040 0.126l0-0.001c-0.034 0.042-0.079 0.074-0.131 0.092l-0.002 0.001c-0.075 0.027-0.162 0.047-0.252 0.055l-0.004 0c-0.11 0.012-0.238 0.018-0.367 0.018-0.012 0-0.025-0-0.037-0h0.002c-0.011 0-0.025 0-0.038 0-0.131 0-0.26-0.007-0.387-0.020l0.016 0.001c-0.094-0.008-0.181-0.028-0.263-0.058l0.007 0.002c-0.054-0.018-0.099-0.050-0.133-0.092l-0-0.001c-0.025-0.035-0.040-0.078-0.040-0.125 0-0.002 0-0.003 0-0.004v0-3.76c0.001-0.026 0.001-0.057 0.001-0.088 0-0.235-0.023-0.465-0.067-0.688l0.004 0.022c-0.039-0.177-0.102-0.334-0.186-0.476l0.004 0.007c-0.076-0.127-0.181-0.229-0.305-0.301l-0.004-0.002c-0.122-0.067-0.267-0.107-0.422-0.107-0.007 0-0.014 0-0.021 0h0.001q-0.319 0-0.645 0.259c-0.258 0.219-0.482 0.466-0.67 0.74l-0.008 0.013v4.38c0 0.001 0 0.003 0 0.004 0 0.047-0.015 0.090-0.040 0.126l0-0.001c-0.035 0.042-0.081 0.075-0.134 0.092l-0.002 0.001c-0.075 0.027-0.161 0.047-0.251 0.055l-0.004 0c-0.122 0.012-0.263 0.019-0.406 0.019s-0.284-0.007-0.424-0.020l0.018 0.001c-0.094-0.009-0.181-0.029-0.263-0.058l0.008 0.002c-0.055-0.018-0.101-0.050-0.136-0.092l-0-0.001c-0.025-0.035-0.040-0.078-0.040-0.125 0-0.002 0-0.003 0-0.004v0-6.589c-0-0.004-0-0.008-0-0.012 0-0.098 0.064-0.18 0.152-0.208l0.002-0c0.065-0.026 0.14-0.046 0.218-0.055l0.004-0c0.093-0.012 0.201-0.018 0.311-0.018 0.011 0 0.022 0 0.034 0h-0.002c0.010-0 0.022-0 0.033-0 0.112 0 0.223 0.007 0.332 0.020l-0.013-0.001c0.080 0.008 0.153 0.028 0.221 0.057l-0.005-0.002c0.045 0.020 0.083 0.052 0.109 0.092l0.001 0.001c0.021 0.036 0.033 0.079 0.033 0.124 0 0.002 0 0.003-0 0.005v-0 0.761q0.492-0.591 1-0.886c0.303-0.185 0.67-0.294 1.062-0.296h0q0.605 0 1.020 0.221c0.273 0.146 0.499 0.349 0.666 0.594l0.004 0.006c0.169 0.255 0.297 0.553 0.366 0.873l0.003 0.017c0.072 0.342 0.114 0.735 0.114 1.138 0 0.031-0 0.062-0.001 0.093l0-0.005zM23.149 36.62q0 0.354-0.073 0.524t-0.179 0.168h-0.697c0.094 0.113 0.166 0.248 0.208 0.395l0.002 0.008c0.040 0.138 0.063 0.297 0.063 0.461 0 0.003 0 0.005 0 0.008v-0c0 0.015 0 0.033 0 0.051 0 0.349-0.063 0.683-0.179 0.992l0.006-0.019c-0.113 0.296-0.281 0.547-0.494 0.753l-0.001 0.001c-0.216 0.203-0.475 0.362-0.763 0.461l-0.015 0.005c-0.291 0.101-0.625 0.159-0.974 0.159-0.014 0-0.028-0-0.042-0h0.002c-0.003 0-0.006 0-0.009 0-0.191 0-0.375-0.028-0.549-0.081l0.013 0.003c-0.152-0.041-0.284-0.102-0.403-0.184l0.005 0.003c-0.054 0.066-0.102 0.142-0.14 0.222l-0.003 0.007c-0.040 0.083-0.063 0.181-0.063 0.285 0 0.004 0 0.008 0 0.012v-0.001c-0 0.003-0 0.006-0 0.009 0 0.139 0.066 0.263 0.168 0.341l0.001 0.001c0.13 0.095 0.293 0.151 0.469 0.151 0.002 0 0.004 0 0.006-0h-0l1.442 0.059c0.325 0.010 0.633 0.068 0.923 0.165l-0.022-0.007c0.257 0.086 0.479 0.217 0.666 0.385l-0.002-0.002c0.176 0.162 0.316 0.36 0.408 0.583l0.004 0.011c0.091 0.224 0.143 0.484 0.143 0.756 0 0.012-0 0.024-0 0.036l0-0.002c0 0.003 0 0.006 0 0.010 0 0.33-0.072 0.643-0.2 0.925l0.006-0.014c-0.137 0.299-0.333 0.55-0.574 0.747l-0.004 0.003c-0.274 0.218-0.596 0.389-0.947 0.495l-0.020 0.005c-0.386 0.119-0.829 0.188-1.288 0.188-0.025 0-0.050-0-0.075-0.001l0.004 0c-0.026 0-0.057 0.001-0.087 0.001-0.427 0-0.842-0.049-1.241-0.142l0.037 0.007c-0.332-0.076-0.624-0.203-0.885-0.376l0.010 0.006c-0.213-0.141-0.383-0.331-0.496-0.554l-0.004-0.008c-0.099-0.206-0.156-0.447-0.156-0.702 0-0.006 0-0.012 0-0.019v0.001c0-0.003 0-0.006 0-0.009 0-0.162 0.021-0.319 0.059-0.469l-0.003 0.013c0.042-0.161 0.099-0.303 0.171-0.434l-0.005 0.010c0.081-0.147 0.17-0.274 0.272-0.39l-0.002 0.003c0.112-0.129 0.232-0.245 0.36-0.35l0.005-0.004c-0.189-0.113-0.34-0.271-0.44-0.461l-0.003-0.006c-0.098-0.181-0.156-0.397-0.156-0.626 0-0.005 0-0.009 0-0.014v0.001c-0-0.006-0-0.014-0-0.022 0-0.281 0.066-0.547 0.184-0.782l-0.005 0.010c0.126-0.249 0.281-0.462 0.465-0.646l-0 0c-0.157-0.175-0.284-0.381-0.37-0.607l-0.005-0.014c-0.089-0.247-0.14-0.532-0.14-0.83 0-0.025 0-0.050 0.001-0.075l-0 0.004c-0-0.014-0-0.030-0-0.046 0-0.354 0.067-0.692 0.189-1.003l-0.006 0.019c0.229-0.586 0.692-1.037 1.271-1.245l0.015-0.005c0.287-0.105 0.618-0.166 0.963-0.166 0.013 0 0.026 0 0.039 0h-0.002c0.003 0 0.007 0 0.010 0 0.185 0 0.367 0.013 0.545 0.039l-0.020-0.002c0.182 0.026 0.342 0.062 0.498 0.109l-0.023-0.006h1.881q0.113 0 0.182 0.163t0.070 0.551zM21.394 43.438c0.001-0.009 0.001-0.020 0.001-0.031 0-0.195-0.094-0.368-0.239-0.477l-0.002-0.001q-0.239-0.178-0.655-0.194l-1.187-0.037c-0.102 0.081-0.193 0.17-0.273 0.266l-0.002 0.003c-0.059 0.073-0.115 0.155-0.162 0.242l-0.004 0.008c-0.037 0.066-0.066 0.143-0.082 0.224l-0.001 0.005c-0.013 0.068-0.020 0.146-0.020 0.226 0 0.001 0 0.002 0 0.003v-0c-0 0.005-0 0.011-0 0.016 0 0.237 0.135 0.443 0.332 0.544l0.003 0.002q0.336 0.192 0.947 0.192c0.014 0 0.032 0.001 0.049 0.001 0.21 0 0.413-0.031 0.604-0.089l-0.015 0.004c0.161-0.049 0.301-0.126 0.421-0.227l-0.002 0.002c0.098-0.083 0.175-0.188 0.224-0.307l0.002-0.005c0.039-0.103 0.061-0.222 0.061-0.346 0-0.008-0-0.016-0-0.024v0.001zM21 38.177q0-0.532-0.266-0.827t-0.75-0.296c-0.006-0-0.013-0-0.020-0-0.15 0-0.291 0.034-0.417 0.095l0.006-0.002c-0.124 0.061-0.227 0.145-0.308 0.248l-0.001 0.002c-0.081 0.105-0.143 0.228-0.181 0.362l-0.002 0.008c-0.039 0.131-0.062 0.281-0.062 0.437v0q0 0.5 0.266 0.794t0.737 0.292c0.007 0 0.015 0 0.023 0 0.15 0 0.293-0.033 0.421-0.092l-0.006 0.003c0.124-0.059 0.227-0.141 0.308-0.242l0.001-0.002c0.081-0.102 0.145-0.221 0.185-0.35l0.002-0.008c0.041-0.126 0.064-0.271 0.064-0.422v-0zM26.914 42.75c0 0.001 0 0.003 0 0.004 0 0.047-0.015 0.090-0.041 0.126l0-0.001c-0.035 0.042-0.081 0.075-0.134 0.092l-0.002 0.001c-0.075 0.027-0.161 0.047-0.251 0.055l-0.004 0c-0.122 0.012-0.263 0.019-0.406 0.019s-0.284-0.007-0.424-0.020l0.018 0.001c-0.094-0.009-0.181-0.029-0.263-0.058l0.008 0.002c-0.055-0.018-0.101-0.050-0.136-0.092l-0-0.001c-0.025-0.035-0.040-0.078-0.040-0.125 0-0.002 0-0.003 0-0.004v0-9.712c0-0.001 0-0.002 0-0.003 0-0.049 0.015-0.094 0.041-0.131l-0.001 0.001c0.035-0.045 0.081-0.079 0.134-0.099l0.002-0.001c0.074-0.029 0.161-0.051 0.251-0.062l0.005-0c0.122-0.014 0.263-0.022 0.406-0.022s0.284 0.008 0.423 0.024l-0.017-0.002c0.095 0.011 0.181 0.033 0.263 0.065l-0.007-0.002c0.055 0.020 0.102 0.055 0.136 0.099l0.001 0.001c0.025 0.037 0.040 0.082 0.040 0.131 0 0.001 0 0.002 0 0.003v-0zM31.364 33.932q0 0.563-0.206 0.776t-0.764 0.214q-0.563 0-0.761-0.207t-0.195-0.747q0-0.563 0.203-0.779t0.767-0.218q0.558 0 0.758 0.211t0.199 0.749zM31.237 42.75c0 0.001 0 0.003 0 0.004 0 0.047-0.015 0.090-0.041 0.126l0-0.001c-0.035 0.042-0.081 0.075-0.134 0.092l-0.002 0.001c-0.075 0.027-0.161 0.047-0.251 0.055l-0.004 0c-0.122 0.012-0.263 0.019-0.406 0.019s-0.284-0.007-0.424-0.020l0.018 0.001c-0.094-0.009-0.181-0.029-0.263-0.058l0.008 0.002c-0.055-0.018-0.101-0.050-0.136-0.092l-0-0.001c-0.024-0.034-0.039-0.077-0.039-0.123 0-0.002 0-0.004 0-0.006v0-6.574c-0-0.001-0-0.003-0-0.004 0-0.047 0.015-0.090 0.041-0.126l-0 0.001c0.035-0.043 0.081-0.076 0.134-0.096l0.002-0.001c0.074-0.029 0.161-0.051 0.251-0.062l0.005-0c0.122-0.014 0.263-0.022 0.406-0.022s0.284 0.008 0.423 0.024l-0.017-0.002c0.095 0.011 0.181 0.033 0.263 0.065l-0.007-0.002c0.055 0.020 0.101 0.053 0.136 0.096l0 0.001c0.025 0.035 0.040 0.078 0.040 0.125 0 0.001 0 0.003-0 0.004v-0zM38.063 40.888c0 0.016 0.001 0.034 0.001 0.053 0 0.338-0.069 0.66-0.194 0.952l0.006-0.016c-0.125 0.285-0.307 0.525-0.532 0.714l-0.003 0.002c-0.23 0.19-0.503 0.338-0.801 0.428l-0.016 0.004c-0.306 0.091-0.658 0.144-1.021 0.144-0.225 0-0.445-0.020-0.659-0.059l0.022 0.003c-0.209-0.037-0.391-0.086-0.567-0.148l0.025 0.008c-0.155-0.053-0.287-0.112-0.413-0.181l0.014 0.007c-0.089-0.046-0.166-0.102-0.233-0.167l0 0c-0.056-0.067-0.096-0.15-0.113-0.24l-0.001-0.003c-0.026-0.129-0.041-0.276-0.041-0.428 0-0.022 0-0.045 0.001-0.067l-0 0.003q0-0.214 0.013-0.344c0.006-0.076 0.020-0.147 0.042-0.214l-0.002 0.007c0.011-0.042 0.034-0.077 0.066-0.103l0-0c0.026-0.016 0.059-0.026 0.093-0.026 0.002 0 0.005 0 0.007 0h-0c0.081 0.014 0.153 0.047 0.213 0.094l-0.001-0.001q0.143 0.092 0.356 0.203c0.137 0.072 0.301 0.142 0.47 0.2l0.025 0.007c0.183 0.061 0.393 0.096 0.612 0.096 0.010 0 0.021-0 0.031-0h-0.002c0.006 0 0.013 0 0.020 0 0.136 0 0.267-0.019 0.392-0.054l-0.010 0.002c0.117-0.033 0.218-0.084 0.308-0.149l-0.003 0.002c0.085-0.063 0.152-0.145 0.195-0.24l0.002-0.004c0.042-0.095 0.066-0.207 0.066-0.323 0-0.006-0-0.012-0-0.017v0.001c0-0.004 0-0.008 0-0.013 0-0.139-0.047-0.267-0.126-0.369l0.001 0.001c-0.090-0.112-0.198-0.204-0.32-0.274l-0.005-0.003c-0.127-0.075-0.278-0.149-0.435-0.213l-0.024-0.009q-0.256-0.103-0.525-0.229c-0.206-0.097-0.378-0.193-0.543-0.299l0.018 0.011c-0.176-0.113-0.327-0.245-0.456-0.396l-0.002-0.003c-0.136-0.161-0.247-0.35-0.322-0.556l-0.004-0.013c-0.080-0.223-0.125-0.481-0.125-0.75 0-0.017 0-0.034 0.001-0.050l-0 0.002c-0-0.007-0-0.016-0-0.025 0-0.304 0.061-0.593 0.172-0.857l-0.005 0.015c0.112-0.267 0.275-0.492 0.477-0.674l0.002-0.002c0.213-0.189 0.467-0.338 0.746-0.433l0.015-0.005c0.288-0.098 0.619-0.155 0.964-0.155 0.015 0 0.030 0 0.045 0l-0.002-0c0.002 0 0.004 0 0.007 0 0.189 0 0.374 0.016 0.555 0.047l-0.019-0.003c0.185 0.030 0.345 0.069 0.501 0.118l-0.026-0.007c0.139 0.042 0.258 0.091 0.371 0.149l-0.012-0.006c0.080 0.040 0.148 0.084 0.212 0.135l-0.002-0.002c0.037 0.030 0.067 0.067 0.089 0.109l0.001 0.002c0.018 0.039 0.032 0.083 0.040 0.13l0 0.003q0.013 0.077 0.023 0.192t0.010 0.284q0 0.199-0.010 0.325c-0.004 0.073-0.016 0.141-0.035 0.206l0.002-0.007c-0.009 0.041-0.032 0.075-0.062 0.1l-0 0c-0.025 0.016-0.056 0.026-0.089 0.026-0.001 0-0.003 0-0.004-0h0c-0.071-0.011-0.135-0.039-0.189-0.078l0.001 0.001c-0.086-0.053-0.189-0.108-0.296-0.158l-0.020-0.008c-0.119-0.057-0.264-0.113-0.413-0.16l-0.025-0.007c-0.161-0.049-0.347-0.078-0.539-0.078-0.010 0-0.020 0-0.030 0h0.002c-0.007-0-0.015-0-0.023-0-0.131 0-0.258 0.019-0.378 0.054l0.009-0.002c-0.105 0.031-0.197 0.082-0.273 0.148l0.001-0.001c-0.068 0.061-0.122 0.136-0.158 0.221l-0.002 0.004c-0.034 0.080-0.053 0.174-0.053 0.272 0 0.002 0 0.004 0 0.006v-0c-0 0.006-0 0.013-0 0.021 0 0.138 0.047 0.264 0.126 0.364l-0.001-0.001c0.092 0.11 0.203 0.201 0.327 0.27l0.006 0.003c0.13 0.075 0.285 0.15 0.445 0.213l0.024 0.008q0.263 0.104 0.532 0.225c0.21 0.096 0.384 0.191 0.551 0.296l-0.020-0.011c0.18 0.112 0.334 0.245 0.467 0.396l0.002 0.002c0.138 0.16 0.25 0.346 0.328 0.55l0.004 0.013c0.084 0.222 0.133 0.479 0.133 0.748 0 0.013-0 0.026-0 0.038l0-0.002zM45.959 42.75c0 0.001 0 0.003 0 0.004 0 0.047-0.015 0.090-0.041 0.126l0-0.001c-0.034 0.042-0.079 0.074-0.131 0.092l-0.002 0.001c-0.075 0.027-0.162 0.047-0.252 0.055l-0.004 0c-0.11 0.012-0.238 0.018-0.367 0.018-0.012 0-0.025-0-0.037-0h0.002c-0.011 0-0.025 0-0.038 0-0.131 0-0.26-0.007-0.387-0.020l0.016 0.001c-0.094-0.008-0.181-0.028-0.263-0.058l0.007 0.002c-0.054-0.018-0.099-0.050-0.133-0.092l-0-0.001c-0.025-0.035-0.040-0.078-0.040-0.125 0-0.002 0-0.003 0-0.004v0-3.76c0.001-0.026 0.001-0.057 0.001-0.088 0-0.235-0.023-0.465-0.067-0.688l0.004 0.022c-0.039-0.177-0.102-0.334-0.186-0.476l0.004 0.007c-0.076-0.127-0.181-0.229-0.305-0.301l-0.004-0.002c-0.122-0.067-0.267-0.107-0.422-0.107-0.007 0-0.014 0-0.021 0h0.001q-0.319 0-0.645 0.259c-0.258 0.219-0.482 0.466-0.67 0.74l-0.008 0.013v4.38c0 0.001 0 0.003 0 0.004 0 0.047-0.015 0.090-0.040 0.126l0-0.001c-0.035 0.042-0.081 0.075-0.134 0.092l-0.002 0.001c-0.075 0.027-0.161 0.047-0.251 0.055l-0.004 0c-0.122 0.012-0.263 0.019-0.406 0.019s-0.284-0.007-0.424-0.020l0.018 0.001c-0.094-0.009-0.181-0.029-0.263-0.058l0.008 0.002c-0.055-0.018-0.101-0.050-0.136-0.092l-0-0.001c-0.025-0.035-0.040-0.078-0.040-0.125 0-0.002 0-0.003 0-0.004v0-9.712c0-0.001 0-0.002 0-0.003 0-0.049 0.015-0.094 0.041-0.131l-0.001 0.001c0.035-0.045 0.081-0.079 0.134-0.099l0.002-0.001c0.074-0.029 0.161-0.051 0.251-0.062l0.005-0c0.122-0.014 0.263-0.022 0.406-0.022s0.284 0.008 0.423 0.024l-0.017-0.002c0.095 0.011 0.181 0.033 0.263 0.065l-0.007-0.002c0.055 0.020 0.102 0.055 0.136 0.099l0.001 0.001c0.025 0.037 0.040 0.082 0.040 0.131 0 0.001 0 0.002 0 0.003v-0 3.641c0.247-0.281 0.538-0.516 0.864-0.697l0.017-0.008c0.271-0.146 0.592-0.232 0.934-0.233h0q0.605 0 1.020 0.221c0.275 0.146 0.5 0.351 0.667 0.599l0.004 0.007c0.169 0.257 0.297 0.558 0.366 0.88l0.003 0.017c0.072 0.346 0.114 0.744 0.114 1.152 0 0.033-0 0.065-0.001 0.098l0-0.005z"></path>
<path fill="#8b13b2" d="M23 3h-18c-1.655 0.005-2.995 1.345-3 3v18c0.005 1.655 1.345 2.995 3 3h18c1.655-0.005 2.995-1.345 3-3v-18c-0.005-1.655-1.345-2.995-3-3h-0zM22 23h-6.388v-2.532h1.594v-6.446c0-1.168-0.188-2.114-0.753-2.718s-0.988-0.844-2.050-0.844c-0.675 0.008-1.309 0.176-1.869 0.467l0.023-0.011c-0.671 0.334-1.249 0.711-1.777 1.146l0.016-0.013v8.418h1.594v2.532h-6.389v-2.532h1.562v-10.187h-1.562v-2.531h4.682v1.796h0.028c0.3-0.277 0.624-0.543 0.963-0.791l0.031-0.022c0.32-0.235 0.682-0.455 1.063-0.643l0.043-0.019c0.342-0.17 0.742-0.321 1.16-0.431l0.045-0.010c0.388-0.103 0.834-0.162 1.294-0.162 0.008 0 0.017 0 0.025 0h-0.001c0.026-0 0.056-0.001 0.087-0.001 0.726 0 1.423 0.124 2.071 0.352l-0.044-0.013c0.632 0.225 1.17 0.577 1.606 1.029l0.001 0.001q0.662 0.692 1.022 1.774t0.362 2.557v7.301h1.562z"></path>
<path fill="#3f3f3f" d="M46 13h-11.171l2.586-2.586c0.362-0.362 0.586-0.862 0.586-1.414 0-1.105-0.896-2-2-2-0.552 0-1.052 0.224-1.414 0.586l-6 6c-0.362 0.362-0.586 0.862-0.586 1.414s0.224 1.052 0.586 1.414l6 6c0.362 0.362 0.862 0.586 1.414 0.586 1.105 0 2-0.896 2-2 0-0.552-0.224-1.052-0.586-1.414l-2.586-2.586h11.171z"></path>
</svg>
