<?xml version="1.0" encoding="iso-8859-1"?>
<!-- Generator: Adobe Illustrator 21.0.0, SVG Export Plug-In . SVG Version: 6.00 Build 0)  -->
<svg version="1.1" id="Components" xmlns="http://www.w3.org/2000/svg" xmlns:xlink="http://www.w3.org/1999/xlink" x="0px" y="0px"
	 width="141.84px" height="53.28px" viewBox="0 0 141.84 53.28" enable-background="new 0 0 141.84 53.28" xml:space="preserve">
<g id="Containers_with_Cups_in_Holder">
	<path fill="#FFFFFF" d="M138.133,53.28H3.707C1.66,53.28,0,51.62,0,49.573V3.707C0,1.66,1.66,0,3.707,0h134.426
		c2.047,0,3.707,1.66,3.707,3.707v45.866C141.84,51.62,140.18,53.28,138.133,53.28z"/>
	<g>
		
			<rect x="77.771" y="36.723" transform="matrix(-1 -4.493396e-11 4.493396e-11 -1 172.4625 83.2702)" fill="#666666" stroke="#1A1A1A" stroke-width="0.25" width="16.921" height="9.824"/>
		<path fill="#CECECE" stroke="#1A1A1A" stroke-width="0.25" d="M80.475,44.995c0-1.055,2.833-1.91,6.325-1.91
			c3.493,0,6.326,0.855,6.326,1.91l2.05,7.125H80.913L80.475,44.995z"/>
		<rect x="47.148" y="36.633" fill="#666666" stroke="#1A1A1A" stroke-width="0.25" width="16.921" height="9.824"/>
		<path fill="#CECECE" stroke="#1A1A1A" stroke-width="0.25" d="M61.365,44.905c0-1.055-2.833-1.91-6.325-1.91
			c-3.493,0-6.326,0.855-6.326,1.91l-2.05,7.125h14.262L61.365,44.905z"/>
		<path fill="none" stroke="#1A1A1A" stroke-width="0.275" d="M55.039,38.019c-3.774,0-6.833,0.924-6.833,2.064
			c0,0.467,0.52,0.897,1.386,1.243l-1.928,5.131v5.262h11.674v-5.262l0.737-4.982c1.112-0.367,1.796-0.855,1.796-1.391
			C61.871,38.943,58.811,38.019,55.039,38.019z"/>
		<polygon fill="#666666" stroke="#4C524E" stroke-width="0.25" points="47.663,51.718 49.595,46.12 49.592,41.325 47.663,46.457 		
			"/>
		<path fill="#EDEDED" stroke="#4C524E" stroke-width="0.25" stroke-linejoin="round" d="M82.503,46.559l-0.737-4.995
			c-1.112-0.367-1.796-0.855-1.796-1.391c0-1.14,3.06-2.064,6.832-2.064c3.774,0,6.833,0.924,6.833,2.064
			c0,0.467-0.52,0.897-1.386,1.243l1.928,5.131v0.012h13.122l-7.07-13.401l-58.617-0.09l-7.07,13.401h13.122v-0.012l1.928-5.131
			c-0.866-0.346-1.386-0.775-1.386-1.243c0-1.14,3.06-2.064,6.833-2.064c3.772,0,6.832,0.924,6.832,2.064
			c0,0.537-0.684,1.024-1.796,1.391l-0.737,4.982v0.012L82.503,46.559z"/>
		<path fill="none" stroke="#4C524E" stroke-width="0.275" d="M86.801,38.11c3.774,0,6.833,0.924,6.833,2.064
			c0,0.467-0.52,0.897-1.386,1.243l1.928,5.131v5.262H82.503v-5.34l-0.737-4.904c-1.112-0.367-1.796-0.855-1.796-1.391
			C79.969,39.033,83.029,38.11,86.801,38.11z"/>
		<polygon fill="#666666" stroke="#4C524E" stroke-width="0.25" points="94.177,51.809 92.245,46.21 92.248,41.416 94.177,46.547 		
			"/>
		<defs>
			<filter id="Adobe_OpacityMaskFilter" filterUnits="userSpaceOnUse" x="43.091" y="0.424" width="55.697" height="46.804">
				
					<feColorMatrix  type="matrix" values="-1 0 0 0 1  0 -1 0 0 1  0 0 -1 0 1  0 0 0 1 0" color-interpolation-filters="sRGB" result="source"/>
				<feFlood  style="flood-color:white;flood-opacity:1" result="back"/>
				<feBlend  in="source" in2="back" mode="normal"/>
			</filter>
		</defs>
		<mask maskUnits="userSpaceOnUse" x="43.091" y="0.424" width="55.697" height="46.804" id="SVGID_1_">
			<g filter="url(#Adobe_OpacityMaskFilter)">
				<g>
					<path fill="#FFFFFF" d="M79.969,40.173c0-0.075,0.015-0.15,0.041-0.223H61.849c0.009,0.044,0.022,0.088,0.022,0.132
						c0,0.537-0.684,1.024-1.796,1.391l-0.737,4.982v0.012l23.165,0.09l-0.737-4.995C80.653,41.198,79.969,40.71,79.969,40.173z"/>
					<path fill="#FFFFFF" d="M48.206,40.083c0-0.045,0.013-0.088,0.022-0.132H37.98l-3.439,6.518h13.122v5.249l1.931-5.598
						l-0.003-4.795C48.725,40.979,48.206,40.55,48.206,40.083z"/>
					<path fill="#FFFFFF" d="M103.812,39.95H93.593c0.026,0.073,0.041,0.147,0.041,0.223c0,0.467-0.52,0.897-1.386,1.243
						l-0.003,4.795l1.931,5.598v-5.249h13.122L103.812,39.95z"/>
				</g>
			</g>
		</mask>
		<g mask="url(#SVGID_1_)">
			<g>
				<ellipse fill="none" stroke="#525252" stroke-width="0.5" cx="86.805" cy="44.905" rx="6.325" ry="1.911"/>
				<path fill="#E4E8E8" fill-opacity="0.54" d="M93.129,16.24c0-1.055-2.833-1.91-6.325-1.91c-3.493,0-6.326,0.855-6.326,1.91
					c0,0.102,0.034,0.202,0.085,0.299v28.366c0,1.075,2.821,1.948,6.24,1.948c3.418,0,6.14-0.872,6.14-1.948l0.043-0.847V16.641
					C93.079,16.511,93.129,16.377,93.129,16.24z"/>
				<g>
					<path fill="none" stroke="#333333" stroke-width="0.25" d="M80.564,17.703c0,0.74,1.314,1.384,3.249,1.714"/>
					<path fill="none" stroke="#333333" stroke-width="0.25" d="M80.564,18.302c0,0.74,1.315,1.385,3.25,1.713"/>
					<path fill="none" stroke="#333333" stroke-width="0.25" d="M80.564,18.901c0,0.74,1.313,1.384,3.248,1.713"/>
					<path fill="none" stroke="#333333" stroke-width="0.25" d="M80.564,19.5c0,1.074,2.771,1.946,6.19,1.946
						c0.696,0,1.366-0.037,1.99-0.103"/>
					<path fill="none" stroke="#333333" stroke-width="0.25" d="M80.564,19.546c0,1.075,2.771,1.947,6.19,1.947
						c0.696,0,1.366-0.037,1.99-0.104"/>
					<path fill="none" stroke="#333333" stroke-width="0.25" d="M80.564,20.151c0,0.74,1.31,1.382,3.24,1.711"/>
					<path fill="none" stroke="#333333" stroke-width="0.25" d="M80.564,20.75c0,0.735,1.3,1.377,3.217,1.707"/>
					<path fill="none" stroke="#333333" stroke-width="0.25" d="M80.564,21.349c0,0.735,1.301,1.377,3.22,1.707"/>
					<path fill="none" stroke="#333333" stroke-width="0.25" d="M80.564,21.947c0,0.744,1.324,1.39,3.271,1.718"/>
					<path fill="none" stroke="#333333" stroke-width="0.25" d="M80.564,22.545c0,0.924,2.042,1.696,4.783,1.896"/>
					<path fill="none" stroke="#333333" stroke-width="0.25" d="M80.564,23.144c0,0.74,1.313,1.383,3.246,1.713"/>
					<path fill="none" stroke="#333333" stroke-width="0.25" d="M80.564,23.743c0,0.74,1.314,1.384,3.249,1.714"/>
					<path fill="none" stroke="#333333" stroke-width="0.25" d="M80.564,24.342c0,0.74,1.315,1.384,3.25,1.714"/>
					<path fill="none" stroke="#333333" stroke-width="0.25" d="M80.564,24.94c0,0.74,1.313,1.383,3.248,1.713"/>
					<path fill="none" stroke="#333333" stroke-width="0.25" d="M80.564,25.538c0,1.075,2.771,1.948,6.19,1.948
						c0.696,0,1.366-0.036,1.99-0.103"/>
					<path fill="none" stroke="#333333" stroke-width="0.25" d="M80.564,25.562c0,1.075,2.771,1.946,6.19,1.946
						c0.696,0,1.366-0.035,1.99-0.102"/>
					<path fill="none" stroke="#333333" stroke-width="0.25" d="M80.564,26.167c0,0.739,1.31,1.382,3.24,1.712"/>
					<path fill="none" stroke="#333333" stroke-width="0.25" d="M80.564,26.766c0,0.736,1.3,1.376,3.217,1.707"/>
					<path fill="none" stroke="#333333" stroke-width="0.25" d="M80.564,27.365c0,0.736,1.301,1.377,3.22,1.708"/>
					<path fill="none" stroke="#333333" stroke-width="0.25" d="M80.564,27.963c0,0.743,1.324,1.389,3.271,1.717"/>
					<path fill="none" stroke="#333333" stroke-width="0.25" d="M80.564,28.562c0,0.923,2.042,1.696,4.783,1.896"/>
					<path fill="none" stroke="#333333" stroke-width="0.25" d="M80.564,29.161c0,0.74,1.313,1.383,3.246,1.712"/>
					<path fill="none" stroke="#333333" stroke-width="0.25" d="M80.564,29.76c0,0.74,1.314,1.384,3.249,1.713"/>
					<path fill="none" stroke="#333333" stroke-width="0.25" d="M80.564,30.358c0,0.74,1.315,1.384,3.25,1.713"/>
					<path fill="none" stroke="#333333" stroke-width="0.25" d="M80.564,30.957c0,0.74,1.313,1.383,3.248,1.713"/>
					<path fill="none" stroke="#333333" stroke-width="0.25" d="M80.564,31.556c0,1.074,2.771,1.946,6.19,1.946
						c0.696,0,1.366-0.036,1.99-0.102"/>
					<path fill="none" stroke="#333333" stroke-width="0.25" d="M80.564,32.184c0,0.738,1.31,1.382,3.24,1.711"/>
					<path fill="none" stroke="#333333" stroke-width="0.25" d="M80.564,32.782c0,0.736,1.3,1.378,3.217,1.708"/>
					<path fill="none" stroke="#333333" stroke-width="0.25" d="M80.564,33.381c0,0.736,1.301,1.377,3.22,1.709"/>
					<path fill="none" stroke="#333333" stroke-width="0.25" d="M80.564,33.979c0,0.744,1.324,1.39,3.271,1.718"/>
					<path fill="none" stroke="#333333" stroke-width="0.25" d="M80.564,34.578c0,0.923,2.042,1.696,4.783,1.897"/>
					<path fill="none" stroke="#333333" stroke-width="0.25" d="M80.564,35.177c0,0.74,1.313,1.384,3.246,1.713"/>
					<path fill="none" stroke="#333333" stroke-width="0.25" d="M80.564,35.776c0,0.74,1.314,1.383,3.249,1.713"/>
					<path fill="none" stroke="#333333" stroke-width="0.25" d="M80.564,36.374c0,0.741,1.315,1.384,3.25,1.713"/>
					<path fill="none" stroke="#333333" stroke-width="0.25" d="M80.564,36.973c0,0.741,1.313,1.384,3.248,1.713"/>
					<path fill="none" stroke="#333333" stroke-width="0.25" d="M80.564,37.549c0,1.075,2.771,1.947,6.19,1.947
						c0.696,0,1.366-0.037,1.99-0.103"/>
					<path fill="none" stroke="#333333" stroke-width="0.25" d="M80.564,37.556c0,1.075,2.771,1.946,6.19,1.946
						c0.696,0,1.366-0.036,1.99-0.102"/>
					<path fill="none" stroke="#333333" stroke-width="0.25" d="M80.564,38.153c0,0.74,1.31,1.382,3.24,1.713"/>
					<path fill="none" stroke="#333333" stroke-width="0.25" d="M80.564,38.753c0,0.735,1.3,1.377,3.217,1.707"/>
					<path fill="none" stroke="#333333" stroke-width="0.25" d="M80.564,39.352c0,0.735,1.301,1.377,3.22,1.708"/>
					<path fill="none" stroke="#333333" stroke-width="0.25" d="M80.564,39.95c0,0.742,1.324,1.388,3.271,1.717"/>
					<path fill="none" stroke="#333333" stroke-width="0.25" d="M80.564,40.549c0,0.922,2.042,1.695,4.783,1.896"/>
					<path fill="none" stroke="#333333" stroke-width="0.25" d="M80.564,41.147c0,0.74,1.313,1.384,3.246,1.713"/>
					<path fill="none" stroke="#333333" stroke-width="0.25" d="M80.564,41.747c0,0.74,1.314,1.383,3.249,1.713"/>
					<path fill="none" stroke="#333333" stroke-width="0.25" d="M80.564,42.344c0,0.741,1.315,1.385,3.25,1.714"/>
					<path fill="none" stroke="#333333" stroke-width="0.25" d="M80.564,42.943c0,0.74,1.313,1.384,3.248,1.713"/>
					<path fill="none" stroke="#333333" stroke-width="0.25" d="M80.564,43.542c0,1.075,2.771,1.947,6.19,1.947
						c0.696,0,1.366-0.036,1.99-0.103"/>
				</g>
				<path fill="none" stroke="#4C524E" stroke-width="0.75" d="M80.564,16.213v28.692c0,1.075,2.821,1.948,6.24,1.948
					c3.418,0,6.14-0.872,6.14-1.948l0.043-0.847V16.547"/>
				<ellipse fill="none" stroke="#1A1A1A" stroke-width="0.275" cx="86.805" cy="16.24" rx="6.325" ry="1.911"/>
			</g>
			<g>
				<path fill="#A5A5A5" fill-opacity="0.5" stroke="#1A1A1A" stroke-width="0.1" d="M92.658,15.909v3.169
					c0-0.698-1.352-1.307-3.303-1.584c-0.77-0.116-1.629-0.179-2.533-0.179c-0.904,0-1.763,0.063-2.524,0.179
					c-1.96,0.277-3.312,0.886-3.312,1.584v-3.169c0-0.976,2.614-1.763,5.836-1.763C90.045,14.146,92.658,14.934,92.658,15.909z"/>
				
					<ellipse fill="#A5A5A5" fill-opacity="0.5" stroke="#1A1A1A" stroke-width="0.1" cx="86.822" cy="19.077" rx="5.836" ry="1.763"/>
				<path fill="#E4E8E8" fill-opacity="0.7" stroke="#1A1A1A" stroke-width="0.1" d="M92.658,15.909v3.169
					c0,0.976-2.614,1.763-5.836,1.763c-3.222,0-5.836-0.788-5.836-1.763v-3.169c0,0.698,1.352,1.307,3.312,1.584
					c0.761,0.116,1.62,0.179,2.524,0.179c0.904,0,1.763-0.063,2.533-0.179C91.307,17.207,92.658,16.608,92.658,15.909z"/>
				<path fill="#A5A5A5" fill-opacity="0.5" stroke="#1A1A1A" stroke-width="0.1" d="M86.823,14.144
					c-3.223,0-5.836,0.789-5.836,1.763s2.613,1.763,5.836,1.763c3.222,0,5.836-0.789,5.836-1.763S90.045,14.144,86.823,14.144z
					 M86.822,16.448c-0.989,0-1.791-0.242-1.791-0.541c0-0.299,0.802-0.541,1.791-0.541c0.989,0,1.79,0.242,1.79,0.541
					C88.613,16.205,87.811,16.448,86.822,16.448z"/>
				<path fill="#A5A5A5" fill-opacity="0.5" stroke="#1A1A1A" stroke-width="0.1" d="M86.823,13.186
					c-4.974,0-9.006,1.217-9.006,2.72c0,1.503,4.032,2.721,9.006,2.721c4.972,0,9.005-1.218,9.005-2.721
					C95.828,14.404,91.795,13.186,86.823,13.186z M86.822,16.448c-0.989,0-1.791-0.242-1.791-0.541c0-0.299,0.802-0.541,1.791-0.541
					c0.989,0,1.79,0.242,1.79,0.541C88.613,16.205,87.811,16.448,86.822,16.448z"/>
				<path fill="#E4E8E8" fill-opacity="0.2" stroke="#1A1A1A" stroke-width="0.1" d="M98.288,4.183c0,0.179-0.045,0.876-0.134,1.055
					l-0.099,0.179l-2.229,6.465c0-0.653-0.77-1.262-2.05-1.728c-0.009,0-0.009,0-0.009,0c-1.656-0.609-4.153-0.994-6.946-0.994
					c-2.793,0-5.29,0.385-6.946,0.994c-1.28,0.465-2.059,1.074-2.059,1.728l-2.193-6.42l-0.152-0.269
					c-0.081-0.161-0.116-0.849-0.116-1.01c0-1.916,5.138-3.464,11.466-3.464C93.159,0.719,98.288,2.268,98.288,4.183z"/>
				<path fill="#E4E8E8" fill-opacity="0.5" stroke="#1A1A1A" stroke-width="0.1" d="M95.827,11.882v4.028
					c0-0.797-1.137-1.513-2.945-2.014c-1.602-0.439-3.724-0.707-6.06-0.707c-2.327,0-4.449,0.269-6.042,0.707
					c-1.817,0.492-2.963,1.217-2.963,2.014v-4.028c0-0.653,0.779-1.262,2.059-1.728c1.656-0.609,4.153-0.994,6.946-0.994
					c2.793,0,5.29,0.385,6.946,0.994c0,0,0,0,0.009,0C95.057,10.619,95.827,11.228,95.827,11.882z"/>
				<path fill="#E4E8E8" fill-opacity="0.7" stroke="#525252" stroke-width="0.25" d="M98.038,5.417l-2.229,6.465
					c0,0.797-1.137,1.513-2.945,2.014c-1.602,0.439-3.724,0.707-6.06,0.707c-2.327,0-4.449-0.269-6.042-0.707
					c-1.817-0.492-2.963-1.217-2.963-2.014l-2.193-6.42c0.6,0.815,2.139,1.513,4.252,2.005c1.933,0.448,4.332,0.707,6.946,0.707
					c2.614,0,5.012-0.26,6.946-0.707c0,0,0,0,0.009,0C95.907,6.965,97.465,6.24,98.038,5.417z"/>
				<path fill="#E4E8E8" fill-opacity="0.7" stroke="#525252" stroke-width="0.25" d="M95.809,11.882v4.028
					c0,1.504-4.028,2.721-9.005,2.721c-4.968,0-9.005-1.217-9.005-2.721v-4.028c0,0.797,1.146,1.522,2.963,2.014
					c1.593,0.439,3.715,0.707,6.042,0.707c2.336,0,4.458-0.269,6.06-0.707C94.672,13.394,95.809,12.678,95.809,11.882z"/>
				<g>
					<path fill="#363636" d="M86.822,0.924c6.337,0,11.466,1.548,11.466,3.464c0,0.179-0.045,0.349-0.134,0.528l-0.099,0.179
						l-2.229,6.465v4.019c0,0.002,0.001,0.004,0.001,0.006c0,0.829-1.233,1.571-3.17,2.07v1.1l0,0c0,0,0,0,0,0v0.001
						c0,0.976-2.614,1.763-5.836,1.763c-3.222,0-5.836-0.788-5.836-1.763v0l0,0v-1.094C79.04,17.163,77.8,16.42,77.8,15.587v-4.028
						l-2.193-6.42c0.008,0.011,0.02,0.021,0.029,0.032l-0.011-0.032l-0.152-0.269c-0.081-0.161-0.116-0.322-0.116-0.483
						C75.356,2.472,80.494,0.924,86.822,0.924 M86.822,0.424c-5.801,0-11.966,1.389-11.966,3.964c0,0.245,0.057,0.482,0.169,0.707
						l0.115,0.203l-0.006,0.004l2.166,6.341v3.945c0,1.017,1.099,1.863,3.186,2.457v0.711c0,1.555,3.284,2.263,6.336,2.263
						s6.336-0.708,6.336-2.263v-0.72c2.076-0.594,3.17-1.438,3.17-2.452v-0.06l-0.001-0.004v-3.877l2.188-6.345l0.078-0.141
						c0.135-0.269,0.196-0.515,0.196-0.769C98.788,1.813,92.623,0.424,86.822,0.424L86.822,0.424z"/>
				</g>
			</g>
			<g>
				<ellipse fill="none" stroke="#525252" stroke-width="0.5" cx="55.04" cy="44.905" rx="6.325" ry="1.911"/>
				<path fill="#E4E8E8" fill-opacity="0.54" d="M61.365,16.24c0-1.055-2.833-1.91-6.325-1.91c-3.493,0-6.326,0.855-6.326,1.91
					c0,0.102,0.034,0.202,0.085,0.299v28.366c0,1.075,2.821,1.948,6.24,1.948c3.418,0,6.14-0.872,6.14-1.948l0.043-0.847V16.641
					C61.314,16.511,61.365,16.377,61.365,16.24z"/>
				<g>
					<path fill="none" stroke="#333333" stroke-width="0.25" d="M48.8,17.703c0,0.74,1.314,1.384,3.249,1.714"/>
					<path fill="none" stroke="#333333" stroke-width="0.25" d="M48.8,18.302c0,0.74,1.315,1.385,3.25,1.713"/>
					<path fill="none" stroke="#333333" stroke-width="0.25" d="M48.8,18.901c0,0.74,1.313,1.384,3.248,1.713"/>
					<path fill="none" stroke="#333333" stroke-width="0.25" d="M48.8,19.5c0,1.074,2.771,1.946,6.19,1.946
						c0.696,0,1.366-0.037,1.99-0.103"/>
					<path fill="none" stroke="#333333" stroke-width="0.25" d="M48.8,19.546c0,1.075,2.771,1.947,6.19,1.947
						c0.696,0,1.366-0.037,1.99-0.104"/>
					<path fill="none" stroke="#333333" stroke-width="0.25" d="M48.8,20.151c0,0.74,1.31,1.382,3.24,1.711"/>
					<path fill="none" stroke="#333333" stroke-width="0.25" d="M48.8,20.75c0,0.735,1.3,1.377,3.217,1.707"/>
					<path fill="none" stroke="#333333" stroke-width="0.25" d="M48.8,21.349c0,0.735,1.301,1.377,3.22,1.707"/>
					<path fill="none" stroke="#333333" stroke-width="0.25" d="M48.8,21.947c0,0.744,1.324,1.39,3.271,1.718"/>
					<path fill="none" stroke="#333333" stroke-width="0.25" d="M48.8,22.545c0,0.924,2.042,1.696,4.783,1.896"/>
					<path fill="none" stroke="#333333" stroke-width="0.25" d="M48.8,23.144c0,0.74,1.313,1.383,3.246,1.713"/>
					<path fill="none" stroke="#333333" stroke-width="0.25" d="M48.8,23.743c0,0.74,1.314,1.384,3.249,1.714"/>
					<path fill="none" stroke="#333333" stroke-width="0.25" d="M48.8,24.342c0,0.74,1.315,1.384,3.25,1.714"/>
					<path fill="none" stroke="#333333" stroke-width="0.25" d="M48.8,24.94c0,0.74,1.313,1.383,3.248,1.713"/>
					<path fill="none" stroke="#333333" stroke-width="0.25" d="M48.8,25.538c0,1.075,2.771,1.948,6.19,1.948
						c0.696,0,1.366-0.036,1.99-0.103"/>
					<path fill="none" stroke="#333333" stroke-width="0.25" d="M48.8,25.562c0,1.075,2.771,1.946,6.19,1.946
						c0.696,0,1.366-0.035,1.99-0.102"/>
					<path fill="none" stroke="#333333" stroke-width="0.25" d="M48.8,26.167c0,0.739,1.31,1.382,3.24,1.712"/>
					<path fill="none" stroke="#333333" stroke-width="0.25" d="M48.8,26.766c0,0.736,1.3,1.376,3.217,1.707"/>
					<path fill="none" stroke="#333333" stroke-width="0.25" d="M48.8,27.365c0,0.736,1.301,1.377,3.22,1.708"/>
					<path fill="none" stroke="#333333" stroke-width="0.25" d="M48.8,27.963c0,0.743,1.324,1.389,3.271,1.717"/>
					<path fill="none" stroke="#333333" stroke-width="0.25" d="M48.8,28.562c0,0.923,2.042,1.696,4.783,1.896"/>
					<path fill="none" stroke="#333333" stroke-width="0.25" d="M48.8,29.161c0,0.74,1.313,1.383,3.246,1.712"/>
					<path fill="none" stroke="#333333" stroke-width="0.25" d="M48.8,29.76c0,0.74,1.314,1.384,3.249,1.713"/>
					<path fill="none" stroke="#333333" stroke-width="0.25" d="M48.8,30.358c0,0.74,1.315,1.384,3.25,1.713"/>
					<path fill="none" stroke="#333333" stroke-width="0.25" d="M48.8,30.957c0,0.74,1.313,1.383,3.248,1.713"/>
					<path fill="none" stroke="#333333" stroke-width="0.25" d="M48.8,31.556c0,1.074,2.771,1.946,6.19,1.946
						c0.696,0,1.366-0.036,1.99-0.102"/>
					<path fill="none" stroke="#333333" stroke-width="0.25" d="M48.8,32.184c0,0.738,1.31,1.382,3.24,1.711"/>
					<path fill="none" stroke="#333333" stroke-width="0.25" d="M48.8,32.782c0,0.736,1.3,1.378,3.217,1.708"/>
					<path fill="none" stroke="#333333" stroke-width="0.25" d="M48.8,33.381c0,0.736,1.301,1.377,3.22,1.709"/>
					<path fill="none" stroke="#333333" stroke-width="0.25" d="M48.8,33.979c0,0.744,1.324,1.39,3.271,1.718"/>
					<path fill="none" stroke="#333333" stroke-width="0.25" d="M48.8,34.578c0,0.923,2.042,1.696,4.783,1.897"/>
					<path fill="none" stroke="#333333" stroke-width="0.25" d="M48.8,35.177c0,0.74,1.313,1.384,3.246,1.713"/>
					<path fill="none" stroke="#333333" stroke-width="0.25" d="M48.8,35.776c0,0.74,1.314,1.383,3.249,1.713"/>
					<path fill="none" stroke="#333333" stroke-width="0.25" d="M48.8,36.374c0,0.741,1.315,1.384,3.25,1.713"/>
					<path fill="none" stroke="#333333" stroke-width="0.25" d="M48.8,36.973c0,0.741,1.313,1.384,3.248,1.713"/>
					<path fill="none" stroke="#333333" stroke-width="0.25" d="M48.8,37.549c0,1.075,2.771,1.947,6.19,1.947
						c0.696,0,1.366-0.037,1.99-0.103"/>
					<path fill="none" stroke="#333333" stroke-width="0.25" d="M48.8,37.556c0,1.075,2.771,1.946,6.19,1.946
						c0.696,0,1.366-0.036,1.99-0.102"/>
					<path fill="none" stroke="#333333" stroke-width="0.25" d="M48.8,38.153c0,0.74,1.31,1.382,3.24,1.713"/>
					<path fill="none" stroke="#333333" stroke-width="0.25" d="M48.8,38.753c0,0.735,1.3,1.377,3.217,1.707"/>
					<path fill="none" stroke="#333333" stroke-width="0.25" d="M48.8,39.352c0,0.735,1.301,1.377,3.22,1.708"/>
					<path fill="none" stroke="#333333" stroke-width="0.25" d="M48.8,39.95c0,0.742,1.324,1.388,3.271,1.717"/>
					<path fill="none" stroke="#333333" stroke-width="0.25" d="M48.8,40.549c0,0.922,2.042,1.695,4.783,1.896"/>
					<path fill="none" stroke="#333333" stroke-width="0.25" d="M48.8,41.147c0,0.74,1.313,1.384,3.246,1.713"/>
					<path fill="none" stroke="#333333" stroke-width="0.25" d="M48.8,41.747c0,0.74,1.314,1.383,3.249,1.713"/>
					<path fill="none" stroke="#333333" stroke-width="0.25" d="M48.8,42.344c0,0.741,1.315,1.385,3.25,1.714"/>
					<path fill="none" stroke="#333333" stroke-width="0.25" d="M48.8,42.943c0,0.74,1.313,1.384,3.248,1.713"/>
					<path fill="none" stroke="#333333" stroke-width="0.25" d="M48.8,43.542c0,1.075,2.771,1.947,6.19,1.947
						c0.696,0,1.366-0.036,1.99-0.103"/>
				</g>
				<path fill="none" stroke="#4C524E" stroke-width="0.75" d="M48.8,16.213v28.692c0,1.075,2.821,1.948,6.24,1.948
					c3.418,0,6.14-0.872,6.14-1.948l0.043-0.847V16.547"/>
				<ellipse fill="none" stroke="#1A1A1A" stroke-width="0.275" cx="55.04" cy="16.24" rx="6.325" ry="1.911"/>
			</g>
			<g>
				<path fill="#A5A5A5" fill-opacity="0.5" stroke="#1A1A1A" stroke-width="0.1" d="M60.894,15.909v3.169
					c0-0.698-1.352-1.307-3.303-1.584c-0.77-0.116-1.629-0.179-2.533-0.179s-1.763,0.063-2.524,0.179
					c-1.96,0.277-3.312,0.886-3.312,1.584v-3.169c0-0.976,2.614-1.763,5.836-1.763S60.894,14.934,60.894,15.909z"/>
				
					<ellipse fill="#A5A5A5" fill-opacity="0.5" stroke="#1A1A1A" stroke-width="0.1" cx="55.058" cy="19.077" rx="5.836" ry="1.763"/>
				<path fill="#E4E8E8" fill-opacity="0.7" stroke="#1A1A1A" stroke-width="0.1" d="M60.894,15.909v3.169
					c0,0.976-2.614,1.763-5.836,1.763c-3.222,0-5.836-0.788-5.836-1.763v-3.169c0,0.698,1.352,1.307,3.312,1.584
					c0.761,0.116,1.62,0.179,2.524,0.179c0.904,0,1.763-0.063,2.533-0.179C59.542,17.207,60.894,16.608,60.894,15.909z"/>
				<path fill="#A5A5A5" fill-opacity="0.5" stroke="#1A1A1A" stroke-width="0.1" d="M55.058,14.144
					c-3.223,0-5.836,0.789-5.836,1.763s2.613,1.763,5.836,1.763c3.222,0,5.836-0.789,5.836-1.763S58.28,14.144,55.058,14.144z
					 M55.058,16.448c-0.989,0-1.791-0.242-1.791-0.541c0-0.299,0.802-0.541,1.791-0.541c0.989,0,1.79,0.242,1.79,0.541
					C56.848,16.205,56.046,16.448,55.058,16.448z"/>
				<path fill="#A5A5A5" fill-opacity="0.5" stroke="#1A1A1A" stroke-width="0.1" d="M55.058,13.186
					c-4.974,0-9.006,1.217-9.006,2.72c0,1.503,4.032,2.721,9.006,2.721c4.972,0,9.005-1.218,9.005-2.721
					C64.063,14.404,60.03,13.186,55.058,13.186z M55.058,16.448c-0.989,0-1.791-0.242-1.791-0.541c0-0.299,0.802-0.541,1.791-0.541
					c0.989,0,1.79,0.242,1.79,0.541C56.848,16.205,56.046,16.448,55.058,16.448z"/>
				<path fill="#E4E8E8" fill-opacity="0.2" stroke="#1A1A1A" stroke-width="0.1" d="M66.524,4.183c0,0.179-0.045,0.876-0.134,1.055
					l-0.099,0.179l-2.229,6.465c0-0.653-0.77-1.262-2.05-1.728c-0.009,0-0.009,0-0.009,0C60.348,9.545,57.85,9.16,55.058,9.16
					s-5.29,0.385-6.946,0.994c-1.28,0.465-2.059,1.074-2.059,1.728l-2.193-6.42l-0.152-0.269c-0.081-0.161-0.116-0.849-0.116-1.01
					c0-1.916,5.138-3.464,11.466-3.464C61.395,0.719,66.524,2.268,66.524,4.183z"/>
				<path fill="#E4E8E8" fill-opacity="0.5" stroke="#1A1A1A" stroke-width="0.1" d="M64.062,11.882v4.028
					c0-0.797-1.137-1.513-2.945-2.014c-1.602-0.439-3.724-0.707-6.06-0.707c-2.327,0-4.449,0.269-6.042,0.707
					c-1.817,0.492-2.963,1.217-2.963,2.014v-4.028c0-0.653,0.779-1.262,2.059-1.728c1.656-0.609,4.153-0.994,6.946-0.994
					s5.29,0.385,6.946,0.994c0,0,0,0,0.009,0C63.292,10.619,64.062,11.228,64.062,11.882z"/>
				<path fill="#E4E8E8" fill-opacity="0.7" stroke="#525252" stroke-width="0.25" d="M66.273,5.417l-2.229,6.465
					c0,0.797-1.137,1.513-2.945,2.014c-1.602,0.439-3.724,0.707-6.06,0.707c-2.327,0-4.449-0.269-6.042-0.707
					c-1.817-0.492-2.963-1.217-2.963-2.014l-2.193-6.42c0.6,0.815,2.139,1.513,4.252,2.005c1.933,0.448,4.332,0.707,6.946,0.707
					c2.614,0,5.012-0.26,6.946-0.707c0,0,0,0,0.009,0C64.143,6.965,65.7,6.24,66.273,5.417z"/>
				<path fill="#E4E8E8" fill-opacity="0.7" stroke="#525252" stroke-width="0.25" d="M64.044,11.882v4.028
					c0,1.504-4.028,2.721-9.005,2.721c-4.968,0-9.005-1.217-9.005-2.721v-4.028c0,0.797,1.146,1.522,2.963,2.014
					c1.593,0.439,3.715,0.707,6.042,0.707c2.336,0,4.458-0.269,6.06-0.707C62.908,13.394,64.044,12.678,64.044,11.882z"/>
				<g>
					<path fill="#363636" d="M55.058,0.924c6.337,0,11.466,1.548,11.466,3.464c0,0.179-0.045,0.349-0.134,0.528l-0.098,0.179
						l-2.229,6.465v4.019c0,0.002,0.001,0.004,0.001,0.006c0,0.829-1.233,1.571-3.17,2.07v1.1l0,0c0,0,0,0,0,0v0.001
						c0,0.976-2.614,1.763-5.836,1.763c-3.222,0-5.836-0.788-5.836-1.763v0l0,0v-1.094c-1.947-0.499-3.186-1.242-3.186-2.075v-4.028
						l-2.193-6.42c0.008,0.011,0.02,0.021,0.029,0.032L43.86,5.139l-0.152-0.269c-0.081-0.161-0.116-0.322-0.116-0.483
						C43.591,2.472,48.729,0.924,55.058,0.924 M55.058,0.424c-5.801,0-11.966,1.389-11.966,3.964c0,0.244,0.057,0.482,0.169,0.707
						l0.115,0.203l-0.006,0.004l2.166,6.341v3.945c0,1.017,1.1,1.863,3.186,2.457v0.711c0,1.555,3.284,2.263,6.336,2.263
						s6.336-0.708,6.336-2.263v-0.72c2.076-0.594,3.17-1.438,3.17-2.452v-0.062l-0.001-0.004v-3.876l2.188-6.345l0.078-0.141
						c0.135-0.269,0.196-0.515,0.196-0.769C67.024,1.813,60.858,0.424,55.058,0.424L55.058,0.424z"/>
				</g>
			</g>
		</g>
		<polygon fill="#A9AEB0" stroke="#3B403D" stroke-width="0.25" stroke-linejoin="round" points="82.503,46.469 82.503,51.718 
			94.177,51.718 94.177,46.469 107.299,46.469 107.299,52.47 34.541,52.38 34.541,46.378 47.663,46.378 47.663,51.628 
			59.337,51.628 59.337,46.378 		"/>
		<g display="none">
			<path display="inline" d="M86.822,1.246c6.337,0,11.466,1.549,11.466,3.464v0c0,0.124-0.029,0.244-0.072,0.365
				c-0.019,0.054-0.035,0.108-0.062,0.163l-0.099,0.179l-2.229,6.465v4.019c0,0.002,0.001,0.004,0.001,0.006
				c0,0.099-0.02,0.197-0.054,0.294c-0.01,0.029-0.03,0.058-0.044,0.087c-0.031,0.067-0.064,0.134-0.111,0.199
				c-0.023,0.032-0.054,0.063-0.081,0.095c-0.052,0.062-0.107,0.123-0.172,0.182c-0.033,0.03-0.071,0.06-0.108,0.089
				c-0.074,0.06-0.153,0.12-0.24,0.178c-0.04,0.027-0.083,0.053-0.125,0.079c-0.099,0.06-0.204,0.119-0.316,0.177
				c-0.043,0.022-0.085,0.043-0.13,0.064c-0.128,0.061-0.263,0.121-0.406,0.179c-0.039,0.016-0.077,0.032-0.117,0.047
				c-0.163,0.063-0.336,0.124-0.516,0.182c-0.027,0.009-0.053,0.018-0.081,0.027c-0.109,0.035-0.223,0.068-0.338,0.101v15.262
				l7.241,0.011l7.07,13.401v6.002l-72.758-0.09v-6.001l7.07-13.401l7.153,0.011l-0.045-15.233c-0.057-0.017-0.11-0.035-0.165-0.052
				c-0.033-0.01-0.063-0.021-0.096-0.032c-0.176-0.057-0.345-0.116-0.504-0.178c-0.044-0.017-0.086-0.035-0.129-0.052
				c-0.139-0.056-0.272-0.114-0.397-0.174c-0.048-0.023-0.093-0.046-0.139-0.069c-0.11-0.056-0.214-0.114-0.311-0.173
				c-0.045-0.027-0.089-0.054-0.131-0.082c-0.086-0.057-0.163-0.115-0.237-0.174c-0.038-0.031-0.078-0.061-0.112-0.093
				c-0.065-0.059-0.119-0.119-0.171-0.18c-0.028-0.032-0.059-0.064-0.083-0.097c-0.047-0.065-0.08-0.131-0.111-0.197
				c-0.014-0.03-0.034-0.059-0.045-0.089c-0.034-0.097-0.055-0.195-0.055-0.294v-4.028l-2.193-6.42l0,0l0,0
				c0.008,0.011,0.02,0.021,0.029,0.032L43.86,5.462l-0.152-0.269c-0.081-0.161-0.116-0.322-0.116-0.483v0
				c0-1.915,5.138-3.464,11.466-3.464c6.337,0,11.466,1.549,11.466,3.464v0c0,0.179-0.045,0.349-0.134,0.528l-0.099,0.179
				l-2.229,6.465v4.019c0,0.002,0.001,0.004,0.001,0.006c0,0.099-0.02,0.197-0.054,0.294c-0.011,0.03-0.031,0.059-0.044,0.088
				c-0.031,0.067-0.064,0.133-0.111,0.198c-0.023,0.032-0.054,0.064-0.081,0.096c-0.052,0.061-0.106,0.122-0.172,0.182
				c-0.033,0.03-0.072,0.06-0.109,0.09c-0.074,0.06-0.152,0.119-0.239,0.177c-0.04,0.027-0.083,0.053-0.126,0.079
				c-0.098,0.06-0.203,0.119-0.316,0.176c-0.043,0.022-0.086,0.043-0.13,0.065c-0.128,0.061-0.263,0.121-0.406,0.179
				c-0.039,0.016-0.077,0.032-0.117,0.047c-0.163,0.063-0.335,0.124-0.516,0.182c-0.028,0.009-0.054,0.018-0.082,0.027
				c-0.109,0.035-0.222,0.068-0.338,0.101v15.213l19.342,0.03v-15.26c-0.084-0.024-0.165-0.049-0.246-0.074
				c-0.033-0.01-0.064-0.021-0.096-0.032c-0.176-0.057-0.345-0.116-0.504-0.177c-0.044-0.017-0.086-0.035-0.129-0.052
				c-0.139-0.056-0.272-0.114-0.396-0.174c-0.048-0.023-0.094-0.046-0.139-0.069c-0.11-0.056-0.213-0.114-0.31-0.173
				c-0.045-0.027-0.089-0.054-0.131-0.082c-0.086-0.057-0.163-0.115-0.237-0.174c-0.038-0.031-0.077-0.061-0.112-0.092
				c-0.065-0.059-0.12-0.12-0.171-0.181c-0.028-0.032-0.059-0.064-0.082-0.097c-0.047-0.065-0.08-0.131-0.111-0.198
				c-0.014-0.03-0.034-0.059-0.045-0.088c-0.034-0.097-0.055-0.195-0.055-0.294v-4.028l-2.193-6.42l0,0
				c0.008,0.011,0.021,0.021,0.029,0.032l-0.011-0.032l-0.152-0.269c-0.081-0.161-0.116-0.322-0.116-0.483v0
				C75.356,2.794,80.494,1.246,86.822,1.246 M86.822,0.746c-5.801,0-11.966,1.389-11.966,3.964c0,0.245,0.057,0.482,0.169,0.707
				L75.14,5.62l-0.006,0.004l2.166,6.341v3.945c0,0.151,0.028,0.306,0.084,0.462c0.016,0.043,0.037,0.087,0.06,0.129
				c0.046,0.097,0.095,0.19,0.161,0.282c0.026,0.036,0.057,0.072,0.088,0.107c0.084,0.098,0.153,0.174,0.235,0.248
				c0.034,0.031,0.072,0.062,0.11,0.092c0.109,0.088,0.199,0.155,0.299,0.222c0.048,0.032,0.098,0.062,0.148,0.093
				c0.107,0.065,0.22,0.128,0.342,0.191l0.151,0.075c0.133,0.064,0.275,0.125,0.424,0.186l0.137,0.055
				c0.166,0.064,0.342,0.126,0.526,0.185v14.391l-18.342-0.028V18.258l0.044-0.014c0.22-0.072,0.401-0.135,0.572-0.202l0.088-0.035
				c0.189-0.077,0.334-0.14,0.471-0.206l0.141-0.07c0.124-0.064,0.24-0.129,0.349-0.195c0.048-0.029,0.096-0.059,0.142-0.089
				c0.102-0.068,0.193-0.136,0.279-0.206c0.06-0.048,0.096-0.077,0.129-0.107c0.083-0.076,0.152-0.152,0.218-0.229
				c0.05-0.056,0.08-0.091,0.105-0.126c0.066-0.092,0.115-0.185,0.159-0.279c0.025-0.045,0.047-0.088,0.062-0.131
				c0.055-0.156,0.083-0.311,0.083-0.462v-0.06l-0.001-0.004v-3.877L66.75,5.62l0.078-0.141c0.135-0.269,0.196-0.515,0.196-0.769
				c0-2.575-6.165-3.964-11.966-3.964c-5.801,0-11.966,1.389-11.966,3.964c0,0.245,0.057,0.482,0.169,0.707l0.114,0.203
				l-0.006,0.004l2.166,6.341v3.945c0,0.151,0.028,0.307,0.084,0.462c0.016,0.044,0.037,0.087,0.061,0.13
				c0.046,0.098,0.095,0.19,0.16,0.281c0.026,0.036,0.056,0.071,0.088,0.106c0.085,0.099,0.154,0.174,0.235,0.249
				c0.035,0.032,0.073,0.063,0.112,0.093c0.107,0.087,0.197,0.154,0.297,0.22c0.048,0.032,0.098,0.062,0.148,0.093
				c0.106,0.065,0.22,0.128,0.342,0.191l0.151,0.075c0.133,0.064,0.276,0.126,0.425,0.186l0.137,0.055
				c0.142,0.055,0.291,0.108,0.446,0.159l0.043,14.368l-6.651-0.01l-0.302,0l-0.141,0.267l-7.07,13.401l-0.058,0.11v0.124v6.001
				v0.499l0.499,0.001l72.758,0.09l0.501,0.001v-0.501v-6.002v-0.124l-0.058-0.11l-7.07-13.401l-0.14-0.266l-0.301,0l-6.742-0.01
				v-14.39l0.044-0.015c0.219-0.071,0.4-0.135,0.572-0.201l0.088-0.035c0.189-0.077,0.335-0.14,0.471-0.206l0.14-0.07
				c0.125-0.064,0.241-0.129,0.35-0.195c0.048-0.029,0.096-0.059,0.141-0.088c0.102-0.068,0.194-0.137,0.28-0.207
				c0.06-0.048,0.096-0.077,0.129-0.107c0.083-0.076,0.152-0.152,0.218-0.23c0.05-0.056,0.079-0.09,0.104-0.125
				c0.067-0.093,0.116-0.186,0.16-0.281c0.025-0.044,0.046-0.087,0.061-0.129c0.056-0.156,0.084-0.311,0.084-0.462v-0.061
				l-0.001-0.004v-3.876l2.188-6.345l0.078-0.141c0.041-0.082,0.064-0.144,0.085-0.207c0.079-0.225,0.111-0.394,0.111-0.562
				C98.788,2.135,92.623,0.746,86.822,0.746L86.822,0.746z"/>
		</g>
		<g>
			<path fill="#F7F3ED" stroke="#575757" stroke-width="0.25" stroke-miterlimit="10" d="M59.639,17.922
				c-3.873,0.609-5.87,0.609-9.743,0c0-1.347,0-2.02,0-3.367c3.873,0.609,5.869,0.609,9.743,0
				C59.639,15.902,59.639,16.575,59.639,17.922z"/>
			<g>
				<path d="M52.681,16.958c0,0.092-0.017,0.174-0.052,0.244c-0.034,0.07-0.082,0.128-0.142,0.174
					c-0.061,0.046-0.132,0.078-0.215,0.097c-0.082,0.019-0.171,0.024-0.266,0.016c-0.066-0.006-0.128-0.017-0.184-0.034
					c-0.057-0.017-0.107-0.035-0.152-0.056c-0.044-0.02-0.082-0.041-0.111-0.062c-0.03-0.02-0.051-0.037-0.063-0.051
					c-0.012-0.014-0.02-0.03-0.026-0.049c-0.006-0.02-0.008-0.045-0.008-0.077c0-0.022,0.001-0.041,0.003-0.055
					c0.002-0.015,0.005-0.026,0.009-0.035c0.004-0.009,0.009-0.014,0.015-0.017c0.006-0.003,0.013-0.004,0.021-0.003
					c0.014,0.001,0.034,0.012,0.061,0.032c0.026,0.02,0.059,0.042,0.1,0.067c0.041,0.024,0.09,0.048,0.148,0.071
					c0.058,0.023,0.124,0.039,0.2,0.045c0.057,0.005,0.109,0.002,0.157-0.01c0.048-0.011,0.088-0.03,0.123-0.055
					c0.034-0.025,0.061-0.058,0.079-0.097c0.018-0.039,0.028-0.085,0.028-0.137c0-0.056-0.013-0.105-0.039-0.147
					c-0.025-0.042-0.059-0.079-0.101-0.113c-0.042-0.034-0.09-0.065-0.143-0.094c-0.054-0.029-0.108-0.06-0.165-0.091
					c-0.056-0.031-0.111-0.065-0.164-0.101c-0.053-0.037-0.1-0.079-0.142-0.126c-0.042-0.047-0.076-0.1-0.102-0.161
					c-0.026-0.06-0.039-0.131-0.039-0.211c0-0.083,0.015-0.155,0.045-0.216c0.03-0.061,0.072-0.111,0.126-0.15
					c0.053-0.039,0.117-0.066,0.191-0.082c0.074-0.016,0.154-0.02,0.239-0.013c0.044,0.004,0.088,0.011,0.133,0.023
					c0.044,0.011,0.086,0.025,0.125,0.04c0.039,0.016,0.074,0.033,0.105,0.051c0.031,0.018,0.051,0.032,0.06,0.043
					c0.01,0.011,0.016,0.019,0.019,0.024c0.003,0.006,0.006,0.013,0.008,0.022c0.002,0.009,0.004,0.019,0.005,0.032
					c0.001,0.012,0.001,0.028,0.001,0.047c0,0.019-0.001,0.035-0.002,0.049c-0.002,0.014-0.004,0.026-0.007,0.035
					c-0.003,0.01-0.007,0.016-0.013,0.02c-0.006,0.005-0.012,0.006-0.019,0.006c-0.011-0.001-0.029-0.009-0.053-0.025
					c-0.024-0.016-0.053-0.034-0.088-0.055s-0.076-0.04-0.123-0.059c-0.047-0.019-0.101-0.03-0.16-0.035
					c-0.055-0.005-0.103-0.002-0.144,0.009c-0.041,0.011-0.074,0.028-0.101,0.05c-0.026,0.022-0.046,0.049-0.06,0.082
					c-0.013,0.032-0.02,0.067-0.02,0.105c0,0.055,0.013,0.104,0.038,0.146c0.025,0.042,0.059,0.08,0.102,0.115
					c0.042,0.035,0.091,0.067,0.145,0.097c0.054,0.03,0.109,0.061,0.165,0.091c0.056,0.03,0.111,0.063,0.165,0.098
					c0.054,0.035,0.102,0.075,0.145,0.121c0.043,0.045,0.077,0.098,0.103,0.157C52.668,16.811,52.681,16.88,52.681,16.958z"/>
				<path d="M54.312,16.838c0,0.112-0.015,0.215-0.044,0.309c-0.03,0.094-0.074,0.174-0.133,0.241
					c-0.059,0.067-0.132,0.118-0.221,0.154c-0.088,0.036-0.191,0.052-0.307,0.048c-0.114-0.004-0.212-0.025-0.297-0.063
					c-0.084-0.038-0.155-0.09-0.211-0.157c-0.056-0.067-0.098-0.147-0.126-0.241c-0.027-0.093-0.041-0.198-0.041-0.314
					c0-0.112,0.014-0.214,0.044-0.307c0.029-0.093,0.073-0.171,0.132-0.237c0.059-0.065,0.132-0.114,0.22-0.148
					c0.088-0.034,0.191-0.048,0.308-0.044c0.113,0.004,0.212,0.024,0.297,0.06c0.084,0.036,0.154,0.086,0.211,0.152
					c0.056,0.065,0.099,0.144,0.127,0.236C54.298,16.619,54.312,16.723,54.312,16.838z M54.05,16.85
					c0-0.075-0.007-0.145-0.021-0.211c-0.014-0.067-0.037-0.125-0.069-0.176c-0.032-0.051-0.075-0.091-0.13-0.122
					c-0.055-0.031-0.123-0.047-0.204-0.05c-0.075-0.003-0.14,0.008-0.194,0.032c-0.054,0.024-0.099,0.06-0.134,0.106
					c-0.035,0.047-0.061,0.103-0.078,0.168c-0.017,0.065-0.026,0.137-0.026,0.216c0,0.075,0.007,0.146,0.021,0.213
					c0.014,0.067,0.037,0.126,0.07,0.177c0.032,0.051,0.076,0.092,0.131,0.124c0.055,0.031,0.123,0.049,0.204,0.052
					c0.074,0.003,0.139-0.008,0.193-0.033c0.055-0.025,0.1-0.061,0.135-0.108c0.035-0.047,0.061-0.104,0.077-0.169
					C54.042,17.002,54.05,16.929,54.05,16.85z"/>
				<path d="M54.968,15.704c0,0.059-0.011,0.1-0.034,0.121c-0.023,0.021-0.064,0.033-0.124,0.033c-0.059,0-0.1-0.011-0.122-0.032
					c-0.022-0.021-0.033-0.06-0.033-0.119c0-0.059,0.011-0.099,0.034-0.12c0.023-0.021,0.064-0.032,0.124-0.032
					c0.059,0,0.1,0.01,0.122,0.031C54.957,15.606,54.968,15.646,54.968,15.704z M54.939,17.544c0,0.008-0.002,0.015-0.006,0.021
					c-0.004,0.006-0.011,0.011-0.02,0.014c-0.009,0.004-0.022,0.007-0.038,0.009c-0.017,0.002-0.037,0.003-0.063,0.003
					c-0.025,0-0.045-0.001-0.061-0.003c-0.017-0.002-0.03-0.005-0.039-0.009c-0.01-0.004-0.016-0.009-0.02-0.014
					c-0.004-0.006-0.006-0.013-0.006-0.021c0-0.55,0-0.825,0-1.375c0-0.007,0.002-0.014,0.006-0.02
					c0.004-0.006,0.01-0.011,0.02-0.015c0.01-0.004,0.023-0.007,0.039-0.009c0.016-0.002,0.037-0.003,0.061-0.003
					c0.026,0,0.046,0.001,0.063,0.003c0.016,0.002,0.029,0.005,0.038,0.009c0.009,0.004,0.016,0.009,0.02,0.015
					c0.004,0.006,0.006,0.013,0.006,0.02C54.939,16.719,54.939,16.994,54.939,17.544z"/>
				<path d="M55.66,17.532c0,0.008-0.002,0.015-0.006,0.021c-0.004,0.006-0.011,0.011-0.02,0.015
					c-0.009,0.004-0.022,0.008-0.038,0.01c-0.017,0.003-0.037,0.004-0.063,0.005c-0.025,0.001-0.045,0-0.061-0.002
					c-0.017-0.001-0.03-0.004-0.039-0.008c-0.01-0.004-0.016-0.008-0.02-0.014c-0.004-0.006-0.006-0.012-0.006-0.021
					c0-0.817,0-1.225,0-2.041c0-0.008,0.002-0.015,0.006-0.021c0.004-0.006,0.01-0.011,0.02-0.016
					c0.01-0.004,0.023-0.007,0.039-0.01c0.016-0.002,0.037-0.004,0.061-0.005c0.026-0.001,0.046,0,0.063,0.002
					c0.016,0.002,0.029,0.004,0.038,0.008s0.016,0.009,0.02,0.015c0.004,0.006,0.006,0.013,0.006,0.021
					C55.66,16.307,55.66,16.715,55.66,17.532z"/>
				<path d="M58.023,17.309c0,0.02-0.001,0.036-0.005,0.05c-0.003,0.014-0.007,0.025-0.012,0.034
					c-0.005,0.009-0.011,0.015-0.018,0.019c-0.007,0.004-0.013,0.007-0.021,0.007c-0.413,0.042-0.62,0.06-1.035,0.089
					c-0.007,0.001-0.014-0.001-0.02-0.004c-0.006-0.003-0.012-0.009-0.018-0.016c-0.006-0.008-0.01-0.018-0.013-0.031
					s-0.005-0.029-0.005-0.049c0-0.018,0.001-0.034,0.005-0.048c0.003-0.014,0.007-0.025,0.012-0.034
					c0.005-0.009,0.01-0.016,0.017-0.021c0.006-0.005,0.014-0.008,0.022-0.009c0.165-0.011,0.248-0.018,0.413-0.031
					c0-0.601,0-0.902,0-1.504c-0.153,0.104-0.23,0.155-0.383,0.257c-0.019,0.012-0.035,0.019-0.047,0.021
					c-0.012,0.003-0.021,0.001-0.028-0.005c-0.007-0.006-0.012-0.017-0.014-0.032c-0.002-0.015-0.004-0.034-0.004-0.058
					c0-0.017,0.001-0.032,0.002-0.044c0.002-0.012,0.004-0.023,0.007-0.031c0.003-0.009,0.007-0.016,0.013-0.023
					c0.006-0.006,0.013-0.013,0.022-0.02c0.183-0.129,0.274-0.195,0.457-0.327c0.004-0.004,0.009-0.006,0.015-0.009
					c0.006-0.003,0.014-0.005,0.023-0.008c0.009-0.003,0.02-0.005,0.032-0.007c0.012-0.002,0.027-0.003,0.046-0.005
					c0.024-0.002,0.045-0.003,0.061-0.003c0.016,0.001,0.029,0.002,0.038,0.005c0.009,0.003,0.015,0.007,0.019,0.012
					c0.003,0.005,0.005,0.011,0.005,0.017c0,0.695,0,1.042,0,1.737c0.143-0.013,0.215-0.02,0.358-0.035
					c0.008-0.001,0.016,0.001,0.023,0.005c0.007,0.004,0.013,0.01,0.018,0.018c0.005,0.008,0.008,0.019,0.011,0.032
					C58.022,17.275,58.023,17.291,58.023,17.309z"/>
			</g>
		</g>
		<g>
			<path d="M85.615,49.55c0.017,0.091,0.013,0.171-0.013,0.24c-0.026,0.068-0.068,0.126-0.126,0.172s-0.129,0.082-0.213,0.104
				c-0.085,0.023-0.177,0.035-0.278,0.035c-0.068,0-0.133-0.005-0.193-0.015s-0.115-0.022-0.162-0.035
				c-0.048-0.015-0.088-0.029-0.121-0.045c-0.033-0.015-0.058-0.028-0.072-0.04c-0.016-0.012-0.028-0.027-0.038-0.05
				s-0.019-0.054-0.026-0.095c-0.005-0.028-0.009-0.051-0.01-0.07c-0.002-0.019-0.001-0.034,0.001-0.045
				c0.003-0.012,0.007-0.021,0.014-0.025s0.016-0.008,0.025-0.008c0.015,0,0.036,0.008,0.064,0.022
				c0.029,0.016,0.065,0.031,0.109,0.049c0.045,0.019,0.097,0.034,0.156,0.049c0.06,0.016,0.126,0.023,0.201,0.023
				c0.049,0,0.092-0.006,0.128-0.017c0.037-0.01,0.067-0.024,0.091-0.043c0.023-0.02,0.04-0.042,0.049-0.07
				c0.009-0.027,0.011-0.059,0.005-0.092c-0.008-0.04-0.026-0.074-0.057-0.102c-0.029-0.028-0.066-0.054-0.109-0.075
				c-0.044-0.022-0.093-0.043-0.146-0.063s-0.108-0.039-0.166-0.061c-0.057-0.022-0.113-0.046-0.168-0.074
				c-0.056-0.026-0.106-0.06-0.152-0.098c-0.047-0.037-0.087-0.082-0.121-0.134c-0.034-0.053-0.059-0.114-0.072-0.188
				c-0.016-0.084-0.012-0.156,0.012-0.22s0.061-0.115,0.113-0.156c0.052-0.043,0.116-0.073,0.193-0.095
				c0.077-0.02,0.161-0.03,0.252-0.03c0.047,0,0.095,0.003,0.143,0.01c0.049,0.006,0.094,0.015,0.137,0.024
				c0.043,0.012,0.081,0.023,0.115,0.037c0.035,0.013,0.058,0.024,0.069,0.033c0.012,0.01,0.021,0.018,0.025,0.023
				c0.005,0.007,0.009,0.014,0.014,0.024s0.009,0.023,0.013,0.039s0.008,0.035,0.013,0.058c0.005,0.026,0.008,0.049,0.01,0.066
				c0.002,0.019,0.002,0.033,0.001,0.044c-0.002,0.012-0.005,0.021-0.011,0.026c-0.006,0.005-0.015,0.008-0.025,0.008
				s-0.03-0.006-0.058-0.019c-0.026-0.014-0.06-0.026-0.098-0.041c-0.038-0.016-0.082-0.029-0.132-0.04
				c-0.049-0.013-0.102-0.019-0.158-0.019c-0.044,0-0.081,0.005-0.111,0.015c-0.031,0.009-0.057,0.021-0.075,0.038
				s-0.031,0.036-0.038,0.06c-0.006,0.024-0.007,0.048-0.002,0.074c0.008,0.039,0.026,0.071,0.056,0.101
				c0.029,0.027,0.065,0.053,0.109,0.075c0.045,0.021,0.095,0.042,0.149,0.061c0.055,0.021,0.11,0.041,0.168,0.062
				c0.057,0.021,0.113,0.046,0.17,0.073c0.056,0.027,0.107,0.061,0.154,0.099c0.048,0.038,0.088,0.083,0.122,0.134
				C85.577,49.419,85.601,49.48,85.615,49.55z"/>
			<path d="M87.254,49.414c0.02,0.102,0.022,0.194,0.007,0.279c-0.015,0.083-0.048,0.156-0.098,0.217
				c-0.052,0.062-0.12,0.108-0.208,0.142s-0.194,0.05-0.32,0.05c-0.121,0-0.229-0.015-0.325-0.045
				c-0.096-0.029-0.178-0.072-0.248-0.128c-0.069-0.057-0.126-0.126-0.171-0.209c-0.044-0.082-0.076-0.176-0.096-0.281
				c-0.019-0.103-0.021-0.196-0.006-0.28c0.015-0.085,0.048-0.158,0.099-0.219c0.052-0.06,0.12-0.106,0.208-0.14
				c0.087-0.032,0.193-0.05,0.319-0.05c0.122,0,0.231,0.016,0.326,0.044c0.096,0.029,0.178,0.072,0.247,0.129
				c0.069,0.056,0.126,0.126,0.17,0.207C87.202,49.213,87.235,49.308,87.254,49.414z M86.861,49.428
				c-0.011-0.06-0.026-0.114-0.047-0.163c-0.02-0.05-0.046-0.094-0.078-0.13c-0.033-0.037-0.072-0.065-0.118-0.086
				c-0.047-0.021-0.102-0.031-0.166-0.031c-0.058,0-0.105,0.01-0.145,0.028c-0.04,0.018-0.07,0.045-0.091,0.08
				c-0.021,0.035-0.034,0.078-0.038,0.128c-0.005,0.049-0.001,0.105,0.011,0.17c0.012,0.059,0.027,0.113,0.048,0.163
				c0.021,0.049,0.047,0.092,0.079,0.13c0.031,0.036,0.071,0.063,0.118,0.084c0.046,0.021,0.102,0.03,0.164,0.03
				c0.059,0,0.107-0.009,0.146-0.027c0.04-0.019,0.07-0.045,0.091-0.08c0.021-0.034,0.034-0.076,0.037-0.126
				C86.876,49.548,86.872,49.492,86.861,49.428z"/>
			<path d="M87.787,48.422c0.014,0.068,0.006,0.115-0.021,0.141c-0.026,0.026-0.083,0.039-0.169,0.039
				c-0.087,0-0.147-0.013-0.183-0.038c-0.035-0.024-0.058-0.069-0.07-0.135c-0.013-0.068-0.007-0.115,0.02-0.143
				c0.026-0.026,0.083-0.039,0.17-0.039c0.086,0,0.146,0.013,0.182,0.038S87.776,48.357,87.787,48.422z M88.061,50.025
				c0.002,0.01,0,0.018-0.005,0.024c-0.005,0.006-0.015,0.012-0.028,0.016c-0.015,0.005-0.033,0.009-0.057,0.011
				c-0.024,0.002-0.056,0.003-0.094,0.003c-0.037,0-0.069-0.001-0.094-0.003s-0.045-0.006-0.061-0.011
				c-0.016-0.004-0.027-0.01-0.035-0.016c-0.008-0.007-0.012-0.015-0.014-0.024l-0.225-1.195c-0.002-0.008,0-0.016,0.005-0.022
				s0.014-0.014,0.028-0.019c0.014-0.005,0.032-0.009,0.057-0.012c0.023-0.002,0.055-0.004,0.092-0.004
				c0.039,0,0.07,0.002,0.095,0.004c0.025,0.003,0.046,0.007,0.062,0.012s0.027,0.012,0.035,0.019
				c0.007,0.007,0.012,0.015,0.013,0.022L88.061,50.025z"/>
			<path d="M88.831,50.025c0.001,0.01-0.001,0.018-0.005,0.024c-0.005,0.006-0.015,0.012-0.028,0.016
				c-0.015,0.005-0.033,0.009-0.058,0.011c-0.023,0.002-0.055,0.003-0.093,0.003s-0.069-0.001-0.094-0.003s-0.045-0.006-0.062-0.011
				c-0.015-0.004-0.026-0.01-0.034-0.016c-0.007-0.007-0.012-0.015-0.014-0.024l-0.332-1.766c-0.002-0.009,0-0.017,0.005-0.024
				c0.005-0.007,0.014-0.014,0.027-0.019c0.015-0.004,0.033-0.008,0.057-0.011c0.024-0.002,0.056-0.004,0.093-0.004
				c0.038,0,0.07,0.002,0.095,0.004c0.025,0.003,0.045,0.007,0.062,0.011c0.016,0.005,0.026,0.012,0.034,0.019
				c0.008,0.008,0.013,0.016,0.014,0.024L88.831,50.025z"/>
			<path d="M91.177,49.927c0.005,0.025,0.008,0.048,0.009,0.067c0.001,0.018,0,0.032-0.003,0.044
				c-0.003,0.013-0.008,0.02-0.016,0.024c-0.007,0.005-0.016,0.008-0.026,0.008h-1.139c-0.023,0-0.042-0.002-0.06-0.006
				c-0.017-0.003-0.032-0.011-0.043-0.02c-0.013-0.011-0.022-0.026-0.031-0.046s-0.016-0.045-0.021-0.076
				c-0.006-0.03-0.009-0.055-0.01-0.076c-0.001-0.021,0.001-0.039,0.007-0.057c0.005-0.017,0.012-0.032,0.021-0.048
				s0.023-0.032,0.04-0.052l0.283-0.322c0.057-0.063,0.101-0.12,0.133-0.171c0.032-0.052,0.056-0.099,0.071-0.142
				c0.016-0.042,0.024-0.081,0.026-0.117s0-0.069-0.006-0.103c-0.006-0.029-0.017-0.058-0.032-0.083
				c-0.016-0.027-0.036-0.05-0.061-0.07c-0.024-0.02-0.054-0.034-0.088-0.046c-0.033-0.011-0.071-0.017-0.114-0.017
				c-0.061,0-0.113,0.007-0.157,0.021c-0.043,0.014-0.082,0.027-0.113,0.045c-0.032,0.017-0.059,0.031-0.08,0.045
				c-0.021,0.015-0.037,0.021-0.051,0.021c-0.01,0-0.018-0.003-0.025-0.009c-0.008-0.005-0.015-0.014-0.021-0.026
				c-0.007-0.013-0.014-0.029-0.021-0.051c-0.006-0.021-0.013-0.047-0.018-0.076c-0.004-0.021-0.007-0.039-0.008-0.052
				c-0.001-0.015-0.001-0.026,0-0.037c0.001-0.01,0.004-0.019,0.008-0.026s0.011-0.018,0.021-0.028
				c0.011-0.01,0.031-0.023,0.063-0.04c0.031-0.018,0.07-0.033,0.117-0.049s0.1-0.029,0.158-0.039
				c0.058-0.011,0.12-0.017,0.186-0.017c0.103,0,0.194,0.012,0.276,0.034c0.081,0.023,0.151,0.055,0.21,0.096
				s0.105,0.089,0.142,0.145c0.036,0.057,0.06,0.116,0.071,0.181c0.011,0.057,0.016,0.112,0.014,0.167s-0.018,0.113-0.044,0.177
				c-0.027,0.063-0.068,0.133-0.125,0.209c-0.056,0.076-0.132,0.166-0.229,0.267l-0.191,0.208h0.78c0.011,0,0.021,0.003,0.029,0.008
				c0.011,0.006,0.02,0.015,0.027,0.025c0.009,0.012,0.016,0.025,0.022,0.044C91.166,49.881,91.172,49.902,91.177,49.927z"/>
		</g>
		<g>
			<path d="M51.791,49.58c-0.023,0.092-0.064,0.174-0.122,0.243c-0.057,0.07-0.125,0.129-0.204,0.176
				c-0.078,0.046-0.166,0.082-0.261,0.105s-0.192,0.035-0.294,0.035c-0.068,0-0.13-0.005-0.186-0.015
				c-0.058-0.01-0.105-0.022-0.147-0.036c-0.041-0.015-0.074-0.029-0.101-0.045c-0.026-0.015-0.044-0.029-0.055-0.04
				c-0.01-0.013-0.015-0.029-0.015-0.051c0.001-0.023,0.007-0.056,0.018-0.097c0.007-0.028,0.015-0.052,0.021-0.071
				s0.014-0.034,0.021-0.046c0.009-0.013,0.017-0.021,0.025-0.025s0.019-0.008,0.028-0.008c0.015,0,0.033,0.008,0.055,0.022
				c0.022,0.016,0.052,0.031,0.088,0.05s0.08,0.034,0.133,0.05c0.053,0.015,0.116,0.022,0.19,0.022c0.05,0,0.095-0.006,0.137-0.016
				c0.042-0.011,0.078-0.024,0.11-0.045c0.032-0.019,0.059-0.042,0.081-0.07c0.021-0.028,0.037-0.06,0.046-0.094
				c0.011-0.041,0.007-0.074-0.01-0.103c-0.018-0.029-0.043-0.056-0.076-0.077c-0.033-0.022-0.072-0.043-0.117-0.063
				c-0.045-0.019-0.091-0.039-0.138-0.061c-0.048-0.023-0.093-0.048-0.136-0.075c-0.043-0.028-0.079-0.062-0.107-0.1
				c-0.029-0.039-0.049-0.084-0.061-0.138c-0.01-0.053-0.006-0.116,0.014-0.189c0.021-0.084,0.059-0.159,0.111-0.223
				c0.052-0.064,0.113-0.117,0.185-0.16c0.07-0.041,0.149-0.073,0.236-0.094c0.087-0.021,0.175-0.031,0.267-0.031
				c0.047,0,0.093,0.003,0.138,0.009c0.045,0.007,0.087,0.016,0.125,0.025c0.038,0.012,0.071,0.024,0.099,0.037
				c0.028,0.015,0.046,0.025,0.055,0.034c0.008,0.01,0.012,0.017,0.015,0.023c0.002,0.007,0.003,0.016,0.002,0.025
				c0,0.011-0.001,0.023-0.005,0.04c-0.003,0.015-0.008,0.035-0.015,0.059c-0.007,0.026-0.013,0.049-0.02,0.067
				c-0.007,0.018-0.013,0.032-0.02,0.045c-0.006,0.012-0.014,0.02-0.021,0.025s-0.018,0.009-0.029,0.009
				c-0.011,0-0.027-0.007-0.049-0.02c-0.021-0.013-0.048-0.026-0.079-0.041c-0.032-0.016-0.069-0.029-0.113-0.042
				c-0.043-0.012-0.094-0.018-0.15-0.018c-0.044,0-0.083,0.005-0.117,0.014c-0.036,0.01-0.067,0.023-0.093,0.04
				c-0.027,0.017-0.049,0.037-0.065,0.061s-0.029,0.049-0.036,0.075c-0.01,0.039-0.007,0.073,0.01,0.102
				c0.016,0.029,0.042,0.054,0.076,0.076s0.075,0.044,0.12,0.063c0.046,0.019,0.094,0.04,0.141,0.062s0.093,0.047,0.137,0.074
				c0.043,0.027,0.08,0.061,0.11,0.1c0.028,0.038,0.05,0.084,0.06,0.137C51.814,49.447,51.811,49.508,51.791,49.58z"/>
			<path d="M53.494,49.442c-0.027,0.104-0.067,0.198-0.121,0.284c-0.053,0.086-0.119,0.159-0.197,0.221
				c-0.078,0.063-0.169,0.109-0.272,0.144c-0.103,0.033-0.216,0.05-0.343,0.05c-0.121,0-0.222-0.015-0.305-0.044
				c-0.081-0.03-0.146-0.074-0.188-0.132c-0.045-0.058-0.07-0.127-0.076-0.211c-0.007-0.085,0.004-0.18,0.032-0.286
				c0.027-0.104,0.067-0.199,0.121-0.285c0.055-0.086,0.119-0.159,0.198-0.221c0.078-0.062,0.169-0.109,0.271-0.143
				c0.103-0.034,0.217-0.051,0.343-0.051c0.122,0,0.225,0.015,0.307,0.044s0.146,0.073,0.188,0.131s0.068,0.127,0.075,0.211
				S53.523,49.333,53.494,49.442z M53.094,49.455c0.016-0.06,0.025-0.115,0.027-0.165c0.003-0.052-0.004-0.095-0.02-0.133
				c-0.016-0.036-0.042-0.065-0.079-0.087c-0.037-0.021-0.087-0.031-0.151-0.031c-0.058,0-0.109,0.009-0.158,0.027
				c-0.048,0.02-0.09,0.047-0.127,0.083c-0.037,0.035-0.069,0.079-0.096,0.129c-0.027,0.051-0.049,0.107-0.066,0.173
				c-0.016,0.06-0.024,0.115-0.027,0.165c-0.001,0.052,0.005,0.095,0.021,0.133c0.016,0.036,0.041,0.065,0.079,0.086
				c0.037,0.021,0.088,0.031,0.15,0.031c0.059,0,0.112-0.01,0.16-0.028s0.09-0.046,0.127-0.082c0.036-0.034,0.068-0.078,0.095-0.128
				C53.055,49.578,53.076,49.521,53.094,49.455z"/>
			<path d="M54.022,50.063c-0.002,0.009-0.007,0.017-0.016,0.023c-0.008,0.007-0.02,0.013-0.035,0.017
				c-0.017,0.005-0.037,0.009-0.062,0.011c-0.025,0.002-0.057,0.004-0.095,0.004c-0.037,0-0.068-0.002-0.092-0.004
				c-0.025-0.002-0.044-0.006-0.057-0.011c-0.014-0.004-0.023-0.01-0.027-0.017s-0.005-0.015-0.002-0.023l0.318-1.215
				c0.003-0.009,0.008-0.017,0.016-0.023s0.02-0.013,0.035-0.019c0.017-0.004,0.037-0.008,0.063-0.011s0.057-0.004,0.094-0.004
				c0.039,0,0.069,0.001,0.094,0.004c0.023,0.003,0.042,0.007,0.055,0.011c0.014,0.006,0.023,0.012,0.027,0.019
				c0.005,0.007,0.006,0.015,0.003,0.023L54.022,50.063z M54.48,48.433c-0.019,0.069-0.048,0.117-0.086,0.144
				c-0.038,0.027-0.101,0.04-0.186,0.04c-0.087,0-0.143-0.013-0.166-0.039c-0.023-0.025-0.026-0.07-0.009-0.138
				c0.019-0.068,0.047-0.117,0.085-0.144s0.101-0.04,0.188-0.04c0.086,0,0.14,0.013,0.164,0.039
				C54.493,48.321,54.497,48.368,54.48,48.433z"/>
			<path d="M54.793,50.063c-0.003,0.009-0.008,0.017-0.017,0.023c-0.008,0.007-0.02,0.013-0.036,0.017
				c-0.016,0.005-0.036,0.009-0.061,0.011c-0.025,0.002-0.057,0.004-0.095,0.004c-0.037,0-0.068-0.002-0.092-0.004
				c-0.025-0.002-0.044-0.006-0.058-0.011c-0.013-0.004-0.022-0.01-0.026-0.017s-0.005-0.015-0.003-0.023l0.473-1.795
				c0.002-0.009,0.007-0.017,0.015-0.024c0.008-0.007,0.021-0.013,0.036-0.018s0.036-0.009,0.063-0.012
				c0.025-0.003,0.057-0.005,0.094-0.005c0.038,0,0.069,0.002,0.093,0.005s0.042,0.007,0.056,0.012s0.022,0.011,0.026,0.018
				c0.005,0.008,0.006,0.016,0.003,0.024L54.793,50.063z"/>
			<path d="M57.162,49.973c-0.007,0.025-0.014,0.046-0.021,0.064c-0.008,0.018-0.016,0.032-0.024,0.042
				c-0.008,0.011-0.017,0.019-0.024,0.022c-0.01,0.005-0.018,0.007-0.026,0.007h-1.094c-0.008,0-0.015-0.002-0.021-0.007
				c-0.006-0.004-0.01-0.012-0.013-0.022c-0.003-0.01-0.004-0.024-0.002-0.042c0.001-0.019,0.006-0.039,0.012-0.064
				c0.008-0.026,0.015-0.049,0.021-0.066s0.016-0.032,0.023-0.043c0.009-0.012,0.018-0.02,0.025-0.023
				c0.009-0.006,0.018-0.008,0.027-0.008h0.369l0.301-1.148l-0.359,0.156c-0.025,0.01-0.047,0.017-0.063,0.019
				c-0.015,0.003-0.025,0-0.033-0.008c-0.006-0.009-0.008-0.021-0.006-0.041c0.002-0.019,0.007-0.046,0.016-0.08
				c0.006-0.021,0.012-0.039,0.016-0.054c0.006-0.015,0.011-0.026,0.018-0.037c0.007-0.009,0.014-0.018,0.023-0.024
				c0.009-0.006,0.021-0.013,0.035-0.02l0.49-0.246c0.006-0.004,0.012-0.006,0.021-0.009c0.009-0.002,0.019-0.004,0.032-0.005
				c0.012-0.002,0.028-0.003,0.048-0.003c0.021-0.001,0.046-0.001,0.077-0.001c0.039,0,0.07,0.001,0.095,0.002
				c0.022,0.002,0.041,0.004,0.052,0.007c0.012,0.004,0.019,0.007,0.021,0.013s0.003,0.013,0.001,0.021l-0.384,1.458h0.324
				c0.008,0,0.017,0.002,0.023,0.008c0.005,0.004,0.01,0.012,0.013,0.023c0.003,0.011,0.003,0.025,0.001,0.043
				S57.169,49.947,57.162,49.973z"/>
		</g>
		<g>
			<path fill="#F7F3ED" stroke="#575757" stroke-width="0.25" stroke-miterlimit="10" d="M91.697,17.879
				c-3.878,0.61-5.876,0.61-9.753,0c0-1.351,0-2.027,0-3.378c3.878,0.609,5.876,0.609,9.753,0
				C91.697,15.852,91.697,16.528,91.697,17.879z"/>
			<g>
				<path d="M84.731,16.912c0,0.093-0.018,0.175-0.051,0.245c-0.034,0.07-0.082,0.129-0.143,0.175
					c-0.061,0.046-0.132,0.079-0.214,0.098c-0.082,0.019-0.172,0.024-0.266,0.016c-0.066-0.006-0.128-0.017-0.185-0.034
					c-0.056-0.017-0.107-0.035-0.151-0.056c-0.045-0.021-0.082-0.041-0.112-0.062c-0.03-0.02-0.051-0.037-0.062-0.051
					c-0.012-0.014-0.02-0.03-0.026-0.049c-0.006-0.02-0.008-0.045-0.008-0.077c0-0.022,0.001-0.041,0.003-0.056
					c0.002-0.015,0.005-0.027,0.009-0.035c0.004-0.009,0.009-0.015,0.015-0.017c0.006-0.003,0.013-0.004,0.022-0.003
					c0.014,0.001,0.034,0.012,0.06,0.032c0.026,0.02,0.059,0.043,0.1,0.067c0.041,0.024,0.09,0.049,0.147,0.072
					c0.058,0.023,0.124,0.039,0.2,0.045c0.057,0.005,0.11,0.002,0.157-0.01c0.048-0.011,0.089-0.03,0.123-0.055
					c0.034-0.025,0.06-0.058,0.079-0.098c0.018-0.039,0.027-0.085,0.027-0.137c0-0.056-0.013-0.105-0.038-0.147
					c-0.026-0.042-0.06-0.079-0.101-0.113c-0.042-0.034-0.09-0.065-0.143-0.095c-0.053-0.029-0.109-0.06-0.165-0.091
					c-0.056-0.031-0.11-0.065-0.164-0.102c-0.053-0.037-0.1-0.079-0.143-0.126c-0.041-0.047-0.076-0.101-0.102-0.161
					c-0.026-0.061-0.039-0.131-0.039-0.212c0-0.083,0.015-0.155,0.045-0.217c0.03-0.062,0.072-0.112,0.126-0.15
					c0.053-0.039,0.117-0.066,0.191-0.082c0.074-0.016,0.155-0.02,0.24-0.013c0.044,0.004,0.088,0.011,0.132,0.023
					c0.045,0.011,0.086,0.025,0.126,0.04c0.039,0.016,0.075,0.033,0.105,0.051c0.03,0.018,0.051,0.032,0.06,0.043
					c0.01,0.011,0.016,0.019,0.019,0.025c0.003,0.006,0.006,0.013,0.008,0.022c0.002,0.009,0.004,0.019,0.004,0.032
					c0.001,0.012,0.002,0.028,0.002,0.048c0,0.019-0.001,0.035-0.003,0.049c-0.001,0.014-0.004,0.026-0.006,0.035
					c-0.004,0.01-0.008,0.016-0.013,0.02c-0.006,0.005-0.012,0.006-0.019,0.006c-0.011-0.001-0.029-0.009-0.053-0.025
					c-0.024-0.016-0.053-0.034-0.088-0.055c-0.034-0.021-0.076-0.04-0.123-0.059c-0.048-0.019-0.101-0.03-0.16-0.035
					c-0.056-0.005-0.103-0.002-0.144,0.01c-0.041,0.011-0.075,0.028-0.101,0.05c-0.027,0.022-0.046,0.049-0.06,0.082
					c-0.013,0.032-0.02,0.067-0.02,0.105c0,0.055,0.013,0.104,0.039,0.146c0.025,0.042,0.059,0.08,0.102,0.115
					c0.042,0.035,0.091,0.067,0.145,0.097c0.054,0.03,0.109,0.061,0.165,0.092c0.056,0.031,0.112,0.063,0.166,0.099
					s0.103,0.075,0.145,0.121c0.042,0.046,0.077,0.098,0.103,0.157C84.718,16.764,84.731,16.833,84.731,16.912z"/>
				<path d="M86.365,16.791c0,0.112-0.015,0.216-0.044,0.31c-0.03,0.094-0.074,0.175-0.133,0.242
					c-0.058,0.067-0.132,0.119-0.221,0.155c-0.089,0.036-0.191,0.052-0.308,0.048c-0.114-0.004-0.213-0.025-0.297-0.063
					c-0.084-0.038-0.155-0.09-0.211-0.158s-0.099-0.148-0.126-0.241c-0.027-0.094-0.042-0.199-0.042-0.315
					c0-0.112,0.015-0.215,0.044-0.308c0.03-0.093,0.073-0.172,0.132-0.237c0.059-0.065,0.132-0.115,0.22-0.148
					c0.088-0.034,0.191-0.049,0.308-0.044c0.114,0.004,0.213,0.024,0.297,0.06c0.085,0.036,0.155,0.087,0.211,0.152
					c0.056,0.065,0.099,0.144,0.127,0.237C86.351,16.572,86.365,16.676,86.365,16.791z M86.102,16.803
					c0-0.075-0.007-0.145-0.021-0.212c-0.013-0.067-0.037-0.126-0.069-0.177c-0.032-0.051-0.075-0.092-0.13-0.122
					c-0.055-0.031-0.123-0.047-0.205-0.05c-0.075-0.003-0.14,0.008-0.194,0.032c-0.054,0.024-0.099,0.06-0.134,0.107
					s-0.061,0.103-0.079,0.169c-0.017,0.066-0.025,0.138-0.025,0.216c0,0.076,0.007,0.147,0.021,0.214
					c0.014,0.067,0.037,0.126,0.07,0.177c0.032,0.051,0.076,0.092,0.131,0.124c0.055,0.032,0.123,0.049,0.204,0.052
					c0.075,0.003,0.139-0.009,0.194-0.034c0.055-0.025,0.1-0.061,0.135-0.108c0.035-0.047,0.061-0.104,0.077-0.17
					C86.094,16.956,86.102,16.883,86.102,16.803z"/>
				<path d="M87.022,15.653c0,0.059-0.011,0.1-0.034,0.121c-0.023,0.022-0.064,0.033-0.125,0.033c-0.059,0-0.1-0.011-0.122-0.032
					c-0.022-0.021-0.033-0.061-0.033-0.119c0-0.059,0.011-0.099,0.034-0.121c0.023-0.021,0.064-0.032,0.125-0.032
					c0.059,0,0.1,0.01,0.122,0.031C87.01,15.556,87.022,15.595,87.022,15.653z M86.993,17.499c0,0.008-0.002,0.015-0.006,0.021
					c-0.004,0.006-0.011,0.011-0.02,0.015c-0.009,0.004-0.022,0.007-0.038,0.009c-0.016,0.002-0.037,0.003-0.063,0.003
					c-0.025,0-0.045-0.001-0.062-0.003c-0.016-0.002-0.03-0.005-0.039-0.009c-0.01-0.004-0.017-0.009-0.02-0.014
					c-0.004-0.006-0.005-0.013-0.005-0.021c0-0.552,0-0.828,0-1.38c0-0.007,0.001-0.014,0.005-0.02
					c0.004-0.006,0.011-0.011,0.02-0.015c0.009-0.004,0.023-0.007,0.039-0.009c0.017-0.002,0.037-0.003,0.062-0.003
					c0.025,0,0.047,0.001,0.063,0.003c0.016,0.002,0.029,0.005,0.038,0.009c0.01,0.004,0.016,0.009,0.02,0.015
					c0.004,0.006,0.006,0.013,0.006,0.02C86.993,16.671,86.993,16.947,86.993,17.499z"/>
				<path d="M87.715,17.487c0,0.008-0.002,0.015-0.006,0.021c-0.004,0.006-0.011,0.011-0.02,0.015
					c-0.009,0.004-0.022,0.008-0.038,0.01c-0.016,0.003-0.037,0.004-0.063,0.005c-0.025,0.001-0.045,0-0.062-0.002
					c-0.016-0.001-0.03-0.004-0.039-0.008c-0.01-0.004-0.017-0.008-0.02-0.014c-0.004-0.006-0.005-0.013-0.005-0.021
					c0-0.819,0-1.229,0-2.048c0-0.008,0.001-0.015,0.005-0.022c0.004-0.006,0.011-0.011,0.02-0.016
					c0.009-0.004,0.023-0.008,0.039-0.01c0.017-0.002,0.037-0.004,0.062-0.005c0.025-0.001,0.046,0,0.063,0.002
					c0.016,0.002,0.029,0.004,0.038,0.008c0.01,0.004,0.016,0.009,0.02,0.015c0.004,0.006,0.006,0.013,0.006,0.021
					C87.715,16.258,87.715,16.668,87.715,17.487z"/>
				<path d="M90.075,17.255c0,0.019-0.001,0.035-0.004,0.05c-0.003,0.015-0.006,0.027-0.011,0.037
					c-0.004,0.01-0.011,0.018-0.018,0.023s-0.016,0.009-0.025,0.01c-0.438,0.045-0.657,0.063-1.096,0.093
					c-0.014,0.001-0.027,0-0.038-0.003c-0.011-0.003-0.02-0.008-0.027-0.016c-0.008-0.008-0.013-0.019-0.017-0.034
					c-0.004-0.015-0.005-0.034-0.005-0.056c0-0.02,0.001-0.038,0.002-0.054c0.001-0.015,0.005-0.029,0.011-0.041
					c0.005-0.012,0.011-0.024,0.02-0.037c0.008-0.012,0.018-0.025,0.031-0.04c0.159-0.174,0.238-0.261,0.397-0.436
					c0.091-0.101,0.164-0.192,0.22-0.271c0.056-0.08,0.098-0.151,0.128-0.215c0.03-0.064,0.05-0.122,0.059-0.172
					c0.009-0.051,0.015-0.098,0.015-0.142c0-0.044-0.008-0.085-0.022-0.123c-0.015-0.038-0.036-0.071-0.064-0.098
					s-0.063-0.047-0.105-0.061c-0.042-0.014-0.091-0.018-0.145-0.014c-0.064,0.005-0.122,0.019-0.173,0.04
					c-0.051,0.021-0.096,0.043-0.134,0.067c-0.039,0.023-0.071,0.044-0.097,0.063c-0.025,0.019-0.045,0.029-0.058,0.03
					c-0.007,0-0.014-0.001-0.02-0.005c-0.006-0.004-0.011-0.01-0.014-0.019c-0.004-0.009-0.007-0.021-0.009-0.036
					c-0.002-0.015-0.003-0.034-0.003-0.055c0-0.015,0.001-0.029,0.001-0.04c0.001-0.011,0.003-0.021,0.006-0.03
					c0.002-0.008,0.006-0.016,0.01-0.023c0.004-0.008,0.012-0.017,0.025-0.029c0.012-0.011,0.033-0.028,0.063-0.048
					c0.03-0.02,0.068-0.041,0.114-0.063c0.045-0.021,0.096-0.04,0.15-0.057c0.055-0.016,0.112-0.027,0.173-0.032
					c0.096-0.008,0.18-0.002,0.252,0.019c0.072,0.021,0.131,0.052,0.179,0.094c0.047,0.043,0.083,0.094,0.106,0.154
					c0.023,0.06,0.035,0.125,0.035,0.196c0,0.063-0.006,0.127-0.017,0.191c-0.011,0.064-0.034,0.135-0.071,0.211
					c-0.036,0.077-0.088,0.163-0.157,0.259c-0.069,0.096-0.159,0.207-0.273,0.333c-0.126,0.142-0.189,0.212-0.314,0.353
					c0.345-0.026,0.518-0.041,0.863-0.076c0.008-0.001,0.016,0.001,0.024,0.005c0.008,0.004,0.014,0.01,0.02,0.019
					c0.006,0.009,0.01,0.02,0.013,0.033C90.073,17.221,90.075,17.237,90.075,17.255z"/>
			</g>
		</g>
	</g>
</g>
<g id="Seed_Packets">
</g>
</svg>
