<?xml version="1.0" encoding="iso-8859-1"?>
<!-- Generator: Adobe Illustrator 21.0.0, SVG Export Plug-In . SVG Version: 6.00 Build 0)  -->
<svg version="1.1" id="Components" xmlns="http://www.w3.org/2000/svg" xmlns:xlink="http://www.w3.org/1999/xlink" x="0px" y="0px"
	 width="141.84px" height="53.28px" viewBox="0 0 141.84 53.28" enable-background="new 0 0 141.84 53.28" xml:space="preserve">
<g id="Safety_Gloves">
	<path fill="#FFFFFF" d="M138.133,53.28H3.707C1.66,53.28,0,51.62,0,49.573V3.707C0,1.66,1.66,0,3.707,0h134.426
		c2.047,0,3.707,1.66,3.707,3.707v45.866C141.84,51.62,140.18,53.28,138.133,53.28z"/>
	<g>
		<g>
			<path fill="#F7F7F7" stroke="#737373" stroke-width="0.75" stroke-linecap="round" stroke-linejoin="round" d="M38.872,2.838
				c0,0-2.477,1.879-3.489,3.22c-1.012,1.341-2.462,2.471-3.229,3.771c-0.767,1.3-1.525,2.828-1.097,3.304
				c0.428,0.476,2.512,0.349,2.512,0.349l0.035,1.005c0,0,3.379,0.161,3.985,0.323c0.607,0.163,7.924,3.681,10.429,4.046
				c2.504,0.365,14.371-0.009,15.252,0.55c0.882,0.558,8.939,0.546,11.13,0.586c2.192,0.04,6.544,0.16,8.348,0.587
				c1.803,0.427,4.331,1.232,6.151,1.531c1.82,0.3,9.772,1.129,11.81,1.39c2.038,0.261,3.88,2.102,6.248,2.275
				c2.368,0.173,5.332,0.994,5.361-0.918c0.029-1.912-0.714-2.687-1.986-2.83c-1.272-0.143-3.046-1.03-4.193-1.083
				c-1.148-0.052-3.265-1.072-3.265-1.072l-0.781-0.865c0,0,1.02,0.576,1.698,0.574c0.678-0.002,7.67-0.377,7.922-0.633
				c0.252-0.256,0.731-2.2-0.02-2.842c-0.751-0.643-2.173-1.313-3.994-1.289c-1.82,0.024-1.809-0.312-3.171-0.457
				c-1.362-0.145-3.279-0.17-3.279-0.17s1.727-0.711,2.422-0.552c0.695,0.159,3.666-0.403,4.055-1.019s0.784-0.93,0.455-1.088
				s-0.978-0.855-2.354-0.717c-1.376,0.138-3.913,0.398-3.913,0.398s0.303,0.062,0.152-0.424s-0.653-0.046-0.849-0.683
				c-0.196-0.637-0.198-0.819-0.198-0.819s-6.566-0.289-7.714,0.442c-1.148,0.73-1.774-0.261-2.296,0.313s-1.043,0.73-1.252,0.626
				c-0.209-0.104-1.332,0.505-1.944-0.53c-0.612-1.035-0.677-1.239-1.36-1.198c-0.683,0.041-1.327-0.369-1.327-0.369
				s1.118-0.076,1.57-0.555c0.453-0.478,1.55-0.462,2.204-0.421c0.653,0.04,7.501,0.34,7.797,0.053
				c0.296-0.287,0.745-1.266,0.012-1.79c-0.733-0.524-1.407-0.885-1.571-1.298c-0.164-0.413-2.776-0.419-3.451-0.463
				c-0.675-0.044-1.967,0.049-2.523-0.446c-0.555-0.496-2.28-0.977-3.843-1.062c-1.563-0.085-10.443-0.455-12.834-0.379
				c-2.391,0.076-13.983,0.476-14.922,0.476c-0.939,0-10.102-0.083-10.738,0.037c-0.636,0.12-0.465,0.066-0.524-0.481
				s-1.485-0.244-2.077-1.1c-0.592-0.856-1.427,0.072-2,0c-0.573-0.072-0.487-0.03-0.922,0.027
				C40.87,1.223,39.651,2.22,38.872,2.838z"/>
			<path fill="#F7F7F7" stroke="#737373" stroke-width="0.5" stroke-linecap="round" stroke-linejoin="round" d="M42.487,1.64
				c0,0-0.626-0.261-1.148,0c-0.522,0.261-4.122,2.922-5.217,4.07c-1.096,1.148-0.991,1.461-1.513,1.826
				c-0.522,0.365-2.4,2.504-2.609,3.13c-0.209,0.626-0.991,1.739-0.626,2.043c0.365,0.305,0.782,0.357,1.435,0.357
				c0.652,0,1.226-0.313,1.278-0.887s0.939-1.096,1.617-1.304c0.678-0.209,1.774-0.261,2.191-0.939
				c0.417-0.678,0.991-2.568,1.93-2.641c0.939-0.072,2.557-0.855,3.183-0.855s1.096-2.557,0.626-3.6
				C43.165,1.797,42.956,1.747,42.487,1.64z"/>
			<path fill="none" stroke="#737373" stroke-width="0.15" stroke-linecap="round" stroke-linejoin="round" d="M33.569,13.483
				c0.362-0.156,0.936-0.347,1.04-0.773c0.104-0.426-0.313-0.948,0.47-1.261c0.783-0.313,2.078-0.417,2.474-0.678
				c0.396-0.261,1.126-1.148,1.179-1.513c0.052-0.365,0.296-1.252,0.905-1.461c0.608-0.209,2.591-0.939,3.06-0.939
				s0.969-0.209,1.241-0.626c0.272-0.417,1.211-1.513,1.628-2.087c0.417-0.574-0.887-1.617-0.887-1.983"/>
			<path fill="none" stroke="#737373" stroke-width="0.15" stroke-linecap="round" stroke-linejoin="round" d="M54.643,5.814
				c0.626,0.365,2.452,1.043,4.956,1.043s1.826,0.104,3.287,1.2s1.148,1.148,3.078,1.2c1.93,0.052,0.783,0.626,2.87,0.887
				c2.087,0.261,1.675-0.157,2.299-0.209"/>
			<path fill="none" stroke="#737373" stroke-width="0.15" stroke-linecap="round" stroke-linejoin="round" d="M76.295,3.205
				c0,0,3.391-0.221,4.278,0.307c0.887,0.528,0.991,2.772,2.139,2.824c1.148,0.052,2.296-0.47,2.661-0.522"/>
			<path fill="none" stroke="#737373" stroke-width="0.15" stroke-linecap="round" stroke-linejoin="round" d="M101.913,11.211
				c0,0-4.591,0.394-5.53,0.394c-0.939,0-6.198-0.04-6.626,0"/>
			<path fill="none" stroke="#737373" stroke-width="0.15" stroke-linecap="round" stroke-linejoin="round" d="M102.093,19.007
				c0,0-1.422-1.489-3.775-1.732c-2.353-0.244-1.988,0.081-3.031,0.29c-1.043,0.209-1.93-0.226-3.756-1.061
				c-1.826-0.835-4.174-0.515-5.374-1.141"/>
		</g>
		<g>
			<path fill="#F7F7F7" stroke="#737373" stroke-width="0.75" stroke-linecap="round" stroke-linejoin="round" d="M47.503,12.883
				c0,0-1.768-0.888-4.409-0.17c-2.641,0.718-4.295,2.394-5.169,2.863c-0.874,0.469-2.238,1.01-3.142,2.302
				c-0.904,1.292-0.46,2.14-1.527,2.628s-2.619,0.579-3.268,2.439c-0.649,1.86-0.432,3.688-0.432,3.688s1.135-0.312,1.157-0.109
				c0.021,0.203,0.763,0.502,1.39,0.461c0.628-0.04-0.637,0.896,1.095,1.593c1.731,0.697,3.769,1.913,4.755,1.912
				c0.986,0,1.311-0.271,1.717,0c0.405,0.271,1.651,1.171,4.039,1.854c2.388,0.683,4.287,1.051,5.315,1.973s0.859,1.761,1.304,2.337
				c0.445,0.576,8.155,8.955,9.918,9.501c1.763,0.546,3.7,1.156,4.217,0.386c0.518-0.771,0.806-1.793,0.549-3.042
				c-0.257-1.248-0.613-2.885-2.596-4.294c-1.983-1.409-2.393-1.803-2.318-2.884s-0.374-2.116-0.639-2.34
				c-0.265-0.224,1.801,0.286,2.536,0.694s1.379,0.691,1.932,1.647c0.554,0.955,0.533,1.691,1.496,1.881
				c0.964,0.191,2.514,0.64,3.537,1.798c1.023,1.158,1.501,1.972,1.497,3.483c-0.004,1.512-0.561,5.614,1.089,7.286
				c1.65,1.672,1.304,1.674,2.817,1.733s1.495-0.93,1.743-1.55c0.248-0.619,1.247-2.206,1.398-2.91
				c0.151-0.704,0.191-2.619,0.166-3.464c-0.025-0.845,0.626-2.679,0.626-2.679s2.761,0.517,3.499,1.11
				c0.738,0.593,1.957,2.957,3.575,3.463c1.618,0.506,3.25,1.622,5.773,1.768c2.523,0.146,2.258-1.213,2.012-1.806
				c-0.246-0.593-3.111-5.534-6.857-8.208c-3.746-2.675-1.279-1.776-4.149-3.304c-2.87-1.528-4.345-2.031-3.719-2.24
				c0.626-0.209,1.93,0.569,3.074,0.656c1.144,0.087,2.601-0.008,3.493,0.641c0.892,0.649,3.34,1.915,6.916,2.484
				c3.575,0.569,9.28,1.219,10.176,0.858c0.896-0.361,2.255-1.241,2.146-2.906c-0.11-1.665,0.162-2.103-1.333-2.266
				c-1.495-0.163-6.72-0.921-8.161-1.525c-1.44-0.604-3.214-0.812-3.214-0.812s3.577,0.529,4.653,0.354
				c1.076-0.175,2.913-0.651,4.138-0.825c1.225-0.173,2.668-0.132,2.793-0.319c0.125-0.187,0.318-0.625,0.837-0.7
				c0.519-0.075,0.581-0.922-0.098-1.371c-0.679-0.449-6.039-1.613-7.319-2.028c-1.28-0.415-3.624-1.41-5.681-1.841
				c-2.057-0.431-4.762-1.048-5.851-0.811c-1.088,0.237-3.784-0.704-3.897-1.016c-0.113-0.312-1.783-0.823-2.565-0.75
				c-0.783,0.073-2.035,0.24-2.557,0s-2.21-1.709-2.654-1.949c-0.444-0.24-1.944-1.023-4.367-0.883
				c-2.423,0.14-6.649-0.044-8.527-0.709c-1.878-0.665-4.852,0.535-5.791,0.275c-0.939-0.261-0.991-0.514-1.617-0.753
				c-0.626-0.238-1.93-0.238-3.13-0.656C48.696,15.414,47.927,13.325,47.503,12.883z"/>
			<path fill="#F7F7F7" stroke="#737373" stroke-width="0.5" stroke-linecap="round" stroke-linejoin="round" d="M46.922,13.437
				c0.073,0.461,0.157,1.508-1.304,1.873c-1.461,0.365-3.704,0.261-4.017,0.835c-0.313,0.574-0.325,3.496-1.18,3.756
				c-0.855,0.261-4.09,1.252-4.246,1.983c-0.157,0.73-0.209,1.096-0.73,1.2c-0.522,0.104-1.798,1.93-2.777,2.4
				c-0.979,0.47-0.974,0.657-1.733,0.615c-0.759-0.042-1.072-0.094-0.863-1.242c0.209-1.148,0.104-1.722,0.417-2.243
				c0.313-0.522,0.863-1.2,2.179-1.565c1.316-0.365,1.264-0.522,1.421-0.783s0.313-1.461,1.043-2.191
				c0.73-0.73,0.417-0.835,1.67-1.513c1.252-0.678,1.983-0.939,2.243-1.148c0.261-0.209,1.135-1.2,1.872-1.513
				c0.737-0.313,2.824-1.148,3.607-1.148S46.765,12.451,46.922,13.437z"/>
			<path fill="none" stroke="#737373" stroke-width="0.15" stroke-linecap="round" stroke-linejoin="round" d="M38.731,25.327
				c0,0,2.905-0.313,3.331,0c0.426,0.313,0.456,0.939,1.875,1.252s5.072,0.574,5.072,0.574s-0.209-0.626,0.73-0.678
				c0.939-0.052,3.235,0.052,3.443,0.313c0.209,0.261,0.365,0.47,0.991,0.678c0.626,0.209,0.939,0.835,1.461,0
				c0.522-0.835,3.496-1.074,4.696-0.928"/>
			<path fill="none" stroke="#737373" stroke-width="0.15" stroke-linecap="round" stroke-linejoin="round" d="M47.496,13.437
				c0,0,0.067,0.882-0.541,1.508c-0.607,0.626-1.025,0.73-2.172,0.939c-1.148,0.209-2.416-0.052-2.721,0.522
				c-0.305,0.574-0.461,3.13-0.879,3.548c-0.417,0.417-4.435,1.461-4.591,1.878c-0.157,0.417,0.157,0.783-0.313,1.252
				c-0.47,0.47-0.991,0.417-0.991,0.417s-1.2,1.878-1.722,2.087c-0.522,0.209-1.774,1.065-2.191,0.95"/>
			<path fill="none" stroke="#737373" stroke-width="0.15" stroke-linecap="round" stroke-linejoin="round" d="M54.226,17.344
				c0,0-2.035-0.157-3.391,0"/>
			<path fill="none" stroke="#737373" stroke-width="0.15" stroke-linecap="round" stroke-linejoin="round" d="M69.617,39.422
				c0,0,3.548-0.217,4.643,0.461s1.471,2.58,2.431,2.986c0.96,0.406,0.595,1.722,0.595,2.003"/>
			<path fill="none" stroke="#737373" stroke-width="0.15" stroke-linecap="round" stroke-linejoin="round" d="M94.348,36.388
				c0.887-0.104,1.148-0.73,1.878-0.783"/>
			<path fill="none" stroke="#737373" stroke-width="0.15" stroke-linecap="round" stroke-linejoin="round" d="M87.356,24.231
				c0,0,1.409-0.574,2.348,0c0.939,0.574,1.409,1.357,2.087,1.252"/>
			<path fill="#F4F4F4" stroke="#737373" stroke-width="0.25" stroke-linecap="round" stroke-linejoin="round" d="M91.53,29.814
				c0,0-3.913-0.626-5.27-0.783c-1.357-0.157-4.33-0.826-4.904-1.143"/>
		</g>
	</g>
</g>
<g id="Seed_Packets">
</g>
</svg>
