<?xml version="1.0" encoding="iso-8859-1"?>
<!-- Generator: Adobe Illustrator 21.0.0, SVG Export Plug-In . SVG Version: 6.00 Build 0)  -->
<svg version="1.1" id="Components" xmlns="http://www.w3.org/2000/svg" xmlns:xlink="http://www.w3.org/1999/xlink" x="0px" y="0px"
	 width="141.84px" height="53.28px" viewBox="0 0 141.84 53.28" enable-background="new 0 0 141.84 53.28" xml:space="preserve">
<g id="Safety_Goggles">
	<path fill="#FFFFFF" d="M138.133,53.28H3.707C1.66,53.28,0,51.62,0,49.573V3.707C0,1.66,1.66,0,3.707,0h134.426
		c2.047,0,3.707,1.66,3.707,3.707v45.866C141.84,51.62,140.18,53.28,138.133,53.28z"/>
	<g>
		
			<ellipse transform="matrix(0.2553 -0.9669 0.9669 0.2553 23.1176 46.1287)" fill="#E4E8E8" fill-opacity="0.54" stroke="#707973" cx="41.503" cy="8.058" rx="1.338" ry="5.314"/>
		
			<ellipse transform="matrix(0.0732 -0.9973 0.9973 0.0732 58.1126 95.0063)" fill="#E4E8E8" fill-opacity="0.54" stroke="#707973" cx="80.173" cy="16.236" rx="1.475" ry="5.856"/>
		
			<ellipse transform="matrix(0.5324 -0.8465 0.8465 0.5324 9.8757 96.7669)" fill="#E4E8E8" fill-opacity="0.54" stroke="#707973" cx="92.522" cy="39.445" rx="6.313" ry="2.183"/>
		<g>
			<g>
				<path display="none" fill="none" stroke="#000000" stroke-width="0.8" d="M55.633,32.169c4.074,1.035,5.68,6.998,7.742,9.9
					c2.06,2.904,12.887,10.017,19.787,5.821c6.903-4.199,3.475-21.137,0.382-25.492c-2.619-3.693-17.679-5.319-24.745-6.185
					c-1.758-0.215,1.12,2.831-2.956,1.795c-4.078-1.037-1.132-2.602-2.883-3.278c-7.036-2.715-21.856-7.876-23.79-5.698
					c-2.283,2.57-4.228,16.439-0.116,23.494c4.111,7.057,17.524,6.33,19.656,4.493C50.843,35.179,51.554,31.134,55.633,32.169z"/>
				<path display="none" fill="none" stroke="#000000" stroke-width="0.8" d="M55.601,34.144c3.495,0.887,4.58,6.453,6.871,9.681
					c2.289,3.226,14.46,10.283,22.13,5.619c7.671-4.663,3.859-23.484,0.425-28.324c-3.436-4.839-24.462-6.212-29.12-7.395
					c-4.658-1.184-25.224-9.428-27.758-6.572c-2.535,2.855-5.633,18.458-0.304,26.385c5.331,7.929,19.339,7.718,21.71,5.678
					C51.923,37.173,52.107,33.258,55.601,34.144z"/>
				<g>
					<path opacity="0.54" fill="#B2B9B9" d="M48.71,37.018c-22.445,1.866-17.792-7.44-15.621-8.992
						c2.173-1.552,6.802-1.064,8.067-3.414c2.173-4.034,3.103-10.549,3.103-12.412l-0.564-0.908L35.03,8.951
						c0,0-2.686-0.44-3.872-0.44s-1.222-0.209-1.988,0.52c-0.766,0.729-1.276,1.547-1.671,3.214s-1.113,7.669-0.972,9.354
						c0.141,1.685,0.51,6.291,1.395,8.693c0.861,2.339,2.892,4.97,5.156,5.985c2.264,1.015,5.777,1.803,6.87,1.881
						c1.093,0.078,5.788,0.032,6.472-0.206C47.525,37.567,48.71,37.018,48.71,37.018z"/>
					<linearGradient id="SVGID_1_" gradientUnits="userSpaceOnUse" x1="26.5095" y1="23.3377" x2="48.7103" y2="23.3377">
						<stop  offset="0" style="stop-color:#000000;stop-opacity:0.1"/>
						<stop  offset="0.1393" style="stop-color:#181818;stop-opacity:0.0861"/>
						<stop  offset="0.3204" style="stop-color:#2F2F2F;stop-opacity:0.068"/>
						<stop  offset="0.5144" style="stop-color:#404040;stop-opacity:0.0486"/>
						<stop  offset="0.7282" style="stop-color:#494949;stop-opacity:0.0272"/>
						<stop  offset="1" style="stop-color:#4D4D4D;stop-opacity:0"/>
					</linearGradient>
					<path fill="url(#SVGID_1_)" d="M48.71,37.018c-22.445,1.866-17.792-7.44-15.621-8.992c2.173-1.552,6.802-1.064,8.067-3.414
						c2.173-4.034,3.103-10.549,3.103-12.412l-0.564-0.908L35.03,8.951c0,0-2.686-0.44-3.872-0.44s-1.222-0.209-1.988,0.52
						c-0.766,0.729-1.276,1.547-1.671,3.214s-1.113,7.669-0.972,9.354c0.141,1.685,0.51,6.291,1.395,8.693
						c0.861,2.339,2.892,4.97,5.156,5.985c2.264,1.015,5.777,1.803,6.87,1.881c1.093,0.078,5.788,0.032,6.472-0.206
						C47.525,37.567,48.71,37.018,48.71,37.018z"/>
					<linearGradient id="SVGID_2_" gradientUnits="userSpaceOnUse" x1="37.9553" y1="39.8237" x2="36.9013" y2="7.1501">
						<stop  offset="0.2271" style="stop-color:#000000;stop-opacity:0.1"/>
						<stop  offset="0.6106" style="stop-color:#282828;stop-opacity:0.0504"/>
						<stop  offset="1" style="stop-color:#4D4D4D;stop-opacity:0"/>
					</linearGradient>
					<path fill="url(#SVGID_2_)" d="M48.71,37.018c-22.445,1.866-17.792-7.44-15.621-8.992c2.173-1.552,6.802-1.064,8.067-3.414
						c2.173-4.034,3.103-10.549,3.103-12.412l-0.564-0.908L35.03,8.951c0,0-2.686-0.44-3.872-0.44s-1.222-0.209-1.988,0.52
						c-0.766,0.729-1.276,1.547-1.671,3.214s-1.113,7.669-0.972,9.354c0.141,1.685,0.51,6.291,1.395,8.693
						c0.861,2.339,2.892,4.97,5.156,5.985c2.264,1.015,5.777,1.803,6.87,1.881c1.093,0.078,5.788,0.032,6.472-0.206
						C47.525,37.567,48.71,37.018,48.71,37.018z"/>
					<path fill="none" stroke="#707973" stroke-width="0.5" d="M48.71,37.018c-22.445,1.866-17.792-7.44-15.621-8.992
						c2.173-1.552,6.802-1.064,8.067-3.414c2.173-4.034,3.103-10.549,3.103-12.412l-0.564-0.908L35.03,8.951
						c0,0-2.686-0.44-3.872-0.44s-1.222-0.209-1.988,0.52c-0.766,0.729-1.276,1.547-1.671,3.214s-1.113,7.669-0.972,9.354
						c0.141,1.685,0.51,6.291,1.395,8.693c0.861,2.339,2.892,4.97,5.156,5.985c2.264,1.015,5.777,1.803,6.87,1.881
						c1.093,0.078,5.788,0.032,6.472-0.206C47.525,37.567,48.71,37.018,48.71,37.018z"/>
				</g>
				<g>
					<path opacity="0.54" fill="#B2B9B9" d="M83.162,47.89c-5.394,1.855-15.321-2.799-19.787-5.821c0,0,2.728,2.639,4.367,3.732
						c1.64,1.093,6.792,3.357,8.978,3.357s3.904-0.156,3.904-0.156L83.162,47.89z"/>
					<linearGradient id="SVGID_3_" gradientUnits="userSpaceOnUse" x1="63.375" y1="45.6138" x2="83.1625" y2="45.6138">
						<stop  offset="0" style="stop-color:#000000;stop-opacity:0.1"/>
						<stop  offset="0.1393" style="stop-color:#181818;stop-opacity:0.0861"/>
						<stop  offset="0.3204" style="stop-color:#2F2F2F;stop-opacity:0.068"/>
						<stop  offset="0.5144" style="stop-color:#404040;stop-opacity:0.0486"/>
						<stop  offset="0.7282" style="stop-color:#494949;stop-opacity:0.0272"/>
						<stop  offset="1" style="stop-color:#4D4D4D;stop-opacity:0"/>
					</linearGradient>
					<path fill="url(#SVGID_3_)" d="M83.162,47.89c-5.394,1.855-15.321-2.799-19.787-5.821c0,0,2.728,2.639,4.367,3.732
						c1.64,1.093,6.792,3.357,8.978,3.357s3.904-0.156,3.904-0.156L83.162,47.89z"/>
					<linearGradient id="SVGID_4_" gradientUnits="userSpaceOnUse" x1="73.4197" y1="49.6591" x2="73.1557" y2="41.474">
						<stop  offset="0.2271" style="stop-color:#000000;stop-opacity:0.1"/>
						<stop  offset="0.6106" style="stop-color:#282828;stop-opacity:0.0504"/>
						<stop  offset="1" style="stop-color:#4D4D4D;stop-opacity:0"/>
					</linearGradient>
					<path fill="url(#SVGID_4_)" d="M83.162,47.89c-5.394,1.855-15.321-2.799-19.787-5.821c0,0,2.728,2.639,4.367,3.732
						c1.64,1.093,6.792,3.357,8.978,3.357s3.904-0.156,3.904-0.156L83.162,47.89z"/>
					<path fill="none" stroke="#6D7670" stroke-width="0.25" d="M83.162,47.89c-5.394,1.855-15.321-2.799-19.787-5.821
						c0,0,2.728,2.639,4.367,3.732c1.64,1.093,6.792,3.357,8.978,3.357s3.904-0.156,3.904-0.156L83.162,47.89z"/>
				</g>
				<g>
					<path fill="#3B3B3B" d="M62.876,11.261c4.653-0.312,25.752-1.542,24.51,1.562c-0.12,0.301,0.042,0.563,0.388,0.851
						c6.663,0.802,12.228,1.696,13.575,2.563c0.615,0.394,1.153,0.838,1.619,1.327c5.77,0.966,11.21,1.739,12.653,2.397
						c3.412,1.55-4.654,6.204-13.341,8.376c-1.242,1.862,0,1.552,0,2.482c0,0.932-1.242,1.861-0.31,2.791
						c3.724-0.308,13.651-5.274,14.272-8.066c0.62-2.792,1.862-9.307-2.173-9.929c-4.032-0.622-27.925-2.173-26.683-5.586
						c1.242-3.412-21.685-2.768-31.613-0.286l-9.641,2.501c-1.743,0.548-2.871,1.059-4.666,1.508
						c-0.93,0.621-0.311,1.552-0.311,2.484c0,1.241-0.93,2.172,0.311,2.172c1.862-0.931,8.069-4.041,10.551-4.041L62.876,11.261z"/>
					<linearGradient id="SVGID_5_" gradientUnits="userSpaceOnUse" x1="43.6422" y1="6.4932" x2="116.3883" y2="28.9498">
						<stop  offset="0" style="stop-color:#1A1A1A"/>
						<stop  offset="0.2887" style="stop-color:#4D4D4D"/>
						<stop  offset="0.5259" style="stop-color:#1A1A1A"/>
						<stop  offset="0.7487" style="stop-color:#4D4D4D"/>
						<stop  offset="0.9134" style="stop-color:#000000"/>
					</linearGradient>
					<path fill="url(#SVGID_5_)" d="M62.876,11.261c4.653-0.312,25.752-1.542,24.51,1.562c-0.12,0.301,0.042,0.563,0.388,0.851
						c6.663,0.802,12.228,1.696,13.575,2.563c0.615,0.394,1.153,0.838,1.619,1.327c5.77,0.966,11.21,1.739,12.653,2.397
						c3.412,1.55-4.654,6.204-13.341,8.376c-1.242,1.862,0,1.552,0,2.482c0,0.932-1.242,1.861-0.31,2.791
						c3.724-0.308,13.651-5.274,14.272-8.066c0.62-2.792,1.862-9.307-2.173-9.929c-4.032-0.622-27.925-2.173-26.683-5.586
						c1.242-3.412-21.685-2.768-31.613-0.286l-9.641,2.501c-1.743,0.548-2.871,1.059-4.666,1.508
						c-0.93,0.621-0.311,1.552-0.311,2.484c0,1.241-0.93,2.172,0.311,2.172c1.862-0.931,8.069-4.041,10.551-4.041L62.876,11.261z"/>
					<linearGradient id="SVGID_6_" gradientUnits="userSpaceOnUse" x1="79.5812" y1="8.1213" x2="78.8785" y2="18.6612">
						<stop  offset="0" style="stop-color:#4D4D4D;stop-opacity:0"/>
						<stop  offset="0.9134" style="stop-color:#000000"/>
					</linearGradient>
					<path fill="url(#SVGID_6_)" d="M62.876,11.261c4.653-0.312,25.752-1.542,24.51,1.562c-0.12,0.301,0.042,0.563,0.388,0.851
						c6.663,0.802,12.228,1.696,13.575,2.563c0.615,0.394,1.153,0.838,1.619,1.327c5.77,0.966,11.21,1.739,12.653,2.397
						c3.412,1.55-4.654,6.204-13.341,8.376c-1.242,1.862,0,1.552,0,2.482c0,0.932-1.242,1.861-0.31,2.791
						c3.724-0.308,13.651-5.274,14.272-8.066c0.62-2.792,1.862-9.307-2.173-9.929c-4.032-0.622-27.925-2.173-26.683-5.586
						c1.242-3.412-21.685-2.768-31.613-0.286l-9.641,2.501c-1.743,0.548-2.871,1.059-4.666,1.508
						c-0.93,0.621-0.311,1.552-0.311,2.484c0,1.241-0.93,2.172,0.311,2.172c1.862-0.931,8.069-4.041,10.551-4.041L62.876,11.261z"/>
				</g>
				<g>
					<path opacity="0.54" fill="#E4E8E8" d="M84.602,49.444c6.51-4.973,13.336-8.078,16.748-9.319
						c2.171-5.583,6.204-21.407-2.483-23.579c-8.685-2.172-32.578-3.413-38.782-4.654c-6.207-1.242-13.963-4.964-20.788-8.066
						c-3.103,0.619-6.935,2.11-9.107,2.731c0,0,2.342,0.286,4.294,0.599s12.648,3.669,12.648,3.669s7.715,2.601,8.776,2.901
						c1.061,0.3,12.07,1.862,12.07,1.862l8.284,1.55c0,0,6.082,1.339,7.643,2.822c1.561,1.483,3.201,5.231,3.279,5.699
						c0.078,0.468,1.874,7.339,1.874,11.008c0,3.669-0.34,6.9-1.146,8.525S84.602,49.444,84.602,49.444z"/>
					<linearGradient id="SVGID_7_" gradientUnits="userSpaceOnUse" x1="37.4033" y1="-1.6313" x2="100.0569" y2="38.0688">
						<stop  offset="0.1206" style="stop-color:#000000;stop-opacity:0.1"/>
						<stop  offset="0.3796" style="stop-color:#282828;stop-opacity:0.0504"/>
						<stop  offset="0.6425" style="stop-color:#4D4D4D;stop-opacity:0"/>
						<stop  offset="1" style="stop-color:#000000;stop-opacity:0.1"/>
					</linearGradient>
					<path fill="url(#SVGID_7_)" d="M84.602,49.444c6.51-4.973,13.336-8.078,16.748-9.319c2.171-5.583,6.204-21.407-2.483-23.579
						c-8.685-2.172-32.578-3.413-38.782-4.654c-6.207-1.242-13.963-4.964-20.788-8.066c-3.103,0.619-6.935,2.11-9.107,2.731
						c0,0,2.342,0.286,4.294,0.599s12.648,3.669,12.648,3.669s7.715,2.601,8.776,2.901c1.061,0.3,12.07,1.862,12.07,1.862
						l8.284,1.55c0,0,6.082,1.339,7.643,2.822c1.561,1.483,3.201,5.231,3.279,5.699c0.078,0.468,1.874,7.339,1.874,11.008
						c0,3.669-0.34,6.9-1.146,8.525S84.602,49.444,84.602,49.444z"/>
					<path fill="none" stroke="#707973" d="M84.602,49.444c6.51-4.973,13.336-8.078,16.748-9.319
						c2.171-5.583,6.204-21.407-2.483-23.579c-8.685-2.172-32.578-3.413-38.782-4.654c-6.207-1.242-13.963-4.964-20.788-8.066
						c-3.103,0.619-6.935,2.11-9.107,2.731c0,0,2.342,0.286,4.294,0.599s12.648,3.669,12.648,3.669s7.715,2.601,8.776,2.901
						c1.061,0.3,12.07,1.862,12.07,1.862l8.284,1.55c0,0,6.082,1.339,7.643,2.822c1.561,1.483,3.201,5.231,3.279,5.699
						c0.078,0.468,1.874,7.339,1.874,11.008c0,3.669-0.34,6.9-1.146,8.525S84.602,49.444,84.602,49.444z"/>
				</g>
				<path fill="#E4E8E8" fill-opacity="0.54" stroke="#707973" d="M98.866,41.366c2.173,2.481,5.275-0.93,6.516-10.856
					c0.787-6.282,0.312-11.481-4.033-14.274c-3.692-2.374-39.094-4.966-41.887-5.276c-2.792-0.31-15.822-6.825-18.306-8.067
					c-2.482-1.241-4.073-0.474-3.763,1.386l1.889-0.495l3.632,1.704l11.086,4.657c0,0,5.119,1.616,7.127,1.928
					c2.008,0.312,15.749,1.561,15.749,1.561l16.925,1.956c0,0,5.014,0.854,5.794,1.166c0.781,0.312,2.186,1.015,2.889,2.342
					c0.703,1.327,1.79,3.279,1.715,6.246s-0.778,8.042-1.246,9.603c-0.468,1.561-1.718,5.309-1.718,5.309L98.866,41.366z"/>
				<g>
					<g opacity="0.6">
						<path fill="#E4E8E8" d="M85.027,21.12c-3.436-4.839-24.462-6.212-29.12-7.395c-4.658-1.184-25.224-9.428-27.758-6.572
							c-2.535,2.855-5.633,18.458-0.304,26.385c5.331,7.929,19.339,7.718,21.71,5.678c2.367-2.044,2.552-5.958,6.046-5.072
							c3.495,0.887,4.58,6.453,6.871,9.681c2.289,3.226,14.46,10.283,22.13,5.619C92.272,44.781,88.461,25.96,85.027,21.12z
							 M83.162,47.89c-6.9,4.197-17.727-2.917-19.787-5.821c-2.062-2.902-3.668-8.866-7.742-9.9c-4.079-1.035-4.79,3.01-6.922,4.849
							c-2.132,1.837-15.545,2.564-19.656-4.493c-4.112-7.055-2.167-20.924,0.116-23.494c1.934-2.178,16.754,2.983,23.79,5.698
							c1.752,0.677-1.195,2.242,2.883,3.278c4.076,1.037,1.198-2.009,2.956-1.794c7.066,0.866,22.126,2.493,24.745,6.185
							C86.637,26.753,90.065,43.69,83.162,47.89z"/>
					</g>
					<linearGradient id="SVGID_8_" gradientUnits="userSpaceOnUse" x1="24.9203" y1="28.7738" x2="89.0706" y2="28.7738">
						<stop  offset="0" style="stop-color:#000000;stop-opacity:0.1"/>
						<stop  offset="0.0967" style="stop-color:#1B1B1B;stop-opacity:0.085"/>
						<stop  offset="0.2016" style="stop-color:#313131;stop-opacity:0.0686"/>
						<stop  offset="0.3173" style="stop-color:#414141;stop-opacity:0.0506"/>
						<stop  offset="0.4507" style="stop-color:#4A4A4A;stop-opacity:0.0299"/>
						<stop  offset="0.6425" style="stop-color:#4D4D4D;stop-opacity:0"/>
						<stop  offset="1" style="stop-color:#000000;stop-opacity:0.1"/>
					</linearGradient>
					<path fill="url(#SVGID_8_)" d="M85.027,21.12c-3.436-4.839-24.462-6.212-29.12-7.395c-4.658-1.184-25.224-9.428-27.758-6.572
						c-2.535,2.855-5.633,18.458-0.304,26.385c5.331,7.929,19.339,7.718,21.71,5.678c2.367-2.044,2.552-5.958,6.046-5.072
						c3.495,0.887,4.58,6.453,6.871,9.681c2.289,3.226,14.46,10.283,22.13,5.619C92.272,44.781,88.461,25.96,85.027,21.12z
						 M83.162,47.89c-6.9,4.197-17.727-2.917-19.787-5.821c-2.062-2.902-3.668-8.866-7.742-9.9c-4.079-1.035-4.79,3.01-6.922,4.849
						c-2.132,1.837-15.545,2.564-19.656-4.493c-4.112-7.055-2.167-20.924,0.116-23.494c1.934-2.178,16.754,2.983,23.79,5.698
						c1.752,0.677-1.195,2.242,2.883,3.278c4.076,1.037,1.198-2.009,2.956-1.794c7.066,0.866,22.126,2.493,24.745,6.185
						C86.637,26.753,90.065,43.69,83.162,47.89z"/>
					<path fill="none" stroke="#707973" d="M85.027,21.12c-3.436-4.839-24.462-6.212-29.12-7.395
						c-4.658-1.184-25.224-9.428-27.758-6.572c-2.535,2.855-5.633,18.458-0.304,26.385c5.331,7.929,19.339,7.718,21.71,5.678
						c2.367-2.044,2.552-5.958,6.046-5.072c3.495,0.887,4.58,6.453,6.871,9.681c2.289,3.226,14.46,10.283,22.13,5.619
						C92.272,44.781,88.461,25.96,85.027,21.12z M83.162,47.89c-6.9,4.197-17.727-2.917-19.787-5.821
						c-2.062-2.902-3.668-8.866-7.742-9.9c-4.079-1.035-4.79,3.01-6.922,4.849c-2.132,1.837-15.545,2.564-19.656-4.493
						c-4.112-7.055-2.167-20.924,0.116-23.494c1.934-2.178,16.754,2.983,23.79,5.698c1.752,0.677-1.195,2.242,2.883,3.278
						c4.076,1.037,1.198-2.009,2.956-1.794c7.066,0.866,22.126,2.493,24.745,6.185C86.637,26.753,90.065,43.69,83.162,47.89z"/>
				</g>
				<radialGradient id="SVGID_9_" cx="55.7739" cy="15.8198" r="1.3165" gradientUnits="userSpaceOnUse">
					<stop  offset="0" style="stop-color:#4D4D4D;stop-opacity:0"/>
					<stop  offset="1" style="stop-color:#000000;stop-opacity:0.1"/>
				</radialGradient>
				<circle fill="url(#SVGID_9_)" stroke="#7F8580" stroke-width="0.25" cx="55.774" cy="15.821" r="1.317"/>
			</g>
		</g>
		
			<ellipse transform="matrix(0.9681 -0.2507 0.2507 0.9681 -4.9942 8.1009)" fill="#E4E8E8" fill-opacity="0.54" stroke="#707973" cx="29.303" cy="23.655" rx="1.659" ry="4.799"/>
		
			<ellipse transform="matrix(0.9681 -0.2507 0.2507 0.9681 -4.9084 8.3158)" fill="#E4E8E8" fill-opacity="0.54" stroke="#707973" cx="30.189" cy="23.425" rx="1.659" ry="4.799"/>
		
			<ellipse transform="matrix(0.5324 -0.8465 0.8465 0.5324 9.8038 98.0346)" fill="#E4E8E8" fill-opacity="0.54" stroke="#707973" cx="93.633" cy="40.144" rx="6.313" ry="2.183"/>
		
			<ellipse transform="matrix(0.5324 -0.8465 0.8465 0.5324 9.6842 100.1423)" fill="#E4E8E8" fill-opacity="0.54" stroke="#707973" cx="95.481" cy="41.306" rx="3.835" ry="1.326"/>
		
			<ellipse transform="matrix(0.2553 -0.9669 0.9669 0.2553 24.4421 45.5715)" fill="#E4E8E8" fill-opacity="0.54" stroke="#707973" cx="41.804" cy="6.919" rx="1.338" ry="5.314"/>
		
			<ellipse transform="matrix(0.2553 -0.9669 0.9669 0.2553 25.9478 44.9381)" fill="#E4E8E8" fill-opacity="0.54" stroke="#707973" cx="42.145" cy="5.625" rx="0.813" ry="3.228"/>
		
			<ellipse transform="matrix(0.0732 -0.9973 0.9973 0.0732 59.1902 94.005)" fill="#E4E8E8" fill-opacity="0.54" stroke="#707973" cx="80.173" cy="15.156" rx="1.475" ry="5.856"/>
		
			<ellipse transform="matrix(0.0732 -0.9973 0.9973 0.0732 60.7572 92.7493)" fill="#E4E8E8" fill-opacity="0.54" stroke="#707973" cx="80.281" cy="13.685" rx="0.896" ry="3.557"/>
	</g>
</g>
<g id="Seed_Packets">
</g>
</svg>
