<svg aria-hidden="true" style="position: absolute; width: 0; height: 0; overflow: hidden;" version="1.1" xmlns="http://www.w3.org/2000/svg" xmlns:xlink="http://www.w3.org/1999/xlink">
<defs>
<symbol id="icon-prohibited" viewBox="0 0 24 24">
<title>prohibited</title>
<path d="M12 0c-6.625 0-12 5.375-12 12s5.375 12 12 12 12-5.375 12-12-5.375-12-12-12zM19.071 4.929c1.81 1.81 2.93 4.31 2.93 7.072 0 2.409-0.852 4.62-2.271 6.346l0.014-0.017-14.073-14.073c1.709-1.405 3.919-2.257 6.328-2.257 2.762 0 5.262 1.12 7.072 2.93v0zM4.929 19.071c-1.81-1.81-2.93-4.31-2.93-7.072 0-2.409 0.852-4.62 2.271-6.346l-0.014 0.017 14.073 14.073c-1.709 1.405-3.919 2.257-6.328 2.257-2.762 0-5.262-1.12-7.072-2.93v0z"></path>
</symbol>
<symbol id="icon-radio-unselected" viewBox="0 0 24 24">
<title>radio-unselected</title>
<path d="M12 2c0 0 0 0 0 0 5.523 0 10 4.477 10 10 0 2.762-1.119 5.262-2.929 7.071v0c-1.81 1.81-4.31 2.929-7.071 2.929-5.523 0-10-4.477-10-10 0-2.761 1.119-5.262 2.929-7.071v0c1.8-1.809 4.292-2.929 7.045-2.929 0.009 0 0.018 0 0.028 0h-0.001zM12 0c-6.625 0-12 5.375-12 12s5.375 12 12 12 12-5.375 12-12-5.375-12-12-12z"></path>
</symbol>
<symbol id="icon-radio-selected" viewBox="0 0 24 24">
<title>radio-selected</title>
<path d="M12 4c4.418 0 8 3.582 8 8s-3.582 8-8 8c-4.418 0-8-3.582-8-8 0-2.209 0.895-4.209 2.343-5.657v0c1.44-1.447 3.433-2.343 5.635-2.343 0.008 0 0.015 0 0.023 0h-0.001zM12 0c-6.625 0-12 5.375-12 12s5.375 12 12 12 12-5.375 12-12-5.375-12-12-12zM12 8c-2.209 0-4 1.791-4 4s1.791 4 4 4c2.209 0 4-1.791 4-4v0c0-2.209-1.791-4-4-4v0z"></path>
</symbol>
<symbol id="icon-checkbox-unselected" viewBox="0 0 24 24">
<title>checkbox-unselected</title>
<path d="M19 2c1.653 0.008 2.992 1.347 3 2.999v14.001c-0.008 1.653-1.347 2.992-2.999 3h-14.001c-1.653-0.008-2.992-1.347-3-2.999v-14.001c0.008-1.653 1.347-2.992 2.999-3h14.001zM19 0h-14c-2.758 0.009-4.992 2.242-5 4.999v14.001c0.009 2.758 2.242 4.992 4.999 5h14.001c2.758-0.009 4.992-2.242 5-4.999v-14.001c-0.009-2.758-2.242-4.992-4.999-5h-0.001z"></path>
</symbol>
<symbol id="icon-checkbox-selected" viewBox="0 0 24 24">
<title>checkbox-selected</title>
<path d="M19 0h-14c-2.758 0.009-4.992 2.242-5 4.999v14.001c0.009 2.758 2.242 4.992 4.999 5h14.001c2.758-0.009 4.992-2.242 5-4.999v-14.001c-0.009-2.758-2.242-4.992-4.999-5h-0.001zM20.292 8.708l-9.584 9.584c-0.181 0.182-0.432 0.294-0.708 0.294s-0.527-0.112-0.708-0.294l-5.583-5.584c-0.182-0.181-0.294-0.432-0.294-0.708s0.112-0.527 0.294-0.708l1.583-1.583c0.181-0.182 0.432-0.294 0.708-0.294s0.527 0.112 0.708 0.294l3.292 3.292 7.292-7.292c0.181-0.182 0.432-0.294 0.708-0.294s0.527 0.112 0.708 0.294l1.583 1.583c0.182 0.181 0.294 0.432 0.294 0.708s-0.112 0.527-0.294 0.708l-0 0z"></path>
</symbol>
<symbol id="icon-plus-thin" viewBox="0 0 24 24">
<title>plus-thin</title>
<path d="M20 10h-6v-6c0-1.105-0.895-2-2-2s-2 0.895-2 2v0 6h-6c-1.105 0-2 0.895-2 2s0.895 2 2 2v0h6v6c0 1.105 0.895 2 2 2s2-0.895 2-2v0-6h6c1.105 0 2-0.895 2-2s-0.895-2-2-2v0z"></path>
</symbol>
<symbol id="icon-minus-thin" viewBox="0 0 24 24">
<title>minus-thin</title>
<path d="M20 14h-16c-1.105 0-2-0.895-2-2s0.895-2 2-2v0h16c1.105 0 2 0.895 2 2s-0.895 2-2 2v0z"></path>
</symbol>
<symbol id="icon-check-thin" viewBox="0 0 24 24">
<title>check-thin</title>
<path d="M9 21c0 0-0 0-0 0-0.616 0-1.167-0.278-1.534-0.716l-0.003-0.003-5-6c-0.289-0.344-0.464-0.792-0.464-1.281 0-1.105 0.896-2.001 2.001-2.001 0.616 0 1.167 0.278 1.534 0.716l0.003 0.003 3.418 4.101 9.473-12.055c0.37-0.457 0.93-0.747 1.559-0.747 1.105 0 2 0.895 2 2 0 0.461-0.156 0.885-0.417 1.223l0.003-0.005-11 14c-0.364 0.46-0.918 0.755-1.542 0.764l-0.002 0z"></path>
</symbol>
<symbol id="icon-cross-thin" viewBox="0 0 24 24">
<title>cross-thin</title>
<path d="M14.828 12l6.586-6.586c0.35-0.36 0.565-0.851 0.565-1.393 0-1.105-0.895-2-2-2-0.542 0-1.034 0.216-1.394 0.566l-6.586 6.585-6.586-6.586c-0.362-0.362-0.862-0.586-1.414-0.586-1.105 0-2 0.896-2 2 0 0.552 0.224 1.052 0.586 1.414l6.586 6.586-6.586 6.586c-0.374 0.364-0.607 0.872-0.607 1.435 0 1.105 0.895 2 2 2 0.563 0 1.071-0.232 1.434-0.606l6.587-6.586 6.586 6.586c0.36 0.35 0.851 0.565 1.393 0.565 1.105 0 2-0.895 2-2 0-0.542-0.216-1.034-0.566-1.394l0 0z"></path>
</symbol>
<symbol id="icon-cross" viewBox="0 0 24 24">
<title>cross</title>
<path d="M24 4l-4-4-8 8-8-8-4 4 8 8-8 8 4 4 8-8 8 8 4-4-8-8 8-8z"></path>
</symbol>
<symbol id="icon-chevron-circle-down" viewBox="0 0 24 24">
<title>chevron-circle-down</title>
<path d="M12 0c-6.625 0-12 5.375-12 12s5.375 12 12 12 12-5.375 12-12-5.375-12-12-12zM19.797 11.203l-7.094 7.094c-0.179 0.181-0.428 0.293-0.703 0.293s-0.524-0.112-0.703-0.293l-7.094-7.094c-0.181-0.179-0.293-0.428-0.293-0.703s0.112-0.524 0.293-0.703l1.594-1.594c0.179-0.181 0.428-0.293 0.703-0.293s0.524 0.112 0.703 0.293l4.797 4.797 4.797-4.797c0.179-0.181 0.428-0.293 0.703-0.293s0.524 0.112 0.703 0.293l1.594 1.594c0.181 0.179 0.293 0.428 0.293 0.703s-0.112 0.524-0.293 0.703l-0 0z"></path>
</symbol>
<symbol id="icon-chevron-circle-up" viewBox="0 0 24 24">
<title>chevron-circle-up</title>
<path d="M24 12c0-6.625-5.375-12-12-12s-12 5.375-12 12 5.375 12 12 12 12-5.375 12-12zM19.797 14.203l-1.594 1.594c-0.179 0.181-0.428 0.293-0.703 0.293s-0.524-0.112-0.703-0.293l-4.797-4.797-4.797 4.797c-0.179 0.181-0.428 0.293-0.703 0.293s-0.524-0.112-0.703-0.293l-1.594-1.594c-0.181-0.179-0.293-0.428-0.293-0.703s0.112-0.524 0.293-0.703l7.094-7.094c0.179-0.181 0.428-0.293 0.703-0.293s0.524 0.112 0.703 0.293l7.094 7.094c0.181 0.179 0.293 0.428 0.293 0.703s-0.112 0.524-0.293 0.703l-0 0z"></path>
</symbol>
<symbol id="icon-chevron-down" viewBox="0 0 24 24">
<title>chevron-down</title>
<path d="M20.395 5.395l-8.395 8.395-8.395-8.395-3.605 3.605 12 12 12-12-3.605-3.605z"></path>
</symbol>
<symbol id="icon-chevron-up" viewBox="0 0 24 24">
<title>chevron-up</title>
<path d="M20.395 18.605l-8.395-8.395-8.395 8.395-3.605-3.605 12-12 12 12-3.605 3.605z"></path>
</symbol>
<symbol id="icon-chevron-left" viewBox="0 0 24 24">
<title>chevron-left</title>
<path d="M18.605 3.605l-8.395 8.395 8.395 8.395-3.605 3.605-12-12 12-12 3.605 3.605z"></path>
</symbol>
<symbol id="icon-chevron-right" viewBox="0 0 24 24">
<title>chevron-right</title>
<path d="M5.395 3.605l8.395 8.395-8.395 8.395 3.605 3.605 12-12-12-12-3.605 3.605z"></path>
</symbol>
<symbol id="icon-chevron-down-thin" viewBox="0 0 24 24">
<title>chevron-down-thin</title>
<path d="M21.5 6.5l-9.5 9.5-9.5-9.5-2.5 2.5 12 12 12-12-2.5-2.5z"></path>
</symbol>
<symbol id="icon-chevron-up-thin" viewBox="0 0 24 24">
<title>chevron-up-thin</title>
<path d="M21.5 17.5l-9.5-9.5-9.5 9.5-2.5-2.5 12-12 12 12-2.5 2.5z"></path>
</symbol>
<symbol id="icon-chevron-left-thin" viewBox="0 0 24 24">
<title>chevron-left-thin</title>
<path d="M17.5 2.5l-9.5 9.5 9.5 9.5-2.5 2.5-12-12 12-12 2.5 2.5z"></path>
</symbol>
<symbol id="icon-chevron-right-thin" viewBox="0 0 24 24">
<title>chevron-right-thin</title>
<path d="M6.5 21.5l9.5-9.5-9.5-9.5 2.5-2.5 12 12-12 12-2.5-2.5z"></path>
</symbol>
<symbol id="icon-asterisk" viewBox="0 0 24 24">
<title>asterisk</title>
<path d="M22.75 15.434q0.448 0.193 0.416 0.754t-0.769 1.812q-0.738 1.283-1.203 1.572t-0.849 0l-6.831-4.974 0.897 8.406q0.097 0.482-0.417 0.738t-1.99 0.257-1.989-0.257-0.416-0.738l0.897-8.406-6.799 4.974q-0.385 0.29-0.866 0t-1.218-1.572q-0.738-1.25-0.755-1.812t0.434-0.754l7.729-3.434-7.729-3.401q-0.45-0.224-0.434-0.786t0.755-1.812q0.737-1.25 1.218-1.54t0.866 0l6.8 4.941-0.897-8.375q-0.099-0.513 0.416-0.769t1.989-0.257q1.475 0 1.988 0.257t0.417 0.769l-0.897 8.375 6.831-4.941q0.384-0.289 0.849 0t1.203 1.572q0.739 1.218 0.77 1.78t-0.415 0.786l-7.731 3.401z"></path>
</symbol>
<symbol id="icon-spinner" viewBox="0 0 24 24">
<title>spinner</title>
<path d="M23.609 14.5c0 0.005 0.001 0.012 0.001 0.018 0 0.033-0.006 0.064-0.017 0.093l0.001-0.002c-1.328 5.531-5.891 9.391-11.656 9.391-3.047 0-6-1.203-8.219-3.312l-2.016 2.016c-0.179 0.182-0.428 0.295-0.703 0.297h-0c-0.551-0.004-0.996-0.449-1-1v-7c0.004-0.551 0.449-0.996 1-1h7c0.551 0.004 0.996 0.449 1 1v0c-0.002 0.275-0.115 0.524-0.297 0.703l-0 0-2.141 2.141c1.422 1.336 3.34 2.156 5.451 2.156 2.864 0 5.375-1.511 6.779-3.778l0.020-0.034c0.375-0.609 0.563-1.203 0.828-1.828 0.078-0.219 0.234-0.359 0.469-0.359h3c0.275 0.002 0.498 0.225 0.5 0.5v0zM24 2v7c-0.004 0.551-0.449 0.996-1 1h-7c-0.551-0.004-0.996-0.449-1-1v-0c0.002-0.275 0.115-0.524 0.297-0.703l0-0 2.156-2.156c-1.424-1.327-3.341-2.142-5.448-2.142-2.869 0-5.386 1.511-6.798 3.78l-0.020 0.034c-0.375 0.609-0.563 1.203-0.828 1.828-0.078 0.219-0.234 0.359-0.469 0.359h-3.109c-0.275-0.002-0.498-0.225-0.5-0.5v-0.11c1.344-5.547 5.953-9.391 11.719-9.391 3.063 0 6.047 1.219 8.266 3.312l2.031-2.016c0.179-0.182 0.428-0.295 0.703-0.297h0c0.551 0.004 0.996 0.449 1 1v0z"></path>
</symbol>
<symbol id="icon-lock" viewBox="0 0 24 24">
<title>lock</title>
<path d="M18 10.709v-4.709c0-3.3-2.7-6-6-6s-6 2.7-6 6v4.709c-1.242 1.403-2 3.259-2 5.292 0 4.418 3.582 8 8 8s8-3.582 8-8c0-2.033-0.758-3.889-2.007-5.3l0.007 0.008zM13.5 20h-3l0.776-4.136c-0.753-0.298-1.276-1.020-1.276-1.864 0-1.105 0.895-2 2-2s2 0.895 2 2c0 0.844-0.523 1.566-1.262 1.859l-0.014 0.005zM16 9.071c-1.148-0.673-2.527-1.071-4-1.071s-2.852 0.397-4.038 1.091l0.038-0.020v-3.071c0-2.209 1.791-4 4-4s4 1.791 4 4v0z"></path>
</symbol>
<symbol id="icon-raise-hand" viewBox="0 0 48 48">
<title>raise-hand</title>
<path d="M10 14.008c0-0.002 0-0.005 0-0.008 0-5.523 4.477-10 10-10 0.002 0 0.005 0 0.007 0h-0c5.438 0.004 9.989 4.557 9.993 9.992 0 0.002 0 0.005 0 0.008 0 5.523-4.477 10-10 10-0.002 0-0.005 0-0.007 0h0c-5.436-0.004-9.989-4.557-9.993-9.992zM41.759 2.632c-0.575-1.549-2.041-2.633-3.759-2.633-2.209 0-4 1.791-4 4 0 0.491 0.088 0.961 0.25 1.395l-0.009-0.028c2.183 6 1.419 13.699-1.813 18.302-1.084 1.543-2.399 2.677-3.932 3.397-1.305-0.672-2.847-1.066-4.482-1.066-0.005 0-0.010 0-0.015 0h-7.999c-5.523 0-10 4.477-10 10v0 7.969c0 2.226 1.805 4.031 4.031 4.031v0h19.937c2.226 0 4.031-1.805 4.031-4.031v0-7.969c0-0.001 0-0.003 0-0.005 0-0.937-0.129-1.843-0.369-2.703l0.017 0.070c2.055-1.276 3.843-2.986 5.326-5.096 2.402-3.422 3.912-7.771 4.361-12.579 0.416-4.477-0.141-9.114-1.574-13.054z"></path>
</symbol>
<symbol id="icon-play" viewBox="0 0 48 48">
<title>play</title>
<path d="M12 10l24 14-24 14z"></path>
</symbol>
<symbol id="icon-pause" viewBox="0 0 48 48">
<title>pause</title>
<path d="M28.031 10.031h7.969v27.938h-7.969zM12 37.969v-27.938h7.969v27.938z"></path>
</symbol>
<symbol id="icon-play-circle" viewBox="0 0 48 48">
<title>play-circle</title>
<path d="M24 2c12.147 0.009 21.991 9.858 21.991 22.006 0 9.056-5.47 16.834-13.286 20.211l-0.143 0.055c-2.502 1.072-5.414 1.696-8.472 1.696-12.154 0-22.006-9.853-22.006-22.006 0-9.027 5.435-16.784 13.211-20.178l0.142-0.055c2.514-1.093 5.442-1.728 8.519-1.728 0.015 0 0.031 0 0.046 0h-0.002zM24 0c-13.255 0-24 10.745-24 24s10.745 24 24 24 24-10.745 24-24-10.745-24-24-24zM18 12v24l18-12z"></path>
</symbol>
<symbol id="icon-volume-down" viewBox="0 0 48 48">
<title>volume-down</title>
<path d="M6 18h8l10-10v32l-10-10h-8zM28 18v12c3.314 0 6-2.686 6-6s-2.686-6-6-6v0z"></path>
</symbol>
<symbol id="icon-volume-up" viewBox="0 0 48 48">
<title>volume-up</title>
<path d="M6 18h8l10-10v32l-10-10h-8zM28 18v12c3.314 0 6-2.686 6-6s-2.686-6-6-6v0zM37.745 32.902c2.098-2.361 3.255-5.522 3.255-8.902s-1.156-6.542-3.254-8.902c-2.383-2.681-5.753-4.097-9.746-4.097-0.828 0-1.5 0.672-1.5 1.5s0.672 1.5 1.5 1.5v0c6.87 0 10 5.184 10 10 0 2.645-0.886 5.099-2.496 6.91-1.798 2.021-4.393 3.090-7.504 3.090-0.828 0-1.5 0.672-1.5 1.5s0.672 1.5 1.5 1.5v0c3.993 0 7.363-1.417 9.745-4.097z"></path>
</symbol>
<symbol id="icon-volume-mute" viewBox="0 0 48 48">
<title>volume-mute</title>
<path d="M14 18l10-10v32l-10-10h-8v-12zM38.828 24l4.591-4.591c0.374-0.364 0.607-0.872 0.607-1.435 0-1.105-0.895-2-2-2-0.563 0-1.071 0.232-1.434 0.606l-4.592 4.592-4.591-4.591c-0.364-0.374-0.872-0.607-1.435-0.607-1.105 0-2 0.895-2 2 0 0.563 0.232 1.071 0.606 1.434l4.592 4.592-4.591 4.591c-0.374 0.364-0.607 0.872-0.607 1.435 0 1.105 0.895 2 2 2 0.563 0 1.071-0.232 1.434-0.606l4.592-4.592 4.591 4.591c0.364 0.374 0.872 0.607 1.435 0.607 1.105 0 2-0.895 2-2 0-0.563-0.232-1.071-0.606-1.434l-0-0z"></path>
</symbol>
<symbol id="icon-cc-on" viewBox="0 0 48 48">
<title>cc-on</title>
<path d="M38 10h-28c-2.209 0-4 1.791-4 4v0 12c0 2.209 1.791 4 4 4v0h6v8l8-8h14c2.209 0 4-1.791 4-4v0-12c0-2.209-1.791-4-4-4v0z"></path>
</symbol>
<symbol id="icon-cc-off" viewBox="0 0 48 48">
<title>cc-off</title>
<path d="M19 10h19c2.209 0 4 1.791 4 4v0 12c-0 1.891-1.312 3.475-3.075 3.892l-0.027 0.005zM15 10l-7-7-2 2 5 5h-1c-2.209 0-4 1.791-4 4v0 12c0 2.209 1.791 4 4 4v0h6v8l8-8h7l9 9 2-2-7-7z"></path>
</symbol>
<symbol id="icon-fullscreen" viewBox="0 0 48 48">
<title>fullscreen</title>
<path d="M28.031 10.031h9.938v9.938h-3.938v-6h-6zM34.031 34.031v-6h3.938v9.938h-9.938v-3.938zM10.031 19.969v-9.938h9.938v3.938h-6v6zM13.969 28.031v6h6v3.938h-9.938v-9.938z"></path>
</symbol>
<symbol id="icon-fullscreen-exit" viewBox="0 0 48 48">
<title>fullscreen-exit</title>
<path d="M31.969 16.031h6v3.938h-9.938v-9.938h3.938zM28.031 37.969v-9.938h9.938v3.938h-6v6zM16.031 16.031v-6h3.938v9.938h-9.938v-3.938zM10.031 31.969v-3.938h9.938v9.938h-3.938v-6z"></path>
</symbol>
<symbol id="icon-eye" viewBox="0 0 48 48">
<title>eye</title>
<path d="M47.786 23.228c-0.082-0.136-2.051-3.38-5.951-6.631-2.13-1.798-4.576-3.319-7.225-4.457l-0.189-0.072c-3.080-1.308-6.661-2.068-10.421-2.068s-7.341 0.76-10.6 2.136l0.179-0.067c-2.838 1.21-5.284 2.731-7.458 4.564l0.043-0.036c-3.901 3.25-5.869 6.494-5.951 6.631-0.134 0.22-0.214 0.487-0.214 0.772 0 0.305 0.091 0.588 0.247 0.825l-0.003-0.006c0.083 0.125 2.063 3.125 5.969 6.121 2.131 1.655 4.577 3.057 7.206 4.093l0.201 0.070c3.082 1.201 6.65 1.896 10.381 1.896s7.298-0.696 10.581-1.964l-0.201 0.068c2.83-1.107 5.276-2.51 7.474-4.216l-0.067 0.050c3.909-2.997 5.886-5.995 5.969-6.121 0.152-0.231 0.243-0.514 0.243-0.818 0-0.284-0.079-0.55-0.216-0.777l0.004 0.007zM39.871 28.629c-4.688 3.564-10.028 5.371-15.871 5.371s-11.183-1.807-15.871-5.371c-1.807-1.376-3.382-2.911-4.754-4.616l-0.041-0.052c1.401-1.907 2.964-3.568 4.705-5.022l0.045-0.036c3.332-2.777 6.995-4.582 10.933-5.398-2.436 1.636-4.018 4.381-4.018 7.495 0 4.971 4.029 9 9 9s9-4.029 9-9c0-3.114-1.582-5.859-3.986-7.475l-0.032-0.020c3.904 0.812 7.539 2.591 10.85 5.329 1.819 1.509 3.409 3.193 4.777 5.051l0.055 0.078c-1.412 1.756-2.986 3.291-4.727 4.618l-0.066 0.048z"></path>
</symbol>
<symbol id="icon-eye-blocked" viewBox="0 0 48 48">
<title>eye-blocked</title>
<path d="M47.756 24.819c-0.082 0.125-2.063 3.125-5.969 6.121q-0.812 0.625-1.661 1.187l-2.166-2.166q0.973-0.619 1.911-1.332c1.806-1.376 3.381-2.91 4.753-4.615l0.041-0.052c-1.423-1.935-3.013-3.619-4.785-5.091l-0.046-0.037c-3.313-2.738-6.945-4.52-10.85-5.329 2.436 1.638 4.017 4.384 4.017 7.499 0 1.207-0.237 2.358-0.668 3.41l0.022-0.060-13.813-13.813c1.629-0.345 3.501-0.543 5.419-0.543 0.014 0 0.028 0 0.042 0h-0.002c0.019-0 0.042-0 0.065-0 3.737 0 7.296 0.761 10.532 2.135l-0.176-0.067c2.838 1.21 5.284 2.731 7.458 4.565l-0.043-0.036c3.901 3.25 5.869 6.494 5.951 6.631 0.134 0.22 0.214 0.486 0.214 0.771 0 0.305-0.091 0.588-0.247 0.825l0.003-0.006zM44 40l-2 2-7.101-7.101q-0.258 0.105-0.518 0.205c-3.082 1.201-6.65 1.896-10.381 1.896s-7.298-0.696-10.581-1.964l0.201 0.068c-2.83-1.107-5.276-2.51-7.474-4.216l0.067 0.050c-3.909-2.994-5.887-5.992-5.969-6.118-0.153-0.231-0.244-0.515-0.244-0.82 0-0.285 0.079-0.551 0.217-0.778l-0.004 0.007c0.082-0.136 2.051-3.38 5.951-6.631 1.845-1.555 3.938-2.912 6.19-3.99l0.177-0.076-6.532-6.531 2-2zM32.578 32.578l-3.89-3.89c-1.338 0.831-2.961 1.324-4.699 1.324-4.971 0-9-4.029-9-9 0-1.738 0.493-3.362 1.346-4.738l-0.022 0.038-1.513-1.513q-3.542 1.462-6.715 4.102c-1.786 1.49-3.349 3.151-4.695 4.98l-0.055 0.078c1.413 1.757 2.988 3.292 4.729 4.62l0.066 0.048c4.688 3.563 10.028 5.371 15.871 5.371 2.999 0.001 5.864-0.476 8.577-1.422z"></path>
</symbol>
<symbol id="icon-cut" viewBox="0 0 48 48">
<title>cut</title>
<path fill="#666" style="fill: var(--color1, #666)" d="M38.75 2.563c-0.485-0.352-1.093-0.563-1.75-0.563-1 0-1.886 0.49-2.431 1.242l-0.006 0.009-10.562 14.671-10.562-14.671c-0.551-0.761-1.437-1.251-2.438-1.251-1.657 0-3.001 1.343-3.001 3.001 0 0.657 0.211 1.265 0.569 1.759l-0.006-0.009 11.741 16.306-3.741 5.194c-0.352 0.485-0.563 1.093-0.563 1.75 0 1.657 1.343 3.001 3.001 3.001 1 0 1.886-0.489 2.432-1.242l0.006-0.009 2.563-3.563 2.563 3.563c0.551 0.761 1.437 1.251 2.438 1.251 1.657 0 3.001-1.343 3.001-3.001 0-0.657-0.211-1.265-0.569-1.759l0.006 0.009-3.738-5.191 11.738-16.309c0.352-0.485 0.563-1.093 0.563-1.75 0-1-0.49-1.886-1.242-2.431l-0.009-0.006z"></path>
<path fill="#4575a6" style="fill: var(--color2, #4575a6)" d="M14 33c2.209 0 4 1.791 4 4s-1.791 4-4 4c-2.209 0-4-1.791-4-4v0c0.002-2.208 1.792-3.997 4-4h0zM14 28c-4.971 0-9 4.029-9 9s4.029 9 9 9c4.971 0 9-4.029 9-9v0c0-4.971-4.029-9-9-9v0zM34 33c2.209 0 4 1.791 4 4s-1.791 4-4 4c-2.209 0-4-1.791-4-4v0c0.002-2.208 1.792-3.997 4-4h0zM34 28c-4.971 0-9 4.029-9 9s4.029 9 9 9c4.971 0 9-4.029 9-9v0c0-4.971-4.029-9-9-9v0z"></path>
</symbol>
<symbol id="icon-copy" viewBox="0 0 48 48">
<title>copy</title>
<path fill="#fff" style="fill: var(--color3, #fff)" d="M35.586 13h-6.586v-4.586l-5.414-5.414h-18.586v32h14v10h24v-24.586l-7.414-7.414z"></path>
<path fill="#666" style="fill: var(--color1, #666)" d="M36 12h-6v-4l-6-6h-20v34h14v10h26v-26zM36 14.828l5.172 5.172h-5.172zM6 34v-30h17.172l4.828 4.828v3.172h-10v22zM42 44h-22v-30h14v8h8z"></path>
<path fill="#4575a6" style="fill: var(--color2, #4575a6)" d="M32 22h-9.688v-2h9.688zM40 24h-18v2h18zM40 28h-18v2h18zM40 32h-18v2h18zM40 36h-18v2h18z"></path>
</symbol>
<symbol id="icon-paste" viewBox="0 0 48 48">
<title>paste</title>
<path fill="#edc87e" style="fill: var(--color4, #edc87e)" d="M7 3h32v38h-32v-38z"></path>
<path fill="#fff" style="fill: var(--color3, #fff)" d="M17 45v-30h16.586l7.414 7.414v22.586h-24z"></path>
<path fill="#666" style="fill: var(--color1, #666)" d="M40 20v-18h-34v40h10v4h26v-24zM16 40h-8v-36h8v4h14v-4h8v14l-4-4h-18zM40 24v20h-22v-28h14v8zM34 22v-5.172l5.172 5.172z"></path>
</symbol>
<symbol id="icon-select-all" viewBox="0 0 48 48">
<title>select-all</title>
<path fill="#fff" style="fill: var(--color3, #fff)" d="M8 6h32v32h-32v-32z"></path>
<path fill="#666" style="fill: var(--color1, #666)" d="M42 20h-2v-6h2zM42 24h-2v6h2zM8 6h4v-2h-6v6h2zM42 4h-6v2h4v4h2zM12 38h-4v-4h-2v6h6zM8 14h-2v6h2zM8 24h-2v6h2zM20 38h-4v2h4zM32 4h-6v2h6zM22 4h-6v2h6zM42 38h-8l3 8-4 2-3-9-6 5v-24z"></path>
</symbol>
<symbol id="icon-undo" viewBox="0 0 48 48">
<title>undo</title>
<path d="M20 14v-8l-16 14 16 14v-8c15 0 22 9.972 22 14 4-18-10-26-22-26z"></path>
</symbol>
<symbol id="icon-redo" viewBox="0 0 48 48">
<title>redo</title>
<path d="M28 14v-8l16 14-16 14v-8c-15 0-22 9.972-22 14-4-18 10-26 22-26z"></path>
</symbol>
<symbol id="icon-bold" viewBox="0 0 48 48">
<title>bold</title>
<path d="M36.389 29.428q0 2.087-0.789 3.666c-0.519 1.044-1.236 1.917-2.109 2.601l-0.016 0.012c-0.979 0.782-2.137 1.389-3.399 1.75l-0.069 0.017q-1.889 0.527-4.802 0.527h-11.204v-28h9.888c2.055 0 3.613 0.087 4.671 0.244 1.114 0.166 2.118 0.512 3.026 1.010l-0.047-0.023q1.504 0.809 2.246 2.162t0.742 3.121q0 2.049-1.024 3.647t-2.829 2.35v0.151q2.594 0.546 4.154 2.227t1.561 4.539zM27.385 17.923c-0.009-0.509-0.136-0.987-0.356-1.409l0.008 0.018c-0.225-0.465-0.603-0.827-1.068-1.027l-0.014-0.005q-0.696-0.301-1.645-0.329t-2.829-0.028h-0.482v5.919h0.875q1.805 0 2.529-0.038c0.55-0.038 1.059-0.179 1.518-0.406l-0.024 0.011q0.846-0.395 1.166-1.091t0.321-1.616zM29.152 29.298q0-1.297-0.526-2.030t-1.579-1.109q-0.639-0.244-1.757-0.272t-3-0.028h-1.289v7.010h0.369q2.744 0 3.797-0.038c0.784-0.037 1.516-0.22 2.183-0.523l-0.037 0.015q0.959-0.413 1.401-1.213c0.277-0.505 0.439-1.106 0.439-1.746 0-0.024-0-0.048-0.001-0.072l0 0.004z"></path>
</symbol>
<symbol id="icon-italic" viewBox="0 0 48 48">
<title>italic</title>
<path d="M22 10v4h4l-6 20h-4v4h12v-4h-4l6-20h4v-4h-12z"></path>
</symbol>
<symbol id="icon-underline" viewBox="0 0 48 48">
<title>underline</title>
<path d="M12 40h24v2h-24v-2z"></path>
<path d="M17.838 10.051v15.361c0 5.813 2.579 8.278 6.044 8.278 3.85 0 6.313-2.541 6.313-8.278v-15.361h3.388v15.13c0 7.969-4.196 11.242-9.818 11.242-5.312 0-9.317-3.041-9.317-11.088v-15.284z"></path>
</symbol>
<symbol id="icon-decrease-indent" viewBox="0 0 48 48">
<title>decrease-indent</title>
<path fill="#4575a6" style="fill: var(--color2, #4575a6)" d="M18 14v20l-14-10 14-10z"></path>
<path fill="#666" style="fill: var(--color1, #666)" d="M44 42h-40v-4h40zM22 18h22v-4h-22zM22 26h22v-4h-22zM22 34h22v-4h-22zM44 6h-40v4h40z"></path>
</symbol>
<symbol id="icon-increase-indent" viewBox="0 0 48 48">
<title>increase-indent</title>
<path fill="#4575a6" style="fill: var(--color2, #4575a6)" d="M4 14.063v20l14-10-14-10z"></path>
<path fill="#666" style="fill: var(--color1, #666)" d="M44 42.062h-40v-4h40zM22 18.062h22v-4h-22zM22 26.063h22v-4h-22zM22 34.063h22v-4h-22zM44 6.062h-40v4h40z"></path>
</symbol>
<symbol id="icon-font-size-small" viewBox="0 0 48 48">
<title>font-size-small</title>
<path d="M15.616 34l6.741-20h3.276l6.742 20h-2.806l-1.813-5.586h-7.642l-1.813 5.586zM27.016 26.145l-3.088-9.426-3.075 9.426z"></path>
</symbol>
<symbol id="icon-font-size-med" viewBox="0 0 48 48">
<title>font-size-med</title>
<path d="M12.25 38l9.437-28h4.587l9.437 28h-3.931l-2.594-8h-10.625l-2.553 8zM28.21 27l-4.324-13.194-4.305 13.194z"></path>
</symbol>
<symbol id="icon-font-size-large" viewBox="0 0 48 48">
<title>font-size-large</title>
<path d="M8.946 42l12.134-36h5.897l12.133 36h-5.052l-3.263-10h-13.75l-3.266 10zM29.466 28l-5.559-17.107-5.532 17.107z"></path>
</symbol>
<symbol id="icon-spell-check" viewBox="0 0 48 48">
<title>spell-check</title>
<path fill="#666" style="fill: var(--color1, #666)" d="M3.381 20l4.727-13.996h3.835l4.728 13.996h-3.619l-0.875-2.857h-4.398l-0.875 2.857zM11.408 14.605l-1.429-4.615-1.429 4.615zM30.221 15.714q0 1.043-0.395 1.833c-0.26 0.522-0.618 0.958-1.054 1.3l-0.008 0.006c-0.49 0.391-1.069 0.695-1.7 0.875l-0.035 0.008q-0.944 0.263-2.404 0.263h-5.599v-13.996h4.944q1.541 0 2.336 0.118c0.557 0.083 1.059 0.256 1.513 0.505l-0.023-0.012c0.477 0.247 0.861 0.616 1.118 1.067l0.007 0.013q0.371 0.677 0.371 1.562c0 0.016 0 0.036 0 0.055 0 0.656-0.191 1.268-0.521 1.782l0.008-0.013c-0.339 0.526-0.822 0.932-1.394 1.168l-0.020 0.007v0.075q1.297 0.272 2.078 1.114t0.778 2.267zM25.721 9.964c-0.004-0.255-0.068-0.493-0.178-0.704l0.004 0.009c-0.112-0.233-0.301-0.414-0.534-0.514l-0.007-0.003c-0.243-0.102-0.525-0.162-0.821-0.164h-0.001q-0.475-0.014-1.414-0.014h-0.244v2.958h0.442q0.902 0 1.264-0.019c0.276-0.018 0.531-0.089 0.762-0.203l-0.012 0.005q0.423-0.197 0.583-0.545c0.098-0.223 0.155-0.483 0.155-0.756 0-0.019-0-0.037-0.001-0.056l0 0.003zM26.604 15.652q0-0.649-0.263-1.015t-0.789-0.554q-0.319-0.125-0.879-0.136t-1.5-0.014h-0.651v3.506h0.188q1.375 0 1.899-0.019c0.391-0.018 0.757-0.11 1.090-0.261l-0.019 0.008c0.299-0.12 0.541-0.332 0.696-0.6l0.004-0.007c0.14-0.254 0.222-0.556 0.222-0.877 0-0.012-0-0.024-0-0.036l0 0.002zM39.229 20.277q-3.149 0-5-1.903t-1.854-5.357q0-3.328 1.856-5.306t5.005-1.979c0.023-0 0.050-0 0.077-0 0.503 0 0.998 0.034 1.483 0.1l-0.056-0.006c0.495 0.069 0.928 0.161 1.349 0.28l-0.071-0.017c0.42 0.127 0.767 0.259 1.102 0.409l-0.058-0.023q0.563 0.244 0.912 0.423v3.337h-0.357q-0.254-0.226-0.639-0.541c-0.256-0.209-0.542-0.412-0.84-0.596l-0.035-0.020c-0.308-0.191-0.663-0.364-1.036-0.5l-0.040-0.013c-0.361-0.134-0.779-0.211-1.214-0.211-0.004 0-0.009 0-0.013 0h0.001c-0.014-0-0.030-0-0.046-0-0.484 0-0.948 0.088-1.377 0.249l0.027-0.009q-0.634 0.239-1.208 0.832-0.526 0.536-0.86 1.447t-0.334 2.152q0 1.306 0.347 2.195t0.912 1.433c0.336 0.33 0.742 0.59 1.194 0.754l0.023 0.007c0.398 0.147 0.859 0.233 1.338 0.235h0.001c0.006 0 0.012 0 0.019 0 0.469 0 0.918-0.084 1.333-0.239l-0.026 0.009c0.407-0.144 0.757-0.317 1.084-0.525l-0.021 0.013c0.314-0.194 0.585-0.39 0.84-0.604l-0.011 0.009q0.357-0.301 0.621-0.536h0.319v3.29q-0.386 0.179-0.893 0.409c-0.283 0.133-0.629 0.266-0.985 0.375l-0.058 0.015c-0.324 0.105-0.738 0.209-1.161 0.289l-0.071 0.011q-0.574 0.106-1.579 0.106z"></path>
<path fill="#4575a6" style="fill: var(--color2, #4575a6)" d="M21.647 44l-12.418-12.418 4.174-4.174 8.244 8.244 18.575-18.575 4.174 4.174-22.749 22.749z"></path>
</symbol>
<symbol id="icon-thesaurus" viewBox="0 0 48 48">
<title>thesaurus</title>
<path fill="#8959ab" style="fill: var(--color5, #8959ab)" d="M4 10v30h16v2h8v-2h16v-30h-40z"></path>
<path fill="#fff" style="fill: var(--color3, #fff)" d="M9 35.117v-27.913l15 2.813 15-2.813v27.913l-15 1.875-15-1.875z"></path>
<path fill="#666" style="fill: var(--color1, #666)" d="M40 6l-16 3-16-3v30l15 1.875v0.125h2v-0.125l15-1.875zM10 34.234v-25.824l13 2.438v25.012zM38 34.234l-13 1.625v-25.012l13-2.438z"></path>
</symbol>
<symbol id="icon-cog" viewBox="0 0 48 48">
<title>cog</title>
<path d="M21.5 4l-2.5 5-2.265 0.783-5.235-2.033-3.75 3.75 2.033 5.234-0.783 2.266-5 2.5v5l5 2.5c0.25 0.75 0.516 1.516 1.016 2.264l-2.266 5.236 3.75 3.75 5.235-2.032 2.265 0.782 2.5 5h5l2.5-5c0.75-0.25 1.518-0.515 2.267-1.014l5.233 2.014 3.75-3.75-2.031-5.214c0.25-0.75 0.767-1.518 1.014-2.267l4.767-2.269v-5l-5-2.5c-0.25-0.75-0.517-1.516-1.017-2.266l2.267-5.234-3.75-3.75-5.236 2.036-2.264-0.786-2.5-5h-5zM24 16.5c4.25 0 7.5 3.25 7.5 7.5s-3.25 7.5-7.5 7.5-7.5-3.25-7.5-7.5 3.25-7.5 7.5-7.5z"></path>
</symbol>
<symbol id="icon-magnifying-glass" viewBox="0 0 48 48">
<title>magnifying-glass</title>
<path d="M43.121 38.879l-11.607-11.608c1.557-2.32 2.486-5.176 2.486-8.248 0-0.008 0-0.016 0-0.024v0.001c0-8.284-6.716-15-15-15s-15 6.716-15 15 6.716 15 15 15c0.007 0 0.015 0 0.023 0 3.073 0 5.928-0.928 8.302-2.52l-0.054 0.034 11.608 11.607c0.541 0.533 1.284 0.861 2.104 0.861 1.657 0 3-1.343 3-3 0-0.82-0.329-1.563-0.862-2.104l0 0zM11.222 26.778c-1.991-1.991-3.222-4.741-3.222-7.778 0-6.075 4.925-11 11-11s11 4.925 11 11c0 6.075-4.925 11-11 11-0 0-0 0-0 0v0c-0.009 0-0.019 0-0.030 0-3.028 0-5.769-1.232-7.748-3.221l-0-0z"></path>
</symbol>
<symbol id="icon-sort-default" viewBox="0 0 48 48">
<title>sort-default</title>
<path d="M39.414 38.586l-9.414 9.414-9.414-9.414 2.829-2.829 4.585 4.586v-20.344h4v20.344l4.586-4.586zM24.586 12.242l2.829-2.829-9.415-9.414-9.414 9.414 2.828 2.829 4.586-4.586v20.344h4v-20.344z"></path>
</symbol>
<symbol id="icon-sort-ascending" viewBox="0 0 48 48">
<title>sort-ascending</title>
<path d="M30.586 27.758l-4.586 4.586v-20.344h-4v20.344l-4.586-4.586-2.828 2.829 9.414 9.414 9.414-9.414-2.828-2.829z"></path>
</symbol>
<symbol id="icon-sort-descending" viewBox="0 0 48 48">
<title>sort-descending</title>
<path d="M33.414 17.414l-9.414-9.414-9.414 9.414 2.828 2.829 4.586-4.586v20.344h4v-20.344l4.586 4.586 2.828-2.829z"></path>
</symbol>
<symbol id="icon-filter" viewBox="0 0 48 48">
<title>filter</title>
<path d="M40 10h-32v2l14 14v14l4-4v-10l14-14v-2z"></path>
</symbol>
<symbol id="icon-info" viewBox="0 0 48 48">
<title>info</title>
<path d="M32 39v4c0 0.552-0.448 1-1 1v0h-14c-0.552 0-1-0.448-1-1v0-4c0-0.552 0.448-1 1-1v0h3v-14h-3c-0.552 0-1-0.448-1-1v0-4c0-0.552 0.448-1 1-1v0h10c0.552 0 1 0.448 1 1v0 19h3c0.552 0 1 0.448 1 1v0zM23.5 15c3.038 0 5.5-2.462 5.5-5.5s-2.462-5.5-5.5-5.5c-3.038 0-5.5 2.462-5.5 5.5v0c0 3.038 2.462 5.5 5.5 5.5v0z"></path>
</symbol>
<symbol id="icon-arrow-left" viewBox="0 0 32 32">
<title>arrow-left</title>
<path d="M26 14h-15.172l5.586-5.586c0.374-0.364 0.607-0.872 0.607-1.435 0-1.105-0.895-2-2-2-0.563 0-1.071 0.232-1.434 0.606l-9 9c-0.362 0.362-0.586 0.862-0.586 1.414s0.224 1.052 0.586 1.414l9 9c0.364 0.374 0.872 0.607 1.435 0.607 1.105 0 2-0.895 2-2 0-0.563-0.232-1.071-0.606-1.434l-5.586-5.587h15.172c1.105 0 2-0.895 2-2s-0.895-2-2-2v0z"></path>
</symbol>
<symbol id="icon-arrow-right" viewBox="0 0 32 32">
<title>arrow-right</title>
<path d="M27.414 14.586l-9-9c-0.36-0.35-0.851-0.565-1.393-0.565-1.105 0-2 0.895-2 2 0 0.542 0.216 1.034 0.566 1.394l5.585 5.586h-15.172c-1.105 0-2 0.895-2 2s0.895 2 2 2v0h15.172l-5.586 5.586c-0.374 0.364-0.607 0.872-0.607 1.435 0 1.105 0.895 2 2 2 0.563 0 1.071-0.232 1.434-0.606l9-9c0.362-0.362 0.586-0.862 0.586-1.414s-0.224-1.052-0.586-1.414v0z"></path>
</symbol>
<symbol id="icon-pencil" viewBox="0 0 32 32">
<title>pencil</title>
<path fill="#ead2a7" style="fill: var(--color6, #ead2a7)" d="M18.918 17.045l-0.5 2.946-2.18 2.178-6.477 2.904-2.827-2.819 2.862-6.414 2.226-2.226 3.063-0.398-0.537 3.239c-0.007 0.041-0.011 0.089-0.011 0.138 0 0.49 0.397 0.887 0.887 0.887 0.038 0 0.075-0.002 0.112-0.007l-0.004 0z"></path>
<path fill="#3f3f3f" style="fill: var(--color7, #3f3f3f)" d="M29.75 9.871c-0.159-0.162-0.38-0.263-0.625-0.263s-0.466 0.101-0.625 0.262l-0 0-7.914 7.949 0.279-1.654c0.008-0.046 0.013-0.099 0.013-0.153 0-0.487-0.395-0.881-0.881-0.881-0.041 0-0.081 0.003-0.121 0.008l0.005-0.001-3.392 0.423 0.544-3.239c0.007-0.043 0.012-0.093 0.012-0.144 0-0.491-0.398-0.889-0.889-0.889-0.040 0-0.079 0.003-0.118 0.008l0.005-0.001-1.968 0.265 8.040-8.078c0.161-0.16 0.261-0.383 0.261-0.628 0-0.489-0.397-0.886-0.886-0.886-0.244 0-0.465 0.099-0.625 0.258l0-0-12.436 12.472c-0.075 0.074-0.136 0.162-0.179 0.26l-0.002 0.005-6.156 13.799c-0.049 0.106-0.077 0.23-0.077 0.361 0 0.486 0.394 0.881 0.879 0.882h0c0.131-0.001 0.256-0.029 0.369-0.079l-0.006 0.002 0.698-0.313 13.156-5.904c0.103-0.046 0.191-0.107 0.265-0.181l2.679-2.679 9.696-9.732c0.162-0.159 0.262-0.38 0.262-0.625s-0.1-0.466-0.262-0.625l-0-0zM16.238 22.168l-6.477 2.904-2.827-2.819 2.862-6.414 2.226-2.226 3.063-0.398-0.537 3.239c-0.007 0.041-0.011 0.089-0.011 0.138 0 0.49 0.397 0.887 0.887 0.887 0.038 0 0.075-0.002 0.112-0.007l-0.004 0 3.385-0.426-0.5 2.946z"></path>
</symbol>
<symbol id="icon-highlighter" viewBox="0 0 32 32">
<title>highlighter</title>
<path fill="#ffdf5a" style="fill: var(--color8, #ffdf5a)" d="M6.037 22.652l-3.188 3.188c-0.129 0.129-0.209 0.308-0.209 0.505 0 0.27 0.15 0.505 0.371 0.626l0.004 0.002 4.258 2.303c0.098 0.053 0.214 0.085 0.338 0.085 0.198 0 0.377-0.080 0.506-0.21l2.212-2.211z"></path>
<path fill="#ffed9f" style="fill: var(--color9, #ffed9f)" d="M5.565 21.001l6.114 6.273 3.083-2.552 6.539-2.605-2.073-2.654-8.346-8.085-2.020 6.22-3.296 3.402z"></path>
<path fill="#3f3f3f" style="fill: var(--color7, #3f3f3f)" d="M29.75 13.827c-0.154-0.154-0.367-0.249-0.602-0.249s-0.448 0.095-0.602 0.249l-6.796 6.798-9.49-9.488 6.801-6.801c0.145-0.153 0.235-0.36 0.235-0.587 0-0.47-0.381-0.852-0.852-0.852-0.228 0-0.435 0.090-0.588 0.235l0-0-7.399 7.398c-0.008 0.009-0.014 0.019-0.022 0.027-0.032 0.033-0.061 0.070-0.088 0.108l-0.002 0.003c-0.008 0.012-0.013 0.026-0.021 0.039-0.020 0.033-0.040 0.072-0.057 0.112l-0.002 0.006c0 0.003-0.003 0.006-0.004 0.009l-2.498 6.696-2.901 2.901c-0.154 0.154-0.249 0.367-0.249 0.602s0.095 0.448 0.249 0.602v0l0.644 0.643-3.111 3.111c-0.245 0.245-0.396 0.583-0.396 0.956 0 0.511 0.283 0.956 0.702 1.186l0.007 0.004 4.261 2.303c0.186 0.101 0.406 0.161 0.641 0.161v0c0.001 0 0.003 0 0.004 0 0.372 0 0.709-0.151 0.952-0.396l2.133-2.133 0.563 0.566c0.154 0.154 0.367 0.249 0.602 0.249s0.448-0.095 0.602-0.249l2.902-2.902 6.686-2.514c0.052-0.021 0.097-0.044 0.139-0.070l-0.004 0.002c0.007-0.004 0.014-0.007 0.021-0.011 0.052-0.034 0.098-0.071 0.139-0.112l0-0 1.934-1.938 5.466-5.461c0.154-0.154 0.25-0.367 0.25-0.602s-0.095-0.448-0.25-0.602v0zM7.663 28.702l-0.090 0.013-4.261-2.301c-0.021-0.012-0.035-0.032-0.039-0.056l-0-0c-0-0.003-0.001-0.006-0.001-0.009 0-0.021 0.008-0.040 0.022-0.053v0l3.111-3.111 3.387 3.387zM14.601 23.605c-0.118 0.045-0.219 0.112-0.302 0.196l-2.432 2.431-5.196-5.196 2.43-2.43c0.084-0.084 0.15-0.186 0.194-0.3l0.002-0.006 2.095-5.625 8.819 8.826z"></path>
</symbol>
<symbol id="icon-eraser" viewBox="0 0 32 32">
<title>eraser</title>
<path fill="#eaa0b5" style="fill: var(--color10, #eaa0b5)" d="M15.688 22.796l-5.279 5.286c-0.428 0.149-2.166 0.556-4.625-1.902-2.481-2.479-2.003-4.267-1.846-4.673l5.258-5.256c0.214 1.14 0.862 2.558 2.415 4.111s2.949 2.202 4.078 2.435z"></path>
<path fill="#3f3f3f" style="fill: var(--color7, #3f3f3f)" d="M29.729 10.044c-0.164-0.162-0.389-0.262-0.637-0.262s-0.474 0.1-0.638 0.262l0-0-8.282 8.269c-0.081 0.018-0.152 0.045-0.218 0.080l0.005-0.002c-0.021 0.014-1.852 0.912-4.574-1.817-2.678-2.669-1.802-4.528-1.76-4.636 0.031-0.056 0.056-0.12 0.070-0.188l0.001-0.005 8.241-8.22c0.163-0.163 0.264-0.389 0.264-0.638 0-0.498-0.404-0.902-0.902-0.902-0.249 0-0.475 0.101-0.638 0.265v0l-10.924 10.914c-0.031 0.025-0.059 0.051-0.085 0.078l-0 0-7.103 7.103c-0.056 0.056-0.106 0.119-0.147 0.188l-0.002 0.004c-0.071 0.128-1.688 3.125 2.109 6.924 2.059 2.059 3.868 2.543 5.108 2.543 1.047 0 1.688-0.342 1.746-0.375 0.077-0.041 0.142-0.091 0.199-0.149l0-0 7.063-7.053c0.043-0.043 0.086-0.086 0.121-0.128l10.985-10.974c0.165-0.164 0.267-0.39 0.267-0.641s-0.102-0.477-0.267-0.641l-0-0zM14.139 17.823c1.581 1.581 3.006 2.208 4.125 2.401l-0.764 0.762c-0.399 0.136-2.151 0.556-4.616-1.902-2.479-2.479-2-4.268-1.838-4.688l0.719-0.719c0.179 1.139 0.797 2.572 2.374 4.146zM10.406 28.082c-0.428 0.149-2.166 0.556-4.625-1.902-2.478-2.479-2-4.267-1.843-4.674l5.257-5.256c0.214 1.14 0.862 2.558 2.415 4.111s2.949 2.201 4.075 2.438z"></path>
</symbol>
<symbol id="icon-clear-page" viewBox="0 0 32 32">
<title>clear-page</title>
<path d="M26 2h-13l-0.019-0.019-9 9 0.019 0.019v19h10l-2-2h-6v-15h9v-9h11v11l2 2v-15zM6.789 11l6.211-6.211v6.211zM23.121 24l3.938 3.938-2.121 2.125-3.938-3.938-3.938 3.938-2.125-2.125 3.938-3.938-3.938-3.938 2.125-2.125 3.938 3.938 3.938-3.938 2.125 2.125z"></path>
</symbol>
<symbol id="icon-move" viewBox="0 0 32 32">
<title>move</title>
<path d="M32 16l-6-6v4h-8v-8h4l-6-6-6 6h4v8h-8v-4l-6 6 6 6v-4h8v8h-4l6 6 6-6h-4v-8h8v4l6-6z"></path>
</symbol>
<symbol id="icon-rotate-left" viewBox="0 0 32 32">
<title>rotate-left</title>
<path d="M29.928 21.196l-9.928-1.196 1.706 2.955c-1.536 1.273-3.526 2.045-5.697 2.045-0.003 0-0.006 0-0.010 0h0.001c-4.963 0-9-4.038-9-9 0-0.003 0-0.007 0-0.010 0-1.952 0.625-3.758 1.686-5.229l-0.018 0.026 3.332 1.213-2.902-9.569-8.375 5.466 3.125 1.138c-1.165 1.999-1.852 4.399-1.852 6.96 0 7.735 6.27 14.005 14.005 14.005 3.092 0 5.95-1.002 8.267-2.699l-0.039 0.027 1.769 3.063z"></path>
</symbol>
<symbol id="icon-rotate-right" viewBox="0 0 32 32">
<title>rotate-right</title>
<path d="M2.072 21.196l9.928-1.196-1.706 2.955c1.536 1.273 3.526 2.045 5.697 2.045 0.003 0 0.006 0 0.010 0h-0c4.962 0 9-4.038 9-9 0-0.003 0-0.007 0-0.010 0-1.952-0.625-3.758-1.686-5.229l0.018 0.026-3.332 1.213 2.902-9.569 8.375 5.466-3.125 1.138c1.165 1.999 1.852 4.399 1.852 6.96 0 7.735-6.27 14.005-14.005 14.005-3.092 0-5.95-1.002-8.267-2.699l0.039 0.027-1.771 3.064z"></path>
</symbol>
<symbol id="icon-question-circle" viewBox="0 0 48 48">
<title>question-circle</title>
<path d="M24 6c-9.941 0-18 8.059-18 18s8.059 18 18 18 18-8.059 18-18-8.059-18-18-18zM26.737 35.312c0 0 0 0 0 0.001 0 0.331-0.268 0.599-0.599 0.599-0 0-0 0-0.001 0h-4.071c-0.331 0-0.6-0.269-0.6-0.6v0-3.931c0-0.331 0.269-0.6 0.6-0.6v0h4.071c0 0 0 0 0.001 0 0.331 0 0.599 0.268 0.599 0.599 0 0 0 0 0 0.001v-0zM30.508 21.833c-0.381 0.544-1.069 1.2-2.104 2.006l-0.962 0.75c-0.432 0.336-0.707 0.707-0.843 1.138-0.062 0.193-0.137 0.598-0.148 1.432-0.005 0.328-0.271 0.592-0.6 0.592 0 0-0 0-0 0h-3.688c-0.332-0-0.6-0.269-0.6-0.601 0-0.007 0-0.014 0-0.022l-0 0.001c0.057-1.618 0.214-2.723 0.478-3.382 0.278-0.691 0.934-1.433 2.003-2.269l1-0.784c0.257-0.189 0.475-0.411 0.653-0.663l0.006-0.009c0.268-0.355 0.429-0.804 0.429-1.291 0-0.002 0-0.003 0-0.005v0c0-0.006 0-0.014 0-0.022 0-0.57-0.186-1.097-0.499-1.523l0.005 0.007c-0.281-0.397-0.859-0.598-1.716-0.598-0.836 0-1.401 0.25-1.726 0.766-0.381 0.607-0.563 1.214-0.563 1.859 0 0.331-0.269 0.6-0.6 0.6v0h-3.933c-0.331-0-0.6-0.269-0.6-0.6 0-0.009 0-0.018 0.001-0.026l-0 0.001c0.116-2.78 1.121-4.791 2.983-5.977 1.164-0.75 2.602-1.129 4.271-1.129 2.167 0 4.004 0.533 5.461 1.582 1.516 1.094 2.284 2.723 2.284 4.841-0.001 1.304-0.337 2.429-0.994 3.327z"></path>
</symbol>
<symbol id="icon-change-theme" viewBox="0 0 48 48">
<title>change-theme</title>
<path d="M35.76 25.589c0 0.004 0 0.008 0 0.012 0 0.089-0.041 0.169-0.106 0.221l-0.001 0c-0.094 0.066-0.208 0.111-0.331 0.125l-0.003 0c-0.176 0.024-0.378 0.038-0.585 0.038-0.032 0-0.063-0-0.095-0.001l0.005 0c-0.031 0.001-0.068 0.001-0.105 0.001-0.208 0-0.414-0.014-0.615-0.041l0.024 0.003c-0.118-0.013-0.223-0.058-0.309-0.126l0.001 0.001c-0.056-0.055-0.090-0.132-0.090-0.217 0-0.006 0-0.012 0.001-0.018l-0 0.001v-0.754c-0.371 0.401-0.813 0.729-1.307 0.966l-0.026 0.011c-0.473 0.222-1.027 0.351-1.611 0.351-0.018 0-0.035-0-0.053-0l0.003 0c-0.014 0-0.031 0-0.048 0-0.477 0-0.937-0.072-1.37-0.205l0.033 0.009c-0.421-0.128-0.786-0.328-1.099-0.588l0.005 0.004c-0.305-0.258-0.548-0.579-0.71-0.945l-0.007-0.017c-0.162-0.374-0.256-0.81-0.256-1.268 0-0.025 0-0.049 0.001-0.074l-0 0.004q0-0.828 0.324-1.438c0.23-0.421 0.558-0.762 0.955-1.002l0.012-0.007q0.643-0.398 1.598-0.589c0.627-0.122 1.348-0.192 2.085-0.192 0.047 0 0.094 0 0.141 0.001l-0.007-0h0.924v-0.575c0-0.014 0-0.031 0-0.048 0-0.26-0.033-0.513-0.095-0.754l0.005 0.021c-0.055-0.217-0.159-0.405-0.298-0.559l0.001 0.001c-0.148-0.153-0.334-0.267-0.544-0.327l-0.009-0.002c-0.236-0.068-0.507-0.107-0.787-0.107-0.024 0-0.047 0-0.071 0.001l0.004-0c-0.018-0-0.039-0-0.059-0-0.404 0-0.795 0.054-1.166 0.156l0.031-0.007c-0.367 0.102-0.675 0.214-0.973 0.347l0.044-0.017q-0.404 0.181-0.674 0.328t-0.441 0.149c-0.001 0-0.002 0-0.003 0-0.078 0-0.149-0.028-0.204-0.075l0 0c-0.065-0.057-0.116-0.128-0.147-0.209l-0.001-0.004c-0.041-0.098-0.072-0.213-0.089-0.332l-0.001-0.008c-0.020-0.128-0.032-0.276-0.032-0.427 0-0.007 0-0.014 0-0.020v0.001c-0.001-0.017-0.001-0.037-0.001-0.057 0-0.164 0.020-0.324 0.057-0.477l-0.003 0.014c0.039-0.135 0.109-0.252 0.202-0.345l-0 0q0.149-0.154 0.521-0.34c0.241-0.121 0.529-0.238 0.827-0.333l0.043-0.012c0.299-0.099 0.665-0.189 1.041-0.253l0.048-0.007c0.361-0.064 0.776-0.101 1.2-0.101 0.006 0 0.012 0 0.017 0h-0.001q1.115 0 1.906 0.217t1.301 0.669c0.34 0.307 0.597 0.7 0.738 1.145l0.005 0.018q0.234 0.712 0.234 1.688zM33.135 21.532h-1.018c-0.024-0-0.053-0.001-0.082-0.001-0.362 0-0.715 0.035-1.057 0.102l0.035-0.006c-0.28 0.052-0.53 0.152-0.752 0.292l0.009-0.005c-0.178 0.115-0.321 0.271-0.416 0.455l-0.003 0.007c-0.084 0.174-0.133 0.378-0.133 0.593 0 0.010 0 0.020 0 0.029l-0-0.001q0 0.595 0.375 0.938t1.046 0.34c0.004 0 0.010 0 0.015 0 0.377 0 0.73-0.107 1.029-0.292l-0.008 0.005c0.369-0.238 0.685-0.515 0.956-0.833l0.005-0.006zM14.6 21.628c-0.28 0.052-0.53 0.152-0.752 0.292l0.009-0.005c-0.178 0.114-0.321 0.27-0.416 0.453l-0.003 0.007c-0.084 0.174-0.133 0.378-0.133 0.593 0 0.010 0 0.020 0 0.029l-0-0.001q0 0.595 0.375 0.938t1.046 0.34c0.004 0 0.010 0 0.015 0 0.377 0 0.73-0.107 1.029-0.292l-0.008 0.005c0.369-0.238 0.685-0.515 0.956-0.833l0.005-0.006v-1.616h-1.019c-0.024-0-0.053-0.001-0.082-0.001-0.362 0-0.715 0.035-1.057 0.102l0.035-0.006zM43 33v-25h-38v25h16v4h-5v3h16v-3h-5v-4zM19.347 25.589c0 0.004 0 0.008 0 0.012 0 0.089-0.041 0.169-0.106 0.221l-0.001 0c-0.094 0.066-0.208 0.111-0.331 0.125l-0.003 0c-0.176 0.024-0.378 0.038-0.585 0.038-0.032 0-0.063-0-0.095-0.001l0.005 0c-0.031 0.001-0.068 0.001-0.105 0.001-0.208 0-0.414-0.014-0.615-0.041l0.024 0.003c-0.118-0.013-0.223-0.058-0.309-0.126l0.001 0.001c-0.056-0.055-0.090-0.132-0.090-0.217 0-0.006 0-0.012 0.001-0.018l-0 0.001v-0.754c-0.371 0.401-0.813 0.729-1.307 0.966l-0.026 0.011c-0.473 0.222-1.027 0.351-1.611 0.351-0.018 0-0.035-0-0.053-0l0.003 0c-0.014 0-0.031 0-0.048 0-0.477 0-0.937-0.072-1.37-0.205l0.033 0.009c-0.421-0.128-0.786-0.328-1.099-0.588l0.005 0.004c-0.305-0.258-0.548-0.579-0.71-0.945l-0.007-0.017c-0.162-0.374-0.256-0.81-0.256-1.268 0-0.025 0-0.049 0.001-0.074l-0 0.004q0-0.828 0.324-1.438c0.23-0.421 0.558-0.762 0.955-1.002l0.012-0.007q0.643-0.398 1.598-0.589c0.627-0.122 1.348-0.192 2.085-0.192 0.047 0 0.094 0 0.141 0.001l-0.007-0h0.924v-0.575c0-0.015 0-0.033 0-0.051 0-0.259-0.033-0.511-0.094-0.752l0.005 0.021c-0.055-0.217-0.159-0.405-0.298-0.559l0.001 0.001c-0.148-0.153-0.334-0.267-0.544-0.327l-0.009-0.002c-0.236-0.068-0.507-0.107-0.787-0.107-0.024 0-0.047 0-0.071 0.001l0.004-0c-0.018-0-0.039-0-0.059-0-0.404 0-0.795 0.054-1.166 0.156l0.031-0.007c-0.367 0.102-0.675 0.214-0.973 0.347l0.044-0.017q-0.404 0.181-0.674 0.329t-0.443 0.149c-0.001 0-0.002 0-0.003 0-0.078 0-0.149-0.028-0.204-0.075l0 0c-0.065-0.057-0.116-0.128-0.147-0.209l-0.001-0.004c-0.041-0.098-0.072-0.213-0.089-0.332l-0.001-0.008c-0.020-0.128-0.032-0.276-0.032-0.427 0-0.007 0-0.014 0-0.020v0.001c-0.001-0.017-0.001-0.037-0.001-0.057 0-0.164 0.020-0.324 0.057-0.477l-0.003 0.014c0.039-0.135 0.109-0.252 0.202-0.345l-0 0q0.149-0.154 0.521-0.34c0.241-0.121 0.529-0.238 0.827-0.333l0.043-0.012c0.299-0.099 0.665-0.189 1.041-0.253l0.048-0.007c0.361-0.064 0.776-0.101 1.2-0.101 0.006 0 0.012 0 0.017 0h-0.001q1.115 0 1.906 0.217t1.301 0.669c0.34 0.307 0.597 0.7 0.738 1.145l0.005 0.018q0.234 0.712 0.234 1.688zM24 30v-19h16v19z"></path>
</symbol>
<symbol id="icon-zoom-out" viewBox="0 0 48 48">
<title>zoom-out</title>
<path d="M39.121 34.879l-8.918-8.918c1.128-1.836 1.797-4.060 1.797-6.441 0-0.007 0-0.014 0-0.021v0.001c0-6.904-5.596-12.5-12.5-12.5s-12.5 5.596-12.5 12.5 5.596 12.5 12.5 12.5c0.006 0 0.013 0 0.020 0 2.38 0 4.604-0.668 6.495-1.828l-0.054 0.031 8.918 8.918c0.545 0.553 1.302 0.896 2.139 0.896 1.657 0 3-1.343 3-3 0-0.837-0.343-1.594-0.896-2.138l-0-0zM12.782 26.218c-1.719-1.719-2.782-4.094-2.782-6.718 0-5.247 4.253-9.5 9.5-9.5s9.5 4.253 9.5 9.5c0 5.247-4.253 9.5-9.5 9.5 0 0 0 0-0 0v0c-0.008 0-0.017 0-0.026 0-2.615 0-4.982-1.064-6.691-2.782l-0-0zM25 21h-11v-3h11z"></path>
</symbol>
<symbol id="icon-zoom-in" viewBox="0 0 48 48">
<title>zoom-in</title>
<path d="M39.121 34.879l-8.918-8.918c1.128-1.836 1.797-4.060 1.797-6.441 0-0.007 0-0.014 0-0.021v0.001c0-6.904-5.596-12.5-12.5-12.5s-12.5 5.596-12.5 12.5 5.596 12.5 12.5 12.5c0.006 0 0.013 0 0.020 0 2.38 0 4.604-0.668 6.495-1.828l-0.054 0.031 8.918 8.918c0.545 0.553 1.302 0.896 2.139 0.896 1.657 0 3-1.343 3-3 0-0.837-0.343-1.594-0.896-2.138l-0-0zM12.782 26.218c-1.719-1.719-2.782-4.094-2.782-6.718 0-5.247 4.253-9.5 9.5-9.5s9.5 4.253 9.5 9.5c0 5.247-4.253 9.5-9.5 9.5 0 0 0 0-0 0v0c-0.008 0-0.017 0-0.026 0-2.615 0-4.982-1.064-6.691-2.782l-0-0zM25 21h-4v4h-3v-4h-4v-3h4v-4h3v4h4z"></path>
</symbol>
<symbol id="icon-lang-esp" viewBox="0 0 48 48">
<title>lang-esp</title>
<path fill="#3f3f3f" style="fill: var(--color7, #3f3f3f)" d="M7.097 42.239c0 0.008 0 0.018 0 0.027 0 0.117-0.006 0.232-0.018 0.345l0.001-0.014c-0.008 0.086-0.026 0.165-0.052 0.24l0.002-0.007c-0.017 0.051-0.045 0.095-0.083 0.129l-0 0c-0.029 0.025-0.067 0.040-0.109 0.041h-4.32c-0.004 0-0.009 0-0.013 0-0.138 0-0.264-0.055-0.356-0.144l0 0q-0.149-0.144-0.149-0.469v-8.331q0-0.325 0.149-0.469c0.092-0.089 0.217-0.144 0.356-0.144 0.005 0 0.009 0 0.014 0h4.294c0 0 0.001 0 0.002 0 0.040 0 0.076 0.014 0.105 0.037l-0-0c0.037 0.034 0.065 0.078 0.079 0.127l0.001 0.002c0.024 0.069 0.041 0.149 0.050 0.232l0 0.005c0.011 0.1 0.017 0.217 0.017 0.335 0 0.011-0 0.022-0 0.032v-0.002c0 0.007 0 0.016 0 0.025 0 0.115-0.006 0.228-0.018 0.34l0.001-0.014c-0.008 0.086-0.026 0.165-0.052 0.24l0.002-0.007c-0.017 0.051-0.044 0.094-0.080 0.129l-0 0c-0.028 0.025-0.065 0.041-0.105 0.041-0 0-0.001 0-0.001 0h-3.071v2.334h2.599c0.042 0 0.080 0.016 0.11 0.041l-0-0c0.037 0.033 0.066 0.075 0.082 0.123l0.001 0.002c0.024 0.067 0.042 0.144 0.050 0.225l0 0.004c0.011 0.106 0.017 0.228 0.017 0.352s-0.006 0.247-0.018 0.368l0.001-0.015c-0.008 0.083-0.026 0.159-0.052 0.232l0.002-0.007c-0.017 0.049-0.045 0.090-0.083 0.122l-0 0c-0.030 0.023-0.068 0.037-0.109 0.037-0 0-0 0-0 0v0h-2.599v2.696h3.097c0.042 0 0.080 0.016 0.11 0.041l-0-0c0.038 0.034 0.066 0.078 0.083 0.127l0.001 0.002c0.024 0.068 0.042 0.147 0.050 0.228l0 0.004c0.010 0.098 0.016 0.211 0.016 0.326 0 0.012-0 0.024-0 0.036v-0.002zM12.986 40.888c0 0.016 0.001 0.034 0.001 0.053 0 0.338-0.069 0.66-0.194 0.952l0.006-0.016c-0.125 0.285-0.307 0.525-0.532 0.714l-0.003 0.002c-0.23 0.19-0.503 0.338-0.801 0.428l-0.016 0.004c-0.306 0.091-0.658 0.144-1.021 0.144-0.225 0-0.445-0.020-0.659-0.059l0.022 0.003c-0.209-0.037-0.391-0.086-0.567-0.148l0.025 0.008c-0.155-0.053-0.287-0.112-0.413-0.181l0.014 0.007c-0.089-0.046-0.166-0.102-0.233-0.167l0 0c-0.056-0.067-0.096-0.15-0.113-0.24l-0.001-0.003c-0.026-0.129-0.041-0.276-0.041-0.428 0-0.022 0-0.045 0.001-0.067l-0 0.003q0-0.214 0.013-0.344c0.006-0.076 0.020-0.147 0.042-0.214l-0.002 0.007c0.011-0.042 0.034-0.077 0.066-0.103l0-0c0.026-0.016 0.059-0.026 0.093-0.026 0.002 0 0.005 0 0.007 0h-0c0.083 0.013 0.156 0.046 0.217 0.093l-0.001-0.001q0.143 0.092 0.356 0.203c0.137 0.072 0.301 0.142 0.47 0.2l0.025 0.007c0.183 0.061 0.393 0.096 0.612 0.096 0.010 0 0.021-0 0.031-0h-0.002c0.006 0 0.013 0 0.020 0 0.136 0 0.267-0.019 0.392-0.054l-0.010 0.002c0.117-0.033 0.218-0.084 0.308-0.149l-0.003 0.002c0.085-0.063 0.152-0.145 0.195-0.24l0.002-0.004c0.042-0.095 0.066-0.207 0.066-0.323 0-0.006-0-0.012-0-0.017v0.001c0-0.004 0-0.008 0-0.013 0-0.139-0.047-0.267-0.126-0.369l0.001 0.001c-0.090-0.112-0.198-0.204-0.32-0.274l-0.005-0.003c-0.127-0.075-0.278-0.149-0.435-0.213l-0.024-0.009q-0.256-0.103-0.525-0.229c-0.206-0.097-0.378-0.193-0.543-0.299l0.018 0.011c-0.176-0.113-0.327-0.245-0.456-0.396l-0.002-0.003c-0.136-0.161-0.247-0.35-0.322-0.556l-0.004-0.013c-0.080-0.223-0.125-0.481-0.125-0.75 0-0.017 0-0.034 0.001-0.050l-0 0.002c-0-0.007-0-0.016-0-0.025 0-0.304 0.061-0.593 0.172-0.857l-0.005 0.015c0.112-0.267 0.275-0.492 0.477-0.674l0.002-0.002c0.213-0.189 0.467-0.338 0.746-0.433l0.015-0.005c0.288-0.098 0.619-0.155 0.964-0.155 0.015 0 0.030 0 0.045 0l-0.002-0c0.002 0 0.004 0 0.007 0 0.189 0 0.374 0.016 0.555 0.047l-0.019-0.003c0.185 0.030 0.345 0.069 0.501 0.118l-0.026-0.007c0.139 0.042 0.258 0.091 0.371 0.149l-0.012-0.006c0.080 0.040 0.148 0.084 0.212 0.135l-0.002-0.002c0.037 0.030 0.067 0.067 0.089 0.109l0.001 0.002c0.018 0.039 0.032 0.083 0.040 0.13l0 0.003q0.013 0.077 0.023 0.192t0.010 0.284q0 0.199-0.010 0.325c-0.004 0.073-0.016 0.141-0.035 0.206l0.002-0.007c-0.009 0.041-0.032 0.075-0.062 0.1l-0 0c-0.025 0.016-0.056 0.026-0.089 0.026-0.001 0-0.003 0-0.004-0h0c-0.071-0.011-0.135-0.039-0.189-0.078l0.001 0.001c-0.086-0.053-0.189-0.108-0.296-0.158l-0.020-0.008c-0.119-0.057-0.264-0.113-0.413-0.16l-0.025-0.007c-0.161-0.049-0.347-0.078-0.539-0.078-0.010 0-0.020 0-0.030 0h0.002c-0.007-0-0.015-0-0.023-0-0.131 0-0.258 0.019-0.378 0.054l0.009-0.002c-0.105 0.031-0.197 0.082-0.273 0.148l0.001-0.001c-0.068 0.061-0.122 0.136-0.158 0.221l-0.002 0.004c-0.034 0.080-0.053 0.174-0.053 0.272 0 0.002 0 0.004 0 0.006v-0c-0 0.006-0 0.013-0 0.021 0 0.138 0.047 0.264 0.126 0.364l-0.001-0.001c0.092 0.11 0.203 0.201 0.327 0.27l0.006 0.003c0.13 0.075 0.285 0.15 0.445 0.213l0.024 0.008q0.262 0.104 0.532 0.225c0.21 0.096 0.384 0.191 0.551 0.296l-0.019-0.011c0.18 0.112 0.334 0.245 0.467 0.396l0.002 0.002c0.138 0.16 0.25 0.346 0.328 0.55l0.004 0.013c0.082 0.219 0.129 0.472 0.129 0.736 0 0.017-0 0.034-0.001 0.051l0-0.003zM20.486 39.359c0 0.017 0 0.036 0 0.056 0 0.542-0.063 1.069-0.183 1.574l0.009-0.046c-0.103 0.454-0.274 0.856-0.504 1.215l0.009-0.015c-0.396 0.621-1.080 1.027-1.86 1.027-0.021 0-0.042-0-0.064-0.001l0.003 0c-0.005 0-0.011 0-0.017 0-0.163 0-0.321-0.020-0.472-0.059l0.013 0.003c-0.159-0.042-0.298-0.1-0.427-0.174l0.008 0.004c-0.152-0.088-0.284-0.182-0.405-0.287l0.003 0.003c-0.148-0.128-0.282-0.258-0.409-0.395l-0.003-0.003v3.102c0 0.001 0 0.002 0 0.003 0 0.049-0.015 0.094-0.041 0.131l0.001-0.001c-0.035 0.045-0.081 0.080-0.134 0.099l-0.002 0.001c-0.074 0.029-0.161 0.051-0.251 0.062l-0.005 0c-0.122 0.014-0.263 0.022-0.406 0.022s-0.284-0.008-0.423-0.024l0.017 0.002c-0.095-0.011-0.181-0.033-0.263-0.065l0.007 0.002c-0.055-0.020-0.102-0.055-0.136-0.099l-0.001-0.001c-0.025-0.037-0.040-0.082-0.040-0.13 0-0.001 0-0.002 0-0.003v0-9.201c-0-0.004-0-0.008-0-0.012 0-0.097 0.062-0.179 0.148-0.209l0.002-0c0.064-0.027 0.138-0.046 0.216-0.055l0.004-0c0.093-0.012 0.201-0.018 0.311-0.018 0.011 0 0.022 0 0.034 0h-0.002c0.009-0 0.019-0 0.029-0 0.108 0 0.215 0.007 0.319 0.020l-0.013-0.001c0.081 0.009 0.155 0.029 0.225 0.058l-0.005-0.002c0.088 0.031 0.15 0.113 0.15 0.209 0 0.004-0 0.008-0 0.012l0-0.001v0.776c0.163-0.186 0.329-0.356 0.504-0.516l0.005-0.004c0.15-0.137 0.317-0.261 0.495-0.367l0.014-0.008c0.154-0.092 0.332-0.169 0.52-0.221l0.015-0.004c0.172-0.047 0.37-0.074 0.574-0.074 0.005 0 0.010 0 0.015 0h-0.001q0.651 0 1.11 0.284c0.312 0.196 0.565 0.459 0.744 0.769l0.006 0.011c0.192 0.332 0.339 0.718 0.418 1.128l0.004 0.024c0.084 0.41 0.133 0.881 0.133 1.364 0 0.013-0 0.026-0 0.039v-0.002zM18.745 39.493c0-0.005 0-0.010 0-0.016 0-0.28-0.020-0.555-0.060-0.823l0.004 0.031c-0.035-0.256-0.103-0.488-0.199-0.704l0.007 0.017c-0.083-0.193-0.205-0.354-0.357-0.482l-0.002-0.002c-0.143-0.113-0.326-0.181-0.525-0.181-0.010 0-0.021 0-0.031 0.001l0.001-0c-0.118 0-0.231 0.021-0.336 0.058l0.007-0.002c-0.127 0.046-0.237 0.107-0.335 0.183l0.003-0.002c-0.129 0.099-0.243 0.206-0.347 0.322l-0.002 0.003c-0.13 0.148-0.255 0.309-0.368 0.478l-0.010 0.017v2.171c0.198 0.289 0.419 0.539 0.667 0.761l0.004 0.004c0.175 0.161 0.407 0.262 0.663 0.269l0.001 0c0.006 0 0.013 0 0.020 0 0.203 0 0.39-0.071 0.537-0.189l-0.002 0.001c0.157-0.13 0.284-0.292 0.371-0.475l0.004-0.008c0.096-0.195 0.171-0.422 0.214-0.66l0.002-0.016c0.043-0.222 0.067-0.478 0.067-0.74 0-0.005 0-0.010-0-0.015v0.001zM27.146 42.771c0 0.003 0 0.007 0 0.011 0 0.060-0.026 0.114-0.066 0.152l-0 0c-0.058 0.045-0.129 0.075-0.207 0.085l-0.002 0c-0.11 0.017-0.237 0.026-0.366 0.026-0.020 0-0.039-0-0.059-0.001l0.003 0c-0.020 0.001-0.044 0.001-0.068 0.001-0.131 0-0.259-0.010-0.384-0.028l0.014 0.002c-0.074-0.009-0.14-0.040-0.193-0.085l0 0c-0.035-0.040-0.057-0.092-0.057-0.149 0-0.005 0-0.009 0-0.014l-0 0.001v-0.524c-0.229 0.277-0.506 0.504-0.82 0.672l-0.015 0.007c-0.294 0.154-0.642 0.244-1.012 0.244-0.010 0-0.020-0-0.030-0h0.002c-0.008 0-0.018 0-0.028 0-0.3 0-0.589-0.050-0.858-0.143l0.019 0.006c-0.267-0.091-0.496-0.229-0.689-0.407l0.001 0.001c-0.193-0.183-0.346-0.406-0.444-0.656l-0.004-0.012c-0.101-0.261-0.16-0.563-0.16-0.879 0-0.018 0-0.036 0.001-0.054l-0 0.003c-0-0.016-0.001-0.035-0.001-0.055 0-0.342 0.075-0.668 0.209-0.96l-0.006 0.014c0.14-0.288 0.346-0.525 0.599-0.698l0.006-0.004c0.286-0.19 0.621-0.333 0.982-0.407l0.018-0.003c0.393-0.085 0.844-0.134 1.307-0.134 0.029 0 0.058 0 0.087 0.001l-0.004-0h0.578v-0.399c0-0.010 0-0.022 0-0.034 0-0.18-0.021-0.356-0.060-0.524l0.003 0.016c-0.034-0.149-0.099-0.279-0.189-0.389l0.001 0.002c-0.090-0.105-0.207-0.184-0.34-0.227l-0.005-0.002c-0.147-0.047-0.317-0.074-0.493-0.074-0.015 0-0.029 0-0.044 0.001l0.002-0c-0.012-0-0.026-0-0.039-0-0.253 0-0.498 0.038-0.728 0.108l0.018-0.005c-0.228 0.070-0.421 0.148-0.605 0.239l0.024-0.011q-0.25 0.125-0.422 0.229c-0.077 0.055-0.171 0.092-0.273 0.103l-0.002 0c-0.050-0-0.096-0.020-0.129-0.052l0 0c-0.041-0.040-0.073-0.090-0.092-0.145l-0.001-0.003c-0.025-0.068-0.045-0.148-0.056-0.231l-0.001-0.005c-0.013-0.089-0.020-0.192-0.020-0.297 0-0.005 0-0.011 0-0.016v0.001c-0-0.012-0.001-0.026-0.001-0.040 0-0.114 0.012-0.225 0.036-0.332l-0.002 0.010c0.023-0.093 0.067-0.174 0.126-0.241l-0.001 0.001c0.093-0.094 0.2-0.173 0.319-0.233l0.007-0.003c0.153-0.085 0.333-0.166 0.52-0.232l0.025-0.008c0.189-0.069 0.417-0.132 0.652-0.177l0.029-0.005c0.226-0.045 0.486-0.070 0.752-0.070 0.003 0 0.007 0 0.010 0h-0.001c0.025-0.001 0.055-0.001 0.085-0.001 0.395 0 0.776 0.056 1.138 0.159l-0.029-0.007c0.317 0.092 0.591 0.253 0.813 0.466l-0.001-0.001c0.22 0.219 0.385 0.492 0.472 0.798l0.003 0.013c0.093 0.329 0.147 0.707 0.147 1.098 0 0.027-0 0.054-0.001 0.081l0-0.004zM25.5 39.95h-0.636c-0.016-0-0.034-0-0.052-0-0.226 0-0.447 0.024-0.66 0.070l0.020-0.004c-0.177 0.037-0.333 0.106-0.469 0.202l0.004-0.003c-0.113 0.082-0.203 0.19-0.26 0.316l-0.002 0.005c-0.053 0.122-0.083 0.263-0.083 0.412 0 0.007 0 0.014 0 0.020v-0.001q0 0.414 0.236 0.65t0.652 0.236c0.002 0 0.004 0 0.005 0 0.24 0 0.463-0.075 0.647-0.202l-0.004 0.002c0.231-0.166 0.429-0.359 0.596-0.576l0.005-0.007zM34.75 42.75c0 0.001 0 0.003 0 0.004 0 0.047-0.015 0.090-0.041 0.126l0-0.001c-0.034 0.042-0.079 0.074-0.131 0.092l-0.002 0.001c-0.075 0.027-0.162 0.047-0.252 0.055l-0.004 0c-0.11 0.012-0.238 0.018-0.367 0.018-0.012 0-0.025-0-0.037-0h0.002c-0.011 0-0.025 0-0.038 0-0.131 0-0.26-0.007-0.387-0.020l0.016 0.001c-0.094-0.008-0.181-0.028-0.263-0.058l0.007 0.002c-0.054-0.018-0.099-0.050-0.133-0.092l-0-0.001c-0.025-0.035-0.040-0.078-0.040-0.125 0-0.002 0-0.003 0-0.004v0-3.76c0.001-0.026 0.001-0.057 0.001-0.088 0-0.235-0.023-0.465-0.067-0.688l0.004 0.022c-0.039-0.177-0.102-0.334-0.186-0.476l0.004 0.007c-0.076-0.127-0.181-0.229-0.305-0.301l-0.004-0.002c-0.122-0.067-0.267-0.107-0.422-0.107-0.007 0-0.014 0-0.021 0h0.001q-0.319 0-0.645 0.259c-0.258 0.219-0.482 0.466-0.67 0.74l-0.008 0.013v4.38c0 0.001 0 0.003 0 0.004 0 0.047-0.015 0.090-0.041 0.126l0-0.001c-0.035 0.042-0.081 0.075-0.134 0.092l-0.002 0.001c-0.075 0.027-0.161 0.047-0.251 0.055l-0.004 0c-0.122 0.012-0.263 0.019-0.406 0.019s-0.284-0.007-0.424-0.020l0.018 0.001c-0.094-0.009-0.181-0.029-0.263-0.058l0.008 0.002c-0.055-0.018-0.101-0.050-0.136-0.092l-0-0.001c-0.025-0.035-0.040-0.078-0.040-0.125 0-0.002 0-0.003 0-0.004v0-6.589c-0-0.004-0-0.008-0-0.012 0-0.098 0.064-0.18 0.152-0.208l0.002-0c0.065-0.026 0.14-0.046 0.218-0.055l0.004-0c0.093-0.012 0.201-0.018 0.311-0.018 0.011 0 0.022 0 0.034 0h-0.002c0.010-0 0.022-0 0.033-0 0.112 0 0.223 0.007 0.332 0.020l-0.013-0.001c0.080 0.008 0.153 0.028 0.221 0.057l-0.005-0.002c0.045 0.020 0.083 0.052 0.109 0.092l0.001 0.001c0.021 0.036 0.033 0.079 0.033 0.124 0 0.002 0 0.003-0 0.005v-0 0.761q0.492-0.591 1-0.886c0.303-0.185 0.67-0.294 1.062-0.296h0q0.605 0 1.020 0.221c0.272 0.146 0.496 0.349 0.663 0.594l0.004 0.006c0.169 0.255 0.297 0.553 0.366 0.873l0.003 0.017c0.074 0.346 0.117 0.744 0.117 1.152 0 0.026-0 0.052-0.001 0.079l0-0.004zM34.291 33.134q0 0.894-0.383 1.37t-1.063 0.476c-0.007 0-0.016 0-0.024 0-0.155 0-0.304-0.022-0.446-0.062l0.011 0.003c-0.137-0.040-0.256-0.093-0.366-0.159l0.007 0.004c-0.11-0.066-0.204-0.133-0.293-0.206l0.004 0.003q-0.129-0.107-0.25-0.199c-0.069-0.054-0.146-0.105-0.227-0.15l-0.009-0.005c-0.071-0.039-0.156-0.063-0.247-0.063-0.001 0-0.002 0-0.004 0h0c-0.007-0.001-0.015-0.001-0.024-0.001-0.125 0-0.233 0.070-0.288 0.173l-0.001 0.002c-0.059 0.121-0.094 0.264-0.094 0.414 0 0.014 0 0.028 0.001 0.042l-0-0.002c0 0.003 0 0.006 0 0.010 0 0.035-0.009 0.069-0.024 0.098l0.001-0.001c-0.019 0.029-0.046 0.051-0.079 0.062l-0.001 0c-0.047 0.017-0.102 0.027-0.158 0.029l-0.001 0q-0.103 0.008-0.263 0.008c-0.005 0-0.012 0-0.018 0-0.077 0-0.152-0.004-0.227-0.012l0.009 0.001c-0.057-0.004-0.109-0.020-0.155-0.045l0.002 0.001c-0.037-0.021-0.066-0.053-0.083-0.091l-0.001-0.001c-0.017-0.042-0.027-0.090-0.027-0.141 0-0.005 0-0.010 0-0.014v0.001q0-0.857 0.375-1.348t1.063-0.491c0.013-0 0.028-0.001 0.043-0.001 0.217 0 0.423 0.048 0.608 0.134l-0.009-0.004c0.177 0.087 0.33 0.183 0.471 0.293l-0.006-0.004q0.203 0.159 0.375 0.288c0.098 0.079 0.222 0.127 0.358 0.129h0.001c0.004 0 0.010 0 0.015 0 0.122 0 0.229-0.063 0.29-0.158l0.001-0.001q0.106-0.159 0.106-0.469c-0.001-0.005-0.001-0.011-0.001-0.017 0-0.067 0.041-0.125 0.1-0.149l0.001-0q0.1-0.041 0.406-0.041t0.409 0.056q0.111 0.054 0.111 0.239zM42.656 39.389c0 0.018 0 0.039 0 0.060 0 0.525-0.073 1.033-0.209 1.515l0.009-0.039c-0.128 0.459-0.336 0.859-0.61 1.203l0.005-0.007c-0.27 0.332-0.61 0.595-1 0.769l-0.017 0.007q-0.612 0.273-1.429 0.273-0.791 0-1.375-0.244c-0.387-0.16-0.712-0.402-0.965-0.705l-0.003-0.004c-0.26-0.321-0.458-0.705-0.567-1.124l-0.005-0.021c-0.119-0.443-0.188-0.951-0.188-1.475 0-0.026 0-0.053 0.001-0.079l-0 0.004c-0-0.018-0-0.038-0-0.059 0-0.527 0.074-1.037 0.212-1.52l-0.010 0.039c0.129-0.459 0.338-0.859 0.613-1.203l-0.005 0.007c0.269-0.329 0.608-0.59 0.994-0.764l0.017-0.007q0.608-0.273 1.426-0.273 0.797 0 1.382 0.24c0.388 0.157 0.713 0.399 0.966 0.703l0.003 0.004c0.258 0.322 0.454 0.705 0.563 1.124l0.005 0.021c0.119 0.443 0.187 0.951 0.187 1.475 0 0.029-0 0.057-0.001 0.085l0-0.004zM40.937 39.463c0-0.006 0-0.014 0-0.021 0-0.31-0.026-0.615-0.077-0.911l0.005 0.032c-0.042-0.267-0.125-0.506-0.242-0.725l0.006 0.012c-0.106-0.196-0.256-0.355-0.437-0.469l-0.005-0.003c-0.185-0.107-0.408-0.171-0.646-0.171-0.017 0-0.034 0-0.051 0.001l0.002-0c-0.009-0-0.020-0-0.031-0-0.227 0-0.44 0.056-0.628 0.155l0.007-0.004c-0.191 0.107-0.346 0.257-0.456 0.438l-0.003 0.005c-0.122 0.202-0.215 0.437-0.267 0.687l-0.003 0.015c-0.057 0.265-0.090 0.57-0.090 0.883 0 0.018 0 0.036 0 0.054l-0-0.003c-0 0.010-0 0.023-0 0.035 0 0.305 0.027 0.603 0.078 0.893l-0.005-0.031c0.044 0.267 0.127 0.506 0.242 0.725l-0.006-0.013c0.104 0.196 0.254 0.355 0.437 0.466l0.005 0.003c0.188 0.108 0.414 0.172 0.654 0.172 0.013 0 0.026-0 0.039-0.001l-0.002 0c0.009 0 0.019 0 0.030 0 0.23 0 0.446-0.057 0.636-0.158l-0.007 0.004c0.19-0.105 0.345-0.254 0.456-0.432l0.003-0.005c0.122-0.201 0.214-0.435 0.263-0.685l0.002-0.014c0.056-0.268 0.088-0.577 0.088-0.893 0-0.015-0-0.030-0-0.045v0.002zM45.926 42.75c0 0.001 0 0.003 0 0.004 0 0.047-0.015 0.090-0.041 0.126l0-0.001c-0.035 0.042-0.081 0.075-0.134 0.092l-0.002 0.001c-0.075 0.027-0.161 0.047-0.251 0.055l-0.004 0c-0.122 0.012-0.263 0.019-0.406 0.019s-0.284-0.007-0.424-0.020l0.018 0.001c-0.094-0.009-0.181-0.029-0.263-0.058l0.008 0.002c-0.055-0.018-0.101-0.050-0.136-0.092l-0-0.001c-0.025-0.035-0.040-0.078-0.040-0.125 0-0.002 0-0.003 0-0.004v0-9.712c0-0.001 0-0.002 0-0.003 0-0.049 0.015-0.094 0.041-0.131l-0.001 0.001c0.035-0.045 0.081-0.079 0.134-0.099l0.002-0.001c0.074-0.029 0.161-0.051 0.251-0.062l0.005-0c0.122-0.014 0.263-0.022 0.406-0.022s0.284 0.008 0.423 0.024l-0.017-0.002c0.095 0.011 0.181 0.033 0.263 0.065l-0.007-0.002c0.055 0.020 0.102 0.055 0.136 0.099l0.001 0.001c0.025 0.037 0.040 0.082 0.040 0.131 0 0.001 0 0.002 0 0.003v-0z"></path>
<path fill="#8b13b2" style="fill: var(--color11, #8b13b2)" d="M43 3h-18c-1.655 0.005-2.995 1.345-3 3v18c0.005 1.655 1.345 2.995 3 3h18c1.655-0.005 2.995-1.345 3-3v-18c-0.005-1.655-1.345-2.995-3-3h-0zM29.365 6.402q0.875-0.926 2.494-0.926 0.888 0 1.504 0.244c0.421 0.164 0.78 0.347 1.119 0.559l-0.028-0.016q0.475 0.299 0.881 0.542c0.239 0.151 0.53 0.242 0.841 0.244h0.001q0.467 0 0.717-0.299t0.25-0.884c-0-0.005-0-0.010-0-0.016 0-0.143 0.099-0.264 0.232-0.296l0.002-0q0.234-0.076 0.951-0.076 0.701 0 0.959 0.104t0.257 0.452q0 1.684-0.896 2.581t-2.486 0.898c-0.018 0-0.040 0-0.061 0-0.359 0-0.709-0.041-1.046-0.118l0.031 0.006c-0.321-0.075-0.601-0.175-0.866-0.303l0.025 0.011c-0.266-0.127-0.489-0.254-0.702-0.396l0.021 0.013q-0.304-0.202-0.584-0.375c-0.155-0.099-0.337-0.197-0.526-0.282l-0.027-0.011c-0.169-0.075-0.367-0.118-0.575-0.118-0.003 0-0.007 0-0.010 0h0.001q-0.514 0-0.733 0.327t-0.216 0.857c0 0.005 0 0.011 0 0.017 0 0.069-0.020 0.133-0.056 0.187l0.001-0.001c-0.047 0.057-0.112 0.099-0.185 0.118l-0.002 0.001c-0.111 0.032-0.24 0.052-0.373 0.056l-0.002 0q-0.242 0.014-0.616 0.014-0.328 0-0.553-0.021c-0.131-0.008-0.253-0.038-0.366-0.086l0.007 0.003c-0.083-0.037-0.15-0.097-0.194-0.172l-0.001-0.002c-0.040-0.078-0.063-0.169-0.063-0.267 0-0.009 0-0.018 0.001-0.027l-0 0.001q0.002-1.616 0.874-2.542zM40.615 24.152c0 0.001 0 0.002 0 0.004 0 0.093-0.036 0.177-0.094 0.24l0-0c-0.085 0.082-0.19 0.142-0.308 0.173l-0.005 0.001c-0.175 0.052-0.38 0.089-0.591 0.104l-0.009 0.001q-0.382 0.034-0.943 0.035-0.577 0-0.959-0.035c-0.22-0.015-0.425-0.052-0.621-0.11l0.021 0.005c-0.122-0.032-0.228-0.092-0.313-0.174l0 0c-0.058-0.063-0.094-0.147-0.094-0.24 0-0.001 0-0.003 0-0.004v0-7.083q0-0.904-0.148-1.419c-0.094-0.338-0.241-0.632-0.434-0.891l0.005 0.007c-0.189-0.245-0.433-0.439-0.713-0.566l-0.012-0.005c-0.29-0.128-0.628-0.202-0.983-0.202-0.019 0-0.037 0-0.056 0.001l0.003-0q-0.75 0-1.512 0.487t-1.59 1.419v8.25c0 0.001 0 0.002 0 0.004 0 0.093-0.036 0.177-0.094 0.24l0-0c-0.087 0.082-0.194 0.143-0.315 0.173l-0.005 0.001c-0.175 0.051-0.379 0.088-0.59 0.104l-0.010 0.001q-0.375 0.034-0.951 0.035t-0.951-0.035c-0.221-0.016-0.425-0.054-0.622-0.11l0.022 0.005c-0.125-0.031-0.233-0.091-0.32-0.174l0 0c-0.058-0.063-0.094-0.147-0.094-0.24 0-0.001 0-0.003 0-0.004v0-12.411c-0-0.002-0-0.005-0-0.008 0-0.089 0.029-0.171 0.079-0.237l-0.001 0.001c0.073-0.082 0.168-0.143 0.277-0.173l0.004-0.001c0.152-0.050 0.329-0.087 0.512-0.104l0.010-0.001c0.22-0.022 0.476-0.035 0.735-0.035 0.024 0 0.047 0 0.071 0l-0.004-0c0.021-0 0.046-0 0.071-0 0.266 0 0.529 0.013 0.788 0.038l-0.033-0.003c0.186 0.015 0.358 0.052 0.521 0.109l-0.015-0.004c0.103 0.035 0.19 0.095 0.256 0.173l0.001 0.001c0.049 0.065 0.078 0.147 0.078 0.237 0 0.003-0 0.005-0 0.008v-0 1.433q1.153-1.113 2.346-1.67c0.727-0.351 1.581-0.557 2.483-0.557 0.001 0 0.003 0 0.004 0h-0q1.418 0 2.392 0.418t1.579 1.138c0.391 0.469 0.69 1.031 0.858 1.646l0.007 0.031q0.265 0.96 0.265 2.312z"></path>
<path fill="#3f3f3f" style="fill: var(--color7, #3f3f3f)" d="M19.414 13.586l-6-6c-0.362-0.362-0.862-0.586-1.414-0.586-1.105 0-2 0.896-2 2 0 0.552 0.224 1.052 0.586 1.414l2.586 2.586h-11.171v4h11.171l-2.586 2.586c-0.362 0.362-0.586 0.862-0.586 1.414 0 1.105 0.896 2 2 2 0.552 0 1.052-0.224 1.414-0.586l6-6c0.362-0.362 0.586-0.862 0.586-1.414s-0.224-1.052-0.586-1.414v0z"></path>
</symbol>
<symbol id="icon-lang-eng" viewBox="0 0 48 48">
<title>lang-eng</title>
<path fill="#3f3f3f" style="fill: var(--color7, #3f3f3f)" d="M7.097 42.239c0 0.008 0 0.018 0 0.027 0 0.117-0.006 0.232-0.018 0.345l0.001-0.014c-0.008 0.086-0.026 0.165-0.052 0.24l0.002-0.007c-0.017 0.051-0.045 0.095-0.083 0.129l-0 0c-0.029 0.025-0.067 0.040-0.109 0.041h-4.32c-0.004 0-0.009 0-0.013 0-0.138 0-0.264-0.055-0.356-0.144l0 0q-0.149-0.144-0.149-0.469v-8.331q0-0.325 0.149-0.469c0.092-0.089 0.217-0.144 0.356-0.144 0.005 0 0.009 0 0.014 0h4.294c0 0 0.001 0 0.002 0 0.040 0 0.076 0.014 0.105 0.037l-0-0c0.037 0.034 0.065 0.078 0.079 0.127l0.001 0.002c0.024 0.069 0.041 0.149 0.050 0.232l0 0.005c0.011 0.1 0.017 0.217 0.017 0.335 0 0.011-0 0.022-0 0.032v-0.002c0 0.007 0 0.016 0 0.025 0 0.115-0.006 0.228-0.018 0.34l0.001-0.014c-0.008 0.086-0.026 0.165-0.052 0.24l0.002-0.007c-0.017 0.051-0.044 0.094-0.080 0.129l-0 0c-0.028 0.025-0.065 0.041-0.105 0.041-0 0-0.001 0-0.001 0h-3.071v2.334h2.599c0.042 0 0.080 0.016 0.11 0.041l-0-0c0.037 0.033 0.066 0.075 0.082 0.123l0.001 0.002c0.024 0.067 0.042 0.144 0.050 0.225l0 0.004c0.011 0.106 0.017 0.228 0.017 0.352s-0.006 0.247-0.018 0.368l0.001-0.015c-0.008 0.083-0.026 0.159-0.052 0.232l0.002-0.007c-0.017 0.049-0.045 0.090-0.083 0.122l-0 0c-0.030 0.023-0.068 0.037-0.109 0.037-0 0-0 0-0 0v0h-2.599v2.696h3.097c0.042 0 0.080 0.016 0.11 0.041l-0-0c0.038 0.034 0.066 0.078 0.083 0.127l0.001 0.002c0.024 0.068 0.042 0.147 0.050 0.228l0 0.004c0.010 0.098 0.016 0.211 0.016 0.326 0 0.012-0 0.024-0 0.036v-0.002zM15.183 42.75c0 0.001 0 0.003 0 0.004 0 0.047-0.015 0.090-0.040 0.126l0-0.001c-0.034 0.042-0.079 0.074-0.131 0.092l-0.002 0.001c-0.075 0.027-0.162 0.047-0.252 0.055l-0.004 0c-0.11 0.012-0.238 0.018-0.367 0.018-0.012 0-0.025-0-0.037-0h0.002c-0.011 0-0.025 0-0.038 0-0.131 0-0.26-0.007-0.387-0.020l0.016 0.001c-0.094-0.008-0.181-0.028-0.263-0.058l0.007 0.002c-0.054-0.018-0.099-0.050-0.133-0.092l-0-0.001c-0.025-0.035-0.040-0.078-0.040-0.125 0-0.002 0-0.003 0-0.004v0-3.76c0.001-0.026 0.001-0.057 0.001-0.088 0-0.235-0.023-0.465-0.067-0.688l0.004 0.022c-0.039-0.177-0.102-0.334-0.186-0.476l0.004 0.007c-0.076-0.127-0.181-0.229-0.305-0.301l-0.004-0.002c-0.122-0.067-0.267-0.107-0.422-0.107-0.007 0-0.014 0-0.021 0h0.001q-0.319 0-0.645 0.259c-0.258 0.219-0.482 0.466-0.67 0.74l-0.008 0.013v4.38c0 0.001 0 0.003 0 0.004 0 0.047-0.015 0.090-0.040 0.126l0-0.001c-0.035 0.042-0.081 0.075-0.134 0.092l-0.002 0.001c-0.075 0.027-0.161 0.047-0.251 0.055l-0.004 0c-0.122 0.012-0.263 0.019-0.406 0.019s-0.284-0.007-0.424-0.020l0.018 0.001c-0.094-0.009-0.181-0.029-0.263-0.058l0.008 0.002c-0.055-0.018-0.101-0.050-0.136-0.092l-0-0.001c-0.025-0.035-0.040-0.078-0.040-0.125 0-0.002 0-0.003 0-0.004v0-6.589c-0-0.004-0-0.008-0-0.012 0-0.098 0.064-0.18 0.152-0.208l0.002-0c0.065-0.026 0.14-0.046 0.218-0.055l0.004-0c0.093-0.012 0.201-0.018 0.311-0.018 0.011 0 0.022 0 0.034 0h-0.002c0.010-0 0.022-0 0.033-0 0.112 0 0.223 0.007 0.332 0.020l-0.013-0.001c0.080 0.008 0.153 0.028 0.221 0.057l-0.005-0.002c0.045 0.020 0.083 0.052 0.109 0.092l0.001 0.001c0.021 0.036 0.033 0.079 0.033 0.124 0 0.002 0 0.003-0 0.005v-0 0.761q0.492-0.591 1-0.886c0.303-0.185 0.67-0.294 1.062-0.296h0q0.605 0 1.020 0.221c0.273 0.146 0.499 0.349 0.666 0.594l0.004 0.006c0.169 0.255 0.297 0.553 0.366 0.873l0.003 0.017c0.072 0.342 0.114 0.735 0.114 1.138 0 0.031-0 0.062-0.001 0.093l0-0.005zM23.149 36.62q0 0.354-0.073 0.524t-0.179 0.168h-0.697c0.094 0.113 0.166 0.248 0.208 0.395l0.002 0.008c0.040 0.138 0.063 0.297 0.063 0.461 0 0.003 0 0.005 0 0.008v-0c0 0.015 0 0.033 0 0.051 0 0.349-0.063 0.683-0.179 0.992l0.006-0.019c-0.113 0.296-0.281 0.547-0.494 0.753l-0.001 0.001c-0.216 0.203-0.475 0.362-0.763 0.461l-0.015 0.005c-0.291 0.101-0.625 0.159-0.974 0.159-0.014 0-0.028-0-0.042-0h0.002c-0.003 0-0.006 0-0.009 0-0.191 0-0.375-0.028-0.549-0.081l0.013 0.003c-0.152-0.041-0.284-0.102-0.403-0.184l0.005 0.003c-0.054 0.066-0.102 0.142-0.14 0.222l-0.003 0.007c-0.040 0.083-0.063 0.181-0.063 0.285 0 0.004 0 0.008 0 0.012v-0.001c-0 0.003-0 0.006-0 0.009 0 0.139 0.066 0.263 0.168 0.341l0.001 0.001c0.13 0.095 0.293 0.151 0.469 0.151 0.002 0 0.004 0 0.006-0h-0l1.442 0.059c0.325 0.010 0.633 0.068 0.923 0.165l-0.022-0.007c0.257 0.086 0.479 0.217 0.666 0.385l-0.002-0.002c0.176 0.162 0.316 0.36 0.408 0.583l0.004 0.011c0.091 0.224 0.143 0.484 0.143 0.756 0 0.012-0 0.024-0 0.036l0-0.002c0 0.003 0 0.006 0 0.010 0 0.33-0.072 0.643-0.2 0.925l0.006-0.014c-0.137 0.299-0.333 0.55-0.574 0.747l-0.004 0.003c-0.274 0.218-0.596 0.389-0.947 0.495l-0.020 0.005c-0.386 0.119-0.829 0.188-1.288 0.188-0.025 0-0.050-0-0.075-0.001l0.004 0c-0.026 0-0.057 0.001-0.087 0.001-0.427 0-0.842-0.049-1.241-0.142l0.037 0.007c-0.332-0.076-0.624-0.203-0.885-0.376l0.010 0.006c-0.213-0.141-0.383-0.331-0.496-0.554l-0.004-0.008c-0.099-0.206-0.156-0.447-0.156-0.702 0-0.006 0-0.012 0-0.019v0.001c0-0.003 0-0.006 0-0.009 0-0.162 0.021-0.319 0.059-0.469l-0.003 0.013c0.042-0.161 0.099-0.303 0.171-0.434l-0.005 0.010c0.081-0.147 0.17-0.274 0.272-0.39l-0.002 0.003c0.112-0.129 0.232-0.245 0.36-0.35l0.005-0.004c-0.189-0.113-0.34-0.271-0.44-0.461l-0.003-0.006c-0.098-0.181-0.156-0.397-0.156-0.626 0-0.005 0-0.009 0-0.014v0.001c-0-0.006-0-0.014-0-0.022 0-0.281 0.066-0.547 0.184-0.782l-0.005 0.010c0.126-0.249 0.281-0.462 0.465-0.646l-0 0c-0.157-0.175-0.284-0.381-0.37-0.607l-0.005-0.014c-0.089-0.247-0.14-0.532-0.14-0.83 0-0.025 0-0.050 0.001-0.075l-0 0.004c-0-0.014-0-0.030-0-0.046 0-0.354 0.067-0.692 0.189-1.003l-0.006 0.019c0.229-0.586 0.692-1.037 1.271-1.245l0.015-0.005c0.287-0.105 0.618-0.166 0.963-0.166 0.013 0 0.026 0 0.039 0h-0.002c0.003 0 0.007 0 0.010 0 0.185 0 0.367 0.013 0.545 0.039l-0.020-0.002c0.182 0.026 0.342 0.062 0.498 0.109l-0.023-0.006h1.881q0.113 0 0.182 0.163t0.070 0.551zM21.394 43.438c0.001-0.009 0.001-0.020 0.001-0.031 0-0.195-0.094-0.368-0.239-0.477l-0.002-0.001q-0.239-0.178-0.655-0.194l-1.187-0.037c-0.102 0.081-0.193 0.17-0.273 0.266l-0.002 0.003c-0.059 0.073-0.115 0.155-0.162 0.242l-0.004 0.008c-0.037 0.066-0.066 0.143-0.082 0.224l-0.001 0.005c-0.013 0.068-0.020 0.146-0.020 0.226 0 0.001 0 0.002 0 0.003v-0c-0 0.005-0 0.011-0 0.016 0 0.237 0.135 0.443 0.332 0.544l0.003 0.002q0.336 0.192 0.947 0.192c0.014 0 0.032 0.001 0.049 0.001 0.21 0 0.413-0.031 0.604-0.089l-0.015 0.004c0.161-0.049 0.301-0.126 0.421-0.227l-0.002 0.002c0.098-0.083 0.175-0.188 0.224-0.307l0.002-0.005c0.039-0.103 0.061-0.222 0.061-0.346 0-0.008-0-0.016-0-0.024v0.001zM21 38.177q0-0.532-0.266-0.827t-0.75-0.296c-0.006-0-0.013-0-0.020-0-0.15 0-0.291 0.034-0.417 0.095l0.006-0.002c-0.124 0.061-0.227 0.145-0.308 0.248l-0.001 0.002c-0.081 0.105-0.143 0.228-0.181 0.362l-0.002 0.008c-0.039 0.131-0.062 0.281-0.062 0.437v0q0 0.5 0.266 0.794t0.737 0.292c0.007 0 0.015 0 0.023 0 0.15 0 0.293-0.033 0.421-0.092l-0.006 0.003c0.124-0.059 0.227-0.141 0.308-0.242l0.001-0.002c0.081-0.102 0.145-0.221 0.185-0.35l0.002-0.008c0.041-0.126 0.064-0.271 0.064-0.422v-0zM26.914 42.75c0 0.001 0 0.003 0 0.004 0 0.047-0.015 0.090-0.041 0.126l0-0.001c-0.035 0.042-0.081 0.075-0.134 0.092l-0.002 0.001c-0.075 0.027-0.161 0.047-0.251 0.055l-0.004 0c-0.122 0.012-0.263 0.019-0.406 0.019s-0.284-0.007-0.424-0.020l0.018 0.001c-0.094-0.009-0.181-0.029-0.263-0.058l0.008 0.002c-0.055-0.018-0.101-0.050-0.136-0.092l-0-0.001c-0.025-0.035-0.040-0.078-0.040-0.125 0-0.002 0-0.003 0-0.004v0-9.712c0-0.001 0-0.002 0-0.003 0-0.049 0.015-0.094 0.041-0.131l-0.001 0.001c0.035-0.045 0.081-0.079 0.134-0.099l0.002-0.001c0.074-0.029 0.161-0.051 0.251-0.062l0.005-0c0.122-0.014 0.263-0.022 0.406-0.022s0.284 0.008 0.423 0.024l-0.017-0.002c0.095 0.011 0.181 0.033 0.263 0.065l-0.007-0.002c0.055 0.020 0.102 0.055 0.136 0.099l0.001 0.001c0.025 0.037 0.040 0.082 0.040 0.131 0 0.001 0 0.002 0 0.003v-0zM31.364 33.932q0 0.563-0.206 0.776t-0.764 0.214q-0.563 0-0.761-0.207t-0.195-0.747q0-0.563 0.203-0.779t0.767-0.218q0.558 0 0.758 0.211t0.199 0.749zM31.237 42.75c0 0.001 0 0.003 0 0.004 0 0.047-0.015 0.090-0.041 0.126l0-0.001c-0.035 0.042-0.081 0.075-0.134 0.092l-0.002 0.001c-0.075 0.027-0.161 0.047-0.251 0.055l-0.004 0c-0.122 0.012-0.263 0.019-0.406 0.019s-0.284-0.007-0.424-0.020l0.018 0.001c-0.094-0.009-0.181-0.029-0.263-0.058l0.008 0.002c-0.055-0.018-0.101-0.050-0.136-0.092l-0-0.001c-0.024-0.034-0.039-0.077-0.039-0.123 0-0.002 0-0.004 0-0.006v0-6.574c-0-0.001-0-0.003-0-0.004 0-0.047 0.015-0.090 0.041-0.126l-0 0.001c0.035-0.043 0.081-0.076 0.134-0.096l0.002-0.001c0.074-0.029 0.161-0.051 0.251-0.062l0.005-0c0.122-0.014 0.263-0.022 0.406-0.022s0.284 0.008 0.423 0.024l-0.017-0.002c0.095 0.011 0.181 0.033 0.263 0.065l-0.007-0.002c0.055 0.020 0.101 0.053 0.136 0.096l0 0.001c0.025 0.035 0.040 0.078 0.040 0.125 0 0.001 0 0.003-0 0.004v-0zM38.063 40.888c0 0.016 0.001 0.034 0.001 0.053 0 0.338-0.069 0.66-0.194 0.952l0.006-0.016c-0.125 0.285-0.307 0.525-0.532 0.714l-0.003 0.002c-0.23 0.19-0.503 0.338-0.801 0.428l-0.016 0.004c-0.306 0.091-0.658 0.144-1.021 0.144-0.225 0-0.445-0.020-0.659-0.059l0.022 0.003c-0.209-0.037-0.391-0.086-0.567-0.148l0.025 0.008c-0.155-0.053-0.287-0.112-0.413-0.181l0.014 0.007c-0.089-0.046-0.166-0.102-0.233-0.167l0 0c-0.056-0.067-0.096-0.15-0.113-0.24l-0.001-0.003c-0.026-0.129-0.041-0.276-0.041-0.428 0-0.022 0-0.045 0.001-0.067l-0 0.003q0-0.214 0.013-0.344c0.006-0.076 0.020-0.147 0.042-0.214l-0.002 0.007c0.011-0.042 0.034-0.077 0.066-0.103l0-0c0.026-0.016 0.059-0.026 0.093-0.026 0.002 0 0.005 0 0.007 0h-0c0.081 0.014 0.153 0.047 0.213 0.094l-0.001-0.001q0.143 0.092 0.356 0.203c0.137 0.072 0.301 0.142 0.47 0.2l0.025 0.007c0.183 0.061 0.393 0.096 0.612 0.096 0.010 0 0.021-0 0.031-0h-0.002c0.006 0 0.013 0 0.020 0 0.136 0 0.267-0.019 0.392-0.054l-0.010 0.002c0.117-0.033 0.218-0.084 0.308-0.149l-0.003 0.002c0.085-0.063 0.152-0.145 0.195-0.24l0.002-0.004c0.042-0.095 0.066-0.207 0.066-0.323 0-0.006-0-0.012-0-0.017v0.001c0-0.004 0-0.008 0-0.013 0-0.139-0.047-0.267-0.126-0.369l0.001 0.001c-0.090-0.112-0.198-0.204-0.32-0.274l-0.005-0.003c-0.127-0.075-0.278-0.149-0.435-0.213l-0.024-0.009q-0.256-0.103-0.525-0.229c-0.206-0.097-0.378-0.193-0.543-0.299l0.018 0.011c-0.176-0.113-0.327-0.245-0.456-0.396l-0.002-0.003c-0.136-0.161-0.247-0.35-0.322-0.556l-0.004-0.013c-0.080-0.223-0.125-0.481-0.125-0.75 0-0.017 0-0.034 0.001-0.050l-0 0.002c-0-0.007-0-0.016-0-0.025 0-0.304 0.061-0.593 0.172-0.857l-0.005 0.015c0.112-0.267 0.275-0.492 0.477-0.674l0.002-0.002c0.213-0.189 0.467-0.338 0.746-0.433l0.015-0.005c0.288-0.098 0.619-0.155 0.964-0.155 0.015 0 0.030 0 0.045 0l-0.002-0c0.002 0 0.004 0 0.007 0 0.189 0 0.374 0.016 0.555 0.047l-0.019-0.003c0.185 0.030 0.345 0.069 0.501 0.118l-0.026-0.007c0.139 0.042 0.258 0.091 0.371 0.149l-0.012-0.006c0.080 0.040 0.148 0.084 0.212 0.135l-0.002-0.002c0.037 0.030 0.067 0.067 0.089 0.109l0.001 0.002c0.018 0.039 0.032 0.083 0.040 0.13l0 0.003q0.013 0.077 0.023 0.192t0.010 0.284q0 0.199-0.010 0.325c-0.004 0.073-0.016 0.141-0.035 0.206l0.002-0.007c-0.009 0.041-0.032 0.075-0.062 0.1l-0 0c-0.025 0.016-0.056 0.026-0.089 0.026-0.001 0-0.003 0-0.004-0h0c-0.071-0.011-0.135-0.039-0.189-0.078l0.001 0.001c-0.086-0.053-0.189-0.108-0.296-0.158l-0.020-0.008c-0.119-0.057-0.264-0.113-0.413-0.16l-0.025-0.007c-0.161-0.049-0.347-0.078-0.539-0.078-0.010 0-0.020 0-0.030 0h0.002c-0.007-0-0.015-0-0.023-0-0.131 0-0.258 0.019-0.378 0.054l0.009-0.002c-0.105 0.031-0.197 0.082-0.273 0.148l0.001-0.001c-0.068 0.061-0.122 0.136-0.158 0.221l-0.002 0.004c-0.034 0.080-0.053 0.174-0.053 0.272 0 0.002 0 0.004 0 0.006v-0c-0 0.006-0 0.013-0 0.021 0 0.138 0.047 0.264 0.126 0.364l-0.001-0.001c0.092 0.11 0.203 0.201 0.327 0.27l0.006 0.003c0.13 0.075 0.285 0.15 0.445 0.213l0.024 0.008q0.263 0.104 0.532 0.225c0.21 0.096 0.384 0.191 0.551 0.296l-0.020-0.011c0.18 0.112 0.334 0.245 0.467 0.396l0.002 0.002c0.138 0.16 0.25 0.346 0.328 0.55l0.004 0.013c0.084 0.222 0.133 0.479 0.133 0.748 0 0.013-0 0.026-0 0.038l0-0.002zM45.959 42.75c0 0.001 0 0.003 0 0.004 0 0.047-0.015 0.090-0.041 0.126l0-0.001c-0.034 0.042-0.079 0.074-0.131 0.092l-0.002 0.001c-0.075 0.027-0.162 0.047-0.252 0.055l-0.004 0c-0.11 0.012-0.238 0.018-0.367 0.018-0.012 0-0.025-0-0.037-0h0.002c-0.011 0-0.025 0-0.038 0-0.131 0-0.26-0.007-0.387-0.020l0.016 0.001c-0.094-0.008-0.181-0.028-0.263-0.058l0.007 0.002c-0.054-0.018-0.099-0.050-0.133-0.092l-0-0.001c-0.025-0.035-0.040-0.078-0.040-0.125 0-0.002 0-0.003 0-0.004v0-3.76c0.001-0.026 0.001-0.057 0.001-0.088 0-0.235-0.023-0.465-0.067-0.688l0.004 0.022c-0.039-0.177-0.102-0.334-0.186-0.476l0.004 0.007c-0.076-0.127-0.181-0.229-0.305-0.301l-0.004-0.002c-0.122-0.067-0.267-0.107-0.422-0.107-0.007 0-0.014 0-0.021 0h0.001q-0.319 0-0.645 0.259c-0.258 0.219-0.482 0.466-0.67 0.74l-0.008 0.013v4.38c0 0.001 0 0.003 0 0.004 0 0.047-0.015 0.090-0.040 0.126l0-0.001c-0.035 0.042-0.081 0.075-0.134 0.092l-0.002 0.001c-0.075 0.027-0.161 0.047-0.251 0.055l-0.004 0c-0.122 0.012-0.263 0.019-0.406 0.019s-0.284-0.007-0.424-0.020l0.018 0.001c-0.094-0.009-0.181-0.029-0.263-0.058l0.008 0.002c-0.055-0.018-0.101-0.050-0.136-0.092l-0-0.001c-0.025-0.035-0.040-0.078-0.040-0.125 0-0.002 0-0.003 0-0.004v0-9.712c0-0.001 0-0.002 0-0.003 0-0.049 0.015-0.094 0.041-0.131l-0.001 0.001c0.035-0.045 0.081-0.079 0.134-0.099l0.002-0.001c0.074-0.029 0.161-0.051 0.251-0.062l0.005-0c0.122-0.014 0.263-0.022 0.406-0.022s0.284 0.008 0.423 0.024l-0.017-0.002c0.095 0.011 0.181 0.033 0.263 0.065l-0.007-0.002c0.055 0.020 0.102 0.055 0.136 0.099l0.001 0.001c0.025 0.037 0.040 0.082 0.040 0.131 0 0.001 0 0.002 0 0.003v-0 3.641c0.247-0.281 0.538-0.516 0.864-0.697l0.017-0.008c0.271-0.146 0.592-0.232 0.934-0.233h0q0.605 0 1.020 0.221c0.275 0.146 0.5 0.351 0.667 0.599l0.004 0.007c0.169 0.257 0.297 0.558 0.366 0.88l0.003 0.017c0.072 0.346 0.114 0.744 0.114 1.152 0 0.033-0 0.065-0.001 0.098l0-0.005z"></path>
<path fill="#8b13b2" style="fill: var(--color11, #8b13b2)" d="M23 3h-18c-1.655 0.005-2.995 1.345-3 3v18c0.005 1.655 1.345 2.995 3 3h18c1.655-0.005 2.995-1.345 3-3v-18c-0.005-1.655-1.345-2.995-3-3h-0zM22 23h-6.388v-2.532h1.594v-6.446c0-1.168-0.188-2.114-0.753-2.718s-0.988-0.844-2.050-0.844c-0.675 0.008-1.309 0.176-1.869 0.467l0.023-0.011c-0.671 0.334-1.249 0.711-1.777 1.146l0.016-0.013v8.418h1.594v2.532h-6.389v-2.532h1.562v-10.187h-1.562v-2.531h4.682v1.796h0.028c0.3-0.277 0.624-0.543 0.963-0.791l0.031-0.022c0.32-0.235 0.682-0.455 1.063-0.643l0.043-0.019c0.342-0.17 0.742-0.321 1.16-0.431l0.045-0.010c0.388-0.103 0.834-0.162 1.294-0.162 0.008 0 0.017 0 0.025 0h-0.001c0.026-0 0.056-0.001 0.087-0.001 0.726 0 1.423 0.124 2.071 0.352l-0.044-0.013c0.632 0.225 1.17 0.577 1.606 1.029l0.001 0.001q0.662 0.692 1.022 1.774t0.362 2.557v7.301h1.562z"></path>
<path fill="#3f3f3f" style="fill: var(--color7, #3f3f3f)" d="M46 13h-11.171l2.586-2.586c0.362-0.362 0.586-0.862 0.586-1.414 0-1.105-0.896-2-2-2-0.552 0-1.052 0.224-1.414 0.586l-6 6c-0.362 0.362-0.586 0.862-0.586 1.414s0.224 1.052 0.586 1.414l6 6c0.362 0.362 0.862 0.586 1.414 0.586 1.105 0 2-0.896 2-2 0-0.552-0.224-1.052-0.586-1.414l-2.586-2.586h11.171z"></path>
</symbol>
<symbol id="icon-read-aloud" viewBox="0 0 48 48">
<title>read-aloud</title>
<path fill="#3f3f3f" style="fill: var(--color7, #3f3f3f)" d="M17.473 23h-13.472v7h2v-0.5c0-1.657 1.343-3 3-3v0h2v14.5h-3v2h11v-2h-3v-14.5h2c1.657 0 3 1.343 3 3v0 0.5h2v-3.789c-2.197-0.531-4.079-1.66-5.522-3.205l-0.006-0.006z"></path>
<path fill="#1565c0" style="fill: var(--color12, #1565c0)" d="M35 5h-9c-5.5 0-10 4.5-10 10v0c0 5.162 3.965 9.444 9 9.95v6.55c0 0.276 0.224 0.5 0.5 0.5 0.163 0 0.308-0.078 0.399-0.199l0.001-0.001 5.1-6.8h4c5.5 0 10-4.5 10-10v0c0-5.5-4.5-10-10-10zM23 17.5c-1.381 0-2.5-1.119-2.5-2.5s1.119-2.5 2.5-2.5c1.381 0 2.5 1.119 2.5 2.5v0c0 1.381-1.119 2.5-2.5 2.5v0zM30.5 17.5c-1.381 0-2.5-1.119-2.5-2.5s1.119-2.5 2.5-2.5c1.381 0 2.5 1.119 2.5 2.5v0c0 1.381-1.119 2.5-2.5 2.5v0zM38 17.5c-1.381 0-2.5-1.119-2.5-2.5s1.119-2.5 2.5-2.5c1.381 0 2.5 1.119 2.5 2.5v0c0 1.381-1.119 2.5-2.5 2.5v0z"></path>
</symbol>
<symbol id="icon-scratchwork" viewBox="0 0 48 48">
<title>scratchwork</title>
<path fill="#900" style="fill: var(--color13, #900)" d="M32.916 33.392l-0.098-0.021c-0.421-0.088-1.125-0.233-1.525-0.361 0.018-0.477 0.286-0.958 0.812-1.459 0.142-0.136 0.23-0.326 0.23-0.538 0-0.41-0.332-0.743-0.742-0.743-0.048 0-0.095 0.005-0.141 0.013l0.005-0.001c-0.173 0.032-0.4 0.076-0.661 0.128-0.563 0.111-1.701 0.336-2.598 0.469 0.506-0.456 1.176-0.938 1.695-1.313 1.209-0.868 1.937-1.392 1.991-2.090 0.002-0.022 0.003-0.048 0.003-0.075 0-0.203-0.064-0.392-0.172-0.547l0.002 0.003c-0.088-0.164-0.223-0.293-0.386-0.373l-0.005-0.002c-0.681-0.33-1.766 0.088-6.112 2.348-0.71 0.369-1.349 0.702-1.809 0.923-0.209 0.101-0.427 0.212-0.651 0.331v0c0.722-0.563 1.155-0.912 1.496-1.187 0.559-0.466 1.18-0.935 1.825-1.372l0.083-0.053c0.753-0.516 1.411-0.912 2.047-1.296 1.382-0.833 2.687-1.619 4.517-3.38 0.065-0.063 0.119-0.138 0.159-0.221l0.002-0.005c0.257-0.563-0.049-0.922-0.149-1.019-0.51-0.492-1.162-0.164-2.348 0.431-0.307 0.154-0.625 0.313-0.818 0.389-0.928 0.363-4.343 1.736-5.287 2.162-0.684 0.343-3.049 1.509-4.799 2.139-0.272 0.098-0.613 0.239-0.982 0.393 0.509-0.391 0.965-0.729 1.226-0.922 1.109-0.821 1.286-0.975 1.429-1.098 0.108-0.094 0.188-0.161 1.214-0.894 1.486-1.063 3.227-2.514 3.082-3.418-0.042-0.261-0.196-0.48-0.41-0.608l-0.004-0.002c-0.64-0.516-1.793 0.062-4.562 1.655-0.233 0.134-0.449 0.258-0.636 0.362-0.281 0.158-0.636 0.366-1.026 0.593-0.344 0.201-0.822 0.481-1.313 0.759 0.112-0.103 0.229-0.209 0.354-0.319 0.151-0.133 0.339-0.285 0.538-0.445 0.415-0.334 0.844-0.681 1.148-1.012 0.046-0.050 0.135-0.125 0.239-0.222 0.706-0.637 1.131-1.063 1.082-1.596-0.024-0.271-0.175-0.501-0.391-0.636l-0.004-0.002-0.010 0.016c-0.854-0.437-3.104 0.394-4.95 1.226-0.25 0.123-0.419 0.376-0.419 0.669 0 0.41 0.333 0.743 0.743 0.743 0.103 0 0.202-0.021 0.291-0.059l-0.005 0.002c0.531-0.239 1.224-0.5 1.879-0.722-0.172 0.146-0.359 0.298-0.535 0.437-0.216 0.174-0.422 0.341-0.588 0.487-2.395 2.116-2.38 2.777-2.375 3.059 0.003 0.253 0.108 0.481 0.277 0.645l0 0c0.577 0.615 1.465 0.195 4.789-1.75 0.382-0.223 0.728-0.426 1.004-0.581 0.188-0.107 0.41-0.233 0.647-0.369 0.158-0.090 0.355-0.204 0.574-0.329-0.098 0.074-0.192 0.143-0.278 0.205-1.086 0.773-1.171 0.847-1.326 0.981-0.109 0.096-0.276 0.239-1.339 1.026-1.293 0.958-3.099 2.329-3.851 3.167-0.071 0.079-0.126 0.174-0.158 0.279l-0.001 0.005c-0.029 0.084-0.046 0.18-0.046 0.28 0 0.257 0.11 0.488 0.286 0.649l0.001 0.001c0.552 0.496 1.355 0.219 3.695-0.766 0.467-0.197 0.909-0.382 1.219-0.495 1.826-0.658 4.259-1.856 4.933-2.195 0.483-0.218 1.736-0.732 2.912-1.208l-0.394 0.238c-0.654 0.394-1.331 0.802-2.125 1.343-1.082 0.746-1.408 1.012-2 1.493-0.335 0.273-0.759 0.617-1.469 1.169l-0.509 0.393c-1.688 1.296-2.725 2.094-2.49 3.012 0.043 0.276 0.21 0.507 0.441 0.636l0.004 0.002c0.625 0.351 1.449-0.071 3.247-1.063 0.518-0.285 1.054-0.58 1.512-0.801 0.47-0.226 1.125-0.563 1.85-0.944 0.619-0.321 1.453-0.755 2.267-1.159-1.037 0.779-1.946 1.596-2.148 2.504-0.011 0.049-0.018 0.105-0.018 0.162 0 0.246 0.119 0.463 0.303 0.598l0.002 0.001c0.4 0.291 1.039 0.313 3.675-0.177-0.109 0.292-0.173 0.629-0.173 0.98 0 0.212 0.023 0.419 0.067 0.618l-0.004-0.019c0.040 0.185 0.145 0.341 0.29 0.446l0.002 0.002c0.417 0.301 1.168 0.471 2.354 0.718l0.098 0.020c0.045 0.010 0.096 0.016 0.149 0.016 0.001 0 0.002 0 0.003 0h-0c0 0 0 0 0 0 0.41 0 0.743-0.333 0.743-0.743 0-0.358-0.253-0.657-0.59-0.727l-0.005-0.001z"></path>
<path fill="#3f3f3f" style="fill: var(--color7, #3f3f3f)" d="M36 9h-2v-2c0-1.105-0.895-2-2-2s-2 0.895-2 2v0 2h-4v-2c0-1.105-0.895-2-2-2s-2 0.895-2 2v0 2h-4v-2c0-1.105-0.895-2-2-2s-2 0.895-2 2v0 2h-2c-2.76 0.003-4.997 2.24-5 5v24c0.003 2.76 2.24 4.997 5 5h24c2.76-0.003 4.997-2.24 5-5v-24c-0.003-2.76-2.24-4.997-5-5h-0zM37 38c0 0.552-0.448 1-1 1v0h-24c-0.552 0-1-0.448-1-1v0-24c0-0.552 0.448-1 1-1v0h2v1c0 1.105 0.895 2 2 2s2-0.895 2-2v0-1h4v1c0 1.105 0.895 2 2 2s2-0.895 2-2v0-1h4v1c0 1.105 0.895 2 2 2s2-0.895 2-2v0-1h2c0.552 0 1 0.448 1 1v0z"></path>
</symbol>
<symbol id="icon-equation-editor" viewBox="0 0 48 48">
<title>equation-editor</title>
<path fill="#3f3f3f" style="fill: var(--color7, #3f3f3f)" d="M28.641 41.864c0 0.012 0 0.027 0 0.041 0 0.171-0.010 0.339-0.028 0.505l0.002-0.020c-0.014 0.132-0.042 0.252-0.083 0.366l0.003-0.011c-0.026 0.080-0.074 0.147-0.137 0.196l-0.001 0.001c-0.052 0.036-0.117 0.058-0.187 0.058-0.001 0-0.003 0-0.004-0h-7.902c-0.008 0-0.018 0-0.028 0-0.133 0-0.263-0.016-0.387-0.045l0.011 0.002c-0.111-0.026-0.205-0.084-0.276-0.164l-0-0.001c-0.078-0.099-0.132-0.219-0.153-0.351l-0.001-0.004c-0.031-0.164-0.048-0.353-0.048-0.546 0-0.021 0-0.042 0.001-0.063l-0 0.003c-0-0.013-0-0.029-0-0.044 0-0.196 0.012-0.389 0.034-0.579l-0.002 0.023c0.020-0.165 0.061-0.316 0.121-0.457l-0.004 0.011c0.064-0.146 0.137-0.272 0.222-0.388l-0.004 0.006c0.111-0.151 0.224-0.285 0.346-0.41l-0.001 0.001 2.379-2.549c0.402-0.412 0.778-0.853 1.123-1.32l0.024-0.034c0.238-0.322 0.464-0.687 0.659-1.070l0.021-0.045c0.137-0.267 0.252-0.577 0.329-0.901l0.006-0.028c0.055-0.242 0.088-0.52 0.090-0.805v-0.001c0-0.004 0-0.008 0-0.012 0-0.234-0.041-0.458-0.116-0.666l0.004 0.014c-0.075-0.212-0.188-0.394-0.33-0.548l0.001 0.001c-0.15-0.157-0.332-0.282-0.537-0.363l-0.010-0.004c-0.217-0.084-0.467-0.133-0.73-0.133-0.016 0-0.032 0-0.048 0.001l0.002-0c-0.019-0-0.041-0.001-0.064-0.001-0.373 0-0.733 0.058-1.071 0.165l0.025-0.007c-0.33 0.107-0.611 0.227-0.878 0.37l0.029-0.014q-0.366 0.197-0.611 0.361t-0.383 0.164c-0.002 0-0.003 0-0.005 0-0.062 0-0.118-0.024-0.16-0.063l0 0c-0.054-0.058-0.093-0.13-0.111-0.209l-0.001-0.003c-0.031-0.114-0.055-0.25-0.068-0.389l-0.001-0.009c-0.017-0.167-0.026-0.361-0.026-0.558 0-0.019 0-0.037 0-0.055v0.003q0-0.244 0.016-0.409c0.009-0.107 0.026-0.205 0.050-0.3l-0.003 0.013c0.020-0.081 0.049-0.151 0.087-0.216l-0.002 0.004c0.055-0.083 0.117-0.154 0.186-0.217l0.001-0.001c0.142-0.121 0.303-0.229 0.475-0.317l0.014-0.007c0.244-0.134 0.533-0.263 0.833-0.369l0.042-0.013c0.314-0.115 0.698-0.223 1.093-0.303l0.054-0.009c0.383-0.080 0.822-0.125 1.273-0.125 0.012 0 0.023 0 0.035 0h-0.002q1.073 0 1.875 0.271c0.516 0.167 0.96 0.424 1.337 0.757l-0.004-0.003c0.341 0.31 0.61 0.694 0.782 1.127l0.007 0.020c0.165 0.414 0.26 0.894 0.26 1.397 0 0.011-0 0.022-0 0.033v-0.002c0 0.005 0 0.012 0 0.018 0 0.459-0.046 0.908-0.132 1.342l0.007-0.043c-0.117 0.527-0.3 0.994-0.544 1.421l0.013-0.025c-0.355 0.629-0.731 1.171-1.151 1.675l0.014-0.018c-0.633 0.763-1.268 1.45-1.938 2.103l-0.006 0.006-1.604 1.646h5.416c0 0 0.001 0 0.002 0 0.073 0 0.141 0.023 0.196 0.063l-0.001-0.001c0.066 0.051 0.119 0.117 0.152 0.193l0.001 0.003c0.046 0.102 0.080 0.221 0.095 0.345l0.001 0.006c0.020 0.142 0.031 0.305 0.031 0.471 0 0.015-0 0.030-0 0.045v-0.002zM36 25h-24v2.037h24z"></path>
<path fill="#008117" style="fill: var(--color14, #008117)" d="M32 23h-4v-2h2v-2h2zM26 21h-4v2h4zM20 21h-2v-2h-2v4h4zM18 11h-2v6h2zM18 7h2v-2h-4v4h2zM26 5h-4v2h4zM32 5h-4v2h2v2h2zM32 11h-2v6h2z"></path>
</symbol>
<symbol id="icon-calculator" viewBox="0 0 48 48">
<title>calculator</title>
<path d="M34 5h-20c-2.339 0-4 1.661-4 4v30c0 2.339 1.661 4 4 4h20c2.339 0 4-1.661 4-4v-30c0-2.339-1.661-4-4-4zM35 15.5c0 0.791-0.709 1.5-1.5 1.5h-19c-0.791 0-1.5-0.709-1.5-1.5v-5c0-0.791 0.709-1.5 1.5-1.5h19c0.791 0 1.5 0.709 1.5 1.5zM18.313 25h-2.625c-0.38 0-0.688-0.308-0.688-0.688v0-2.625c0-0.38 0.308-0.688 0.688-0.688v0h2.625c0.38 0 0.688 0.308 0.688 0.688v0 2.625c0 0.38-0.308 0.688-0.688 0.688v0zM18.313 32h-2.625c-0.38 0-0.688-0.308-0.688-0.688v0-2.625c0-0.38 0.308-0.688 0.688-0.688v0h2.625c0.38 0 0.688 0.308 0.688 0.688v0 2.625c0 0.38-0.308 0.688-0.688 0.688v0zM18.313 39h-2.625c-0.38 0-0.688-0.308-0.688-0.688v0-2.625c0-0.38 0.308-0.688 0.688-0.688v0h2.625c0.38 0 0.688 0.308 0.688 0.688v0 2.625c0 0.38-0.308 0.688-0.688 0.688v0zM25.313 25h-2.625c-0.38 0-0.688-0.308-0.688-0.688v0-2.625c0-0.38 0.308-0.688 0.688-0.688v0h2.625c0.38 0 0.688 0.308 0.688 0.688v0 2.625c0 0.38-0.308 0.688-0.688 0.688v0zM25.313 32h-2.625c-0.38 0-0.688-0.308-0.688-0.688v0-2.625c0-0.38 0.308-0.688 0.688-0.688v0h2.625c0.38 0 0.688 0.308 0.688 0.688v0 2.625c0 0.38-0.308 0.688-0.688 0.688v0zM25.313 39h-2.625c-0.38 0-0.688-0.308-0.688-0.688v0-2.625c0-0.38 0.308-0.688 0.688-0.688v0h2.625c0.38 0 0.688 0.308 0.688 0.688v0 2.625c0 0.38-0.308 0.688-0.688 0.688v0zM32.312 25h-2.625c-0.38 0-0.688-0.308-0.688-0.688v0-2.625c0-0.38 0.308-0.688 0.688-0.688v0h2.625c0.38 0 0.688 0.308 0.688 0.688v0 2.625c0 0.38-0.308 0.688-0.688 0.688v0zM32.312 32h-2.625c-0.38 0-0.688-0.308-0.688-0.688v0-2.625c0-0.38 0.308-0.688 0.688-0.688v0h2.625c0.38 0 0.688 0.308 0.688 0.688v0 2.625c0 0.38-0.308 0.688-0.688 0.688v0zM32.312 39h-2.625c-0.38 0-0.688-0.308-0.688-0.688v0-2.625c0-0.38 0.308-0.688 0.688-0.688v0h2.625c0.38 0 0.688 0.308 0.688 0.688v0 2.625c0 0.38-0.308 0.688-0.688 0.688v0z"></path>
</symbol>
<symbol id="icon-timer" viewBox="0 0 48 48">
<title>timer</title>
<path d="M37.284 15.716l2.716-2.716s0-1-1.5-2.5-2.5-1.5-2.5-1.5l-2.88 2.88c-1.749-1.17-3.801-2.049-6.007-2.51l-0.113-0.020v-4.351s-1.167-1-3.5-1-3.5 1-3.5 1v4.351c-7.987 1.621-14 8.683-14 17.149 0 9.665 7.835 17.5 17.5 17.5s17.5-7.835 17.5-17.5c0-0.008 0-0.018 0-0.028 0-4.076-1.399-7.825-3.744-10.793l0.028 0.037zM33.046 36.046c-2.443 2.443-5.818 3.954-9.546 3.954-7.456 0-13.5-6.044-13.5-13.5s6.044-13.5 13.5-13.5c7.456 0 13.5 6.044 13.5 13.5v0c0 0.011 0 0.023 0 0.036 0 3.717-1.512 7.080-3.954 9.509l-0.001 0.001zM32 26.5c0 0.828-0.672 1.5-1.5 1.5v0h-7c-0.828 0-1.5-0.672-1.5-1.5v0-9c0-0.828 0.672-1.5 1.5-1.5s1.5 0.672 1.5 1.5v0 7.5h5.5c0.828 0 1.5 0.672 1.5 1.5v0z"></path>
</symbol>
<symbol id="icon-warning" viewBox="0 0 48 48">
<title>warning</title>
<path fill="#edc87e" style="fill: var(--color4, #edc87e)" d="M25 6l-20 38h38l-18-38z"></path>
<path fill="#3f3f3f" style="fill: var(--color7, #3f3f3f)" d="M46 48h-44c-1.105-0-2-0.895-2-2 0-0.339 0.084-0.658 0.233-0.937l-0.005 0.011 23-44c0.341-0.644 1.007-1.075 1.773-1.075 0.791 0 1.475 0.459 1.799 1.125l0.005 0.012 21 44c0.124 0.253 0.196 0.55 0.196 0.864 0 1.105-0.895 2-2 2-0 0-0.001 0-0.001 0h0zM5.302 44h37.528l-17.911-37.527zM28 30v-10c0-1.657-1.343-3-3-3s-3 1.343-3 3v0 10c0 1.657 1.343 3 3 3s3-1.343 3-3v0zM25 36c-1.657 0-3 1.343-3 3s1.343 3 3 3c1.657 0 3-1.343 3-3v0c0-1.657-1.343-3-3-3v0z"></path>
</symbol>
<symbol id="icon-select-in-passage" viewBox="0 0 96 48">
<title>select-in-passage</title>
<path fill="#148812" style="fill: var(--color15, #148812)" d="M22 4h68v20h-68v-20z"></path>
<path fill="#a7a9ac" style="fill: var(--color16, #a7a9ac)" d="M6 24h84v20h-84v-20z"></path>
<path fill="#fff" style="fill: var(--color3, #fff)" d="M20 2v20h-16v24h88v-44zM88 42h-80v-16h80zM24 22v-16h64v16z"></path>
<path fill="#000" style="fill: var(--color17, #000)" d="M78.784 40.484l-7.937 6.567c-3.888 3.15-11.671-2.214-18.43-6.261-2.529-1.513-4.598-2.908-6.304-3.983-2.769-1.744-3.228-2.596-3.014-4.782 0.233-2.382 2.275-3.622 4.421-3.23l3.144 1.353-5.976-9.347c-0.716-1.265-1.6-2.342-2.639-3.245l-0.015-0.013s-1.724-1.724-3.080-2.945-1.286-4.041 0.358-5.621c2.703-2.614 6 0.674 7.688 2.198 1.506 1.366 2.339 1.959 3.833 4.5 0.778 1.316 1.313 2.069 1.313 2.069 0.276-0.725 0.717-1.334 1.28-1.802l0.007-0.006c1.408-1.139 3.386-1.093 4.849-0.031 0.252-0.841 0.732-1.549 1.368-2.076l0.007-0.006c1.408-1.139 3.383-1.090 4.849-0.031 0.25-0.84 0.73-1.547 1.368-2.070l0.007-0.006c1.776-1.438 4.454-0.979 5.854 0.979l5.891 11.009c4.063 9.041 1.598 16.073 1.438 16.422-0.074 0.138-0.167 0.255-0.278 0.354l-0.001 0.001z"></path>
<path fill="#fff" style="fill: var(--color3, #fff)" d="M68.074 46.555c-3.732 0.398-10.051-4.090-15.038-7.081 0 0-5.012-3.337-6.5-4.348-1.73-1.187-2.143-1.519-1.981-3.224 0.083-0.827 0.367-1.148 0.909-1.586 0.31-0.257 0.699-0.429 1.126-0.477l0.010-0.001c0.069-0.008 0.15-0.012 0.231-0.012 0.153 0 0.303 0.016 0.447 0.045l-0.014-0.002 5.93 2.428c0.024 0.009 0.051 0.015 0.079 0.015 0.011 0 0.021-0.001 0.032-0.002l-0.001 0c0.102-0.011 0.187-0.072 0.232-0.158l0.001-0.002c0.030-0.055 0.047-0.12 0.047-0.19 0-0.090-0.029-0.173-0.079-0.24l0.001 0.001-7.867-12.075c-0.714-1.2-1.58-2.223-2.589-3.084l-0.017-0.014s-1.776-1.316-3.132-2.78c-1.078-1.157-1.010-3.074 0.174-4.035 0.371-0.303 0.834-0.506 1.342-0.561l0.011-0.001c0.958-0.104 1.552 0.153 2.519 0.888l2.625 2.131c1.454 1.347 2.281 2.143 3.052 3.695l3.656 5.869c0.076 0.107 0.221 0.276 0.34 0.263 0.103-0.015 0.196-0.047 0.28-0.094l-0.004 0.002c0.083-0.074 0.143-0.171 0.17-0.281l0.001-0.004c0.001-0.014 0.002-0.030 0.002-0.047 0-0.096-0.028-0.186-0.077-0.261l0.001 0.002c-0.444-0.625-0.817-1.442-0.71-2.226s0.466-1.466 1.041-1.929c0.368-0.297 0.827-0.496 1.33-0.55l0.011-0.001c0.974-0.107 1.956 0.346 2.553 1.179l1.286 1.914c0.084 0.111 0.216 0.183 0.364 0.184h0c0.090-0.017 0.17-0.046 0.243-0.085l-0.005 0.002c0.089-0.076 0.156-0.188 0.156-0.239 0.006-0.062 0.086-0.15-0.037-0.413-0.306-0.704-0.817-1.393-0.71-2.174s0.471-1.469 1.041-1.929c0.366-0.298 0.823-0.497 1.324-0.55l0.011-0.001c0.979-0.11 1.963 0.346 2.563 1.187l1.191 2.011c0.239 0.239 0.358 0.181 0.478 0.166 0.062-0.006 0.269-0.129 0.318-0.168 0.147-0.125 0.024-0.542-0.098-0.713-0.447-0.618-0.698-1.335-0.582-2.122s0.466-1.457 1.041-1.914c0.366-0.305 0.826-0.509 1.33-0.565l0.011-0.001c0.979-0.107 1.966 0.349 2.55 1.182l5.896 11.006c3 7.036 1.937 13.232 1.366 14.542l-0.062 0.159-7.894 6.526c-0.514 0.401-1.148 0.646-1.895 0.729z"></path>
<path fill="#000" style="fill: var(--color17, #000)" d="M67.594 47.346c-3.328 0-7.902-2.848-12.336-5.608-0.897-0.557-1.776-1.105-2.616-1.609-0.030-0.019-5.044-3.359-6.539-4.369-1.875-1.284-2.511-1.834-2.312-3.93 0.107-1.052 0.5-1.553 1.193-2.111 0.419-0.345 0.943-0.576 1.517-0.64l0.013-0.001c0.094-0.010 0.202-0.016 0.312-0.016 0.206 0 0.407 0.020 0.601 0.058l-0.020-0.003 4.75 1.931-7.158-10.986c-0.674-1.135-1.492-2.103-2.445-2.917l-0.016-0.013c-0.039-0.026-1.809-1.347-3.199-2.845-0.601-0.652-0.969-1.527-0.969-2.487 0-0.092 0.003-0.184 0.010-0.275l-0.001 0.012c0.066-0.954 0.508-1.83 1.214-2.401 0.48-0.395 1.081-0.659 1.74-0.73l0.015-0.001c1.229-0.145 2.033 0.259 3.062 1.039l2.643 2.145c1.543 1.423 2.431 2.292 3.256 3.949l2.206 3.537 0.009-0.076c0.129-0.979 0.598-1.842 1.321-2.422 0.479-0.384 1.074-0.641 1.725-0.713l0.015-0.001c1.172-0.125 2.383 0.384 3.151 1.354 0-0.003 0-0.006 0-0.010 0-0.113 0.008-0.224 0.022-0.333l-0.001 0.013c0.129-0.976 0.595-1.837 1.319-2.422 0.477-0.387 1.073-0.645 1.725-0.715l0.015-0.001c1.222-0.125 2.386 0.386 3.154 1.362 0.004-0.129 0.016-0.251 0.035-0.371l-0.002 0.016c0.131-0.974 0.601-1.831 1.321-2.402 0.475-0.389 1.070-0.65 1.722-0.719l0.014-0.001c0.103-0.011 0.223-0.017 0.344-0.017 1.202 0 2.264 0.596 2.908 1.509l0.008 0.011 5.947 11.084c3.268 7.67 1.901 14.041 1.39 15.211-0.051 0.111-0.188 0.366-0.278 0.443l-7.892 6.526c-0.619 0.484-1.358 0.781-2.209 0.889-0.035 0.011-0.078 0.020-0.121 0.025l-0.004 0c-0.168 0.019-0.363 0.030-0.56 0.030h-0zM68.075 46.555v0zM46.974 30.578c0 0.015-0.161 0.008-0.29 0.023-0.281 0.030-0.532 0.141-0.735 0.308l0.002-0.002c-0.461 0.371-0.583 0.523-0.637 1.073-0.119 1.269 0 1.384 1.653 2.516 1.486 1.007 6.494 4.341 6.494 4.341 0.816 0.489 1.701 1.039 2.608 1.601 4.209 2.621 8.984 5.563 11.831 5.364 0.036-0.011 0.079-0.019 0.122-0.024l0.003-0c0.601-0.068 1.109-0.26 1.507-0.571l7.723-6.388c0.383-0.87 1.678-6.793-1.366-13.937l-5.869-10.944c-0.371-0.522-1.1-0.875-1.791-0.783-0.361 0.039-0.682 0.183-0.94 0.4l0.003-0.002c-0.419 0.332-0.688 0.834-0.766 1.423-0.081 0.531 0.069 1.057 0.443 1.574 0.313 0.434 0.517 1.289-0.033 1.75-0.012 0.009-0.392 0.313-0.741 0.343-0.25 0.046-0.646 0.057-1.085-0.386l-1.312-2.163c-0.372-0.5-0.961-0.821-1.625-0.821-0.066 0-0.131 0.003-0.195 0.009l0.008-0.001c-0.361 0.037-0.684 0.177-0.945 0.389l0.003-0.003c-0.412 0.332-0.688 0.842-0.759 1.431-0.051 0.359 0.152 0.756 0.386 1.216 0.092 0.188 0.188 0.371 0.266 0.556 0.188 0.405 0.137 0.706 0.081 0.894 0.021 0.25-0.308 0.559-0.407 0.644-0.185 0.129-0.407 0.221-0.646 0.259l-0.009 0.001c-0.416 0.045-0.861-0.184-1.085-0.527l-1.277-1.903c-0.427-0.589-1.106-0.924-1.836-0.844-0.364 0.038-0.69 0.179-0.954 0.393l0.003-0.003c-0.409 0.328-0.679 0.837-0.756 1.427-0.087 0.634 0.323 1.329 0.574 1.688 0.137 0.195 0.218 0.437 0.218 0.699 0 0.061-0.004 0.121-0.013 0.179l0.001-0.007c-0.021 0.197-0.188 0.55-0.451 0.761s-0.679 0.25-0.688 0.25c-0.392 0.031-0.75-0.171-1.034-0.589l-3.677-5.9c-0.744-1.489-1.474-2.197-2.924-3.538l-2.586-2.098c-0.849-0.644-1.25-0.793-1.955-0.722-0.367 0.040-0.695 0.183-0.96 0.4l0.003-0.003c-0.38 0.313-0.61 0.778-0.649 1.319-0.004 0.047-0.006 0.102-0.006 0.158 0 0.557 0.213 1.064 0.562 1.444l-0.001-0.002c1.294 1.393 3.011 2.674 3.029 2.687 1.106 0.937 2.040 2.034 2.775 3.263l0.033 0.059 7.848 12.044c0.127 0.184 0.202 0.412 0.202 0.658 0 0.199-0.049 0.386-0.137 0.549l0.003-0.006c-0.16 0.302-0.453 0.515-0.799 0.562l-0.005 0.001c-0.028 0.002-0.060 0.003-0.092 0.003-0.134 0-0.264-0.019-0.387-0.054l0.010 0.002zM52.866 32.14c0 0.004 0.006 0.008 0.006 0.011zM53.366 21.77c0.003 0.005 0.006 0.008 0.009 0.012l-0-0c-0.002-0.003-0.004-0.007-0.006-0.010l-0-0zM59.513 19.449c-0.007 0.039-0.011 0.085-0.012 0.132v0.001c0.002-0.049 0.006-0.095 0.013-0.14l-0.001 0.007zM60.132 19.278l0.009 0.014z"></path>
</symbol>
<symbol id="icon-plus" viewBox="0 0 32 32">
<title>plus</title>
<path d="M31 12h-11v-11c0-0.552-0.448-1-1-1h-6c-0.552 0-1 0.448-1 1v11h-11c-0.552 0-1 0.448-1 1v6c0 0.552 0.448 1 1 1h11v11c0 0.552 0.448 1 1 1h6c0.552 0 1-0.448 1-1v-11h11c0.552 0 1-0.448 1-1v-6c0-0.552-0.448-1-1-1z"></path>
</symbol>
<symbol id="icon-minus" viewBox="0 0 32 32">
<title>minus</title>
<path d="M0 13v6c0 0.552 0.448 1 1 1h30c0.552 0 1-0.448 1-1v-6c0-0.552-0.448-1-1-1h-30c-0.552 0-1 0.448-1 1z"></path>
</symbol>
<symbol id="icon-check" viewBox="0 0 32 32">
<title>check</title>
<path d="M27 4l-15 15-7-7-5 5 12 12 20-20z"></path>
</symbol>
</defs>
</svg>
