<svg id="Layer_1" data-name="Layer 1" xmlns="http://www.w3.org/2000/svg" viewBox="0 0 568 568">
  <title>Artboard 1</title>
  <circle cx="284" cy="284" r="284" fill="#80bfff" stroke="#fff" stroke-miterlimit="10"/>
  <path d="M455.79,338.85c4.8,2.1,7,6.1,6.7,12.1s-4.4,15.6-12.3,29c-7.9,13.7-14.3,22.1-19.3,25.2s-9.5,3.1-13.6,0L308,325.55l14.4,134.5c1,5.1-1.2,9.1-6.7,11.8s-16.1,4.1-31.8,4.1-26.4-1.4-31.8-4.1-7.7-6.7-6.7-11.8l14.4-134.5-108.9,79.6c-4.1,3.1-8.7,3.1-13.9,0s-11.6-11.5-19.5-25.2c-7.9-13.3-11.9-23-12.1-29s2.1-10,6.9-12.1L236.09,284l-123.6-54.4q-7.2-3.6-6.9-12.6c.2-6,4.2-15.7,12.1-29s14.4-21.5,19.5-24.6,9.7-3.1,13.9,0l108.8,79.1-14.4-134c-1.1-5.5,1.2-9.6,6.7-12.3S268.29,92,284,92s26.3,1.4,31.8,4.1,7.7,6.8,6.7,12.3l-14.4,134,109.3-79.1c4.1-3.1,8.6-3.1,13.6,0s11.4,11.5,19.3,25.2q11.85,19.5,12.3,28.5t-6.6,12.6L332.09,284Z" fill="#3f3f3f"/>
</svg>
