<?xml version="1.0" encoding="utf-8"?>
<!-- Generator: Adobe Illustrator 16.0.3, SVG Export Plug-In . SVG Version: 6.00 Build 0)  -->
<!DOCTYPE svg PUBLIC "-//W3C//DTD SVG 1.1//EN" "http://www.w3.org/Graphics/SVG/1.1/DTD/svg11.dtd">
<svg version="1.1" id="svg1415" xmlns:svg="http://www.w3.org/2000/svg"
	 xmlns="http://www.w3.org/2000/svg" xmlns:xlink="http://www.w3.org/1999/xlink" x="0px" y="0px" width="302px" height="302px"
	 viewBox="0.583 23 302 302" enable-background="new 0.583 23 302 302" xml:space="preserve">
<g id="layer1">
	<g id="g1590" transform="translate(-309.1428,35.85211)">
		<text id="text3" transform="matrix(1 0 0 1 315.2204 151.9682)" font-family="'ArialMT'" font-size="10.4608">-6</text>

			<line id="line5" fill="none" stroke="#aaa" stroke-width="0.797" stroke-linecap="square" stroke-miterlimit="10" x1="311.906" y1="286.923" x2="311.906" y2="-10.711"/>
		<text id="text7" transform="matrix(1 0 0 1 340.0246 151.9682)" font-family="'ArialMT'" font-size="10.4608">-5</text>

			<line id="line9" fill="none" stroke="#aaa" stroke-width="0.797" stroke-linecap="square" stroke-miterlimit="10" x1="336.712" y1="286.923" x2="336.712" y2="-10.711"/>
		<text id="text11" transform="matrix(1 0 0 1 364.8274 151.9682)" font-family="'ArialMT'" font-size="10.4608">-4</text>

			<line id="line13" fill="none" stroke="#aaa" stroke-width="0.797" stroke-linecap="square" stroke-miterlimit="10" x1="361.514" y1="286.923" x2="361.514" y2="-10.711"/>
		<text id="text15" transform="matrix(1 0 0 1 389.6306 151.9682)" font-family="'ArialMT'" font-size="10.4608">-3</text>

			<line id="line17" fill="none" stroke="#aaa" stroke-width="0.797" stroke-linecap="square" stroke-miterlimit="10" x1="386.318" y1="286.923" x2="386.318" y2="-10.711"/>
		<text id="text19" transform="matrix(1 0 0 1 414.4328 151.9682)" font-family="'ArialMT'" font-size="10.4608">-2</text>

			<line id="line21" fill="none" stroke="#aaa" stroke-width="0.797" stroke-linecap="square" stroke-miterlimit="10" x1="411.119" y1="286.923" x2="411.119" y2="-10.711"/>
		<text id="text23" transform="matrix(1 0 0 1 439.2356 151.9682)" font-family="'ArialMT'" font-size="10.4608">-1</text>

			<line id="line25" fill="none" stroke="#aaa" stroke-width="0.797" stroke-linecap="square" stroke-miterlimit="10" x1="435.925" y1="286.923" x2="435.925" y2="-10.711"/>
		<text id="text27" transform="matrix(1 0 0 1 475.2854 151.9682)" font-family="'ArialMT'" font-size="10.4608">1</text>

			<line id="line29" fill="none" stroke="#aaa" stroke-width="0.797" stroke-linecap="square" stroke-miterlimit="10" x1="485.53" y1="286.923" x2="485.53" y2="-10.711"/>
		<text id="text31" transform="matrix(1 0 0 1 500.0891 151.9682)" font-family="'ArialMT'" font-size="10.4608">2</text>

			<line id="line33" fill="none" stroke="#aaa" stroke-width="0.797" stroke-linecap="square" stroke-miterlimit="10" x1="510.332" y1="286.923" x2="510.332" y2="-10.711"/>
		<text id="text35" transform="matrix(1 0 0 1 524.8918 151.9682)" font-family="'ArialMT'" font-size="10.4608">3</text>

			<line id="line37" fill="none" stroke="#aaa" stroke-width="0.797" stroke-linecap="square" stroke-miterlimit="10" x1="535.135" y1="286.923" x2="535.135" y2="-10.711"/>
		<text id="text39" transform="matrix(1 0 0 1 549.6965 151.9682)" font-family="'ArialMT'" font-size="10.4608">4</text>

			<line id="line41" fill="none" stroke="#aaa" stroke-width="0.797" stroke-linecap="square" stroke-miterlimit="10" x1="559.942" y1="286.923" x2="559.942" y2="-10.711"/>
		<text id="text43" transform="matrix(1 0 0 1 574.4983 151.9682)" font-family="'ArialMT'" font-size="10.4608">5</text>

			<line id="line45" fill="none" stroke="#aaa" stroke-width="0.797" stroke-linecap="square" stroke-miterlimit="10" x1="584.742" y1="286.923" x2="584.742" y2="-10.711"/>
		<text id="text47" transform="matrix(1 0 0 1 599.301 151.9682)" font-family="'ArialMT'" font-size="10.4608">6</text>

			<line id="line49" fill="none" stroke="#aaa" stroke-width="0.797" stroke-linecap="square" stroke-miterlimit="10" x1="609.546" y1="286.923" x2="609.546" y2="-10.711"/>
		<text id="text51" transform="matrix(1 0 0 1 445.0134 283.6108)" font-family="'ArialMT'" font-size="10.4608">-6</text>

			<line id="line53" fill="none" stroke="#aaa" stroke-width="0.797" stroke-linecap="square" stroke-miterlimit="10" x1="311.906" y1="286.923" x2="609.546" y2="286.923"/>
		<text id="text55" transform="matrix(1 0 0 1 445.0134 258.808)" font-family="'ArialMT'" font-size="10.4608">-5</text>

			<line id="line57" fill="none" stroke="#aaa" stroke-width="0.797" stroke-linecap="square" stroke-miterlimit="10" x1="311.906" y1="262.122" x2="609.546" y2="262.122"/>
		<text id="text59" transform="matrix(1 0 0 1 445.0134 234.0053)" font-family="'ArialMT'" font-size="10.4608">-4</text>

			<line id="line61" fill="none" stroke="#aaa" stroke-width="0.797" stroke-linecap="square" stroke-miterlimit="10" x1="311.906" y1="237.318" x2="609.546" y2="237.318"/>
		<text id="text63" transform="matrix(1 0 0 1 445.0134 209.2026)" font-family="'ArialMT'" font-size="10.4608">-3</text>

			<line id="line65" fill="none" stroke="#aaa" stroke-width="0.797" stroke-linecap="square" stroke-miterlimit="10" x1="311.906" y1="212.515" x2="609.546" y2="212.515"/>
		<text id="text67" transform="matrix(1 0 0 1 445.0134 184.3998)" font-family="'ArialMT'" font-size="10.4608">-2</text>

			<line id="line69" fill="none" stroke="#aaa" stroke-width="0.797" stroke-linecap="square" stroke-miterlimit="10" x1="311.906" y1="187.712" x2="609.546" y2="187.712"/>

			<line id="line71" fill="none" stroke="#aaa" stroke-width="0.797" stroke-linecap="square" stroke-miterlimit="10" x1="311.906" y1="162.908" x2="609.546" y2="162.908"/>
		<text id="text73" transform="matrix(1 0 0 1 448.4953 125.4858)" font-family="'ArialMT'" font-size="10.4608">1</text>

			<line id="line75" fill="none" stroke="#aaa" stroke-width="0.797" stroke-linecap="square" stroke-miterlimit="10" x1="311.906" y1="113.304" x2="609.546" y2="113.304"/>
		<text id="text77" transform="matrix(1 0 0 1 448.4953 100.6821)" font-family="'ArialMT'" font-size="10.4608">2</text>

			<line id="line79" fill="none" stroke="#aaa" stroke-width="0.797" stroke-linecap="square" stroke-miterlimit="10" x1="311.906" y1="88.5" x2="609.546" y2="88.5"/>
		<text id="text81" transform="matrix(1 0 0 1 448.4953 75.8784)" font-family="'ArialMT'" font-size="10.4608">3</text>

			<line id="line83" fill="none" stroke="#aaa" stroke-width="0.797" stroke-linecap="square" stroke-miterlimit="10" x1="311.906" y1="63.696" x2="609.546" y2="63.696"/>
		<text id="text85" transform="matrix(1 0 0 1 448.4953 51.0756)" font-family="'ArialMT'" font-size="10.4608">4</text>

			<line id="line87" fill="none" stroke="#aaa" stroke-width="0.797" stroke-linecap="square" stroke-miterlimit="10" x1="311.906" y1="38.894" x2="609.546" y2="38.894"/>
		<text id="text89" transform="matrix(1 0 0 1 448.4953 26.2729)" font-family="'ArialMT'" font-size="10.4608">5</text>

			<line id="line91" fill="none" stroke="#aaa" stroke-width="0.797" stroke-linecap="square" stroke-miterlimit="10" x1="311.906" y1="14.09" x2="609.546" y2="14.09"/>
		<text id="text93" transform="matrix(1 0 0 1 448.4953 1.4692)" font-family="'ArialMT'" font-size="10.4608">6</text>

			<line id="line95" fill="none" stroke="#aaa" stroke-width="0.797" stroke-linecap="square" stroke-miterlimit="10" x1="311.906" y1="-10.711" x2="609.546" y2="-10.711"/>
		<polyline id="polyline97" points="322.892,134.183 311.906,138.105 322.892,142.027 318.497,138.105 		"/>
		<polyline id="polyline99" points="598.561,142.027 609.546,138.105 598.561,134.183 602.953,138.105 		"/>
		<polyline id="polyline101" points="456.804,275.941 460.728,286.923 464.65,275.941 460.728,280.333 		"/>
		<polyline id="polyline103" points="464.65,0.27 460.728,-10.711 456.804,0.27 460.728,-4.122 		"/>

			<line id="line109" fill="none" stroke="#000000" stroke-width="2" stroke-miterlimit="10" x1="318.497" y1="138.105" x2="602.953" y2="138.105"/>

			<line id="line111" fill="none" stroke="#000000" stroke-width="2" stroke-miterlimit="10" x1="460.728" y1="280.333" x2="460.728" y2="-4.122"/>
	</g>
</g>
<circle fill="#231F20" cx="77.175" cy="99.548" r="2"/>
<circle fill="#231F20" cx="225.992" cy="99.548" r="2"/>
<circle fill="#231F20" cx="225.992" cy="248.367" r="2"/>
<circle fill="#231F20" cx="77.175" cy="248.367" r="2"/>
</svg>
