<svg id="Layer_3" data-name="Layer 3" xmlns="http://www.w3.org/2000/svg" viewBox="0 0 558 50">
  <title>Artboard 1</title>
  <path d="M20,26H18V0h2ZM25,0H24V10h1Zm5,0H29V10h1Zm5,0H34V10h1Zm5,0H39V10h1Zm6,0H44V18h2Zm5,0H50V10h1Zm5,0H55V10h1Zm5,0H60V10h1Zm5,0H65V10h1Zm6,0H70V26h2Zm5,0H76V10h1Zm5,0H81V10h1Zm5,0H86V10h1Zm5,0H91V10h1Zm6,0H96V18h2Zm5,0h-1V10h1Zm5,0h-1V10h1Zm5,0h-1V10h1Zm5,0h-1V10h1Zm6,0h-2V26h2Zm5,0h-1V10h1Zm5,0h-1V10h1Zm5,0h-1V10h1Zm5,0h-1V10h1Zm6,0h-2V18h2Zm5,0h-1V10h1Zm5,0h-1V10h1Zm5,0h-1V10h1Zm5,0h-1V10h1Zm6,0h-2V26h2Zm5,0h-1V10h1Zm5,0h-1V10h1Zm5,0h-1V10h1Zm5,0h-1V10h1Zm6,0h-2V18h2Zm5,0h-1V10h1Zm5,0h-1V10h1Zm5,0h-1V10h1Zm5,0h-1V10h1Zm6,0h-2V26h2Zm5,0h-1V10h1Zm5,0h-1V10h1Zm5,0h-1V10h1Zm5,0h-1V10h1Zm6,0h-2V18h2Zm5,0h-1V10h1Zm5,0h-1V10h1Zm5,0h-1V10h1Zm5,0h-1V10h1Zm6,0h-2V26h2Zm5,0h-1V10h1Zm5,0h-1V10h1Zm5,0h-1V10h1Zm5,0h-1V10h1Zm6,0h-2V18h2Zm5,0h-1V10h1Zm5,0h-1V10h1Zm5,0h-1V10h1Zm5,0h-1V10h1Zm6,0h-2V26h2Zm5,0h-1V10h1Zm5,0h-1V10h1Zm5,0h-1V10h1Zm5,0h-1V10h1Zm6,0h-2V18h2Zm5,0h-1V10h1Zm5,0h-1V10h1Zm5,0h-1V10h1Zm5,0h-1V10h1Zm6,0h-2V26h2Zm5,0h-1V10h1Zm5,0h-1V10h1Zm5,0h-1V10h1Zm5,0h-1V10h1Zm6,0h-2V18h2Zm5,0h-1V10h1Zm5,0h-1V10h1Zm5,0h-1V10h1Zm5,0h-1V10h1Zm6,0h-2V26h2Zm5,0h-1V10h1Zm5,0h-1V10h1Zm5,0h-1V10h1Zm5,0h-1V10h1Zm6,0h-2V18h2Zm5,0h-1V10h1Zm5,0h-1V10h1Zm5,0h-1V10h1Zm5,0h-1V10h1Zm6,0h-2V26h2Zm5,0h-1V10h1Zm5,0h-1V10h1Zm5,0h-1V10h1Zm5,0h-1V10h1Zm6,0h-2V18h2Zm5,0h-1V10h1Zm5,0h-1V10h1Zm5,0h-1V10h1Zm5,0h-1V10h1Zm6,0h-2V26h2ZM22.56,32.54a5.28,5.28,0,0,0-.64-1.83,3,3,0,0,0-1.18-1.12,3.91,3.91,0,0,0-1.81-.38,3.88,3.88,0,0,0-1.9.43,3.32,3.32,0,0,0-1.25,1.2,5.62,5.62,0,0,0-.69,1.86,12.55,12.55,0,0,0-.21,2.39,14.66,14.66,0,0,0,.19,2.49,5.27,5.27,0,0,0,.64,1.83,3,3,0,0,0,1.18,1.13,3.89,3.89,0,0,0,1.81.38,3.91,3.91,0,0,0,1.91-.43,3.35,3.35,0,0,0,1.25-1.2,5.49,5.49,0,0,0,.69-1.86A12.77,12.77,0,0,0,22.75,35,14.67,14.67,0,0,0,22.56,32.54Zm-1.4,3.81A7.84,7.84,0,0,1,21,37.45a4.92,4.92,0,0,1-.28.91,2.47,2.47,0,0,1-.44.71,1.8,1.8,0,0,1-.64.45,2.21,2.21,0,0,1-.87.16,2.13,2.13,0,0,1-1.08-.25,1.89,1.89,0,0,1-.73-.82,4.78,4.78,0,0,1-.42-1.46A15.11,15.11,0,0,1,16.43,35a15.31,15.31,0,0,1,.1-1.78,5.09,5.09,0,0,1,.36-1.44,2.36,2.36,0,0,1,.73-1,2,2,0,0,1,1.21-.35,2.49,2.49,0,0,1,.76.11,1.65,1.65,0,0,1,.6.35,2.15,2.15,0,0,1,.45.62,3.94,3.94,0,0,1,.31.89,9.1,9.1,0,0,1,.18,1.2q.06.68.06,1.53Q21.2,35.78,21.16,36.36ZM34.46,39a.88.88,0,0,0,0-.21.27.27,0,0,0-.07-.12.16.16,0,0,0-.11,0,.55.55,0,0,0-.29.15q-.19.15-.47.34a3.62,3.62,0,0,1-.65.35,2.26,2.26,0,0,1-.88.16,2.19,2.19,0,0,1-.94-.19,1.75,1.75,0,0,1-.69-.58,2.77,2.77,0,0,1-.43-1,5.53,5.53,0,0,1-.15-1.34,4.08,4.08,0,0,1,.56-2.33,1.83,1.83,0,0,1,1.6-.8,2.46,2.46,0,0,1,.88.14,3.36,3.36,0,0,1,.64.32,4.65,4.65,0,0,1,.44.32.51.51,0,0,0,.3.14.23.23,0,0,0,.19-.14,1,1,0,0,0,.08-.48q0-.16,0-.26a.88.88,0,0,0,0-.19.62.62,0,0,0-.07-.14,1.14,1.14,0,0,0-.15-.17,2.11,2.11,0,0,0-.34-.25,2.9,2.9,0,0,0-.53-.26,4,4,0,0,0-.65-.18,3.78,3.78,0,0,0-.73-.07,4,4,0,0,0-1.45.26,3.1,3.1,0,0,0-1.17.8,3.78,3.78,0,0,0-.78,1.38,6.26,6.26,0,0,0-.29,2,6.4,6.4,0,0,0,.23,1.81,3.74,3.74,0,0,0,.68,1.33,2.86,2.86,0,0,0,1.1.82,3.82,3.82,0,0,0,1.51.28,4,4,0,0,0,.8-.08,4.37,4.37,0,0,0,.72-.21,3.53,3.53,0,0,0,.59-.29,2.11,2.11,0,0,0,.37-.27.84.84,0,0,0,.14-.17.67.67,0,0,0,.05-.13.9.9,0,0,0,0-.18c0-.07,0-.16,0-.26A3,3,0,0,0,34.46,39Zm13.67-3.49A5.73,5.73,0,0,0,48,34.26a2.87,2.87,0,0,0-.46-1.05,2.34,2.34,0,0,0-.84-.72,2.79,2.79,0,0,0-1.28-.27,2.38,2.38,0,0,0-.63.08,2.76,2.76,0,0,0-.64.27,4.5,4.5,0,0,0-.69.48,8.16,8.16,0,0,0-.75.73,2.82,2.82,0,0,0-.35-.64,2.11,2.11,0,0,0-.51-.49,2.35,2.35,0,0,0-.69-.32,3.15,3.15,0,0,0-.88-.11,2.59,2.59,0,0,0-1.27.35,5.11,5.11,0,0,0-1.3,1.09v-1a.21.21,0,0,0,0-.12.26.26,0,0,0-.1-.09.49.49,0,0,0-.2-.05h-.65a.55.55,0,0,0-.2.05.22.22,0,0,0-.11.09.24.24,0,0,0,0,.12v7.91a.21.21,0,0,0,0,.12.24.24,0,0,0,.11.08.87.87,0,0,0,.22.05l.35,0,.36,0a.8.8,0,0,0,.22-.05.27.27,0,0,0,.11-.08.19.19,0,0,0,0-.12V35A6.6,6.6,0,0,1,39,33.87a1.67,1.67,0,0,1,1-.39,1.46,1.46,0,0,1,.7.16,1.32,1.32,0,0,1,.49.46,2.24,2.24,0,0,1,.29.71,4,4,0,0,1,.1.91v4.81a.21.21,0,0,0,0,.12.24.24,0,0,0,.11.08.88.88,0,0,0,.23.05l.35,0,.35,0a.87.87,0,0,0,.22-.05.27.27,0,0,0,.12-.08.19.19,0,0,0,0-.12V35a7,7,0,0,1,1.11-1.13,1.66,1.66,0,0,1,1-.39,1.48,1.48,0,0,1,.7.16,1.31,1.31,0,0,1,.49.46,2.11,2.11,0,0,1,.28.71,4.4,4.4,0,0,1,.09.91v4.81a.19.19,0,0,0,0,.12.27.27,0,0,0,.12.08.87.87,0,0,0,.22.05l.36,0,.35,0a.8.8,0,0,0,.22-.05.27.27,0,0,0,.11-.08.19.19,0,0,0,0-.12Zm26.68,4.35a.68.68,0,0,0-.06-.19.31.31,0,0,0-.1-.12.25.25,0,0,0-.13,0H72.46v-10a.2.2,0,0,0,0-.1.19.19,0,0,0-.11-.08l-.22,0-.35,0H71.5l-.18,0-.13,0-.09,0-2.62,1.68-.13.11a.37.37,0,0,0-.07.12.79.79,0,0,0,0,.18,2.51,2.51,0,0,0,0,.59.32.32,0,0,0,.08.19.18.18,0,0,0,.16,0,1,1,0,0,0,.27-.11L71,30.89v8.65H68.58a.23.23,0,0,0-.13,0,.33.33,0,0,0-.1.12.78.78,0,0,0-.07.19,1.23,1.23,0,0,0,0,.27,1.27,1.27,0,0,0,0,.28.54.54,0,0,0,.07.18.32.32,0,0,0,.1.1.21.21,0,0,0,.11,0h5.94a.24.24,0,0,0,.12,0,.27.27,0,0,0,.1-.1.61.61,0,0,0,.07-.18,1.27,1.27,0,0,0,0-.28A1.46,1.46,0,0,0,74.81,39.88Zm52-.06a.59.59,0,0,0-.07-.2.35.35,0,0,0-.11-.12.27.27,0,0,0-.14,0h-4.95l1.8-1.88a20.29,20.29,0,0,0,1.56-1.77,8.75,8.75,0,0,0,.9-1.4,4.41,4.41,0,0,0,.41-1.17,6.14,6.14,0,0,0,.1-1.08,3.21,3.21,0,0,0-.2-1.14,2.6,2.6,0,0,0-.61-.94,2.86,2.86,0,0,0-1-.64,4.08,4.08,0,0,0-1.45-.23,4.51,4.51,0,0,0-1,.11,6,6,0,0,0-.86.26,4.34,4.34,0,0,0-.65.31,3,3,0,0,0-.36.25.7.7,0,0,0-.14.15.66.66,0,0,0-.06.13.81.81,0,0,0,0,.17q0,.1,0,.23a2.35,2.35,0,0,0,0,.32.93.93,0,0,0,0,.21.25.25,0,0,0,.08.11.19.19,0,0,0,.11,0,.71.71,0,0,0,.33-.15A6.35,6.35,0,0,1,121,31a5.24,5.24,0,0,1,.77-.33,3.08,3.08,0,0,1,1-.15,2.18,2.18,0,0,1,.83.15,1.71,1.71,0,0,1,.6.4,1.74,1.74,0,0,1,.37.59,2,2,0,0,1,.13.72,4.37,4.37,0,0,1-.08.81,3.83,3.83,0,0,1-.34,1,7.68,7.68,0,0,1-.73,1.17,14.58,14.58,0,0,1-1.26,1.45l-2.27,2.34a1.73,1.73,0,0,0-.18.21,1.42,1.42,0,0,0-.11.2.74.74,0,0,0-.06.23,3,3,0,0,0,0,.31,1.46,1.46,0,0,0,0,.33.43.43,0,0,0,.1.2.37.37,0,0,0,.16.1.65.65,0,0,0,.22,0h6.28a.29.29,0,0,0,.15,0,.28.28,0,0,0,.11-.12.83.83,0,0,0,.06-.21,1.61,1.61,0,0,0,0-.28A1.55,1.55,0,0,0,126.79,39.82Zm51.74-3.33a2.55,2.55,0,0,0-.55-.82,3,3,0,0,0-.84-.58,3.27,3.27,0,0,0-1.08-.29v0a2.51,2.51,0,0,0,2-1.77,3.4,3.4,0,0,0,.14-1,3.14,3.14,0,0,0-.2-1.14,2.31,2.31,0,0,0-.6-.88,2.74,2.74,0,0,0-1-.57,4.33,4.33,0,0,0-1.39-.2,5,5,0,0,0-1.05.11,5.2,5.2,0,0,0-.86.26,4.42,4.42,0,0,0-.63.31,2.06,2.06,0,0,0-.34.24.71.71,0,0,0-.12.14.8.8,0,0,0-.06.14.7.7,0,0,0,0,.18c0,.07,0,.14,0,.23a3,3,0,0,0,0,.31.6.6,0,0,0,0,.18.16.16,0,0,0,.08.09l.11,0a.72.72,0,0,0,.31-.15,5.05,5.05,0,0,1,.55-.33,6.18,6.18,0,0,1,.76-.33,2.76,2.76,0,0,1,.94-.15,2.31,2.31,0,0,1,.82.14,1.59,1.59,0,0,1,.58.37,1.54,1.54,0,0,1,.34.56,2,2,0,0,1,.11.67,2.15,2.15,0,0,1-.17.87,1.89,1.89,0,0,1-.49.67,2.2,2.2,0,0,1-.78.43,3.37,3.37,0,0,1-1,.15h-1a.32.32,0,0,0-.14,0,.31.31,0,0,0-.11.1.47.47,0,0,0-.07.18,1.2,1.2,0,0,0,0,.28,1.16,1.16,0,0,0,0,.3.59.59,0,0,0,.08.18.29.29,0,0,0,.12.1.34.34,0,0,0,.14,0h1.12a4.76,4.76,0,0,1,1.25.15,2.73,2.73,0,0,1,.93.43,1.84,1.84,0,0,1,.77,1.54,2.12,2.12,0,0,1-.15.81,1.73,1.73,0,0,1-.46.65,2.13,2.13,0,0,1-.76.42,3.32,3.32,0,0,1-1,.15,4.11,4.11,0,0,1-1.11-.14,6.71,6.71,0,0,1-.87-.3,5.58,5.58,0,0,1-.61-.3.87.87,0,0,0-.32-.14.2.2,0,0,0-.18.12,1.06,1.06,0,0,0-.06.44,3.12,3.12,0,0,0,0,.31,1.18,1.18,0,0,0,0,.21.72.72,0,0,0,.06.15.53.53,0,0,0,.1.12,1.85,1.85,0,0,0,.32.2,4.11,4.11,0,0,0,.64.26,6.67,6.67,0,0,0,.88.22,5.76,5.76,0,0,0,1.07.09,5.5,5.5,0,0,0,1.69-.24,3.51,3.51,0,0,0,1.26-.69,3,3,0,0,0,.78-1.08,3.51,3.51,0,0,0,.27-1.41A2.57,2.57,0,0,0,178.52,36.49ZM231.2,37a.28.28,0,0,0-.24-.15h-1.28V29.63a.17.17,0,0,0-.07-.14.54.54,0,0,0-.21-.09l-.35-.06-.52,0h-.47a1.73,1.73,0,0,0-.33,0,.8.8,0,0,0-.22.09.4.4,0,0,0-.13.12l-4.05,6.91-.1.22a1.32,1.32,0,0,0-.07.21,1.45,1.45,0,0,0,0,.24q0,.13,0,.3a2.23,2.23,0,0,0,0,.34.43.43,0,0,0,.08.2.3.3,0,0,0,.13.1.5.5,0,0,0,.17,0h4.65v2.39a.21.21,0,0,0,0,.12.24.24,0,0,0,.12.08.92.92,0,0,0,.23.05l.36,0,.37,0,.24-.05a.28.28,0,0,0,.13-.08.19.19,0,0,0,0-.12V38.14H231a.27.27,0,0,0,.25-.17,1,1,0,0,0,.09-.46A.94.94,0,0,0,231.2,37Zm-3-.15h-3.67l3.66-6.24h0Zm54.35-1.14a2.75,2.75,0,0,0-.71-1,3.25,3.25,0,0,0-1.17-.66,5.25,5.25,0,0,0-1.64-.23h-.72a5.11,5.11,0,0,0-.61.05V30.7h4.07a.26.26,0,0,0,.24-.18,1.17,1.17,0,0,0,.08-.49,1.58,1.58,0,0,0,0-.29.63.63,0,0,0-.07-.2.31.31,0,0,0-.11-.12.27.27,0,0,0-.14,0h-5a.52.52,0,0,0-.39.14.6.6,0,0,0-.14.43v4.63a.67.67,0,0,0,.11.44.46.46,0,0,0,.35.11,5.35,5.35,0,0,0,.72-.05,7,7,0,0,1,.92-.05,5.47,5.47,0,0,1,1.3.14,2.41,2.41,0,0,1,.9.41,1.68,1.68,0,0,1,.53.69,2.54,2.54,0,0,1,.17,1,2.7,2.7,0,0,1-.2,1.1,2.05,2.05,0,0,1-.56.75,2.26,2.26,0,0,1-.85.44,3.93,3.93,0,0,1-1.08.14,4.6,4.6,0,0,1-1.09-.11,5.57,5.57,0,0,1-.77-.24,3.72,3.72,0,0,1-.5-.24.64.64,0,0,0-.27-.11.18.18,0,0,0-.11,0,.28.28,0,0,0-.08.11.61.61,0,0,0,0,.19,2.43,2.43,0,0,0,0,.27q0,.16,0,.27a.92.92,0,0,0,0,.19.75.75,0,0,0,0,.13.43.43,0,0,0,.09.11,1.28,1.28,0,0,0,.3.17,5.13,5.13,0,0,0,.61.22,6.55,6.55,0,0,0,.84.18,6.44,6.44,0,0,0,1,.08,5.52,5.52,0,0,0,1.73-.25,3.86,3.86,0,0,0,1.34-.74,3.3,3.3,0,0,0,.87-1.2,4.06,4.06,0,0,0,.31-1.63A3.62,3.62,0,0,0,282.52,35.75Zm52.42,0A2.53,2.53,0,0,0,333.35,34a4.26,4.26,0,0,0-1.56-.25,4.61,4.61,0,0,0-.81.07,5.58,5.58,0,0,0-.72.17,5.12,5.12,0,0,0-.62.24c-.19.09-.36.18-.51.26a7.67,7.67,0,0,1,.21-1.55,4.07,4.07,0,0,1,.55-1.31,2.7,2.7,0,0,1,2.37-1.23,4.43,4.43,0,0,1,.79.06,4.6,4.6,0,0,1,.58.14l.4.14a.82.82,0,0,0,.26.06.21.21,0,0,0,.13,0,.25.25,0,0,0,.08-.11.56.56,0,0,0,0-.18c0-.08,0-.17,0-.27a2,2,0,0,0,0-.21,1,1,0,0,0,0-.15.49.49,0,0,0,0-.12.31.31,0,0,0-.09-.11,1.17,1.17,0,0,0-.25-.13,3.32,3.32,0,0,0-.47-.15,6.08,6.08,0,0,0-.62-.11,5.82,5.82,0,0,0-.66,0,5,5,0,0,0-1.7.26,3.93,3.93,0,0,0-1.25.72,4,4,0,0,0-.87,1.06,6,6,0,0,0-.55,1.31,8.26,8.26,0,0,0-.28,1.44,14,14,0,0,0-.08,1.48q0,.83.07,1.55a8.32,8.32,0,0,0,.23,1.33,4.63,4.63,0,0,0,.43,1.08,2.73,2.73,0,0,0,.67.8,2.94,2.94,0,0,0,.95.5,4.1,4.1,0,0,0,1.26.18A4.25,4.25,0,0,0,333,40.6a3.34,3.34,0,0,0,1.91-2.08,4.63,4.63,0,0,0,.23-1.45A4.88,4.88,0,0,0,334.93,35.76Zm-1.49,2.36a2.41,2.41,0,0,1-.4.8,2,2,0,0,1-.69.57,2.12,2.12,0,0,1-1,.21,2.23,2.23,0,0,1-1-.2,1.64,1.64,0,0,1-.69-.66,3.79,3.79,0,0,1-.42-1.23,10.52,10.52,0,0,1-.14-1.9,3.89,3.89,0,0,1,.51-.29,4.46,4.46,0,0,1,1.21-.4,3.85,3.85,0,0,1,.65-.06,2.64,2.64,0,0,1,1,.16,1.53,1.53,0,0,1,.63.45,1.74,1.74,0,0,1,.34.71,3.89,3.89,0,0,1,.1.93A3.31,3.31,0,0,1,333.44,38.12ZM387,29.71a.62.62,0,0,0-.08-.2.23.23,0,0,0-.14-.11.78.78,0,0,0-.21,0h-6.63a.26.26,0,0,0-.14,0,.33.33,0,0,0-.11.12.76.76,0,0,0-.07.21,1.78,1.78,0,0,0,0,.29,1.16,1.16,0,0,0,.08.49.27.27,0,0,0,.25.18h5.46L381,40.35a.65.65,0,0,0-.06.2.15.15,0,0,0,.07.14.54.54,0,0,0,.24.08,3.16,3.16,0,0,0,.47,0h.39a.88.88,0,0,0,.26-.05.45.45,0,0,0,.17-.11.5.5,0,0,0,.11-.17l4.1-9.44.09-.23a1.4,1.4,0,0,0,.06-.23,2.33,2.33,0,0,0,0-.25,2.51,2.51,0,0,0,0-.29A1.56,1.56,0,0,0,387,29.71Zm52,7.2a2.81,2.81,0,0,0-.5-.79,4.15,4.15,0,0,0-.82-.7,10,10,0,0,0-1.11-.63,6.5,6.5,0,0,0,.94-.6,3.91,3.91,0,0,0,.69-.69,2.81,2.81,0,0,0,.43-.78,2.56,2.56,0,0,0,.15-.86,2.77,2.77,0,0,0-.19-1,2.17,2.17,0,0,0-.6-.84,3,3,0,0,0-1-.56,4.81,4.81,0,0,0-1.49-.21,5,5,0,0,0-1.57.22,3.17,3.17,0,0,0-1.11.61A2.47,2.47,0,0,0,432,31a2.93,2.93,0,0,0-.21,1.12,2.61,2.61,0,0,0,.14.88,2.73,2.73,0,0,0,.43.76,3.68,3.68,0,0,0,.69.66,6.51,6.51,0,0,0,.93.58,8.85,8.85,0,0,0-1.09.63,4.23,4.23,0,0,0-.81.71,2.83,2.83,0,0,0-.5.83,2.67,2.67,0,0,0-.18,1,2.73,2.73,0,0,0,.25,1.2,2.39,2.39,0,0,0,.74.89,3.42,3.42,0,0,0,1.18.54,6.14,6.14,0,0,0,1.57.18,6.27,6.27,0,0,0,1.67-.2,3.39,3.39,0,0,0,1.23-.6,2.61,2.61,0,0,0,.76-1,3.12,3.12,0,0,0,.26-1.31A2.41,2.41,0,0,0,438.9,36.91ZM437,39.27a2.64,2.64,0,0,1-1.7.47,2.76,2.76,0,0,1-1.74-.47,1.59,1.59,0,0,1-.58-1.32,1.81,1.81,0,0,1,.14-.71,2.17,2.17,0,0,1,.4-.61,3.69,3.69,0,0,1,.69-.56,9.4,9.4,0,0,1,1-.54q.6.29,1,.56a4.26,4.26,0,0,1,.76.55,2,2,0,0,1,.45.62,1.76,1.76,0,0,1,.15.73A1.57,1.57,0,0,1,437,39.27Zm-.27-6.05a4.46,4.46,0,0,1-1.36,1,10.21,10.21,0,0,1-.91-.52,3.59,3.59,0,0,1-.63-.51,1.8,1.8,0,0,1-.37-.56,1.7,1.7,0,0,1-.12-.64,1.49,1.49,0,0,1,.49-1.18,2.11,2.11,0,0,1,1.44-.43,2.84,2.84,0,0,1,.83.11,1.64,1.64,0,0,1,.61.32,1.36,1.36,0,0,1,.37.51,1.67,1.67,0,0,1,.13.67A1.83,1.83,0,0,1,436.7,33.22Zm54.12-.09a7.69,7.69,0,0,0-.25-1.31,4.55,4.55,0,0,0-.45-1.08,3.11,3.11,0,0,0-.69-.82,2.84,2.84,0,0,0-1-.52,4,4,0,0,0-1.26-.18,4.37,4.37,0,0,0-1.72.31,3.22,3.22,0,0,0-1.87,2,4.66,4.66,0,0,0-.22,1.44,5,5,0,0,0,.17,1.34,2.72,2.72,0,0,0,.56,1.06,2.67,2.67,0,0,0,1,.71,4.29,4.29,0,0,0,1.6.26,4.84,4.84,0,0,0,1.49-.21,5.7,5.7,0,0,0,1.12-.48,6.54,6.54,0,0,1-.21,1.54,4,4,0,0,1-.58,1.28,2.84,2.84,0,0,1-1,.88,3,3,0,0,1-1.46.33,4.42,4.42,0,0,1-.81-.07,5.86,5.86,0,0,1-.63-.14l-.44-.14a.82.82,0,0,0-.27-.07l-.12,0a.16.16,0,0,0-.07.08.62.62,0,0,0,0,.18,2.57,2.57,0,0,0,0,.31,1.39,1.39,0,0,0,0,.36.46.46,0,0,0,.13.22,1,1,0,0,0,.28.16,3.45,3.45,0,0,0,.48.15,6.42,6.42,0,0,0,.64.12,5.63,5.63,0,0,0,.73,0,5.26,5.26,0,0,0,1.73-.26,4,4,0,0,0,2.18-1.79,6,6,0,0,0,.57-1.31,8.39,8.39,0,0,0,.3-1.46,12.93,12.93,0,0,0,.09-1.49A14,14,0,0,0,490.82,33.13ZM488.3,35a4.11,4.11,0,0,1-1.27.2,2.55,2.55,0,0,1-1-.16,1.59,1.59,0,0,1-.64-.46,1.83,1.83,0,0,1-.36-.73,3.79,3.79,0,0,1-.11-.95,3.34,3.34,0,0,1,.12-.91,2.4,2.4,0,0,1,.38-.79,1.89,1.89,0,0,1,.66-.55,2.11,2.11,0,0,1,1-.21,2.15,2.15,0,0,1,1,.21,1.77,1.77,0,0,1,.71.69,3.77,3.77,0,0,1,.44,1.24,10.13,10.13,0,0,1,.15,1.89A3.73,3.73,0,0,1,488.3,35Zm50,4.91a.68.68,0,0,0-.06-.19.32.32,0,0,0-.1-.12.25.25,0,0,0-.13,0H535.9v-10a.2.2,0,0,0,0-.1.19.19,0,0,0-.11-.08l-.22,0-.35,0h-.26l-.18,0-.13,0-.09,0-2.62,1.68-.13.11a.39.39,0,0,0-.07.12.74.74,0,0,0,0,.18,1.91,1.91,0,0,0,0,.25,2.22,2.22,0,0,0,0,.33.33.33,0,0,0,.08.19.18.18,0,0,0,.16,0,1,1,0,0,0,.27-.11l2.2-1.31v8.65H532a.23.23,0,0,0-.13,0,.32.32,0,0,0-.1.12.74.74,0,0,0-.07.19,1.23,1.23,0,0,0,0,.27,1.27,1.27,0,0,0,0,.28.56.56,0,0,0,.07.18.33.33,0,0,0,.1.1.21.21,0,0,0,.11,0H538a.23.23,0,0,0,.12,0,.26.26,0,0,0,.1-.1.61.61,0,0,0,.07-.18,1.27,1.27,0,0,0,0-.28A1.38,1.38,0,0,0,538.25,39.88Zm9.31-7.33a5.3,5.3,0,0,0-.64-1.83,3,3,0,0,0-1.18-1.12,4.47,4.47,0,0,0-3.71,0,3.32,3.32,0,0,0-1.25,1.2,5.62,5.62,0,0,0-.69,1.86,12.55,12.55,0,0,0-.21,2.39,14.55,14.55,0,0,0,.19,2.49,5.25,5.25,0,0,0,.64,1.83,3,3,0,0,0,1.18,1.13,4.47,4.47,0,0,0,3.71,0,3.36,3.36,0,0,0,1.25-1.2,5.53,5.53,0,0,0,.69-1.86,12.86,12.86,0,0,0,.21-2.39A14.77,14.77,0,0,0,547.56,32.54Zm-1.4,3.81a7.69,7.69,0,0,1-.14,1.09,4.92,4.92,0,0,1-.28.91,2.49,2.49,0,0,1-.44.71,1.81,1.81,0,0,1-.64.45,2.2,2.2,0,0,1-.87.16,2.12,2.12,0,0,1-1.08-.25,1.9,1.9,0,0,1-.73-.82,4.81,4.81,0,0,1-.42-1.46,15.11,15.11,0,0,1-.13-2.17,15.31,15.31,0,0,1,.1-1.78,5.12,5.12,0,0,1,.36-1.44,2.37,2.37,0,0,1,.73-1,2,2,0,0,1,1.21-.35,2.48,2.48,0,0,1,.76.11,1.64,1.64,0,0,1,.6.35,2.13,2.13,0,0,1,.45.62,3.93,3.93,0,0,1,.31.89,9.27,9.27,0,0,1,.18,1.2q.06.68.06,1.53Q546.2,35.78,546.16,36.36Z"/>
</svg>
