<svg xmlns="http://www.w3.org/2000/svg" xmlns:xlink="http://www.w3.org/1999/xlink" viewBox="0 0 344.5 93">
  <defs>
    <filter id="TableDropShadow" x="-20" y="-20" width="200" height="200" name="TableDropShadow">
      <feGaussianBlur stdDeviation="3.8" in="SourceAlpha"/>
      <feOffset result="offsetblur" dy="4"/>
      <feFlood flood-opacity="0.18"/>
      <feComposite operator="in" in="offsetblur"/>
      <feMerge>
        <feMergeNode/>
        <feMergeNode in="SourceGraphic"/>
      </feMerge>
    </filter>
    <linearGradient id="linear-gradient" x1="53.01" y1="61.22" x2="101.12" y2="61.22" gradientTransform="matrix(1, 0, 0, -1, 0, 108)" gradientUnits="userSpaceOnUse">
      <stop offset="0" stop-color="#4f4f52" stop-opacity="0.5"/>
      <stop offset="0.26" stop-color="#4b4c4e" stop-opacity="0.37"/>
      <stop offset="0.5" stop-color="#414143" stop-opacity="0.25"/>
      <stop offset="0.72" stop-color="#2f2f31" stop-opacity="0.14"/>
      <stop offset="0.95" stop-color="#151617" stop-opacity="0.03"/>
      <stop offset="1" stop-color="#0e0f0f" stop-opacity="0"/>
    </linearGradient>
    <linearGradient id="linear-gradient-2" x1="77.25" y1="72.22" x2="77.04" y2="54.22" gradientTransform="matrix(1, 0, 0, -1, 0, 108)" gradientUnits="userSpaceOnUse">
      <stop offset="0" stop-color="#2e2e2e" stop-opacity="0"/>
      <stop offset="0.09" stop-color="#373738" stop-opacity="0.12"/>
      <stop offset="0.3" stop-color="#49494b" stop-opacity="0.4"/>
      <stop offset="0.44" stop-color="#4f4f52" stop-opacity="0.6"/>
      <stop offset="0.57" stop-color="#4b4b4e" stop-opacity="0.46"/>
      <stop offset="0.69" stop-color="#414143" stop-opacity="0.33"/>
      <stop offset="0.81" stop-color="#2f2f31" stop-opacity="0.2"/>
      <stop offset="0.92" stop-color="#161617" stop-opacity="0.08"/>
      <stop offset="1" stop-opacity="0"/>
    </linearGradient>
    <linearGradient id="linear-gradient-3" x1="159.53" y1="74.58" x2="159.25" y2="50.91" xlink:href="#linear-gradient-2"/>
    <linearGradient id="linear-gradient-4" x1="107.75" y1="60.97" x2="210.91" y2="60.97" gradientTransform="matrix(1, 0, 0, -1, 0, 108)" gradientUnits="userSpaceOnUse">
      <stop offset="0" stop-color="#4f4f52" stop-opacity="0.5"/>
      <stop offset="0.16" stop-color="#4b4c4e" stop-opacity="0.37"/>
      <stop offset="0.31" stop-color="#414143" stop-opacity="0.25"/>
      <stop offset="0.46" stop-color="#2f2f31" stop-opacity="0.14"/>
      <stop offset="0.6" stop-color="#151617" stop-opacity="0.03"/>
      <stop offset="0.63" stop-color="#0e0f0f" stop-opacity="0"/>
      <stop offset="1" stop-opacity="0.7"/>
    </linearGradient>
    <linearGradient id="linear-gradient-5" x1="207.57" y1="62.68" x2="313.07" y2="62.68" xlink:href="#linear-gradient"/>
    <linearGradient id="linear-gradient-6" x1="260.41" y1="75.64" x2="260.15" y2="53.2" xlink:href="#linear-gradient-2"/>
    <linearGradient id="linear-gradient-7" x1="215.44" y1="65.77" x2="304.73" y2="65.77" gradientTransform="matrix(1, 0, 0, -1, 0, 108)" gradientUnits="userSpaceOnUse">
      <stop offset="0" stop-color="#fff" stop-opacity="0"/>
      <stop offset="0.04" stop-color="#ececec" stop-opacity="0.02"/>
      <stop offset="0.13" stop-color="#bababa" stop-opacity="0.06"/>
      <stop offset="0.26" stop-color="#696969" stop-opacity="0.13"/>
      <stop offset="0.41" stop-opacity="0.2"/>
    </linearGradient>
    <linearGradient id="linear-gradient-8" x1="260.05" y1="69.58" x2="260.13" y2="61.77" gradientTransform="matrix(1, 0, 0, -1, 0, 108)" gradientUnits="userSpaceOnUse">
      <stop offset="0" stop-opacity="0.1"/>
      <stop offset="0.01" stop-color="#2c2c2c" stop-opacity="0.1"/>
      <stop offset="0.02" stop-color="#585858" stop-opacity="0.09"/>
      <stop offset="0.03" stop-color="gray" stop-opacity="0.08"/>
      <stop offset="0.04" stop-color="#a3a3a3" stop-opacity="0.08"/>
      <stop offset="0.05" stop-color="#bfbfbf" stop-opacity="0.07"/>
      <stop offset="0.06" stop-color="#d7d7d7" stop-opacity="0.06"/>
      <stop offset="0.07" stop-color="#e9e9e9" stop-opacity="0.05"/>
      <stop offset="0.09" stop-color="#f6f6f6" stop-opacity="0.04"/>
      <stop offset="0.11" stop-color="#fdfdfd" stop-opacity="0.03"/>
      <stop offset="0.16" stop-color="#fff" stop-opacity="0"/>
      <stop offset="0.44" stop-color="#fff" stop-opacity="0.4"/>
      <stop offset="0.57" stop-color="#d4d4d4" stop-opacity="0.2"/>
      <stop offset="0.63" stop-color="#bdbdbd" stop-opacity="0.09"/>
      <stop offset="0.73" stop-color="#8e8e8e" stop-opacity="0.12"/>
      <stop offset="0.95" stop-color="#181818" stop-opacity="0.19"/>
      <stop offset="1" stop-opacity="0.2"/>
    </linearGradient>
    <linearGradient id="linear-gradient-9" x1="99.41" y1="61.01" x2="110.24" y2="61.01" xlink:href="#linear-gradient-7"/>
    <linearGradient id="linear-gradient-10" x1="104.66" y1="72.39" x2="104.87" y2="50.6" xlink:href="#linear-gradient-8"/>
    <linearGradient id="linear-gradient-11" x1="31.43" y1="60.47" x2="38.16" y2="60.47" xlink:href="#linear-gradient-7"/>
    <linearGradient id="linear-gradient-12" x1="34.77" y1="62.79" x2="34.81" y2="58.33" gradientTransform="matrix(1, 0, 0, -1, 0, 108)" gradientUnits="userSpaceOnUse">
      <stop offset="0" stop-opacity="0.1"/>
      <stop offset="0.01" stop-color="#2c2c2c" stop-opacity="0.1"/>
      <stop offset="0.02" stop-color="#585858" stop-opacity="0.09"/>
      <stop offset="0.03" stop-color="gray" stop-opacity="0.08"/>
      <stop offset="0.04" stop-color="#a3a3a3" stop-opacity="0.08"/>
      <stop offset="0.05" stop-color="#bfbfbf" stop-opacity="0.07"/>
      <stop offset="0.06" stop-color="#d7d7d7" stop-opacity="0.06"/>
      <stop offset="0.07" stop-color="#e9e9e9" stop-opacity="0.05"/>
      <stop offset="0.09" stop-color="#f6f6f6" stop-opacity="0.04"/>
      <stop offset="0.11" stop-color="#fdfdfd" stop-opacity="0.03"/>
      <stop offset="0.16" stop-color="#fff" stop-opacity="0"/>
      <stop offset="0.44" stop-color="#fff" stop-opacity="0.1"/>
      <stop offset="0.57" stop-color="#d4d4d4" stop-opacity="0.1"/>
      <stop offset="0.63" stop-color="#bdbdbd" stop-opacity="0.09"/>
      <stop offset="0.73" stop-color="#8e8e8e" stop-opacity="0.12"/>
      <stop offset="0.95" stop-color="#181818" stop-opacity="0.19"/>
      <stop offset="1" stop-opacity="0.2"/>
    </linearGradient>
    <linearGradient id="linear-gradient-13" x1="36.9" y1="60.48" x2="56.45" y2="60.48" gradientTransform="matrix(1, 0, 0, -1, 0, 108)" gradientUnits="userSpaceOnUse">
      <stop offset="0" stop-color="#fff" stop-opacity="0"/>
      <stop offset="0.05" stop-color="#ececec" stop-opacity="0.01"/>
      <stop offset="0.17" stop-color="#bababa" stop-opacity="0.03"/>
      <stop offset="0.33" stop-color="#696969" stop-opacity="0.06"/>
      <stop offset="0.52" stop-opacity="0.1"/>
      <stop offset="1" stop-opacity="0.5"/>
    </linearGradient>
    <linearGradient id="linear-gradient-14" x1="46.56" y1="67.02" x2="46.68" y2="54.38" xlink:href="#linear-gradient-8"/>
  </defs>
  <title>Artboard 1</title>
  <rect width="344.5" height="93" rx="8.75" ry="8.75" style="fill: #fff"/>
  <g id="Drop_Shadow">
    <g style="filter: url(#TableDropShadow)">
      <path d="M307.24,36.94c-4.17-.83-51.17-3.33-57.5-3.33-4.29,0-21.45-.23-32.52-.22-4.63,0-8.38,0-10,.13a.65.65,0,0,0-.27.08h0c-.45,0-.81,1.16-1,1.8l-96-1h0a1.19,1.19,0,0,0-1.29.33c-.67.63-1,1.63-1.47,1.93a12.53,12.53,0,0,1-3.16.45c-.67,0-1.28-.55-1.86-.59a7.05,7.05,0,0,0-2.06.63v0L57,40.37c-.43-.1-1-.19-1-.19l0,0-19,4.73a10.71,10.71,0,0,0-4.5,1h0l-.27.17h0l-.09.08a2.41,2.41,0,0,0-.36.35l-.07.08,0,.07-.12.17,0,0,0,0a1.18,1.18,0,0,0-.09.25v0c0,.05,0,.1,0,.14s0,.15,0,.15a.06.06,0,0,1,0,0v.05s0,0,0,.05,0,0,0,0,0,0,0,0a1,1,0,0,0,.1.4v0a1.19,1.19,0,0,0,.14.21h0a1.34,1.34,0,0,0,.24.22h0a1.8,1.8,0,0,0,.42.23h0l.27.14h0A17.47,17.47,0,0,0,36.9,50.1v.09s16.39,4.65,19.56,4.65l-.06-.26.12.29,1.37-.29,42.31,1.78h0a6.71,6.71,0,0,0,1.71,1,3.77,3.77,0,0,0,1.58-.25,22.73,22.73,0,0,1,3.67.33,35.68,35.68,0,0,1,3.08,2.17l95.62-3.73s.95,1.18,1.89,1.18h0a.65.65,0,0,0,.28.07c1.85,0,7.16.12,14.28.12,10.82,0,26.3-.19,40.09-1.13,24.33-1.67,45.56-4,46.5-4.5,1.94-1,4.17-2.57,4.17-6.18C313.07,41.52,311.41,37.78,307.24,36.94Z" style="fill: #fff"/>
    </g>
  </g>
  <g id="Pen">
    <path d="M56.52,54.88s-2.83-6.77-3-8.54,2.53-6.16,2.53-6.16a12.72,12.72,0,0,1,1.46.33c.52.28-.11.92-.14,2s.72,12.05.72,12.05Z" style="fill: #1c1c1c"/>
    <path d="M206.94,33.6c-.62,0-1.08,2.22-1.08,2.22V55.88s.95,1.18,1.89,1.18a6.8,6.8,0,0,0,2.52-1s1.25-17.33,1.25-17.46S210,35.86,210,35.86,207.56,33.6,206.94,33.6Z" style="fill: #262626"/>
    <g>
      <path d="M56.47,40.41l44.65-3.26V56.4L56.49,54.53l-3.12-3.87S51.47,41.66,56.47,40.41Z"/>
      <path d="M56.47,40.41l44.65-3.26V56.4L56.49,54.53l-3.12-3.87S51.47,41.66,56.47,40.41Z" style="fill: url(#linear-gradient)"/>
      <path d="M56.47,40.41l44.65-3.26V56.4L56.49,54.53l-3.12-3.87S51.47,41.66,56.47,40.41Z" style="fill: url(#linear-gradient-2)"/>
    </g>
    <g>
      <path d="M109.41,34.44l100.67,1,.83,20.33h-2.5l-98.17,3.83A39.54,39.54,0,0,1,109.41,34.44Z"/>
      <path d="M109.41,34.44l100.67,1,.83,20.33h-2.5l-98.17,3.83A39.54,39.54,0,0,1,109.41,34.44Z" style="fill: url(#linear-gradient-3)"/>
      <path d="M109.41,34.44l100.67,1,.83,20.33h-2.5l-98.17,3.83A39.54,39.54,0,0,1,109.41,34.44Z" style="fill: url(#linear-gradient-4)"/>
    </g>
    <path d="M207.22,33.52a.65.65,0,0,0-.59.83,40.52,40.52,0,0,1,1.61,10.26,115.26,115.26,0,0,1-.83,11.79.64.64,0,0,0,.63.72c4.65.09,31.09.5,53.2-1,24.33-1.67,45.56-4,46.5-4.5,1.94-1,4.17-2.57,4.17-6.18,0-3.9-1.67-7.65-5.83-8.48s-51.17-3.33-57.5-3.33C242.7,33.61,212.71,33.18,207.22,33.52Z" style="fill: #262626"/>
    <g>
      <path d="M207.57,33.61a41.58,41.58,0,0,1,1.83,11,120.7,120.7,0,0,1-.92,12.5s29.58.67,53.92-1,45.56-4,46.5-4.5c1.94-1,4.17-2.57,4.17-6.18,0-3.9-1.67-7.65-5.83-8.48s-51.17-3.33-57.5-3.33S209.07,33.11,207.57,33.61Z"/>
      <path d="M207.57,33.61a41.58,41.58,0,0,1,1.83,11,120.7,120.7,0,0,1-.92,12.5s29.58.67,53.92-1,45.56-4,46.5-4.5c1.94-1,4.17-2.57,4.17-6.18,0-3.9-1.67-7.65-5.83-8.48s-51.17-3.33-57.5-3.33S209.07,33.11,207.57,33.61Z" style="fill: url(#linear-gradient-5)"/>
      <path d="M207.57,33.61a41.58,41.58,0,0,1,1.83,11,120.7,120.7,0,0,1-.92,12.5s29.58.67,53.92-1,45.56-4,46.5-4.5c1.94-1,4.17-2.57,4.17-6.18,0-3.9-1.67-7.65-5.83-8.48s-51.17-3.33-57.5-3.33S209.07,33.11,207.57,33.61Z" style="fill: url(#linear-gradient-6)"/>
    </g>
    <path d="M216.41,44.41s-2.17-3.33,0-4,23-1.17,23-1.17l43.17-.83s18.27,1,18.83,1.17,2.5.38,3,1.83.83,4.79-2.33,5.56-17.67,0-17.67,0l-50.17-2.06a5.76,5.76,0,0,1-2.83,1c-1.67.13-13.17,0-13.17,0A4.22,4.22,0,0,1,216.41,44.41Z" style="fill: #1a1a1a"/>
    <g>
      <path d="M216.41,43.78s-2.17-3.33,0-4,23-1.17,23-1.17l43.17-.83s18.27,1,18.83,1.17,2.5.38,3,1.83.83,4.79-2.33,5.56-17.67,0-17.67,0l-50.17-2.06a5.76,5.76,0,0,1-2.83,1c-1.67.13-13.17,0-13.17,0A4.23,4.23,0,0,1,216.41,43.78Z" style="fill: #e6e6e6"/>
      <path d="M216.41,43.78s-2.17-3.33,0-4,23-1.17,23-1.17l43.17-.83s18.27,1,18.83,1.17,2.5.38,3,1.83.83,4.79-2.33,5.56-17.67,0-17.67,0l-50.17-2.06a5.76,5.76,0,0,1-2.83,1c-1.67.13-13.17,0-13.17,0A4.23,4.23,0,0,1,216.41,43.78Z" style="fill: url(#linear-gradient-7)"/>
      <path d="M216.41,43.78s-2.17-3.33,0-4,23-1.17,23-1.17l43.17-.83s18.27,1,18.83,1.17,2.5.38,3,1.83.83,4.79-2.33,5.56-17.67,0-17.67,0l-50.17-2.06a5.76,5.76,0,0,1-2.83,1c-1.67.13-13.17,0-13.17,0A4.23,4.23,0,0,1,216.41,43.78Z" style="fill: url(#linear-gradient-8)"/>
    </g>
    <g>
      <path d="M100.16,37.19a7,7,0,0,1,2.06-.63c.58,0,1.19.63,1.86.59a12.49,12.49,0,0,0,3.16-.45c.49-.29.8-1.3,1.47-1.93a1.19,1.19,0,0,1,1.29-.33s-.64,11.37-.39,13.79.64,11.37.64,11.37a35.68,35.68,0,0,0-3.08-2.17,22.72,22.72,0,0,0-3.67-.33,3.77,3.77,0,0,1-1.58.25,6.71,6.71,0,0,1-1.71-1s-.79-7.59-.79-10.42S100.16,37.19,100.16,37.19Z" style="fill: #e6e6e6"/>
      <path d="M100.16,37.19a7,7,0,0,1,2.06-.63c.58,0,1.19.63,1.86.59a12.49,12.49,0,0,0,3.16-.45c.49-.29.8-1.3,1.47-1.93a1.19,1.19,0,0,1,1.29-.33s-.64,11.37-.39,13.79.64,11.37.64,11.37a35.68,35.68,0,0,0-3.08-2.17,22.72,22.72,0,0,0-3.67-.33,3.77,3.77,0,0,1-1.58.25,6.71,6.71,0,0,1-1.71-1s-.79-7.59-.79-10.42S100.16,37.19,100.16,37.19Z" style="fill: url(#linear-gradient-9)"/>
      <path d="M100.16,37.19a7,7,0,0,1,2.06-.63c.58,0,1.19.63,1.86.59a12.49,12.49,0,0,0,3.16-.45c.49-.29.8-1.3,1.47-1.93a1.19,1.19,0,0,1,1.29-.33s-.64,11.37-.39,13.79.64,11.37.64,11.37a35.68,35.68,0,0,0-3.08-2.17,22.72,22.72,0,0,0-3.67-.33,3.77,3.77,0,0,1-1.58.25,6.71,6.71,0,0,1-1.71-1s-.79-7.59-.79-10.42S100.16,37.19,100.16,37.19Z" style="fill: url(#linear-gradient-10)"/>
    </g>
    <g>
      <path d="M31.43,47.68c0-2.75,5.65-2.74,5.65-2.74l1.08,2.58L37,50.11S31.43,49.35,31.43,47.68Z" style="fill: #bdbdbd"/>
      <path d="M31.43,47.68c0-2.75,5.65-2.74,5.65-2.74l1.08,2.58L37,50.11S31.43,49.35,31.43,47.68Z" style="fill: url(#linear-gradient-11)"/>
      <path d="M31.43,47.68c0-2.75,5.65-2.74,5.65-2.74l1.08,2.58L37,50.11S31.43,49.35,31.43,47.68Z" style="fill: url(#linear-gradient-12)"/>
    </g>
    <g>
      <path d="M37.07,44.94l-.18,5.24s16.39,4.65,19.55,4.65c0,0-1.21-5.48-1.38-7.81s1.08-6.83,1.08-6.83Z" style="fill: #e6e6e6"/>
      <path d="M37.07,44.94l-.18,5.24s16.39,4.65,19.55,4.65c0,0-1.21-5.48-1.38-7.81s1.08-6.83,1.08-6.83Z" style="fill: url(#linear-gradient-13)"/>
      <path d="M37.07,44.94l-.18,5.24s16.39,4.65,19.55,4.65c0,0-1.21-5.48-1.38-7.81s1.08-6.83,1.08-6.83Z" style="fill: url(#linear-gradient-14)"/>
    </g>
    <path d="M206.92,35.41s1.67,6.53,1.31,10.36-.75,10-.75,10" style="fill: none;stroke: #1c1c1c;stroke-linecap: round;stroke-miterlimit: 10;stroke-width: 0.25px"/>
    <path d="M56.09,40.43s-1.16,4.14-1,5.91,1.46,8.29,1.46,8.29" style="fill: none;stroke: #1c1c1c;stroke-linecap: round;stroke-miterlimit: 10;stroke-width: 0.5px"/>
    <path d="M37.07,44.94a25.26,25.26,0,0,1,0,2.58,24.7,24.7,0,0,1-.21,2.57,25,25,0,0,1,0-2.58A25.58,25.58,0,0,1,37.07,44.94Z" style="fill: #828282"/>
    <g style="opacity: 0.27000001072883606">
      <path d="M32.57,45.92a2.5,2.5,0,0,1,.67,1.5,2,2,0,0,1-.13.84,1.76,1.76,0,0,1-.48.68,3,3,0,0,0,.3-.74,2.16,2.16,0,0,0,.06-.76,3.24,3.24,0,0,0-.14-.77A6.06,6.06,0,0,0,32.57,45.92Z" style="fill: #6b6b6b"/>
    </g>
    <path d="M31.43,47.53a1.57,1.57,0,0,1,.35-.91,5.84,5.84,0,0,1,.52-.51s.69,1.71.06,2.7A1.3,1.3,0,0,1,31.43,47.53Z" style="fill: #575757"/>
    <path d="M31.43,47.59a1.73,1.73,0,0,1,.18-.74,2.8,2.8,0,0,1,.33-.41s.41,1.49,0,2.14A1.14,1.14,0,0,1,31.43,47.59Z" style="fill: #363636"/>
    <path d="M99.56,48.14s8.9,2.06,9.66,1.85c.17,0,.42-.57.42-.57l.07,2.46S99.57,53.44,99.6,53.42l4.52-2.64S99.68,49,99.56,48.14Z" style="opacity: 0.3799999952316284;isolation: isolate"/>
    <path d="M99.61,44.31a31.83,31.83,0,0,1,4.29.76c.28.25,1,0,1,0a1.75,1.75,0,0,0,.37-.32c.14-.18.6.44.6.44a6.52,6.52,0,0,1,.39-1.49,7.71,7.71,0,0,1,.39,1.49s.27-.87.46-.74a2.71,2.71,0,0,1,.44.74s.13-2.11.33-1.49.39,1.49.39,1.49.49-1.49.58-.8.14-.54.32-.8.6,5.49.6,5.49-.74,1.88-.74.25a16.33,16.33,0,0,0-.38-3.24s-.39.13-.39-.38,0,1.94-.39,1.94-.39-1.69-.39-1.69-.38.26-.61-.25-1,2.74-1,1.94,0-1.69,0-1.69-.08,1.48-.35.87-.23-.74-.73-.74-.62-.37-.89-.37-4.41,2.46-4.43,1.38S99.61,44.31,99.61,44.31Z" style="fill: #fff;opacity: 0.6000000238418579;isolation: isolate"/>
    <path d="M100.16,37.19,99.79,42a27.67,27.67,0,0,0-.07,4.77c.21,3.2.44,6.39.48,9.6-.45-3.18-.71-6.38-1-9.58A24.58,24.58,0,0,1,99.41,42C99.6,40.36,99.84,38.77,100.16,37.19Z" style="fill: #1c1c1c"/>
    <path d="M110,34.45q0,3.15,0,6.29c0,2.1-.12,4.19-.12,6.28l.26,6.29q.11,3.15.12,6.3-.3-3.14-.51-6.28L109.37,47c0-2.1.14-4.2.24-6.3S109.83,36.54,110,34.45Z" style="fill: #1c1c1c"/>
    <path d="M107.23,36.84s-.28,8.35-.24,10.6.52,10,.52,10" style="fill: none;stroke: #8f8f8f;stroke-linecap: round;stroke-width: 0.25px"/>
    <path d="M102.18,36.68s-.28,8.35-.24,10.6.52,10,.52,10" style="fill: none;stroke: #bfbfbf;stroke-linecap: round;stroke-width: 0.25px"/>
  </g>
</svg>
